mtllib Prop_Track_Sign_On_Curve_Blank.mtl
o Sign_Post
g Sign_Post
v 0.30935927 1.05000000 0.36239217
v 0.30935927 -0.15000000 0.36239217
v 0.34471461 -0.15000000 0.39774751
v 0.34471461 1.05000000 0.39774751
v 0.36239228 -0.15000000 0.38006984
v 0.36239228 1.05000000 0.38006984
v 0.32703694 1.05000000 0.34471450
v 0.32703694 -0.15000000 0.34471450
vt 0.00000000 1.00000000
vt 0.00000000 0.00000000
vt 1.00000000 0.00000000
vt 1.00000000 1.00000000
vt 0.00000000 1.00000000
vt 0.00000000 0.00000000
vt 1.00000000 0.00000000
vt 1.00000000 1.00000000
vt 0.00000000 1.00000000
vt 0.00000000 0.00000000
vt 1.00000000 0.00000000
vt 1.00000000 1.00000000
vt 0.00000000 1.00000000
vt 0.00000000 0.00000000
vt 1.00000000 0.00000000
vt 1.00000000 1.00000000
vt 0.00000000 1.00000000
vt 0.00000000 0.00000000
vt 1.00000000 0.00000000
vt 1.00000000 1.00000000
vn -0.70710679 0.00000000 0.70710677
vn -0.70710679 0.00000000 0.70710677
vn -0.70710679 0.00000000 0.70710677
vn -0.70710679 0.00000000 0.70710677
vn 0.70710677 0.00000000 0.70710679
vn 0.70710677 0.00000000 0.70710679
vn 0.70710677 0.00000000 0.70710679
vn 0.70710677 0.00000000 0.70710679
vn 0.70710679 0.00000000 -0.70710677
vn 0.70710679 0.00000000 -0.70710677
vn 0.70710679 0.00000000 -0.70710677
vn 0.70710679 0.00000000 -0.70710677
vn 0.00000000 1.00000000 0.00000000
vn 0.00000000 1.00000000 0.00000000
vn 0.00000000 1.00000000 0.00000000
vn 0.00000000 1.00000000 0.00000000
vn -0.70710677 0.00000000 -0.70710679
vn -0.70710677 0.00000000 -0.70710679
vn -0.70710677 0.00000000 -0.70710679
vn -0.70710677 0.00000000 -0.70710679
s 1
usemtl Iron_Grey
f 1/1/1 2/2/2 4/4/4
f 2/2/2 3/3/3 4/4/4
s 2
f 4/5/5 3/6/6 6/8/8
f 3/6/6 5/7/7 6/8/8
s 3
f 6/12/12 5/11/11 7/9/9
f 5/11/11 8/10/10 7/9/9
s 4
f 6/16/16 7/15/15 4/13/13
f 7/15/15 1/14/14 4/13/13
s 5
f 7/20/20 8/19/19 1/17/17
f 8/19/19 2/18/18 1/17/17
v -0.36239216 1.05000000 -0.30935928
v -0.36239216 -0.15000000 -0.30935928
v -0.34471449 -0.15000000 -0.32703695
v -0.34471449 1.05000000 -0.32703695
v -0.39774750 -0.15000000 -0.34471462
v -0.39774750 1.05000000 -0.34471462
v -0.38006983 -0.15000000 -0.36239229
v -0.38006983 1.05000000 -0.36239229
vt 0.00000000 1.00000000
vt 0.00000000 0.00000000
vt 1.00000000 0.00000000
vt 1.00000000 1.00000000
vt 0.00000000 1.00000000
vt 0.00000000 0.00000000
vt 1.00000000 0.00000000
vt 1.00000000 1.00000000
vt 0.00000000 1.00000000
vt 0.00000000 0.00000000
vt 1.00000000 0.00000000
vt 1.00000000 1.00000000
vt 0.00000000 1.00000000
vt 0.00000000 0.00000000
vt 1.00000000 0.00000000
vt 1.00000000 1.00000000
vt 0.00000000 1.00000000
vt 0.00000000 0.00000000
vt 1.00000000 0.00000000
vt 1.00000000 1.00000000
vn 0.70710677 0.00000000 0.70710679
vn 0.70710677 0.00000000 0.70710679
vn 0.70710677 0.00000000 0.70710679
vn 0.70710677 0.00000000 0.70710679
vn -0.70710679 0.00000000 0.70710677
vn -0.70710679 0.00000000 0.70710677
vn -0.70710679 0.00000000 0.70710677
vn -0.70710679 0.00000000 0.70710677
vn -0.70710677 0.00000000 -0.70710679
vn -0.70710677 0.00000000 -0.70710679
vn -0.70710677 0.00000000 -0.70710679
vn -0.70710677 0.00000000 -0.70710679
vn 0.00000000 1.00000000 0.00000000
vn 0.00000000 1.00000000 0.00000000
vn 0.00000000 1.00000000 0.00000000
vn 0.00000000 1.00000000 0.00000000
vn 0.70710679 0.00000000 -0.70710677
vn 0.70710679 0.00000000 -0.70710677
vn 0.70710679 0.00000000 -0.70710677
vn 0.70710679 0.00000000 -0.70710677
s 1
usemtl Iron_Grey
f 9/21/21 10/22/22 12/24/24
f 10/22/22 11/23/23 12/24/24
s 2
f 14/28/28 13/27/27 9/25/25
f 13/27/27 10/26/26 9/25/25
s 3
f 16/32/32 15/31/31 14/29/29
f 15/31/31 13/30/30 14/29/29
s 4
f 14/33/33 9/34/34 12/35/35
f 14/33/33 12/35/35 16/36/36
s 5
f 12/37/37 11/38/38 16/40/40
f 11/38/38 15/39/39 16/40/40
o Wide_Sign_White
g Wide_Sign_White
v -0.71594555 1.13239592 -0.69826802
v -0.70714351 1.16244796 -0.68946598
v -0.68939225 1.18755204 -0.67171472
v -0.66814225 1.20000000 -0.65046472
v 0.65046470 1.20000000 0.66814227
v 0.67171469 1.18755204 0.68939227
v 0.68946596 1.16244796 0.70714353
v 0.69826800 1.13239592 0.71594557
v 0.69826800 0.76760408 0.71594557
v 0.68946596 0.73755204 0.70714353
v 0.67171469 0.71244796 0.68939227
v 0.65046470 0.70000000 0.66814227
v -0.66814225 0.70000000 -0.65046472
v -0.68939225 0.71244796 -0.67171472
v -0.70714351 0.73755204 -0.68946598
v -0.71594555 0.76760408 -0.69826802
v -0.65046458 1.20000000 -0.66814238
v -0.67171458 1.18755204 -0.68939238
v 0.66814237 1.20000000 0.65046460
v 0.68939236 1.18755204 0.67171460
v 0.70714363 1.16244796 0.68946586
v 0.71594567 1.13239592 0.69826790
v 0.71594567 0.76760408 0.69826790
v 0.70714363 0.73755204 0.68946586
v 0.68939236 0.71244796 0.67171460
v 0.66814237 0.70000000 0.65046460
v -0.65046458 0.70000000 -0.66814238
v -0.67171458 0.71244796 -0.68939238
v -0.68946584 0.73755204 -0.70714365
v -0.69826788 0.76760408 -0.71594569
v -0.69826788 1.13239592 -0.71594569
v -0.68946584 1.16244796 -0.70714365
vt 0.00000000 0.13520815
vt 0.00622398 0.07510408
vt 0.01877602 0.02489592
vt 0.03380204 0.00000000
vt 0.96619796 0.00000000
vt 0.98122398 0.02489592
vt 0.99377602 0.07510408
vt 1.00000000 0.13520815
vt 1.00000000 0.86479185
vt 0.99377602 0.92489592
vt 0.98122398 0.97510408
vt 0.96619796 1.00000000
vt 0.03380204 1.00000000
vt 0.01877602 0.97510408
vt 0.00622398 0.92489592
vt 0.00000000 0.86479185
vt 0.00000000 1.00000000
vt 0.00000000 0.00000000
vt 1.00000000 0.00000000
vt 1.00000000 1.00000000
vt 0.00000000 0.00000000
vt 1.00000000 0.00000000
vt 1.00000000 1.00000000
vt 0.00000000 1.00000000
vt 0.00000000 1.00000000
vt 0.00000000 0.00000000
vt 1.00000000 0.00000000
vt 1.00000000 1.00000000
vt 1.00000000 1.00000000
vt 0.00000000 1.00000000
vt 0.00000000 0.00000000
vt 1.00000000 0.00000000
vt 0.00000000 1.00000000
vt 0.00000000 0.00000000
vt 1.00000000 0.00000000
vt 1.00000000 1.00000000
vt 1.00000000 1.00000000
vt 0.00000000 1.00000000
vt 0.00000000 0.00000000
vt 1.00000000 0.00000000
vt 0.00000000 1.00000000
vt 0.00000000 0.00000000
vt 1.00000000 0.00000000
vt 1.00000000 1.00000000
vt 0.00000000 0.00000000
vt 1.00000000 0.00000000
vt 1.00000000 1.00000000
vt 0.00000000 1.00000000
vt 0.00000000 1.00000000
vt 0.00000000 0.00000000
vt 1.00000000 0.00000000
vt 1.00000000 1.00000000
vt 0.00000000 0.00000000
vt 1.00000000 0.00000000
vt 1.00000000 1.00000000
vt 0.00000000 1.00000000
vt 0.00000000 1.00000000
vt 0.00000000 0.00000000
vt 1.00000000 0.00000000
vt 1.00000000 1.00000000
vt 0.00000000 0.00000000
vt 1.00000000 0.00000000
vt 1.00000000 1.00000000
vt 0.00000000 1.00000000
vt 0.00000000 1.00000000
vt 0.00000000 0.00000000
vt 1.00000000 0.00000000
vt 1.00000000 1.00000000
vt 1.00000000 1.00000000
vt 0.00000000 1.00000000
vt 0.00000000 0.00000000
vt 1.00000000 0.00000000
vt 0.00000000 1.00000000
vt 0.00000000 0.00000000
vt 1.00000000 0.00000000
vt 1.00000000 1.00000000
vt 1.00000000 1.00000000
vt 0.00000000 1.00000000
vt 0.00000000 0.00000000
vt 1.00000000 0.00000000
vn -0.70710679 0.00000000 0.70710677
vn -0.70710679 0.00000000 0.70710677
vn -0.70710679 0.00000000 0.70710677
vn -0.70710679 0.00000000 0.70710677
vn -0.70710679 0.00000000 0.70710677
vn -0.70710679 0.00000000 0.70710677
vn -0.70710679 0.00000000 0.70710677
vn -0.70710679 0.00000000 0.70710677
vn -0.70710679 0.00000000 0.70710677
vn -0.70710679 0.00000000 0.70710677
vn -0.70710679 0.00000000 0.70710677
vn -0.70710679 0.00000000 0.70710677
vn -0.70710679 0.00000000 0.70710677
vn -0.70710679 0.00000000 0.70710677
vn -0.70710679 0.00000000 0.70710677
vn -0.70710679 0.00000000 0.70710677
vn -0.27059805 0.92387953 -0.27059805
vn -0.27059805 0.92387953 -0.27059805
vn -0.27059805 0.92387953 -0.27059805
vn -0.27059805 0.92387953 -0.27059805
vn 0.00000000 1.00000000 0.00000000
vn 0.00000000 1.00000000 0.00000000
vn 0.00000000 1.00000000 0.00000000
vn 0.00000000 1.00000000 0.00000000
vn 0.27059805 0.92387953 0.27059805
vn 0.27059805 0.92387953 0.27059805
vn 0.27059805 0.92387953 0.27059805
vn 0.27059805 0.92387953 0.27059805
vn 0.49999999 0.70710678 0.50000001
vn 0.49999999 0.70710678 0.50000001
vn 0.49999999 0.70710678 0.50000001
vn 0.49999999 0.70710678 0.50000001
vn 0.65328147 0.38268343 0.65328149
vn 0.65328147 0.38268343 0.65328149
vn 0.65328147 0.38268343 0.65328149
vn 0.65328147 0.38268343 0.65328149
vn 0.70710677 0.00000000 0.70710679
vn 0.70710677 0.00000000 0.70710679
vn 0.70710677 0.00000000 0.70710679
vn 0.70710677 0.00000000 0.70710679
vn 0.65328147 -0.38268343 0.65328149
vn 0.65328147 -0.38268343 0.65328149
vn 0.65328147 -0.38268343 0.65328149
vn 0.65328147 -0.38268343 0.65328149
vn 0.49999999 -0.70710678 0.50000001
vn 0.49999999 -0.70710678 0.50000001
vn 0.49999999 -0.70710678 0.50000001
vn 0.49999999 -0.70710678 0.50000001
vn 0.27059805 -0.92387953 0.27059805
vn 0.27059805 -0.92387953 0.27059805
vn 0.27059805 -0.92387953 0.27059805
vn 0.27059805 -0.92387953 0.27059805
vn 0.00000000 -1.00000000 0.00000000
vn 0.00000000 -1.00000000 0.00000000
vn 0.00000000 -1.00000000 0.00000000
vn 0.00000000 -1.00000000 0.00000000
vn -0.27059805 -0.92387953 -0.27059805
vn -0.27059805 -0.92387953 -0.27059805
vn -0.27059805 -0.92387953 -0.27059805
vn -0.27059805 -0.92387953 -0.27059805
vn -0.49999999 -0.70710678 -0.50000001
vn -0.49999999 -0.70710678 -0.50000001
vn -0.49999999 -0.70710678 -0.50000001
vn -0.49999999 -0.70710678 -0.50000001
vn -0.65328147 -0.38268343 -0.65328149
vn -0.65328147 -0.38268343 -0.65328149
vn -0.65328147 -0.38268343 -0.65328149
vn -0.65328147 -0.38268343 -0.65328149
vn -0.70710677 0.00000000 -0.70710679
vn -0.70710677 0.00000000 -0.70710679
vn -0.70710677 0.00000000 -0.70710679
vn -0.70710677 0.00000000 -0.70710679
vn -0.65328147 0.38268343 -0.65328149
vn -0.65328147 0.38268343 -0.65328149
vn -0.65328147 0.38268343 -0.65328149
vn -0.65328147 0.38268343 -0.65328149
vn -0.49999999 0.70710678 -0.50000001
vn -0.49999999 0.70710678 -0.50000001
vn -0.49999999 0.70710678 -0.50000001
vn -0.49999999 0.70710678 -0.50000001
s 1
usemtl Off_White
f 27/51/51 26/50/50 25/49/49
f 28/52/52 25/49/49 24/48/48
f 29/53/53 24/48/48 21/45/45
f 21/45/45 20/44/44 32/56/56
f 20/44/44 17/41/41 32/56/56
f 19/43/43 18/42/42 17/41/41
f 20/44/44 19/43/43 17/41/41
f 32/56/56 29/53/53 21/45/45
f 32/56/56 31/55/55 29/53/53
f 31/55/55 30/54/54 29/53/53
f 24/48/48 22/46/46 21/45/45
f 24/48/48 23/47/47 22/46/46
f 29/53/53 28/52/52 24/48/48
f 28/52/52 27/51/51 25/49/49
s 2
f 33/57/57 34/58/58 19/59/59
f 33/57/57 19/59/59 20/60/60
s 3
f 33/61/61 20/62/62 35/64/64
f 20/62/62 21/63/63 35/64/64
s 4
f 36/65/65 35/66/66 22/68/68
f 35/66/66 21/67/67 22/68/68
s 5
f 23/72/72 37/71/71 36/70/70
f 23/72/72 36/70/70 22/69/69
s 6
f 38/73/73 37/74/74 23/75/75
f 38/73/73 23/75/75 24/76/76
s 7
f 25/77/77 39/78/78 24/80/80
f 39/78/78 38/79/79 24/80/80
s 8
f 40/81/81 39/82/82 25/83/83
f 40/81/81 25/83/83 26/84/84
s 9
f 40/88/88 26/87/87 41/85/85
f 26/87/87 27/86/86 41/85/85
s 10
f 42/89/89 41/90/90 28/92/92
f 41/90/90 27/91/91 28/92/92
s 11
f 42/93/93 28/94/94 43/96/96
f 28/94/94 29/95/95 43/96/96
s 12
f 44/97/97 43/98/98 30/100/100
f 43/98/98 29/99/99 30/100/100
s 13
f 44/104/104 30/103/103 45/101/101
f 30/103/103 31/102/102 45/101/101
s 14
f 46/105/105 45/106/106 31/107/107
f 46/105/105 31/107/107 32/108/108
s 15
f 17/109/109 47/110/110 32/112/112
f 47/110/110 46/111/111 32/112/112
s 16
f 48/113/113 47/114/114 18/116/116
f 47/114/114 17/115/115 18/116/116
s 17
f 19/120/120 34/119/119 48/118/118
f 19/120/120 48/118/118 18/117/117
o Wide_Sign_White_Decal
g Wide_Sign_White_Decal
v 0.66814237 1.20000000 0.65046460
v 0.68939236 1.18755204 0.67171460
v 0.70714363 1.16244796 0.68946586
v 0.71594567 1.13239592 0.69826790
v 0.71594567 0.76760408 0.69826790
v 0.70714363 0.73755204 0.68946586
v 0.68939236 0.71244796 0.67171460
v 0.66814237 0.70000000 0.65046460
v -0.65046458 0.70000000 -0.66814238
v -0.67171458 0.71244796 -0.68939238
v -0.68946584 0.73755204 -0.70714365
v -0.69826788 0.76760408 -0.71594569
v -0.69826788 1.13239592 -0.71594569
v -0.68946584 1.16244796 -0.70714365
v -0.67171458 1.18755204 -0.68939238
v -0.65046458 1.20000000 -0.66814238
vt 0.96619796 0.00000000
vt 0.98122398 0.02489592
vt 0.99377602 0.07510408
vt 1.00000000 0.13520815
vt 1.00000000 0.86479185
vt 0.99377602 0.92489592
vt 0.98122398 0.97510408
vt 0.96619796 1.00000000
vt 0.03380204 1.00000000
vt 0.01877602 0.97510408
vt 0.00622398 0.92489592
vt 0.00000000 0.86479185
vt 0.00000000 0.13520815
vt 0.00622398 0.07510408
vt 0.01877602 0.02489592
vt 0.03380204 0.00000000
vn 0.70710679 0.00000000 -0.70710677
vn 0.70710679 0.00000000 -0.70710677
vn 0.70710679 0.00000000 -0.70710677
vn 0.70710679 0.00000000 -0.70710677
vn 0.70710679 0.00000000 -0.70710677
vn 0.70710679 0.00000000 -0.70710677
vn 0.70710679 0.00000000 -0.70710677
vn 0.70710679 0.00000000 -0.70710677
vn 0.70710679 0.00000000 -0.70710677
vn 0.70710679 0.00000000 -0.70710677
vn 0.70710679 0.00000000 -0.70710677
vn 0.70710679 0.00000000 -0.70710677
vn 0.70710679 0.00000000 -0.70710677
vn 0.70710679 0.00000000 -0.70710677
vn 0.70710679 0.00000000 -0.70710677
vn 0.70710679 0.00000000 -0.70710677
s 1
usemtl Off_White
f 61/133/133 62/134/134 63/135/135
f 60/132/132 61/133/133 64/136/136
f 57/129/129 60/132/132 49/121/121
f 49/121/121 50/122/122 52/124/124
f 52/124/124 53/125/125 56/128/128
f 53/125/125 55/127/127 56/128/128
f 53/125/125 54/126/126 55/127/127
f 50/122/122 51/123/123 52/124/124
f 49/121/121 52/124/124 57/129/129
f 52/124/124 56/128/128 57/129/129
f 60/132/132 64/136/136 49/121/121
f 57/129/129 58/130/130 60/132/132
f 58/130/130 59/131/131 60/132/132
f 61/133/133 63/135/135 64/136/136
