mtllib Prop_Track_Banner_Finish_Line_Double_Blank.mtl
o Banner_Back
g Banner_Back
v -0.00625001 1.93750000 -0.86249988
v -0.00625001 1.46250000 -0.86249988
v -0.00625001 1.46250000 1.86249988
v -0.00625001 1.93750000 1.86249988
vt 0.00000000 1.00000000
vt 0.00000000 0.00000000
vt 1.00000000 0.00000000
vt 1.00000000 1.00000000
vn -1.00000000 0.00000000 0.00000000
vn -1.00000000 0.00000000 0.00000000
vn -1.00000000 0.00000000 0.00000000
vn -1.00000000 0.00000000 0.00000000
s 1
usemtl Grey_-_40
f 1/1/1 2/2/2 4/4/4
f 2/2/2 3/3/3 4/4/4
o Banner_Front
g Banner_Front
v 0.00624999 1.93750000 -0.86249988
v 0.00624999 1.46250000 -0.86249988
v 0.00624999 1.46250000 1.86249988
v 0.00624999 1.93750000 1.86249988
vt 0.00000000 1.00000000
vt 0.00000000 0.00000000
vt 1.00000000 0.00000000
vt 1.00000000 1.00000000
vn 1.00000000 -0.00000000 -0.00000000
vn 1.00000000 -0.00000000 -0.00000000
vn 1.00000000 -0.00000000 -0.00000000
vn 1.00000000 -0.00000000 -0.00000000
s 1
usemtl Grey_-_40
f 8/8/8 7/7/7 5/5/5
f 7/7/7 6/6/6 5/5/5
o Flag_Pole_Side
g Flag_Pole_Side
v -0.05000000 0.00000000 1.97500000
v -0.05000000 2.00000000 1.97500000
v -0.02500000 2.00000000 1.95000000
v -0.02500000 0.00000000 1.95000000
v 0.02500000 0.00000000 1.95000000
v 0.02500000 2.00000000 1.95000000
v 0.05000000 2.00000000 1.97500000
v 0.05000000 0.00000000 1.97500000
v 0.05000000 2.00000000 2.02500000
v 0.05000000 0.00000000 2.02500000
v 0.02500000 2.00000000 2.05000000
v 0.02500000 0.00000000 2.05000000
v -0.02500000 2.00000000 2.05000000
v -0.02500000 0.00000000 2.05000000
v -0.05000000 2.00000000 2.02500000
v -0.05000000 0.00000000 2.02500000
vt 0.00000000 0.00000000
vt 1.00000000 0.00000000
vt 1.00000000 1.00000000
vt 0.00000000 1.00000000
vt 0.00000000 0.00000000
vt 1.00000000 0.00000000
vt 1.00000000 1.00000000
vt 0.00000000 1.00000000
vt 0.00000000 0.00000000
vt 1.00000000 0.00000000
vt 1.00000000 1.00000000
vt 0.00000000 1.00000000
vt 0.00000000 0.00000000
vt 1.00000000 0.00000000
vt 1.00000000 1.00000000
vt 0.00000000 1.00000000
vt 0.00000000 0.00000000
vt 1.00000000 0.00000000
vt 1.00000000 1.00000000
vt 0.00000000 1.00000000
vt 0.00000000 0.00000000
vt 1.00000000 0.00000000
vt 1.00000000 1.00000000
vt 0.00000000 1.00000000
vt 0.00000000 0.00000000
vt 1.00000000 0.00000000
vt 1.00000000 1.00000000
vt 0.00000000 1.00000000
vt 0.00000000 0.00000000
vt 1.00000000 0.00000000
vt 1.00000000 1.00000000
vt 0.00000000 1.00000000
vn -0.70710678 0.00000000 -0.70710678
vn -0.70710678 0.00000000 -0.70710678
vn -0.70710678 0.00000000 -0.70710678
vn -0.70710678 0.00000000 -0.70710678
vn 0.00000000 0.00000000 -1.00000000
vn 0.00000000 0.00000000 -1.00000000
vn 0.00000000 0.00000000 -1.00000000
vn 0.00000000 0.00000000 -1.00000000
vn 0.70710678 0.00000000 -0.70710678
vn 0.70710678 0.00000000 -0.70710678
vn 0.70710678 0.00000000 -0.70710678
vn 0.70710678 0.00000000 -0.70710678
vn 1.00000000 0.00000000 0.00000000
vn 1.00000000 0.00000000 0.00000000
vn 1.00000000 0.00000000 0.00000000
vn 1.00000000 0.00000000 0.00000000
vn 0.70710678 0.00000000 0.70710678
vn 0.70710678 0.00000000 0.70710678
vn 0.70710678 0.00000000 0.70710678
vn 0.70710678 0.00000000 0.70710678
vn 0.00000000 0.00000000 1.00000000
vn 0.00000000 0.00000000 1.00000000
vn 0.00000000 0.00000000 1.00000000
vn 0.00000000 0.00000000 1.00000000
vn -0.70710678 0.00000000 0.70710678
vn -0.70710678 0.00000000 0.70710678
vn -0.70710678 0.00000000 0.70710678
vn -0.70710678 0.00000000 0.70710678
vn -1.00000000 0.00000000 0.00000000
vn -1.00000000 0.00000000 0.00000000
vn -1.00000000 0.00000000 0.00000000
vn -1.00000000 0.00000000 0.00000000
s 1
usemtl Dark_Wood
f 9/9/9 10/10/10 12/12/12
f 10/10/10 11/11/11 12/12/12
s 2
f 12/16/16 11/15/15 13/13/13
f 11/15/15 14/14/14 13/13/13
s 3
f 13/17/17 14/18/18 16/20/20
f 14/18/18 15/19/19 16/20/20
s 4
f 16/21/21 15/22/22 18/24/24
f 15/22/22 17/23/23 18/24/24
s 5
f 18/25/25 17/26/26 20/28/28
f 17/26/26 19/27/27 20/28/28
s 6
f 20/29/29 19/30/30 22/32/32
f 19/30/30 21/31/31 22/32/32
s 7
f 22/33/33 21/34/34 24/36/36
f 21/34/34 23/35/35 24/36/36
s 8
f 24/40/40 23/39/39 9/37/37
f 23/39/39 10/38/38 9/37/37
v 0.02500000 0.00000000 -0.95000000
v 0.02500000 2.00000000 -0.95000000
v 0.05000000 2.00000000 -0.97500000
v 0.05000000 0.00000000 -0.97500000
v 0.05000000 2.00000000 -1.02500000
v 0.05000000 0.00000000 -1.02500000
v 0.02500000 2.00000000 -1.05000000
v 0.02500000 0.00000000 -1.05000000
v -0.02500000 2.00000000 -1.05000000
v -0.02500000 0.00000000 -1.05000000
v -0.05000000 2.00000000 -1.02500000
v -0.05000000 0.00000000 -1.02500000
v -0.05000000 0.00000000 -0.97500000
v -0.05000000 2.00000000 -0.97500000
v -0.02500000 2.00000000 -0.95000000
v -0.02500000 0.00000000 -0.95000000
vt 0.00000000 0.00000000
vt 1.00000000 0.00000000
vt 1.00000000 1.00000000
vt 0.00000000 1.00000000
vt 0.00000000 0.00000000
vt 1.00000000 0.00000000
vt 1.00000000 1.00000000
vt 0.00000000 1.00000000
vt 0.00000000 0.00000000
vt 1.00000000 0.00000000
vt 1.00000000 1.00000000
vt 0.00000000 1.00000000
vt 0.00000000 0.00000000
vt 1.00000000 0.00000000
vt 1.00000000 1.00000000
vt 0.00000000 1.00000000
vt 0.00000000 0.00000000
vt 1.00000000 0.00000000
vt 1.00000000 1.00000000
vt 0.00000000 1.00000000
vt 0.00000000 0.00000000
vt 1.00000000 0.00000000
vt 1.00000000 1.00000000
vt 0.00000000 1.00000000
vt 0.00000000 0.00000000
vt 1.00000000 0.00000000
vt 1.00000000 1.00000000
vt 0.00000000 1.00000000
vt 0.00000000 0.00000000
vt 1.00000000 0.00000000
vt 1.00000000 1.00000000
vt 0.00000000 1.00000000
vn 0.70710678 0.00000000 0.70710678
vn 0.70710678 0.00000000 0.70710678
vn 0.70710678 0.00000000 0.70710678
vn 0.70710678 0.00000000 0.70710678
vn 1.00000000 0.00000000 0.00000000
vn 1.00000000 0.00000000 0.00000000
vn 1.00000000 0.00000000 0.00000000
vn 1.00000000 0.00000000 0.00000000
vn 0.70710678 0.00000000 -0.70710678
vn 0.70710678 0.00000000 -0.70710678
vn 0.70710678 0.00000000 -0.70710678
vn 0.70710678 0.00000000 -0.70710678
vn 0.00000000 0.00000000 -1.00000000
vn 0.00000000 0.00000000 -1.00000000
vn 0.00000000 0.00000000 -1.00000000
vn 0.00000000 0.00000000 -1.00000000
vn -0.70710678 0.00000000 -0.70710678
vn -0.70710678 0.00000000 -0.70710678
vn -0.70710678 0.00000000 -0.70710678
vn -0.70710678 0.00000000 -0.70710678
vn -1.00000000 0.00000000 0.00000000
vn -1.00000000 0.00000000 0.00000000
vn -1.00000000 0.00000000 0.00000000
vn -1.00000000 0.00000000 0.00000000
vn -0.70710678 0.00000000 0.70710678
vn -0.70710678 0.00000000 0.70710678
vn -0.70710678 0.00000000 0.70710678
vn -0.70710678 0.00000000 0.70710678
vn 0.00000000 0.00000000 1.00000000
vn 0.00000000 0.00000000 1.00000000
vn 0.00000000 0.00000000 1.00000000
vn 0.00000000 0.00000000 1.00000000
s 1
usemtl Dark_Wood
f 28/44/44 27/43/43 25/41/41
f 27/43/43 26/42/42 25/41/41
s 2
f 30/48/48 29/47/47 28/45/45
f 29/47/47 27/46/46 28/45/45
s 3
f 32/52/52 31/51/51 30/49/49
f 31/51/51 29/50/50 30/49/49
s 4
f 34/56/56 33/55/55 32/53/53
f 33/55/55 31/54/54 32/53/53
s 5
f 36/60/60 35/59/59 34/57/57
f 35/59/59 33/58/58 34/57/57
s 6
f 37/61/61 38/62/62 36/64/64
f 38/62/62 35/63/63 36/64/64
s 7
f 40/68/68 39/67/67 37/65/65
f 39/67/67 38/66/66 37/65/65
s 8
f 25/69/69 26/70/70 40/72/72
f 26/70/70 39/71/71 40/72/72
o Flag_Pole_Top
g Flag_Pole_Top
v 0.02500000 2.00000000 -0.95000000
v 0.05000000 2.00000000 -0.97500000
v 0.05000000 2.00000000 -1.02500000
v 0.02500000 2.00000000 -1.05000000
v -0.02500000 2.00000000 -1.05000000
v -0.05000000 2.00000000 -1.02500000
v -0.05000000 2.00000000 -0.97500000
v -0.02500000 2.00000000 -0.95000000
v 0.00000000 2.00000000 -1.00000000
vt 0.00000000 0.25000000
vt 0.25000000 0.00000000
vt 0.75000000 0.00000000
vt 1.00000000 0.25000000
vt 1.00000000 0.75000000
vt 0.75000000 1.00000000
vt 0.25000000 1.00000000
vt 0.00000000 0.75000000
vt 0.50000000 0.50000000
vn 0.00000000 1.00000000 0.00000000
vn 0.00000000 1.00000000 0.00000000
vn 0.00000000 1.00000000 0.00000000
vn 0.00000000 1.00000000 0.00000000
vn 0.00000000 1.00000000 0.00000000
vn 0.00000000 1.00000000 0.00000000
vn 0.00000000 1.00000000 0.00000000
vn 0.00000000 1.00000000 0.00000000
vn 0.00000000 1.00000000 0.00000000
s 1
usemtl Wood_Light
f 41/73/73 42/74/74 49/81/81
f 47/79/79 48/80/80 49/81/81
f 46/78/78 47/79/79 49/81/81
f 45/77/77 46/78/78 49/81/81
f 44/76/76 45/77/77 49/81/81
f 43/75/75 44/76/76 49/81/81
f 42/74/74 43/75/75 49/81/81
f 48/80/80 41/73/73 49/81/81
v 0.02500000 2.00000000 1.95000000
v 0.05000000 2.00000000 1.97500000
v 0.05000000 2.00000000 2.02500000
v 0.02500000 2.00000000 2.05000000
v -0.02500000 2.00000000 2.05000000
v -0.05000000 2.00000000 2.02500000
v -0.05000000 2.00000000 1.97500000
v -0.02500000 2.00000000 1.95000000
v 0.00000000 2.00000000 2.00000000
vt 0.00000000 0.25000000
vt 0.25000000 0.00000000
vt 0.75000000 0.00000000
vt 1.00000000 0.25000000
vt 1.00000000 0.75000000
vt 0.75000000 1.00000000
vt 0.25000000 1.00000000
vt 0.00000000 0.75000000
vt 0.50000000 0.50000000
vn 0.00000000 1.00000000 0.00000000
vn 0.00000000 1.00000000 0.00000000
vn 0.00000000 1.00000000 0.00000000
vn 0.00000000 1.00000000 0.00000000
vn 0.00000000 1.00000000 0.00000000
vn 0.00000000 1.00000000 0.00000000
vn 0.00000000 1.00000000 0.00000000
vn 0.00000000 1.00000000 0.00000000
vn 0.00000000 1.00000000 0.00000000
s 1
usemtl Wood_Light
f 57/89/89 56/88/88 58/90/90
f 51/83/83 50/82/82 58/90/90
f 52/84/84 51/83/83 58/90/90
f 53/85/85 52/84/84 58/90/90
f 54/86/86 53/85/85 58/90/90
f 55/87/87 54/86/86 58/90/90
f 56/88/88 55/87/87 58/90/90
f 50/82/82 57/89/89 58/90/90
o Flag_Rail
g Flag_Rail
v 0.02499999 1.93750000 -1.00000072
v 0.02499999 1.93750000 1.99999928
v 0.01249999 1.92500000 1.99999928
v 0.01249999 1.92500000 -1.00000072
v -0.01250001 1.92500000 1.99999928
v -0.01250001 1.92500000 -1.00000072
v -0.02500001 1.93750000 1.99999928
v -0.02500001 1.93750000 -1.00000072
v -0.02500001 1.96250000 -1.00000072
v -0.02500001 1.96250000 1.99999928
v -0.01250001 1.97500000 1.99999928
v -0.01250001 1.97500000 -1.00000072
v 0.01249999 1.97500000 -1.00000072
v 0.01249999 1.97500000 1.99999928
v 0.02499999 1.96250000 1.99999928
v 0.02499999 1.96250000 -1.00000072
vt 0.00000000 0.00000000
vt 1.00000000 0.00000000
vt 1.00000000 1.00000000
vt 0.00000000 1.00000000
vt 0.00000000 0.00000000
vt 1.00000000 0.00000000
vt 1.00000000 1.00000000
vt 0.00000000 1.00000000
vt 0.00000000 0.00000000
vt 1.00000000 0.00000000
vt 1.00000000 1.00000000
vt 0.00000000 1.00000000
vt 0.00000000 1.00000000
vt 0.00000000 0.00000000
vt 1.00000000 0.00000000
vt 1.00000000 1.00000000
vt 0.00000000 0.00000000
vt 1.00000000 0.00000000
vt 1.00000000 1.00000000
vt 0.00000000 1.00000000
vt 0.00000000 0.00000000
vt 1.00000000 0.00000000
vt 1.00000000 1.00000000
vt 0.00000000 1.00000000
vt 0.00000000 0.00000000
vt 1.00000000 0.00000000
vt 1.00000000 1.00000000
vt 0.00000000 1.00000000
vt 0.00000000 1.00000000
vt 0.00000000 0.00000000
vt 1.00000000 0.00000000
vt 1.00000000 1.00000000
vn 0.70710678 -0.70710678 -0.00000000
vn 0.70710678 -0.70710678 -0.00000000
vn 0.70710678 -0.70710678 -0.00000000
vn 0.70710678 -0.70710678 -0.00000000
vn 0.00000000 -1.00000000 0.00000000
vn 0.00000000 -1.00000000 0.00000000
vn 0.00000000 -1.00000000 0.00000000
vn 0.00000000 -1.00000000 0.00000000
vn -0.70710678 -0.70710678 0.00000000
vn -0.70710678 -0.70710678 0.00000000
vn -0.70710678 -0.70710678 0.00000000
vn -0.70710678 -0.70710678 0.00000000
vn -1.00000000 0.00000000 0.00000000
vn -1.00000000 0.00000000 0.00000000
vn -1.00000000 0.00000000 0.00000000
vn -1.00000000 0.00000000 0.00000000
vn -0.70710678 0.70710678 0.00000000
vn -0.70710678 0.70710678 0.00000000
vn -0.70710678 0.70710678 0.00000000
vn -0.70710678 0.70710678 0.00000000
vn 0.00000000 1.00000000 0.00000000
vn 0.00000000 1.00000000 0.00000000
vn 0.00000000 1.00000000 0.00000000
vn 0.00000000 1.00000000 0.00000000
vn 0.70710678 0.70710678 -0.00000000
vn 0.70710678 0.70710678 -0.00000000
vn 0.70710678 0.70710678 -0.00000000
vn 0.70710678 0.70710678 -0.00000000
vn 1.00000000 0.00000000 -0.00000000
vn 1.00000000 0.00000000 -0.00000000
vn 1.00000000 0.00000000 -0.00000000
vn 1.00000000 0.00000000 -0.00000000
s 1
usemtl Darker_Wood
f 59/91/91 60/92/92 62/94/94
f 60/92/92 61/93/93 62/94/94
s 2
f 62/95/95 61/96/96 64/98/98
f 61/96/96 63/97/97 64/98/98
s 3
f 64/99/99 63/100/100 66/102/102
f 63/100/100 65/101/101 66/102/102
s 4
f 68/106/106 67/105/105 65/103/103
f 67/105/105 66/104/104 65/103/103
s 5
f 67/107/107 68/108/108 69/109/109
f 67/107/107 69/109/109 70/110/110
s 6
f 70/114/114 69/113/113 72/112/112
f 70/114/114 72/112/112 71/111/111
s 7
f 71/115/115 72/116/116 73/117/117
f 71/115/115 73/117/117 74/118/118
s 8
f 60/119/119 59/120/120 73/122/122
f 59/120/120 74/121/121 73/122/122
v 0.01249999 1.47500000 -1.00000072
v 0.01249999 1.47500000 1.99999928
v 0.02499999 1.46250000 1.99999928
v 0.02499999 1.46250000 -1.00000072
v 0.02499999 1.43750000 1.99999928
v 0.02499999 1.43750000 -1.00000072
v 0.01249999 1.42500000 1.99999928
v 0.01249999 1.42500000 -1.00000072
v -0.01250001 1.42500000 1.99999928
v -0.01250001 1.42500000 -1.00000072
v -0.02500001 1.43750000 1.99999928
v -0.02500001 1.43750000 -1.00000072
v -0.02500001 1.46250000 -1.00000072
v -0.02500001 1.46250000 1.99999928
v -0.01250001 1.47500000 1.99999928
v -0.01250001 1.47500000 -1.00000072
vt 0.00000000 0.00000000
vt 1.00000000 0.00000000
vt 1.00000000 1.00000000
vt 0.00000000 1.00000000
vt 0.00000000 1.00000000
vt 0.00000000 0.00000000
vt 1.00000000 0.00000000
vt 1.00000000 1.00000000
vt 0.00000000 0.00000000
vt 1.00000000 0.00000000
vt 1.00000000 1.00000000
vt 0.00000000 1.00000000
vt 0.00000000 0.00000000
vt 1.00000000 0.00000000
vt 1.00000000 1.00000000
vt 0.00000000 1.00000000
vt 0.00000000 0.00000000
vt 1.00000000 0.00000000
vt 1.00000000 1.00000000
vt 0.00000000 1.00000000
vt 0.00000000 1.00000000
vt 0.00000000 0.00000000
vt 1.00000000 0.00000000
vt 1.00000000 1.00000000
vt 0.00000000 0.00000000
vt 1.00000000 0.00000000
vt 1.00000000 1.00000000
vt 0.00000000 1.00000000
vt 0.00000000 0.00000000
vt 1.00000000 0.00000000
vt 1.00000000 1.00000000
vt 0.00000000 1.00000000
vn 0.70710678 0.70710678 -0.00000000
vn 0.70710678 0.70710678 -0.00000000
vn 0.70710678 0.70710678 -0.00000000
vn 0.70710678 0.70710678 -0.00000000
vn 1.00000000 0.00000000 -0.00000000
vn 1.00000000 0.00000000 -0.00000000
vn 1.00000000 0.00000000 -0.00000000
vn 1.00000000 0.00000000 -0.00000000
vn 0.70710678 -0.70710678 -0.00000000
vn 0.70710678 -0.70710678 -0.00000000
vn 0.70710678 -0.70710678 -0.00000000
vn 0.70710678 -0.70710678 -0.00000000
vn -0.00000000 -1.00000000 0.00000000
vn -0.00000000 -1.00000000 0.00000000
vn -0.00000000 -1.00000000 0.00000000
vn -0.00000000 -1.00000000 0.00000000
vn -0.70710678 -0.70710678 0.00000000
vn -0.70710678 -0.70710678 0.00000000
vn -0.70710678 -0.70710678 0.00000000
vn -0.70710678 -0.70710678 0.00000000
vn -1.00000000 0.00000000 0.00000000
vn -1.00000000 0.00000000 0.00000000
vn -1.00000000 0.00000000 0.00000000
vn -1.00000000 0.00000000 0.00000000
vn -0.70710678 0.70710678 0.00000000
vn -0.70710678 0.70710678 0.00000000
vn -0.70710678 0.70710678 0.00000000
vn -0.70710678 0.70710678 0.00000000
vn -0.00000000 1.00000000 0.00000000
vn -0.00000000 1.00000000 0.00000000
vn -0.00000000 1.00000000 0.00000000
vn -0.00000000 1.00000000 0.00000000
s 1
usemtl Darker_Wood
f 75/123/123 76/124/124 77/125/125
f 75/123/123 77/125/125 78/126/126
s 2
f 79/127/127 80/128/128 77/130/130
f 80/128/128 78/129/129 77/130/130
s 3
f 80/131/131 79/132/132 82/134/134
f 79/132/132 81/133/133 82/134/134
s 4
f 82/135/135 81/136/136 84/138/138
f 81/136/136 83/137/137 84/138/138
s 5
f 84/139/139 83/140/140 86/142/142
f 83/140/140 85/141/141 86/142/142
s 6
f 88/146/146 87/145/145 85/143/143
f 87/145/145 86/144/144 85/143/143
s 7
f 87/147/147 88/148/148 89/149/149
f 87/147/147 89/149/149 90/150/150
s 8
f 90/154/154 89/153/153 76/152/152
f 90/154/154 76/152/152 75/151/151
