mtllib Prop_Decorative_Rock_7.mtl
o Rock
g Rock
v 0.39192390 0.46571227 -0.28842494
v 0.21411049 0.30557680 -0.42453049
v 0.39921680 0.14270341 -0.10032886
v 0.44215040 0.29039768 -0.12784414
v 0.31212284 0.00000000 0.03783543
v 0.23653230 0.00000000 0.22275297
v 0.23145078 0.21295490 0.34694762
v 0.43965408 0.50557938 -0.00880497
v 0.16276088 0.83855273 0.46431661
v 0.20320251 0.29065087 0.39521485
v 0.39296724 1.04083267 0.07096784
v 0.21929921 1.22954695 0.36771076
v 0.07481137 0.32655746 0.43043453
v 0.08893779 0.85167865 0.48375450
v 0.04403969 0.60400627 0.46793883
v -0.25611582 0.00000000 -0.01510778
v -0.33077967 0.07523334 0.07466124
v -0.39170157 0.23422323 -0.07313047
v -0.20827284 0.09040937 -0.38655129
v -0.18740530 0.00000000 -0.25451214
v -0.00175765 1.77714678 -0.10178802
v -0.33179077 1.50218677 0.06948660
v -0.24047091 1.37541075 -0.24842610
v -0.03225032 0.85004709 -0.45977218
v 0.17996627 1.55583899 -0.19435457
v 0.15946059 1.54601145 0.11671584
v 0.31196916 1.38237401 -0.15180797
v 0.31296962 1.38060375 -0.14755008
v -0.08005637 1.33723678 0.43543442
v 0.17694140 1.33307804 0.35930239
v -0.27975571 1.37040769 0.27459693
v -0.31025379 1.15530805 -0.21229858
v -0.11635246 0.18013566 -0.45167629
v -0.01447735 0.63213136 -0.49297226
v -0.22978509 0.99812320 0.38654048
v -0.04878272 0.00000000 0.25469756
v -0.44864692 0.97142682 0.02417085
v -0.45869780 0.45453310 0.04134459
v -0.40971314 1.32172500 0.15244096
v -0.40027927 1.29048639 0.19721372
v -0.39213650 0.92148622 0.27619082
v -0.43585552 0.40315004 0.14689307
v -0.08764093 0.02884095 0.27579113
v -0.33754759 0.10717009 0.14520639
vt 0.00000000 0.68624391
vt 0.00000000 0.00000000
vt 1.00000000 0.89358474
vt 0.66918456 1.00000000
vt 0.00000000 0.56352786
vt 0.16841368 0.18407987
vt 0.72062564 0.00000000
vt 1.00000000 0.82723909
vt 0.44789185 1.00000000
vt 0.16841368 0.89445974
vt 0.73480006 0.97120491
vt 0.17579511 1.00000000
vt 0.06127292 0.91586418
vt 0.00000000 0.00000000
vt 0.55734074 0.00000000
vt 1.00000000 0.61602120
vt 0.00000000 0.71293192
vt 0.00000000 0.00000000
vt 1.00000000 0.45648917
vt 0.98598587 0.86316473
vt 0.50101969 1.00000000
vt 1.00000000 0.73607547
vt 0.86949204 1.00000000
vt 0.00000000 0.81614173
vt 0.00000000 0.00000000
vt 0.57886729 0.21001863
vt 1.00000000 0.30980992
vt 0.00000000 1.00000000
vt 0.00000000 0.00000000
vt 0.67797864 0.00000000
vt 1.00000000 0.63096316
vt 0.00000000 1.00000000
vt 0.00000000 0.07305990
vt 0.00000000 1.00000000
vt 0.00000000 0.00000000
vt 0.71305941 0.22749570
vt 1.00000000 0.68423481
vt 0.99389355 0.69814520
vt 0.00000000 0.00000000
vt 1.00000000 0.18218449
vt 0.78512903 0.62504559
vt 0.00000000 1.00000000
vt 0.00000000 0.62503697
vt 0.49322367 0.00000000
vt 1.00000000 1.00000000
vt 0.36933617 0.92459614
vt 0.00000000 0.00000000
vt 0.32911209 0.00350360
vt 1.00000000 0.87765932
vt 0.73279469 1.00000000
vt 0.14377637 0.91202126
vt 0.00000000 0.73917513
vt 0.00000000 0.00000000
vt 1.00000000 0.83419433
vt 0.00000000 1.00000000
vt 0.39677195 1.00000000
vt 0.00000000 0.07532730
vt 0.39677195 0.00000000
vt 1.00000000 0.62986817
vt 0.00000000 0.88162243
vt 0.00000000 0.09298684
vt 0.24043971 0.00000000
vt 1.00000000 0.60198553
vt 0.18203720 1.00000000
vt 0.99445884 0.64580552
vt 0.22742797 1.00000000
vt 0.00000000 0.94937571
vt 0.00000000 0.22225513
vt 1.00000000 0.00000000
vt 0.62087830 1.00000000
vt 0.10152816 0.65318686
vt 0.00000000 0.00000000
vt 0.95359872 0.00000000
vt 1.00000000 0.53531134
vt 0.01652201 0.99888799
vt 0.00000000 1.00000000
vt 0.00000000 0.14163364
vt 0.68222168 0.00000000
vt 1.00000000 0.21199244
vt 1.00000000 0.71320613
vt 0.26118886 0.00000000
vt 0.43548489 0.00315007
vt 1.00000000 0.70176850
vt 0.86125712 1.00000000
vt 0.12808151 1.00000000
vt 0.00000000 0.51061976
vt 0.99195658 1.00000000
vt 0.12663618 1.00000000
vt 0.00000000 0.70413537
vt 0.06942722 0.41050609
vt 0.51633006 0.00000000
vt 1.00000000 0.53300313
vt 1.00000000 0.74784990
vt 0.61489706 1.00000000
vt 0.35564334 0.78149208
vt 0.00000000 0.00000000
vt 0.95709817 0.04159989
vt 0.00000000 0.10169525
vt 0.79513082 0.00000000
vt 1.00000000 0.30753497
vt 0.33924070 1.00000000
vt 0.00000000 0.78200643
vt 0.00000000 0.15916100
vt 0.21042091 0.00000000
vt 1.00000000 0.32131860
vt 0.00000000 1.00000000
vt 0.00000000 0.05635451
vt 0.94182752 0.00000000
vt 1.00000000 0.37116720
vt 0.67808414 1.00000000
vt 0.00000000 0.55892727
vt 0.00000000 0.60106096
vt 0.00000000 0.00000000
vt 0.44754602 0.02507971
vt 1.00000000 0.58187612
vt 0.84539691 1.00000000
vt 0.64664597 0.97909867
vt 0.08831816 1.00000000
vt 0.00000000 0.87513340
vt 0.00000000 0.00000000
vt 0.65212076 0.05751590
vt 0.89004509 0.15945840
vt 1.00000000 0.56033635
vt 0.00000000 0.22778593
vt 0.26583178 0.00000000
vt 1.00000000 0.38008275
vt 0.84674673 0.85039557
vt 0.00000000 1.00000000
vt 0.00000000 0.62614002
vt 0.08081149 0.14383615
vt 0.38617141 0.00000000
vt 0.92093431 0.17645381
vt 1.00000000 0.51185184
vt 0.59339302 0.98696087
vt 0.30715152 1.00000000
vt 1.00000000 0.22775676
vt 0.26911383 0.97956990
vt 0.00000000 1.00000000
vt 0.00000000 0.00000000
vt 0.70199942 0.07548565
vn 0.74173157 -0.32492391 -0.58673566
vn 0.74173157 -0.32492391 -0.58673566
vn 0.74173157 -0.32492391 -0.58673566
vn 0.74173157 -0.32492391 -0.58673566
vn 0.90791846 -0.19478228 0.37113869
vn 0.90791846 -0.19478228 0.37113869
vn 0.90791846 -0.19478228 0.37113869
vn 0.90791846 -0.19478228 0.37113869
vn 0.90791846 -0.19478228 0.37113869
vn 0.90791846 -0.19478228 0.37113869
vn 0.86305902 0.00000000 0.50510308
vn 0.86305902 0.00000000 0.50510308
vn 0.86305902 0.00000000 0.50510308
vn 0.86305902 -0.00000000 0.50510308
vn 0.86305902 -0.00000000 0.50510308
vn 0.86305902 -0.00000000 0.50510308
vn 0.23582426 -0.10444697 0.96616652
vn 0.23582426 -0.10444697 0.96616652
vn 0.23582426 -0.10444697 0.96616652
vn 0.23582426 -0.10444697 0.96616652
vn 0.23582426 -0.10444697 0.96616652
vn -0.81518341 -0.52984666 -0.23396265
vn -0.81518341 -0.52984666 -0.23396265
vn -0.81518341 -0.52984666 -0.23396265
vn -0.81518341 -0.52984666 -0.23396265
vn -0.81518341 -0.52984666 -0.23396265
vn -0.69915746 0.57200837 -0.42893505
vn -0.69915746 0.57200837 -0.42893505
vn -0.69915746 0.57200837 -0.42893505
vn -0.03506794 0.36099436 -0.93190842
vn -0.03506794 0.36099436 -0.93190842
vn -0.03506794 0.36099436 -0.93190842
vn -0.03506794 0.36099436 -0.93190842
vn 0.78527558 0.61503935 0.07119590
vn 0.78527558 0.61503935 0.07119590
vn 0.78527558 0.61503935 0.07119590
vn 0.78527558 0.61503935 0.07119590
vn 0.78527558 0.61503935 0.07119590
vn 0.20102482 0.74334122 0.63799127
vn 0.20102482 0.74334122 0.63799127
vn 0.20102482 0.74334122 0.63799127
vn 0.20102482 0.74334122 0.63799127
vn -0.33244440 0.75286812 0.56804077
vn -0.33244440 0.75286812 0.56804077
vn -0.33244440 0.75286812 0.56804077
vn -0.33244440 0.75286812 0.56804077
vn -0.62036664 0.06843992 -0.78132017
vn -0.62036664 0.06843992 -0.78132017
vn -0.62036664 0.06843992 -0.78132017
vn -0.62036664 0.06843992 -0.78132017
vn -0.62036664 0.06843992 -0.78132017
vn -0.62036664 0.06843992 -0.78132017
vn 0.12583532 -0.11835205 -0.98496612
vn 0.12583532 -0.11835205 -0.98496612
vn 0.12583532 -0.11835205 -0.98496612
vn -0.29490787 -0.00755433 0.95549583
vn -0.29490787 -0.00755433 0.95549583
vn -0.29490787 -0.00755433 0.95549583
vn -0.29490787 -0.00755433 0.95549583
vn 0.28162286 0.19158037 0.94020504
vn 0.28162286 0.19158037 0.94020504
vn 0.28162286 0.19158037 0.94020504
vn 0.28162286 0.19158037 0.94020504
vn 0.28162286 0.19158037 0.94020504
vn 0.88247145 0.38319977 0.27276746
vn 0.88247145 0.38319977 0.27276746
vn 0.88247145 0.38319977 0.27276746
vn 0.88247145 0.38319977 0.27276746
vn 0.88247145 0.38319977 0.27276746
vn 0.00000000 -1.00000000 0.00000000
vn 0.00000000 -1.00000000 0.00000000
vn 0.00000000 -1.00000000 0.00000000
vn 0.00000000 -1.00000000 0.00000000
vn 0.00000000 -1.00000000 0.00000000
vn 0.97670972 0.11242906 -0.18275073
vn 0.97670972 0.11242906 -0.18275073
vn 0.97670972 0.11242906 -0.18275073
vn 0.97670972 0.11242906 -0.18275073
vn 0.97670972 0.11242906 -0.18275073
vn 0.97670972 0.11242906 -0.18275073
vn 0.49773631 0.17016662 -0.85047157
vn 0.49773631 0.17016662 -0.85047157
vn 0.49773631 0.17016662 -0.85047157
vn 0.49773631 0.17016662 -0.85047157
vn 0.49773631 0.17016662 -0.85047157
vn 0.49773631 0.17016662 -0.85047157
vn 0.33244440 -0.75286812 -0.56804077
vn 0.33244440 -0.75286812 -0.56804077
vn 0.33244440 -0.75286812 -0.56804077
vn 0.33244440 -0.75286812 -0.56804077
vn 0.33244440 -0.75286812 -0.56804077
vn 0.33244440 -0.75286812 -0.56804077
vn -0.86305902 -0.00000000 -0.50510308
vn -0.86305902 -0.00000000 -0.50510308
vn -0.86305902 -0.00000000 -0.50510308
vn -0.86305902 -0.00000000 -0.50510308
vn -0.86305902 -0.00000000 -0.50510308
vn -0.90724850 0.22982174 -0.35225294
vn -0.90724850 0.22982174 -0.35225294
vn -0.90724850 0.22982174 -0.35225294
vn -0.90724850 0.22982174 -0.35225294
vn -0.90724850 0.22982174 -0.35225294
vn -0.67825719 0.52785843 0.51120706
vn -0.67825719 0.52785843 0.51120706
vn -0.67825719 0.52785843 0.51120706
vn -0.67825719 0.52785843 0.51120706
vn -0.60412886 0.15401064 0.78186255
vn -0.60412886 0.15401064 0.78186255
vn -0.60412886 0.15401064 0.78186255
vn -0.60412886 0.15401064 0.78186255
vn -0.60412886 0.15401064 0.78186255
vn -0.97430227 0.02637732 0.22369470
vn -0.97430227 0.02637732 0.22369470
vn -0.97430227 0.02637732 0.22369470
vn -0.97430227 0.02637732 0.22369470
vn -0.97430227 0.02637732 0.22369470
vn -0.97430227 0.02637732 0.22369470
vn 0.09637824 -0.49972082 0.86080795
vn 0.09637824 -0.49972082 0.86080795
vn 0.09637824 -0.49972082 0.86080795
vn 0.09637824 -0.49972082 0.86080795
vn 0.09637824 -0.49972082 0.86080795
vn 0.09637824 -0.49972082 0.86080795
vn -0.94766337 -0.31505531 0.05171358
vn -0.94766337 -0.31505531 0.05171358
vn -0.94766337 -0.31505531 0.05171358
vn -0.94766337 -0.31505531 0.05171358
vn -0.94766337 -0.31505531 0.05171358
vn -0.49773631 -0.17016662 0.85047157
vn -0.49773631 -0.17016662 0.85047157
vn -0.49773631 -0.17016662 0.85047157
vn -0.49773631 -0.17016662 0.85047157
vn -0.49773631 -0.17016662 0.85047157
vn -0.49773631 -0.17016662 0.85047157
vn -0.49773631 -0.17016662 0.85047157
vn -0.43701203 -0.83441168 0.33582382
vn -0.43701203 -0.83441168 0.33582382
vn -0.43701203 -0.83441168 0.33582382
vn -0.43701203 -0.83441168 0.33582382
vn -0.43701203 -0.83441168 0.33582382
s 1
usemtl Rock
f 1/1/1 4/4/4 3/3/3
f 3/3/3 2/2/2 1/1/1
s 2
f 5/5/5 3/10/10 4/9/9
f 8/8/8 7/7/7 5/5/5
f 5/5/5 4/9/9 8/8/8
f 7/7/7 6/6/6 5/5/5
s 3
f 10/12/12 7/13/13 8/14/14
f 8/14/14 11/15/15 9/11/11
f 11/15/15 12/16/16 9/11/11
f 9/11/11 10/12/12 8/14/14
s 4
f 9/19/19 14/20/20 15/21/21
f 15/21/21 13/17/17 10/18/18
f 10/18/18 9/19/19 15/21/21
s 5
f 16/22/22 17/23/23 18/24/24
f 16/22/22 18/24/24 19/25/25
f 19/25/25 20/26/26 16/22/22
s 6
f 23/29/29 22/28/28 21/27/27
s 7
f 23/31/31 21/30/30 25/33/33
f 25/33/33 24/32/32 23/31/31
s 8
f 25/36/36 21/35/35 26/34/34
f 28/38/38 27/37/37 26/34/34
f 27/37/37 25/36/36 26/34/34
s 9
f 29/39/39 30/40/40 26/41/41
f 29/39/39 26/41/41 21/42/42
s 10
f 22/43/43 31/46/46 29/45/45
f 29/45/45 21/44/44 22/43/43
s 11
f 32/48/48 23/47/47 24/52/52
f 33/50/50 19/49/49 32/48/48
f 32/48/48 34/51/51 33/50/50
f 32/48/48 24/52/52 34/51/51
s 12
f 34/55/55 2/54/54 33/53/53
s 13
f 35/56/56 15/57/57 14/58/58
f 35/56/56 14/58/58 29/59/59
s 14
f 12/60/60 30/64/64 29/63/63
f 29/63/63 14/62/62 12/60/60
f 14/62/62 9/61/61 12/60/60
s 15
f 26/65/65 30/66/66 12/67/67
f 12/67/67 11/68/68 28/69/69
f 28/69/69 26/65/65 12/67/67
s 16
f 5/73/73 6/74/74 36/70/70
f 36/70/70 16/71/71 20/72/72
f 36/70/70 20/72/72 5/73/73
s 17
f 8/79/79 4/78/78 1/77/77
f 1/77/77 27/76/76 28/75/75
f 28/75/75 11/80/80 1/77/77
f 11/80/80 8/79/79 1/77/77
s 18
f 1/85/85 2/86/86 34/81/81
f 24/82/82 27/84/84 1/85/85
f 24/82/82 25/83/83 27/84/84
f 1/85/85 34/81/81 24/82/82
s 19
f 20/88/88 19/89/89 33/90/90
f 5/87/87 20/88/88 2/91/91
f 2/91/91 3/92/92 5/87/87
f 20/88/88 33/90/90 2/91/91
s 20
f 19/96/96 18/95/95 38/94/94
f 38/94/94 37/93/93 32/97/97
f 32/97/97 19/96/96 38/94/94
s 21
f 39/99/99 22/100/100 23/101/101
f 37/98/98 39/99/99 32/102/102
f 39/99/99 23/101/101 32/102/102
s 22
f 39/103/103 40/104/104 31/105/105
f 39/103/103 31/105/105 22/106/106
s 23
f 29/110/110 31/109/109 40/108/108
f 40/108/108 41/107/107 35/111/111
f 35/111/111 29/110/110 40/108/108
s 24
f 38/114/114 42/113/113 41/112/112
f 37/115/115 41/112/112 40/117/117
f 40/117/117 39/116/116 37/115/115
f 37/115/115 38/114/114 41/112/112
s 25
f 7/121/121 10/122/122 13/123/123
f 43/118/118 36/119/119 13/123/123
f 36/119/119 6/120/120 13/123/123
f 6/120/120 7/121/121 13/123/123
s 26
f 18/128/128 17/124/124 44/125/125
f 44/125/125 42/126/126 18/128/128
f 42/126/126 38/127/127 18/128/128
s 27
f 42/131/131 44/130/130 43/129/129
f 43/129/129 13/135/135 15/134/134
f 15/134/134 35/133/133 41/132/132
f 15/134/134 42/131/131 43/129/129
f 15/134/134 41/132/132 42/131/131
s 28
f 44/136/136 17/140/140 16/139/139
f 16/139/139 36/138/138 43/137/137
f 43/137/137 44/136/136 16/139/139
