mtllib Prop_Track_Bump_Small_Round.mtl
o Dirt
g Dirt
v -0.07474112 0.06074679 0.04315181
v -0.02585292 0.07500000 0.01492619
v -0.02985238 0.07500000 0.00000000
v -0.08630362 0.06074679 0.00000000
v -0.07474112 0.06074679 -0.04315181
v -0.02585292 0.07500000 -0.01492619
v -0.04315181 0.06074679 -0.07474112
v -0.01492619 0.07500000 -0.02585292
v -0.00000000 0.06074679 -0.08630362
v -0.00000000 0.07500000 -0.02985238
v 0.04315181 0.06074679 -0.07474112
v 0.01492619 0.07500000 -0.02585292
v 0.07474112 0.06074679 -0.04315181
v 0.02585292 0.07500000 -0.01492619
v 0.08630362 0.06074679 0.00000000
v 0.02985238 0.07500000 0.00000000
v 0.02585292 0.07500000 0.01492619
v 0.07474112 0.06074679 0.04315181
v 0.01492619 0.07500000 0.02585292
v 0.04315181 0.06074679 0.07474112
v -0.00000000 0.07500000 0.02985238
v -0.00000000 0.06074679 0.08630362
v -0.01492619 0.07500000 0.02585292
v -0.04315181 0.06074679 0.07474112
v -0.00000000 0.01425321 0.16369638
v -0.08184819 0.01425321 0.14176523
v -0.14176523 0.01425321 0.08184819
v -0.11007381 0.00000000 0.19065343
v -0.19065343 0.00000000 0.11007381
v -0.16369638 0.01425321 0.00000000
v -0.22014762 0.00000000 0.00000000
v -0.19065343 0.00000000 -0.11007381
v -0.14176523 0.01425321 -0.08184819
v -0.11007381 0.00000000 -0.19065343
v -0.08184819 0.01425321 -0.14176523
v -0.00000000 0.00000000 -0.22014762
v -0.00000000 0.01425321 -0.16369638
v 0.11007381 0.00000000 -0.19065343
v 0.08184819 0.01425321 -0.14176523
v 0.19065343 0.00000000 -0.11007381
v 0.14176523 0.01425321 -0.08184819
v 0.22014762 0.00000000 0.00000000
v 0.16369638 0.01425321 0.00000000
v 0.14176523 0.01425321 0.08184819
v 0.19065343 0.00000000 0.11007381
v 0.08184819 0.01425321 0.14176523
v 0.11007381 0.00000000 0.19065343
v -0.00000000 0.00000000 0.22014762
v -0.00000000 0.07500000 0.00000000
vt 0.00000000 1.00000000
vt 0.00000000 0.00000000
vt 1.00000000 0.00000000
vt 1.00000000 1.00000000
vt 0.00000000 1.00000000
vt 0.00000000 0.00000000
vt 1.00000000 0.00000000
vt 1.00000000 1.00000000
vt 0.00000000 1.00000000
vt 0.00000000 0.00000000
vt 1.00000000 0.00000000
vt 1.00000000 1.00000000
vt 0.00000000 1.00000000
vt 0.00000000 0.00000000
vt 1.00000000 0.00000000
vt 1.00000000 1.00000000
vt 0.00000000 1.00000000
vt 0.00000000 0.00000000
vt 1.00000000 0.00000000
vt 1.00000000 1.00000000
vt 0.00000000 1.00000000
vt 0.00000000 0.00000000
vt 1.00000000 0.00000000
vt 1.00000000 1.00000000
vt 1.00000000 0.00000000
vt 1.00000000 1.00000000
vt 0.00000000 1.00000000
vt 0.00000000 0.00000000
vt 1.00000000 0.00000000
vt 1.00000000 1.00000000
vt 0.00000000 1.00000000
vt 0.00000000 0.00000000
vt 0.00000000 1.00000000
vt 0.00000000 0.00000000
vt 1.00000000 0.00000000
vt 1.00000000 1.00000000
vt 0.00000000 1.00000000
vt 0.00000000 0.00000000
vt 1.00000000 0.00000000
vt 1.00000000 1.00000000
vt 0.00000000 1.00000000
vt 0.00000000 0.00000000
vt 1.00000000 0.00000000
vt 1.00000000 1.00000000
vt 0.00000000 1.00000000
vt 0.00000000 0.00000000
vt 1.00000000 0.00000000
vt 1.00000000 1.00000000
vt 0.00000000 1.00000000
vt 0.00000000 0.00000000
vt 1.00000000 0.00000000
vt 1.00000000 1.00000000
vt 0.00000000 1.00000000
vt 0.00000000 0.00000000
vt 1.00000000 0.00000000
vt 1.00000000 1.00000000
vt 0.00000000 1.00000000
vt 0.00000000 0.00000000
vt 1.00000000 0.00000000
vt 1.00000000 1.00000000
vt 0.00000000 1.00000000
vt 0.00000000 0.00000000
vt 1.00000000 0.00000000
vt 1.00000000 1.00000000
vt 0.00000000 1.00000000
vt 0.00000000 0.00000000
vt 1.00000000 0.00000000
vt 1.00000000 1.00000000
vt 0.00000000 1.00000000
vt 0.00000000 0.00000000
vt 1.00000000 0.00000000
vt 1.00000000 1.00000000
vt 0.00000000 1.00000000
vt 0.00000000 0.00000000
vt 1.00000000 0.00000000
vt 1.00000000 1.00000000
vt 0.00000000 1.00000000
vt 0.00000000 0.00000000
vt 1.00000000 0.00000000
vt 1.00000000 1.00000000
vt 1.00000000 0.00000000
vt 1.00000000 1.00000000
vt 0.00000000 1.00000000
vt 0.00000000 0.00000000
vt 1.00000000 0.00000000
vt 1.00000000 1.00000000
vt 0.00000000 1.00000000
vt 0.00000000 0.00000000
vt 0.00000000 1.00000000
vt 0.00000000 0.00000000
vt 1.00000000 0.00000000
vt 1.00000000 1.00000000
vt 0.00000000 1.00000000
vt 0.00000000 0.00000000
vt 1.00000000 0.00000000
vt 1.00000000 1.00000000
vt 0.00000000 1.00000000
vt 0.00000000 0.00000000
vt 1.00000000 0.00000000
vt 1.00000000 1.00000000
vt 0.00000000 1.00000000
vt 0.00000000 0.00000000
vt 1.00000000 0.00000000
vt 1.00000000 1.00000000
vt 0.00000000 1.00000000
vt 0.00000000 0.00000000
vt 1.00000000 0.00000000
vt 1.00000000 1.00000000
vt 1.00000000 0.00000000
vt 1.00000000 1.00000000
vt 0.00000000 1.00000000
vt 0.00000000 0.00000000
vt 1.00000000 0.00000000
vt 1.00000000 1.00000000
vt 0.00000000 1.00000000
vt 0.00000000 0.00000000
vt 0.00000000 1.00000000
vt 0.00000000 0.00000000
vt 1.00000000 0.00000000
vt 1.00000000 1.00000000
vt 0.00000000 1.00000000
vt 0.00000000 0.00000000
vt 1.00000000 0.00000000
vt 1.00000000 1.00000000
vt 0.00000000 1.00000000
vt 0.00000000 0.00000000
vt 1.00000000 0.00000000
vt 1.00000000 1.00000000
vt 0.00000000 1.00000000
vt 0.00000000 0.00000000
vt 1.00000000 0.00000000
vt 1.00000000 1.00000000
vt 0.00000000 1.00000000
vt 0.00000000 0.00000000
vt 1.00000000 0.00000000
vt 1.00000000 1.00000000
vt 0.00000000 1.00000000
vt 0.00000000 0.00000000
vt 1.00000000 0.00000000
vt 1.00000000 1.00000000
vt 0.00000000 1.00000000
vt 0.00000000 0.00000000
vt 1.00000000 0.00000000
vt 1.00000000 1.00000000
vt 0.25000000 0.93301270
vt 0.06698730 0.75000000
vt 0.00000000 0.50000000
vt 0.06698730 0.25000000
vt 0.25000000 0.06698730
vt 0.50000000 0.00000000
vt 0.75000000 0.06698730
vt 0.93301270 0.25000000
vt 1.00000000 0.50000000
vt 0.93301270 0.75000000
vt 0.75000000 0.93301270
vt 0.50000000 1.00000000
vt 0.50000000 0.50000000
vn -0.24427958 0.96749325 0.06545452
vn -0.24427958 0.96749325 0.06545452
vn -0.24427958 0.96749325 0.06545452
vn -0.24427958 0.96749325 0.06545452
vn -0.24427958 0.96749325 -0.06545452
vn -0.24427958 0.96749325 -0.06545452
vn -0.24427958 0.96749325 -0.06545452
vn -0.24427958 0.96749325 -0.06545452
vn -0.17882506 0.96749325 -0.17882506
vn -0.17882506 0.96749325 -0.17882506
vn -0.17882506 0.96749325 -0.17882506
vn -0.17882506 0.96749325 -0.17882506
vn -0.06545452 0.96749325 -0.24427958
vn -0.06545452 0.96749325 -0.24427958
vn -0.06545452 0.96749325 -0.24427958
vn -0.06545452 0.96749325 -0.24427958
vn 0.06545452 0.96749325 -0.24427958
vn 0.06545452 0.96749325 -0.24427958
vn 0.06545452 0.96749325 -0.24427958
vn 0.06545452 0.96749325 -0.24427958
vn 0.17882506 0.96749325 -0.17882506
vn 0.17882506 0.96749325 -0.17882506
vn 0.17882506 0.96749325 -0.17882506
vn 0.17882506 0.96749325 -0.17882506
vn 0.24427958 0.96749325 -0.06545452
vn 0.24427958 0.96749325 -0.06545452
vn 0.24427958 0.96749325 -0.06545452
vn 0.24427958 0.96749325 -0.06545452
vn 0.24427958 0.96749325 0.06545452
vn 0.24427958 0.96749325 0.06545452
vn 0.24427958 0.96749325 0.06545452
vn 0.24427958 0.96749325 0.06545452
vn 0.17882506 0.96749325 0.17882506
vn 0.17882506 0.96749325 0.17882506
vn 0.17882506 0.96749325 0.17882506
vn 0.17882506 0.96749325 0.17882506
vn 0.06545452 0.96749325 0.24427958
vn 0.06545452 0.96749325 0.24427958
vn 0.06545452 0.96749325 0.24427958
vn 0.06545452 0.96749325 0.24427958
vn -0.06545452 0.96749325 0.24427958
vn -0.06545452 0.96749325 0.24427958
vn -0.06545452 0.96749325 0.24427958
vn -0.06545452 0.96749325 0.24427958
vn -0.13668995 0.84916390 0.51013384
vn -0.13668995 0.84916390 0.51013384
vn -0.13668995 0.84916390 0.51013384
vn -0.13668995 0.84916390 0.51013384
vn -0.37344389 0.84916390 0.37344389
vn -0.37344389 0.84916390 0.37344389
vn -0.37344389 0.84916390 0.37344389
vn -0.37344389 0.84916390 0.37344389
vn -0.17882506 0.96749325 0.17882506
vn -0.17882506 0.96749325 0.17882506
vn -0.17882506 0.96749325 0.17882506
vn -0.17882506 0.96749325 0.17882506
vn -0.24427958 0.96749325 0.06545452
vn -0.24427958 0.96749325 0.06545452
vn -0.24427958 0.96749325 0.06545452
vn -0.24427958 0.96749325 0.06545452
vn -0.24427958 0.96749325 -0.06545452
vn -0.24427958 0.96749325 -0.06545452
vn -0.24427958 0.96749325 -0.06545452
vn -0.24427958 0.96749325 -0.06545452
vn -0.17882506 0.96749325 -0.17882506
vn -0.17882506 0.96749325 -0.17882506
vn -0.17882506 0.96749325 -0.17882506
vn -0.17882506 0.96749325 -0.17882506
vn -0.06545452 0.96749325 -0.24427958
vn -0.06545452 0.96749325 -0.24427958
vn -0.06545452 0.96749325 -0.24427958
vn -0.06545452 0.96749325 -0.24427958
vn 0.06545452 0.96749325 -0.24427958
vn 0.06545452 0.96749325 -0.24427958
vn 0.06545452 0.96749325 -0.24427958
vn 0.06545452 0.96749325 -0.24427958
vn 0.17882506 0.96749325 -0.17882506
vn 0.17882506 0.96749325 -0.17882506
vn 0.17882506 0.96749325 -0.17882506
vn 0.17882506 0.96749325 -0.17882506
vn 0.24427958 0.96749325 -0.06545452
vn 0.24427958 0.96749325 -0.06545452
vn 0.24427958 0.96749325 -0.06545452
vn 0.24427958 0.96749325 -0.06545452
vn 0.24427958 0.96749325 0.06545452
vn 0.24427958 0.96749325 0.06545452
vn 0.24427958 0.96749325 0.06545452
vn 0.24427958 0.96749325 0.06545452
vn 0.17882506 0.96749325 0.17882506
vn 0.17882506 0.96749325 0.17882506
vn 0.17882506 0.96749325 0.17882506
vn 0.17882506 0.96749325 0.17882506
vn 0.06545452 0.96749325 0.24427958
vn 0.06545452 0.96749325 0.24427958
vn 0.06545452 0.96749325 0.24427958
vn 0.06545452 0.96749325 0.24427958
vn -0.06545452 0.96749325 0.24427958
vn -0.06545452 0.96749325 0.24427958
vn -0.06545452 0.96749325 0.24427958
vn -0.06545452 0.96749325 0.24427958
vn 0.13668995 0.84916390 0.51013384
vn 0.13668995 0.84916390 0.51013384
vn 0.13668995 0.84916390 0.51013384
vn 0.13668995 0.84916390 0.51013384
vn 0.37344389 0.84916390 0.37344389
vn 0.37344389 0.84916390 0.37344389
vn 0.37344389 0.84916390 0.37344389
vn 0.37344389 0.84916390 0.37344389
vn 0.51013384 0.84916390 0.13668995
vn 0.51013384 0.84916390 0.13668995
vn 0.51013384 0.84916390 0.13668995
vn 0.51013384 0.84916390 0.13668995
vn 0.51013384 0.84916390 -0.13668995
vn 0.51013384 0.84916390 -0.13668995
vn 0.51013384 0.84916390 -0.13668995
vn 0.51013384 0.84916390 -0.13668995
vn 0.37344389 0.84916390 -0.37344389
vn 0.37344389 0.84916390 -0.37344389
vn 0.37344389 0.84916390 -0.37344389
vn 0.37344389 0.84916390 -0.37344389
vn 0.13668995 0.84916390 -0.51013384
vn 0.13668995 0.84916390 -0.51013384
vn 0.13668995 0.84916390 -0.51013384
vn 0.13668995 0.84916390 -0.51013384
vn -0.13668995 0.84916390 -0.51013384
vn -0.13668995 0.84916390 -0.51013384
vn -0.13668995 0.84916390 -0.51013384
vn -0.13668995 0.84916390 -0.51013384
vn -0.37344389 0.84916390 -0.37344389
vn -0.37344389 0.84916390 -0.37344389
vn -0.37344389 0.84916390 -0.37344389
vn -0.37344389 0.84916390 -0.37344389
vn -0.51013384 0.84916390 -0.13668995
vn -0.51013384 0.84916390 -0.13668995
vn -0.51013384 0.84916390 -0.13668995
vn -0.51013384 0.84916390 -0.13668995
vn -0.51013384 0.84916390 0.13668995
vn -0.51013384 0.84916390 0.13668995
vn -0.51013384 0.84916390 0.13668995
vn -0.51013384 0.84916390 0.13668995
vn -0.17882506 0.96749325 0.17882506
vn -0.17882506 0.96749325 0.17882506
vn -0.17882506 0.96749325 0.17882506
vn -0.17882506 0.96749325 0.17882506
vn 0.00000000 1.00000000 -0.00000000
vn 0.00000000 1.00000000 -0.00000000
vn 0.00000000 1.00000000 -0.00000000
vn 0.00000000 1.00000000 -0.00000000
vn 0.00000000 1.00000000 -0.00000000
vn 0.00000000 1.00000000 -0.00000000
vn 0.00000000 1.00000000 -0.00000000
vn 0.00000000 1.00000000 -0.00000000
vn 0.00000000 1.00000000 -0.00000000
vn 0.00000000 1.00000000 -0.00000000
vn 0.00000000 1.00000000 -0.00000000
vn 0.00000000 1.00000000 -0.00000000
vn 0.00000000 1.00000000 -0.00000000
s 1
usemtl Dirt
f 1/1/1 2/2/2 3/3/3
f 1/1/1 3/3/3 4/4/4
s 2
f 4/8/8 3/7/7 6/6/6
f 4/8/8 6/6/6 5/5/5
s 3
f 5/12/12 6/11/11 8/10/10
f 5/12/12 8/10/10 7/9/9
s 4
f 7/16/16 8/15/15 10/14/14
f 7/16/16 10/14/14 9/13/13
s 5
f 9/20/20 10/19/19 12/18/18
f 9/20/20 12/18/18 11/17/17
s 6
f 11/24/24 12/23/23 14/22/22
f 11/24/24 14/22/22 13/21/21
s 7
f 16/28/28 15/27/27 13/26/26
f 16/28/28 13/26/26 14/25/25
s 8
f 17/29/29 18/30/30 15/31/31
f 17/29/29 15/31/31 16/32/32
s 9
f 18/33/33 17/34/34 20/36/36
f 17/34/34 19/35/35 20/36/36
s 10
f 20/37/37 19/38/38 22/40/40
f 19/38/38 21/39/39 22/40/40
s 11
f 22/41/41 21/42/42 24/44/44
f 21/42/42 23/43/43 24/44/44
s 12
f 25/45/45 22/46/46 26/48/48
f 22/46/46 24/47/47 26/48/48
s 13
f 26/49/49 24/50/50 27/52/52
f 24/50/50 1/51/51 27/52/52
s 14
f 28/53/53 26/54/54 27/55/55
f 28/53/53 27/55/55 29/56/56
s 15
f 29/57/57 27/58/58 30/59/59
f 29/57/57 30/59/59 31/60/60
s 16
f 31/64/64 30/63/63 33/62/62
f 31/64/64 33/62/62 32/61/61
s 17
f 32/68/68 33/67/67 35/66/66
f 32/68/68 35/66/66 34/65/65
s 18
f 34/72/72 35/71/71 37/70/70
f 34/72/72 37/70/70 36/69/69
s 19
f 36/76/76 37/75/75 39/74/74
f 36/76/76 39/74/74 38/73/73
s 20
f 38/80/80 39/79/79 40/77/77
f 39/79/79 41/78/78 40/77/77
s 21
f 43/84/84 42/83/83 40/82/82
f 43/84/84 40/82/82 41/81/81
s 22
f 44/85/85 45/86/86 42/87/87
f 44/85/85 42/87/87 43/88/88
s 23
f 45/89/89 44/90/90 47/92/92
f 44/90/90 46/91/91 47/92/92
s 24
f 47/93/93 46/94/94 48/96/96
f 46/94/94 25/95/95 48/96/96
s 25
f 48/97/97 25/98/98 28/100/100
f 25/98/98 26/99/99 28/100/100
s 26
f 46/101/101 20/102/102 25/104/104
f 20/102/102 22/103/103 25/104/104
s 27
f 44/105/105 18/106/106 46/108/108
f 18/106/106 20/107/107 46/108/108
s 28
f 18/109/109 44/110/110 43/111/111
f 18/109/109 43/111/111 15/112/112
s 29
f 15/116/116 43/115/115 41/114/114
f 15/116/116 41/114/114 13/113/113
s 30
f 39/120/120 11/119/119 13/118/118
f 39/120/120 13/118/118 41/117/117
s 31
f 37/124/124 9/123/123 11/122/122
f 37/124/124 11/122/122 39/121/121
s 32
f 35/128/128 7/127/127 9/126/126
f 35/128/128 9/126/126 37/125/125
s 33
f 33/132/132 5/131/131 7/130/130
f 33/132/132 7/130/130 35/129/129
s 34
f 30/136/136 4/135/135 5/134/134
f 30/136/136 5/134/134 33/133/133
s 35
f 27/137/137 1/138/138 4/139/139
f 27/137/137 4/139/139 30/140/140
s 36
f 24/141/141 23/142/142 1/144/144
f 23/142/142 2/143/143 1/144/144
s 37
f 8/145/145 6/146/146 49/157/157
f 12/155/155 10/156/156 49/157/157
f 14/154/154 12/155/155 49/157/157
f 16/153/153 14/154/154 49/157/157
f 17/152/152 16/153/153 49/157/157
f 19/151/151 17/152/152 49/157/157
f 21/150/150 19/151/151 49/157/157
f 23/149/149 21/150/150 49/157/157
f 2/148/148 23/149/149 49/157/157
f 3/147/147 2/148/148 49/157/157
f 6/146/146 3/147/147 49/157/157
f 10/156/156 8/145/145 49/157/157
