mtllib Prop_Decorative_Fence_Curve_1x1.mtl
o Fence_Post_Side
g Fence_Post_Side
v 0.07500000 -0.00000000 -0.55000000
v 0.05000000 -0.00000000 -0.57500000
v 0.05000000 1.10000000 -0.57500000
v 0.07500000 1.10000000 -0.55000000
v 0.07500000 -0.00000000 -0.45000000
v 0.07500000 1.10000000 -0.45000000
v 0.05000000 -0.00000000 -0.42500000
v 0.05000000 1.10000000 -0.42500000
v -0.05000000 1.10000000 -0.42500000
v -0.05000000 0.00000000 -0.42500000
v -0.07500000 -0.00000000 -0.45000000
v -0.07500000 1.10000000 -0.45000000
v -0.07500000 -0.00000000 -0.55000000
v -0.07500000 1.10000000 -0.55000000
v -0.05000000 -0.00000000 -0.57500000
v -0.05000000 1.10000000 -0.57500000
vt 1.00000000 0.00000000
vt 1.00000000 1.00000000
vt 0.00000000 1.00000000
vt 0.00000000 0.00000000
vt 1.00000000 0.00000000
vt 1.00000000 1.00000000
vt 0.00000000 1.00000000
vt 0.00000000 0.00000000
vt 1.00000000 0.00000000
vt 1.00000000 1.00000000
vt 0.00000000 1.00000000
vt 0.00000000 0.00000000
vt 0.00000000 1.00000000
vt 0.00000000 0.00000000
vt 1.00000000 0.00000000
vt 1.00000000 1.00000000
vt 1.00000000 0.00000000
vt 1.00000000 1.00000000
vt 0.00000000 1.00000000
vt 0.00000000 0.00000000
vt 1.00000000 0.00000000
vt 1.00000000 1.00000000
vt 0.00000000 1.00000000
vt 0.00000000 0.00000000
vt 1.00000000 0.00000000
vt 1.00000000 1.00000000
vt 0.00000000 1.00000000
vt 0.00000000 0.00000000
vt 1.00000000 0.00000000
vt 1.00000000 1.00000000
vt 0.00000000 1.00000000
vt 0.00000000 0.00000000
vn 0.70710678 0.00000000 -0.70710678
vn 0.70710678 0.00000000 -0.70710678
vn 0.70710678 0.00000000 -0.70710678
vn 0.70710678 0.00000000 -0.70710678
vn 1.00000000 0.00000000 0.00000000
vn 1.00000000 0.00000000 0.00000000
vn 1.00000000 0.00000000 0.00000000
vn 1.00000000 0.00000000 0.00000000
vn 0.70710678 0.00000000 0.70710678
vn 0.70710678 0.00000000 0.70710678
vn 0.70710678 0.00000000 0.70710678
vn 0.70710678 0.00000000 0.70710678
vn 0.00000000 0.00000000 1.00000000
vn 0.00000000 0.00000000 1.00000000
vn 0.00000000 0.00000000 1.00000000
vn 0.00000000 0.00000000 1.00000000
vn -0.70710678 0.00000000 0.70710678
vn -0.70710678 0.00000000 0.70710678
vn -0.70710678 0.00000000 0.70710678
vn -0.70710678 0.00000000 0.70710678
vn -1.00000000 0.00000000 0.00000000
vn -1.00000000 0.00000000 0.00000000
vn -1.00000000 0.00000000 0.00000000
vn -1.00000000 0.00000000 0.00000000
vn -0.70710678 0.00000000 -0.70710678
vn -0.70710678 0.00000000 -0.70710678
vn -0.70710678 0.00000000 -0.70710678
vn -0.70710678 0.00000000 -0.70710678
vn 0.00000000 0.00000000 -1.00000000
vn 0.00000000 0.00000000 -1.00000000
vn 0.00000000 0.00000000 -1.00000000
vn 0.00000000 0.00000000 -1.00000000
s 1
usemtl Dark_Wood
f 1/1/1 2/2/2 4/4/4
f 2/2/2 3/3/3 4/4/4
s 2
f 5/5/5 1/6/6 6/8/8
f 1/6/6 4/7/7 6/8/8
s 3
f 7/9/9 5/10/10 8/12/12
f 5/10/10 6/11/11 8/12/12
s 4
f 8/13/13 9/14/14 7/16/16
f 9/14/14 10/15/15 7/16/16
s 5
f 11/17/17 10/18/18 12/20/20
f 10/18/18 9/19/19 12/20/20
s 6
f 12/24/24 14/23/23 11/21/21
f 14/23/23 13/22/22 11/21/21
s 7
f 15/25/25 13/26/26 16/28/28
f 13/26/26 14/27/27 16/28/28
s 8
f 16/32/32 3/31/31 15/29/29
f 3/31/31 2/30/30 15/29/29
v 0.57500000 -0.00000000 -0.05000000
v 0.55000000 -0.00000000 -0.07500000
v 0.55000000 1.10000000 -0.07500000
v 0.57500000 1.10000000 -0.05000000
v 0.57500000 -0.00000000 0.05000000
v 0.57500000 1.10000000 0.05000000
v 0.55000000 -0.00000000 0.07500000
v 0.55000000 1.10000000 0.07500000
v 0.45000000 1.10000000 0.07500000
v 0.45000000 0.00000000 0.07500000
v 0.42500000 -0.00000000 0.05000000
v 0.42500000 1.10000000 0.05000000
v 0.42500000 -0.00000000 -0.05000000
v 0.42500000 1.10000000 -0.05000000
v 0.45000000 -0.00000000 -0.07500000
v 0.45000000 1.10000000 -0.07500000
vt 1.00000000 0.00000000
vt 1.00000000 1.00000000
vt 0.00000000 1.00000000
vt 0.00000000 0.00000000
vt 1.00000000 0.00000000
vt 1.00000000 1.00000000
vt 0.00000000 1.00000000
vt 0.00000000 0.00000000
vt 1.00000000 0.00000000
vt 1.00000000 1.00000000
vt 0.00000000 1.00000000
vt 0.00000000 0.00000000
vt 0.00000000 1.00000000
vt 0.00000000 0.00000000
vt 1.00000000 0.00000000
vt 1.00000000 1.00000000
vt 1.00000000 0.00000000
vt 1.00000000 1.00000000
vt 0.00000000 1.00000000
vt 0.00000000 0.00000000
vt 1.00000000 0.00000000
vt 1.00000000 1.00000000
vt 0.00000000 1.00000000
vt 0.00000000 0.00000000
vt 1.00000000 0.00000000
vt 1.00000000 1.00000000
vt 0.00000000 1.00000000
vt 0.00000000 0.00000000
vt 1.00000000 0.00000000
vt 1.00000000 1.00000000
vt 0.00000000 1.00000000
vt 0.00000000 0.00000000
vn 0.70710678 0.00000000 -0.70710678
vn 0.70710678 0.00000000 -0.70710678
vn 0.70710678 0.00000000 -0.70710678
vn 0.70710678 0.00000000 -0.70710678
vn 1.00000000 0.00000000 0.00000000
vn 1.00000000 0.00000000 0.00000000
vn 1.00000000 0.00000000 0.00000000
vn 1.00000000 0.00000000 0.00000000
vn 0.70710678 0.00000000 0.70710678
vn 0.70710678 0.00000000 0.70710678
vn 0.70710678 0.00000000 0.70710678
vn 0.70710678 0.00000000 0.70710678
vn 0.00000000 0.00000000 1.00000000
vn 0.00000000 0.00000000 1.00000000
vn 0.00000000 0.00000000 1.00000000
vn 0.00000000 0.00000000 1.00000000
vn -0.70710678 0.00000000 0.70710678
vn -0.70710678 0.00000000 0.70710678
vn -0.70710678 0.00000000 0.70710678
vn -0.70710678 0.00000000 0.70710678
vn -1.00000000 0.00000000 0.00000000
vn -1.00000000 0.00000000 0.00000000
vn -1.00000000 0.00000000 0.00000000
vn -1.00000000 0.00000000 0.00000000
vn -0.70710678 0.00000000 -0.70710678
vn -0.70710678 0.00000000 -0.70710678
vn -0.70710678 0.00000000 -0.70710678
vn -0.70710678 0.00000000 -0.70710678
vn -0.00000000 0.00000000 -1.00000000
vn -0.00000000 0.00000000 -1.00000000
vn -0.00000000 0.00000000 -1.00000000
vn -0.00000000 0.00000000 -1.00000000
s 1
usemtl Dark_Wood
f 17/33/33 18/34/34 20/36/36
f 18/34/34 19/35/35 20/36/36
s 2
f 21/37/37 17/38/38 22/40/40
f 17/38/38 20/39/39 22/40/40
s 3
f 23/41/41 21/42/42 24/44/44
f 21/42/42 22/43/43 24/44/44
s 4
f 24/45/45 25/46/46 23/48/48
f 25/46/46 26/47/47 23/48/48
s 5
f 27/49/49 26/50/50 28/52/52
f 26/50/50 25/51/51 28/52/52
s 6
f 28/56/56 30/55/55 27/53/53
f 30/55/55 29/54/54 27/53/53
s 7
f 31/57/57 29/58/58 32/60/60
f 29/58/58 30/59/59 32/60/60
s 8
f 32/64/64 19/63/63 31/61/61
f 19/63/63 18/62/62 31/61/61
o Fence_Post_Top
g Fence_Post_Top
v 0.57500000 1.10000000 0.05000000
v 0.57500000 1.10000000 -0.05000000
v 0.55000000 1.10000000 -0.07500000
v 0.45000000 1.10000000 -0.07500000
v 0.42500000 1.10000000 -0.05000000
v 0.42500000 1.10000000 0.05000000
v 0.45000000 1.10000000 0.07500000
v 0.55000000 1.10000000 0.07500000
v 0.50000000 1.10000000 -0.00000000
vt 1.00000000 0.16666667
vt 1.00000000 0.83333333
vt 0.83333333 1.00000000
vt 0.16666667 1.00000000
vt 0.00000000 0.83333333
vt 0.00000000 0.16666667
vt 0.16666667 0.00000000
vt 0.83333333 0.00000000
vt 0.50000000 0.50000000
vn 0.00000000 1.00000000 0.00000000
vn 0.00000000 1.00000000 0.00000000
vn 0.00000000 1.00000000 0.00000000
vn 0.00000000 1.00000000 0.00000000
vn 0.00000000 1.00000000 0.00000000
vn 0.00000000 1.00000000 0.00000000
vn 0.00000000 1.00000000 0.00000000
vn 0.00000000 1.00000000 0.00000000
vn 0.00000000 1.00000000 0.00000000
s 1
usemtl Wood_Light
f 33/65/65 34/66/66 41/73/73
f 39/71/71 40/72/72 41/73/73
f 38/70/70 39/71/71 41/73/73
f 37/69/69 38/70/70 41/73/73
f 36/68/68 37/69/69 41/73/73
f 35/67/67 36/68/68 41/73/73
f 34/66/66 35/67/67 41/73/73
f 40/72/72 33/65/65 41/73/73
v 0.07500000 1.10000000 -0.45000000
v 0.07500000 1.10000000 -0.55000000
v 0.05000000 1.10000000 -0.57500000
v -0.05000000 1.10000000 -0.57500000
v -0.07500000 1.10000000 -0.55000000
v -0.07500000 1.10000000 -0.45000000
v -0.05000000 1.10000000 -0.42500000
v 0.05000000 1.10000000 -0.42500000
v 0.00000000 1.10000000 -0.50000000
vt 1.00000000 0.16666667
vt 1.00000000 0.83333333
vt 0.83333333 1.00000000
vt 0.16666667 1.00000000
vt 0.00000000 0.83333333
vt 0.00000000 0.16666667
vt 0.16666667 0.00000000
vt 0.83333333 0.00000000
vt 0.50000000 0.50000000
vn 0.00000000 1.00000000 0.00000000
vn 0.00000000 1.00000000 0.00000000
vn 0.00000000 1.00000000 0.00000000
vn 0.00000000 1.00000000 0.00000000
vn 0.00000000 1.00000000 0.00000000
vn 0.00000000 1.00000000 0.00000000
vn 0.00000000 1.00000000 0.00000000
vn 0.00000000 1.00000000 0.00000000
vn 0.00000000 1.00000000 0.00000000
s 1
usemtl Wood_Light
f 42/74/74 43/75/75 50/82/82
f 48/80/80 49/81/81 50/82/82
f 47/79/79 48/80/80 50/82/82
f 46/78/78 47/79/79 50/82/82
f 45/77/77 46/78/78 50/82/82
f 44/76/76 45/77/77 50/82/82
f 43/75/75 44/76/76 50/82/82
f 49/81/81 42/74/74 50/82/82
o Fence_Rail
g Fence_Rail
v 0.01767767 0.77500000 -0.51767767
v -0.01767767 0.77500000 -0.48232233
v 0.48232233 0.77500000 0.01767767
v 0.51767767 0.77500000 -0.01767767
v 0.01767767 0.62500000 -0.51767767
v 0.51767767 0.62500000 -0.01767767
v -0.01767767 0.62500000 -0.48232233
v 0.48232233 0.62500000 0.01767767
vt 0.00000000 0.00000000
vt 1.00000000 0.00000000
vt 1.00000000 1.00000000
vt 0.00000000 1.00000000
vt 0.00000000 0.00000000
vt 1.00000000 0.00000000
vt 1.00000000 1.00000000
vt 0.00000000 1.00000000
vt 0.00000000 0.00000000
vt 1.00000000 0.00000000
vt 1.00000000 1.00000000
vt 0.00000000 1.00000000
vt 0.00000000 0.00000000
vt 1.00000000 0.00000000
vt 1.00000000 1.00000000
vt 0.00000000 1.00000000
vn 0.00000000 1.00000000 0.00000000
vn 0.00000000 1.00000000 0.00000000
vn 0.00000000 1.00000000 0.00000000
vn 0.00000000 1.00000000 0.00000000
vn 0.70710678 0.00000000 -0.70710678
vn 0.70710678 0.00000000 -0.70710678
vn 0.70710678 0.00000000 -0.70710678
vn 0.70710678 0.00000000 -0.70710678
vn 0.00000000 -1.00000000 0.00000000
vn 0.00000000 -1.00000000 0.00000000
vn 0.00000000 -1.00000000 0.00000000
vn 0.00000000 -1.00000000 0.00000000
vn -0.70710678 0.00000000 0.70710678
vn -0.70710678 0.00000000 0.70710678
vn -0.70710678 0.00000000 0.70710678
vn -0.70710678 0.00000000 0.70710678
s 1
usemtl Medium_Wood
f 51/83/83 52/84/84 54/86/86
f 52/84/84 53/85/85 54/86/86
s 2
f 54/90/90 56/89/89 51/87/87
f 56/89/89 55/88/88 51/87/87
s 3
f 56/94/94 58/93/93 55/91/91
f 58/93/93 57/92/92 55/91/91
s 4
f 52/95/95 57/96/96 53/98/98
f 57/96/96 58/97/97 53/98/98
v -0.01767767 1.02500000 -0.48232233
v -0.01767767 0.87500000 -0.48232233
v 0.48232233 0.87500000 0.01767767
v 0.48232233 1.02500000 0.01767767
v 0.01767767 1.02500000 -0.51767767
v 0.51767767 1.02500000 -0.01767767
v 0.01767767 0.87500000 -0.51767767
v 0.51767767 0.87500000 -0.01767767
vt 0.00000000 0.00000000
vt 1.00000000 0.00000000
vt 1.00000000 1.00000000
vt 0.00000000 1.00000000
vt 0.00000000 0.00000000
vt 1.00000000 0.00000000
vt 1.00000000 1.00000000
vt 0.00000000 1.00000000
vt 0.00000000 0.00000000
vt 1.00000000 0.00000000
vt 1.00000000 1.00000000
vt 0.00000000 1.00000000
vt 0.00000000 0.00000000
vt 1.00000000 0.00000000
vt 1.00000000 1.00000000
vt 0.00000000 1.00000000
vn -0.70710678 0.00000000 0.70710678
vn -0.70710678 0.00000000 0.70710678
vn -0.70710678 0.00000000 0.70710678
vn -0.70710678 0.00000000 0.70710678
vn 0.00000000 1.00000000 0.00000000
vn 0.00000000 1.00000000 0.00000000
vn 0.00000000 1.00000000 0.00000000
vn 0.00000000 1.00000000 0.00000000
vn 0.70710678 0.00000000 -0.70710678
vn 0.70710678 0.00000000 -0.70710678
vn 0.70710678 0.00000000 -0.70710678
vn 0.70710678 0.00000000 -0.70710678
vn 0.00000000 -1.00000000 0.00000000
vn 0.00000000 -1.00000000 0.00000000
vn 0.00000000 -1.00000000 0.00000000
vn 0.00000000 -1.00000000 0.00000000
s 1
usemtl Medium_Wood
f 59/99/99 60/100/100 62/102/102
f 60/100/100 61/101/101 62/102/102
s 2
f 63/103/103 59/104/104 64/106/106
f 59/104/104 62/105/105 64/106/106
s 3
f 64/110/110 66/109/109 63/107/107
f 66/109/109 65/108/108 63/107/107
s 4
f 66/114/114 61/113/113 65/111/111
f 61/113/113 60/112/112 65/111/111
