mtllib Prop_Decorative_Rock_6.mtl
o Rock
g Rock
v -0.45194787 0.62643526 -0.44172923
v -0.42935274 0.95815552 -0.37662541
v -0.20445561 1.08924006 -0.39462918
v -0.09319211 1.04464416 -0.42652602
v 0.06961607 0.79822845 -0.51125292
v 0.05145394 0.47464261 -0.57554570
v -0.14870559 0.40837083 -0.54893680
v -0.45504789 1.06905597 -0.24927071
v -0.58544221 0.73164140 0.02561377
v -0.49191577 0.55343213 -0.34492245
v -0.23259078 1.30032752 -0.16593774
v -0.17892956 1.30746420 -0.06781058
v -0.17900207 1.14844240 0.18707864
v -0.24164787 0.99315431 0.30820906
v -0.49707445 0.68349780 0.28326737
v -0.08414399 1.29248916 -0.27174969
v 0.09228492 1.29187664 -0.27845806
v 0.22277772 1.30320231 -0.12230436
v 0.17013415 1.30722263 -0.06781058
v 0.45530088 1.13126090 -0.05540451
v 0.49580860 1.01510166 -0.13858189
v 0.29741337 0.95069419 -0.42790135
v 0.20966729 1.03308841 -0.43388527
v 0.18561714 1.06812214 -0.42182900
v 0.41063728 0.40670937 -0.50119424
v 0.53896338 0.44205135 -0.31665020
v 0.56679382 0.73382186 -0.15999607
v 0.24336974 0.12302329 -0.43471408
v 0.30199689 -0.00302533 -0.16667455
v 0.48727805 0.22975449 -0.13506399
v 0.35556930 0.34885544 -0.52523034
v 0.02236971 0.01897034 -0.39296146
v 0.00670980 -0.00605286 -0.35794072
v 0.09197368 0.00408426 0.24547835
v 0.25888900 0.00166559 0.10917456
v -0.36427631 0.00000000 -0.01491885
v -0.29529307 0.00332833 0.18488122
v -0.42940883 0.25658019 0.32075743
v -0.32168521 0.09674156 0.29959169
v -0.43171579 0.08900636 -0.02399451
v -0.48889679 0.24401228 0.12888150
v -0.42929965 0.49599171 0.41918568
v -0.33352791 0.52456581 0.47050652
v -0.15616716 0.14660868 0.38848603
v -0.12453807 0.72821940 0.51474715
v -0.00445158 0.72813629 0.51474715
v 0.27251802 0.57867800 0.48234427
v 0.24770768 0.32396271 0.42704681
v 0.05543690 0.11573517 0.38181578
v 0.36142353 0.85277956 0.41735051
v 0.49222831 0.84747237 0.15337300
v 0.54866580 0.71732018 -0.01320787
v 0.48210299 0.23515706 -0.07865980
v 0.34372136 0.11332595 0.14809603
v 0.37553234 0.99888682 0.30340567
v 0.44892580 1.04328027 0.12768637
v 0.22270701 1.14816441 0.18707864
vt 0.00000000 0.69676859
vt 0.00000000 0.20659619
vt 0.42038347 0.00000000
vt 0.64287129 0.05907233
vt 0.99244965 0.41246836
vt 1.00000000 0.89038915
vt 0.61917511 1.00000000
vt 0.97803958 0.85611632
vt 0.33083465 1.00000000
vt 0.00000000 0.83494864
vt 0.28854676 0.00000000
vt 1.00000000 0.60010255
vt 0.39469547 0.00000000
vt 0.98319474 0.32059182
vt 1.00000000 0.86791885
vt 0.86458781 1.00000000
vt 0.40893463 1.00000000
vt 0.14574247 0.84596931
vt 0.00000000 0.21757464
vt 0.11783452 1.00000000
vt 0.00000000 0.53416407
vt 0.32600145 0.03184645
vt 0.71344526 0.00000000
vt 1.00000000 0.74130341
vt 0.88438913 1.00000000
vt 1.00000000 0.46081597
vt 0.76705627 0.86574314
vt 0.17965310 1.00000000
vt 0.00000000 0.75987746
vt 0.31183125 0.00000000
vt 0.54920179 0.00285913
vt 0.62542966 0.04170117
vt 1.00000000 0.42107857
vt 0.81961321 0.89721891
vt 0.35293845 1.00000000
vt 0.00000000 0.73610784
vt 0.29358215 0.00000000
vt 0.29152416 0.94786549
vt 0.00000000 0.30101246
vt 0.51895258 0.00000000
vt 1.00000000 0.32305745
vt 0.92783761 0.87923708
vt 0.79945638 1.00000000
vt 0.00000000 0.00000000
vt 0.90799117 0.08020425
vt 1.00000000 0.20320209
vt 0.00000000 1.00000000
vt 0.68477492 0.00000000
vt 0.93529690 0.22588579
vt 1.00000000 0.68302930
vt 0.55681079 1.00000000
vt 0.00000000 0.43153625
vt 0.10353347 0.10042296
vt 1.00000000 0.96053634
vt 0.36456805 1.00000000
vt 0.00000000 0.70518277
vt 0.00000000 0.08677433
vt 0.35522577 0.00000000
vt 0.96266130 0.37282263
vt 0.67635903 1.00000000
vt 0.11349803 1.00000000
vt 0.00000000 0.64961006
vt 0.80270913 0.00000000
vt 1.00000000 0.60556262
vt 0.34470238 0.00000000
vt 0.54285802 0.00000000
vt 1.00000000 0.24375646
vt 0.95925195 0.65974149
vt 0.64214125 1.00000000
vt 0.29294866 0.94982185
vt 0.00000000 0.33280803
vt 0.25201313 0.91789918
vt 0.00000000 0.62273035
vt 0.18329004 0.18783524
vt 0.43576297 0.00000000
vt 1.00000000 0.22057057
vt 0.97891792 0.68046369
vt 0.56402389 1.00000000
vt 0.00000000 0.00000000
vt 0.75588236 0.36006242
vt 1.00000000 1.00000000
vt 0.00000000 0.99505161
vt 0.00000000 0.00000000
vt 1.00000000 0.60041064
vt 0.00000000 1.00000000
vt 0.00000000 0.10159036
vt 1.00000000 0.00000000
vt 0.98711694 0.73995783
vt 0.46352563 1.00000000
vt 0.00000000 0.71953047
vt 0.00000000 0.68917395
vt 0.00000000 0.10848619
vt 0.35044184 0.00000000
vt 1.00000000 0.67997058
vt 0.34495303 1.00000000
vt 0.18620747 1.00000000
vt 0.00000000 0.97726112
vt 0.00000000 0.00000000
vt 0.92053249 0.01997882
vt 1.00000000 0.48877831
vt 1.00000000 0.33630045
vt 0.11324225 1.00000000
vt 0.00000000 0.89029391
vt 0.00000000 0.15533191
vt 0.75380248 0.00000000
vt 0.00000000 0.36769865
vt 0.29422007 0.00000000
vt 0.90181336 0.05368188
vt 1.00000000 0.39738997
vt 0.73894674 1.00000000
vt 0.31337379 0.84644844
vt 0.00000000 0.91604933
vt 0.00000000 0.19232920
vt 0.48440060 0.00000000
vt 1.00000000 0.00259786
vt 0.81046433 0.56127944
vt 0.18241800 1.00000000
vt 1.00000000 0.00000000
vt 1.00000000 0.86894650
vt 0.00000000 1.00000000
vt 0.00000000 0.00000000
vt 0.10138894 0.00000000
vt 0.75227001 0.00000000
vt 1.00000000 0.35501437
vt 0.97724775 0.70275862
vt 0.38452003 1.00000000
vt 0.18994632 1.00000000
vt 0.00000000 0.36967367
vt 0.71141775 1.00000000
vt 0.11140600 0.96526856
vt 0.00000000 0.69533996
vt 0.11140600 0.00000000
vt 1.00000000 0.10444988
vt 0.21027297 1.00000000
vt 0.00000000 0.43430593
vt 0.19160474 0.00000000
vt 0.75304585 0.00000000
vt 1.00000000 0.38068625
vt 0.00000000 0.37171721
vt 0.14835833 0.00000000
vt 1.00000000 0.39223465
vt 0.50534156 1.00000000
vt 0.88215254 0.29088644
vt 1.00000000 0.45256200
vt 0.65901567 0.96099997
vt 0.04044561 1.00000000
vt 0.00000000 0.93998467
vt 0.00000000 0.07538365
vt 0.14064858 0.00000000
vt 0.77771936 0.22867594
vt 1.00000000 0.72442658
vt 0.39684414 1.00000000
vt 0.00000000 0.85426507
vt 0.33958395 0.00000000
vt 1.00000000 0.28245251
vt 0.75216878 0.72437219
vt 0.20460215 1.00000000
vt 0.00000000 0.85462415
vt 0.00000000 0.06058144
vt 0.19449578 0.00000000
vt 0.00000000 0.95400682
vt 0.00000000 0.00000000
vt 1.00000000 0.33711519
vt 0.14508912 1.00000000
vt 0.92561941 0.19101468
vt 1.00000000 0.64528445
vt 0.24284626 1.00000000
vt 0.02057442 0.72327272
vt 0.00000000 0.00000000
vt 1.00000000 1.00000000
vt 0.36905647 0.96887672
vt 0.00000000 0.28283288
vt 0.36905647 0.00000000
vt 0.98582785 0.42329263
vn -0.19438185 0.20164644 -0.95997625
vn -0.19438185 0.20164644 -0.95997625
vn -0.19438185 0.20164644 -0.95997625
vn -0.19438185 0.20164644 -0.95997625
vn -0.19438185 0.20164644 -0.95997625
vn -0.19438185 0.20164644 -0.95997625
vn -0.19438185 0.20164644 -0.95997625
vn -0.94658831 0.12297698 -0.29807253
vn -0.94658831 0.12297698 -0.29807253
vn -0.94658831 0.12297698 -0.29807253
vn -0.94658831 0.12297698 -0.29807253
vn -0.94658831 0.12297698 -0.29807253
vn -0.73388130 0.57640849 0.35940434
vn -0.73388130 0.57640849 0.35940434
vn -0.73388130 0.57640849 0.35940434
vn -0.73388130 0.57640849 0.35940434
vn -0.73388130 0.57640849 0.35940434
vn -0.73388130 0.57640849 0.35940434
vn -0.73388130 0.57640849 0.35940434
vn 0.00069018 0.99733809 -0.07291272
vn 0.00069018 0.99733809 -0.07291272
vn 0.00069018 0.99733809 -0.07291272
vn 0.00069018 0.99733809 -0.07291272
vn 0.00069018 0.99733809 -0.07291272
vn 0.00069018 0.99733809 -0.07291272
vn 0.59520693 0.59461251 -0.54052260
vn 0.59520693 0.59461251 -0.54052260
vn 0.59520693 0.59461251 -0.54052260
vn 0.59520693 0.59461251 -0.54052260
vn 0.59520693 0.59461251 -0.54052260
vn 0.59520693 0.59461251 -0.54052260
vn 0.59520693 0.59461251 -0.54052260
vn 0.77485282 0.24006610 -0.58478318
vn 0.77485282 0.24006610 -0.58478318
vn 0.77485282 0.24006610 -0.58478318
vn 0.77485282 0.24006610 -0.58478318
vn 0.77485282 0.24006610 -0.58478318
vn 0.73932309 -0.53249974 -0.41212304
vn 0.73932309 -0.53249974 -0.41212304
vn 0.73932309 -0.53249974 -0.41212304
vn 0.73932309 -0.53249974 -0.41212304
vn 0.73932309 -0.53249974 -0.41212304
vn 0.73932309 -0.53249974 -0.41212304
vn 0.30594190 -0.83402699 -0.45912801
vn 0.30594190 -0.83402699 -0.45912801
vn 0.30594190 -0.83402699 -0.45912801
vn 0.30594190 -0.83402699 -0.45912801
vn -0.00069192 -0.99985703 0.01689484
vn -0.00069192 -0.99985703 0.01689484
vn -0.00069192 -0.99985703 0.01689484
vn -0.00069192 -0.99985703 0.01689484
vn -0.00069192 -0.99985703 0.01689484
vn -0.00069192 -0.99985703 0.01689484
vn -0.77900280 -0.56186565 0.27831928
vn -0.77900280 -0.56186565 0.27831928
vn -0.77900280 -0.56186565 0.27831928
vn -0.77900280 -0.56186565 0.27831928
vn -0.77900280 -0.56186565 0.27831928
vn -0.77900280 -0.56186565 0.27831928
vn -0.35704887 -0.35504166 0.86398005
vn -0.35704887 -0.35504166 0.86398005
vn -0.35704887 -0.35504166 0.86398005
vn -0.35704887 -0.35504166 0.86398005
vn -0.35704887 -0.35504166 0.86398005
vn -0.00014681 -0.21213965 0.97723935
vn -0.00014681 -0.21213965 0.97723935
vn -0.00014681 -0.21213965 0.97723935
vn -0.00014681 -0.21213965 0.97723935
vn -0.00014681 -0.21213965 0.97723935
vn -0.00014681 -0.21213965 0.97723935
vn -0.00014681 -0.21213965 0.97723935
vn 0.87975580 -0.18112119 0.43957348
vn 0.87975580 -0.18112119 0.43957348
vn 0.87975580 -0.18112119 0.43957348
vn 0.87975580 -0.18112119 0.43957348
vn 0.87975580 -0.18112119 0.43957348
vn 0.87975580 -0.18112119 0.43957348
vn 0.87975580 -0.18112119 0.43957348
vn 0.86994890 0.24828189 0.42608099
vn 0.86994890 0.24828189 0.42608099
vn 0.86994890 0.24828189 0.42608099
vn 0.86994890 0.24828189 0.42608099
vn 0.20131786 0.16369664 0.96575076
vn 0.20131786 0.16369664 0.96575076
vn 0.20131786 0.16369664 0.96575076
vn -0.09476800 -0.78249035 0.61540871
vn -0.09476800 -0.78249035 0.61540871
vn -0.09476800 -0.78249035 0.61540871
vn -0.09476800 -0.78249035 0.61540871
vn -0.09476800 -0.78249035 0.61540871
vn 0.50141121 -0.59867187 0.62464293
vn 0.50141121 -0.59867187 0.62464293
vn 0.50141121 -0.59867187 0.62464293
vn 0.50141121 -0.59867187 0.62464293
vn 0.50141121 -0.59867187 0.62464293
vn 0.76700270 -0.62822351 0.13054535
vn 0.76700270 -0.62822351 0.13054535
vn 0.76700270 -0.62822351 0.13054535
vn 0.76700270 -0.62822351 0.13054535
vn 0.76700270 -0.62822351 0.13054535
vn 0.98315349 -0.14991888 0.10456361
vn 0.98315349 -0.14991888 0.10456361
vn 0.98315349 -0.14991888 0.10456361
vn 0.98315349 -0.14991888 0.10456361
vn 0.98315349 -0.14991888 0.10456361
vn 0.96193536 0.23173152 0.14484771
vn 0.96193536 0.23173152 0.14484771
vn 0.96193536 0.23173152 0.14484771
vn 0.96193536 0.23173152 0.14484771
vn 0.96193536 0.23173152 0.14484771
vn 0.96193536 0.23173152 0.14484771
vn 0.46976292 0.78919694 0.39558943
vn 0.46976292 0.78919694 0.39558943
vn 0.46976292 0.78919694 0.39558943
vn 0.46976292 0.78919694 0.39558943
vn 0.46976292 0.78919694 0.39558943
vn 0.46976292 0.78919694 0.39558943
vn 0.00058713 0.84842263 0.52931909
vn 0.00058713 0.84842263 0.52931909
vn 0.00058713 0.84842263 0.52931909
vn 0.00058713 0.84842263 0.52931909
vn 0.00042555 0.61494301 0.78857144
vn 0.00042555 0.61494301 0.78857144
vn 0.00042555 0.61494301 0.78857144
vn 0.00042555 0.61494301 0.78857144
vn 0.00042555 0.61494301 0.78857144
vn 0.00042555 0.61494301 0.78857144
vn 0.00042555 0.61494301 0.78857144
vn -0.52211852 0.36873679 0.76904189
vn -0.52211852 0.36873679 0.76904189
vn -0.52211852 0.36873679 0.76904189
vn -0.52211852 0.36873679 0.76904189
vn -0.52211852 0.36873679 0.76904189
vn -0.94553155 -0.12341223 0.30122999
vn -0.94553155 -0.12341223 0.30122999
vn -0.94553155 -0.12341223 0.30122999
vn -0.94553155 -0.12341223 0.30122999
vn -0.94553155 -0.12341223 0.30122999
vn -0.96564242 -0.22035992 -0.13775418
vn -0.96564242 -0.22035992 -0.13775418
vn -0.96564242 -0.22035992 -0.13775418
vn -0.96564242 -0.22035992 -0.13775418
vn -0.58848704 -0.50987280 -0.62746533
vn -0.58848704 -0.50987280 -0.62746533
vn -0.58848704 -0.50987280 -0.62746533
vn -0.58848704 -0.50987280 -0.62746533
vn -0.58848704 -0.50987280 -0.62746533
vn -0.58848704 -0.50987280 -0.62746533
vn -0.58848704 -0.50987280 -0.62746533
vn -0.00025738 -0.37193020 -0.92826066
vn -0.00025738 -0.37193020 -0.92826066
vn -0.00025738 -0.37193020 -0.92826066
vn -0.00025738 -0.37193020 -0.92826066
vn -0.00025738 -0.37193020 -0.92826066
vn 0.23150361 0.17706845 -0.95658394
vn 0.23150361 0.17706845 -0.95658394
vn 0.23150361 0.17706845 -0.95658394
vn 0.23150361 0.17706845 -0.95658394
vn 0.23150361 0.17706845 -0.95658394
vn 0.23150361 0.17706845 -0.95658394
vn -0.01087028 0.31870409 -0.94779193
vn -0.01087028 0.31870409 -0.94779193
vn -0.01087028 0.31870409 -0.94779193
vn -0.01087028 0.31870409 -0.94779193
vn -0.03037622 0.53024003 -0.84730325
vn -0.03037622 0.53024003 -0.84730325
vn -0.03037622 0.53024003 -0.84730325
vn -0.03037622 0.53024003 -0.84730325
vn -0.03037622 0.53024003 -0.84730325
vn -0.42382643 0.63897792 -0.64193331
vn -0.42382643 0.63897792 -0.64193331
vn -0.42382643 0.63897792 -0.64193331
vn -0.42382643 0.63897792 -0.64193331
vn -0.42382643 0.63897792 -0.64193331
s 1
usemtl Rock
f 2/2/2 3/3/3 4/4/4
f 2/2/2 5/5/5 7/7/7
f 5/5/5 6/6/6 7/7/7
f 7/7/7 1/1/1 2/2/2
f 2/2/2 4/4/4 5/5/5
s 2
f 2/9/9 1/8/8 10/12/12
f 10/12/12 9/11/11 8/10/10
f 8/10/10 2/9/9 10/12/12
s 3
f 13/17/17 12/16/16 11/15/15
f 14/18/18 11/15/15 9/13/13
f 9/13/13 15/19/19 14/18/18
f 11/15/15 8/14/14 9/13/13
f 14/18/18 13/17/17 11/15/15
s 4
f 19/25/25 18/24/24 17/23/23
f 19/25/25 16/22/22 12/20/20
f 16/22/22 11/21/21 12/20/20
f 19/25/25 17/23/23 16/22/22
s 5
f 18/27/27 20/28/28 21/29/29
f 21/29/29 23/31/31 24/32/32
f 21/29/29 22/30/30 23/31/31
f 24/32/32 18/27/27 21/29/29
f 24/32/32 17/26/26 18/27/27
s 6
f 27/35/35 26/34/34 25/33/33
f 22/37/37 27/35/35 25/33/33
f 22/37/37 21/36/36 27/35/35
s 7
f 31/43/43 25/42/42 26/41/41
f 31/43/43 30/40/40 28/38/38
f 30/40/40 29/39/39 28/38/38
f 31/43/43 26/41/41 30/40/40
s 8
f 32/45/45 28/44/44 29/47/47
f 29/47/47 33/46/46 32/45/45
s 9
f 29/50/50 35/49/49 34/48/48
f 36/52/52 33/51/51 34/48/48
f 34/48/48 37/53/53 36/52/52
f 33/51/51 29/50/50 34/48/48
s 10
f 40/58/58 36/57/57 37/56/56
f 41/59/59 37/56/56 38/54/54
f 37/56/56 39/55/55 38/54/54
f 41/59/59 40/58/58 37/56/56
s 11
f 38/60/60 39/64/64 44/63/63
f 44/63/63 43/62/62 38/60/60
f 43/62/62 42/61/61 38/60/60
s 12
f 46/66/66 45/65/65 43/71/71
f 44/70/70 48/68/68 46/66/66
f 44/70/70 49/69/69 48/68/68
f 46/66/66 43/71/71 44/70/70
f 48/68/68 47/67/67 46/66/66
s 13
f 52/75/75 51/74/74 50/73/73
f 50/73/73 47/72/72 48/78/78
f 48/78/78 54/77/77 53/76/76
f 48/78/78 53/76/76 52/75/75
f 52/75/75 50/73/73 48/78/78
s 14
f 51/82/82 56/81/81 55/80/80
f 51/82/82 55/80/80 50/79/79
s 15
f 46/83/83 47/84/84 50/85/85
s 16
f 44/89/89 39/90/90 37/86/86
f 37/86/86 34/87/87 44/89/89
f 34/87/87 49/88/88 44/89/89
s 17
f 34/91/91 35/92/92 54/93/93
f 54/93/93 48/94/94 49/95/95
f 49/95/95 34/91/91 54/93/93
s 18
f 29/98/98 30/97/97 53/96/96
f 54/100/100 29/98/98 53/96/96
f 54/100/100 35/99/99 29/98/98
s 19
f 26/104/104 27/105/105 52/101/101
f 52/101/101 53/102/102 30/103/103
f 30/103/103 26/104/104 52/101/101
s 20
f 21/109/109 20/108/108 56/107/107
f 27/110/110 21/109/109 51/106/106
f 51/106/106 52/111/111 27/110/110
f 21/109/109 56/107/107 51/106/106
s 21
f 57/116/116 55/115/115 56/114/114
f 19/117/117 57/116/116 20/113/113
f 20/113/113 18/112/112 19/117/117
f 57/116/116 56/114/114 20/113/113
s 22
f 13/121/121 57/120/120 19/119/119
f 13/121/121 19/119/119 12/118/118
s 23
f 50/125/125 55/124/124 57/123/123
f 14/128/128 46/126/126 57/123/123
f 14/128/128 45/127/127 46/126/126
f 57/123/123 13/122/122 14/128/128
f 46/126/126 50/125/125 57/123/123
s 24
f 15/129/129 42/130/130 43/131/131
f 15/129/129 45/132/132 14/133/133
f 15/129/129 43/131/131 45/132/132
s 25
f 41/138/138 38/137/137 42/136/136
f 42/136/136 15/135/135 9/134/134
f 41/138/138 42/136/136 9/134/134
s 26
f 10/141/141 40/140/140 41/139/139
f 9/142/142 10/141/141 41/139/139
s 27
f 10/143/143 1/144/144 7/145/145
f 10/143/143 32/146/146 33/147/147
f 33/147/147 36/148/148 40/149/149
f 33/147/147 40/149/149 10/143/143
f 10/143/143 7/145/145 32/146/146
s 28
f 31/151/151 28/150/150 32/154/154
f 32/154/154 7/153/153 31/151/151
f 7/153/153 6/152/152 31/151/151
s 29
f 5/156/156 23/157/157 22/158/158
f 6/155/155 22/158/158 25/159/159
f 25/159/159 31/160/160 6/155/155
f 6/155/155 5/156/156 22/158/158
s 30
f 5/162/162 4/163/163 24/164/164
f 23/161/161 5/162/162 24/164/164
s 31
f 4/168/168 3/167/167 16/166/166
f 24/169/169 4/168/168 17/165/165
f 4/168/168 16/166/166 17/165/165
s 32
f 3/174/174 2/173/173 8/172/172
f 3/174/174 8/172/172 11/171/171
f 11/171/171 16/170/170 3/174/174
