mtllib Prop_Track_Sign_Upcoming_Esse.mtl
o Sign_Black_Paint
g Sign_Black_Paint
v 0.03000000 1.10582674 0.06191283
v 0.03000000 1.14889523 0.06500001
v 0.03000000 1.14889523 0.13000001
v 0.03000000 1.30056190 0.02166668
v 0.03000000 1.27022891 0.00000026
v 0.03000000 1.14889523 -0.08666665
v 0.03000000 1.14889523 -0.02166665
v 0.03000000 1.10607789 -0.02770203
v 0.03000000 1.06874511 -0.04923154
v 0.03000000 1.03957101 -0.08131191
v 0.03000000 1.01014376 -0.11317135
v 0.03000000 0.97377434 -0.13655573
v 0.03000000 0.93214746 -0.14847036
v 0.03000000 0.88889523 -0.15166665
v 0.03000000 0.88889523 -0.06499999
v 0.03000000 0.93097129 -0.05666092
v 0.03000000 0.96577387 -0.03145452
v 0.03000000 0.98074677 -0.01507201
v 0.03000000 0.99492707 0.00044328
v 0.03000000 1.02653523 0.02982695
v 0.03000000 1.06413499 0.05087198
vt 0.75827036 0.52695912
vt 0.76923077 0.63157895
vt 1.00000000 0.63157895
vt 0.61538462 1.00000000
vt 0.53846241 0.92631663
vt 0.23076923 0.63157895
vt 0.46153846 0.63157895
vt 0.44011108 0.52756920
vt 0.36367498 0.43688230
vt 0.24978017 0.36601403
vt 0.13666973 0.29453084
vt 0.05364825 0.20618405
vt 0.01134778 0.10506613
vt 0.00000000 0.00000000
vt 0.30769231 0.00000000
vt 0.33729847 0.10220905
vt 0.42678865 0.18674974
vt 0.48495140 0.22312115
vt 0.54003527 0.25756722
vt 0.64435600 0.33434817
vt 0.71907206 0.42568362
vn 1.00000000 0.00000000 0.00000000
vn 1.00000000 0.00000000 0.00000000
vn 1.00000000 0.00000000 0.00000000
vn 1.00000000 0.00000000 0.00000000
vn 1.00000000 0.00000000 0.00000000
vn 1.00000000 0.00000000 0.00000000
vn 1.00000000 0.00000000 0.00000000
vn 1.00000000 0.00000000 0.00000000
vn 1.00000000 0.00000000 0.00000000
vn 1.00000000 0.00000000 0.00000000
vn 1.00000000 0.00000000 0.00000000
vn 1.00000000 0.00000000 0.00000000
vn 1.00000000 0.00000000 0.00000000
vn 1.00000000 0.00000000 0.00000000
vn 1.00000000 0.00000000 0.00000000
vn 1.00000000 0.00000000 0.00000000
vn 1.00000000 0.00000000 0.00000000
vn 1.00000000 0.00000000 0.00000000
vn 1.00000000 0.00000000 0.00000000
vn 1.00000000 0.00000000 0.00000000
vn 1.00000000 0.00000000 0.00000000
s 1
usemtl black
f 15/15/15 14/14/14 13/13/13
f 16/16/16 13/13/13 12/12/12
f 17/17/17 16/16/16 11/11/11
f 18/18/18 11/11/11 10/10/10
f 19/19/19 10/10/10 9/9/9
f 20/20/20 9/9/9 8/8/8
f 1/1/1 8/8/8 7/7/7
f 2/2/2 7/7/7 5/5/5
f 4/4/4 3/3/3 2/2/2
f 2/2/2 5/5/5 4/4/4
f 7/7/7 6/6/6 5/5/5
f 2/2/2 1/1/1 7/7/7
f 1/1/1 21/21/21 8/8/8
f 21/21/21 20/20/20 8/8/8
f 20/20/20 19/19/19 9/9/9
f 19/19/19 18/18/18 10/10/10
f 18/18/18 17/17/17 11/11/11
f 16/16/16 12/12/12 11/11/11
f 16/16/16 15/15/15 13/13/13
o Sign_Post
g Sign_Post
v -0.01580703 1.23873741 -0.02580703
v -0.01580703 0.00000000 -0.02580703
v -0.01580703 0.00000000 0.02580703
v -0.01580703 1.23873741 0.02580703
v 0.01000000 0.00000000 0.02580703
v 0.01000000 1.23873741 0.02580703
v 0.01000000 1.23873741 -0.02580703
v 0.01000000 0.00000000 -0.02580703
vt 0.00000000 1.00000000
vt 0.00000000 0.00000000
vt 1.00000000 0.00000000
vt 1.00000000 1.00000000
vt 0.00000000 1.00000000
vt 0.00000000 0.00000000
vt 1.00000000 0.00000000
vt 1.00000000 1.00000000
vt 0.00000000 1.00000000
vt 0.00000000 0.00000000
vt 1.00000000 0.00000000
vt 1.00000000 1.00000000
vt 0.00000000 1.00000000
vt 0.00000000 0.00000000
vt 1.00000000 0.00000000
vt 1.00000000 1.00000000
vt 0.00000000 1.00000000
vt 0.00000000 0.00000000
vt 1.00000000 0.00000000
vt 1.00000000 1.00000000
vn -1.00000000 0.00000000 -0.00000001
vn -1.00000000 0.00000000 -0.00000001
vn -1.00000000 0.00000000 -0.00000001
vn -1.00000000 0.00000000 -0.00000001
vn -0.00000001 0.00000000 1.00000000
vn -0.00000001 0.00000000 1.00000000
vn -0.00000001 0.00000000 1.00000000
vn -0.00000001 0.00000000 1.00000000
vn 1.00000000 0.00000000 0.00000001
vn 1.00000000 0.00000000 0.00000001
vn 1.00000000 0.00000000 0.00000001
vn 1.00000000 0.00000000 0.00000001
vn 0.00000000 1.00000000 0.00000000
vn 0.00000000 1.00000000 0.00000000
vn 0.00000000 1.00000000 0.00000000
vn 0.00000000 1.00000000 0.00000000
vn 0.00000001 0.00000000 -1.00000000
vn 0.00000001 0.00000000 -1.00000000
vn 0.00000001 0.00000000 -1.00000000
vn 0.00000001 0.00000000 -1.00000000
s 1
usemtl Iron_Grey
f 22/22/22 23/23/23 25/25/25
f 23/23/23 24/24/24 25/25/25
s 2
f 25/26/26 24/27/27 27/29/29
f 24/27/27 26/28/28 27/29/29
s 3
f 27/33/33 26/32/32 28/30/30
f 26/32/32 29/31/31 28/30/30
s 4
f 27/37/37 28/36/36 25/34/34
f 28/36/36 22/35/35 25/34/34
s 5
f 28/41/41 29/40/40 22/38/38
f 29/40/40 23/39/39 22/38/38
o Sign_Yellow
g Sign_Yellow
v 0.01000000 0.89342902 -0.25807029
v 0.03000000 0.89342902 -0.25807028
v 0.03000000 1.27436145 -0.25807028
v 0.01000000 1.27436145 -0.25807029
v 0.03000000 1.09472857 -0.25807028
v 0.01000000 1.30441349 -0.24562233
v 0.03000000 1.30441349 -0.24562232
v 0.01000000 1.32951756 -0.22051825
v 0.03000000 1.32951756 -0.22051824
v 0.01000000 1.34196553 -0.19046621
v 0.03000000 1.34196553 -0.19046620
v 0.03000000 1.34196553 0.19046623
v 0.01000000 1.34196553 0.19046622
v 0.01000000 1.32951756 0.22051826
v 0.03000000 1.32951756 0.22051827
v 0.01000000 1.30441349 0.24562234
v 0.03000000 1.30441349 0.24562234
v 0.01000000 1.27436145 0.25807030
v 0.03000000 1.27436145 0.25807031
v 0.01000000 0.89342902 0.25807030
v 0.03000000 0.89342902 0.25807031
v 0.03000000 1.09472857 0.25807031
v 0.01000000 0.86337698 0.24562234
v 0.03000000 0.86337698 0.24562234
v 0.01000000 0.83827290 0.22051826
v 0.03000000 0.83827290 0.22051827
v 0.01000000 0.82582494 0.19046622
v 0.03000000 0.82582494 0.19046623
v 0.01000000 0.82582494 -0.19046621
v 0.03000000 0.82582494 -0.19046620
v 0.01000000 0.83827290 -0.22051825
v 0.03000000 0.83827290 -0.22051824
v 0.01000000 0.86337698 -0.24562233
v 0.03000000 0.86337698 -0.24562232
v 0.03000000 1.09472857 0.05897380
v 0.03000000 1.06413499 0.05087198
v 0.03000000 1.02653523 0.02982695
v 0.03000000 0.99492707 0.00044328
v 0.03000000 0.98074677 -0.01507201
v 0.03000000 0.96577387 -0.03145452
v 0.03000000 0.93097129 -0.05666092
v 0.03000000 0.88889523 -0.06499999
v 0.03000000 0.88889523 -0.15166665
v 0.03000000 0.93214746 -0.14847036
v 0.03000000 0.97377434 -0.13655573
v 0.03000000 1.01014376 -0.11317135
v 0.03000000 1.03957101 -0.08131191
v 0.03000000 1.06874511 -0.04923154
v 0.03000000 1.09472857 -0.03424709
v 0.03000000 1.10607789 -0.02770203
v 0.03000000 1.14889523 -0.02166665
v 0.03000000 1.14889523 -0.08666665
v 0.03000000 1.27022891 0.00000026
v 0.03000000 1.30056190 0.02166668
v 0.03000000 1.14889523 0.13000001
v 0.03000000 1.14889523 0.06500001
v 0.03000000 1.10582674 0.06191283
vt 0.00000000 0.00000000
vt 1.00000000 0.00000000
vt 1.00000000 1.00000000
vt 0.00000000 1.00000000
vt 1.00000000 0.52843899
vt 0.00000000 0.00000000
vt 1.00000000 0.00000000
vt 0.99999975 0.99999986
vt 0.00000000 0.99999995
vt 0.00000000 0.00000000
vt 1.00000000 0.00000000
vt 0.99999949 0.99999984
vt 0.00000000 1.00000000
vt 0.00000000 0.00000000
vt 1.00000000 0.00000000
vt 0.99999939 0.99999965
vt 0.00000000 0.99999988
vt 1.00000000 1.00000000
vt 0.00000779 1.00000000
vt 0.00000000 0.00000000
vt 1.00000000 0.00000000
vt 0.00000000 0.00000000
vt 1.00000000 0.00000000
vt 0.99999939 0.99999965
vt 0.00000000 0.99999988
vt 0.00000000 0.00000000
vt 1.00000000 0.00000000
vt 0.99999949 0.99999984
vt 0.00000000 1.00000000
vt 0.00000000 0.00000000
vt 1.00000000 0.00000000
vt 0.99999975 0.99999986
vt 0.00000000 0.99999995
vt 0.00000000 0.00000000
vt 1.00000000 0.00000000
vt 1.00000000 1.00000000
vt 0.00000000 1.00000000
vt 1.00000000 0.52843899
vt 0.00000000 0.00000000
vt 1.00000000 0.00000000
vt 1.00000000 1.00000000
vt 0.00000025 1.00000000
vt 0.00000000 0.00000000
vt 1.00000000 0.00000000
vt 1.00000000 1.00000000
vt 0.00000051 1.00000000
vt 0.00000000 0.00000000
vt 1.00000000 0.00000000
vt 1.00000000 1.00000000
vt 0.00000061 1.00000000
vt 0.00000000 0.00000000
vt 1.00000000 0.00000000
vt 1.00000000 1.00000000
vt 0.00000779 1.00000000
vt 0.00000000 0.00000000
vt 1.00000000 0.00000000
vt 1.00000000 1.00000000
vt 0.00000061 1.00000000
vt 0.00000000 0.00000000
vt 1.00000000 0.00000000
vt 1.00000000 1.00000000
vt 0.00000051 1.00000000
vt 1.00000000 0.86902003
vt 0.97588261 0.92724455
vt 0.92724455 0.97588261
vt 0.86902003 1.00000000
vt 0.13097997 1.00000000
vt 0.07275545 0.97588261
vt 0.02411739 0.92724455
vt 0.00000000 0.86902003
vt 0.00000000 0.13097997
vt 0.02411739 0.07275545
vt 0.07275545 0.02411739
vt 0.13097997 0.00000000
vt 0.86902003 0.00000000
vt 0.92724455 0.02411739
vt 0.97588261 0.07275545
vt 1.00000000 0.13097997
vt 0.00000000 0.00000000
vt 1.00000000 0.00000000
vt 1.00000000 1.00000000
vt 0.00000025 1.00000000
vt 0.61425915 0.52098911
vt 0.59856222 0.46171539
vt 0.55778840 0.38886748
vt 0.50085881 0.32762805
vt 0.47079861 0.30015433
vt 0.43905821 0.27114499
vt 0.39022190 0.20371650
vt 0.37406532 0.12219596
vt 0.20615241 0.12219596
vt 0.21234509 0.20599527
vt 0.23542917 0.28664554
vt 0.28073540 0.35710973
vt 0.34246169 0.41412374
vt 0.40461601 0.47064730
vt 0.43364772 0.52098911
vt 0.00000000 0.52098911
vt 0.00000000 0.13097997
vt 0.02411739 0.07275545
vt 0.07275545 0.02411739
vt 0.13097997 0.00000000
vt 0.86902003 0.00000000
vt 0.92724455 0.02411739
vt 0.97588261 0.07275545
vt 1.00000000 0.13097997
vt 1.00000000 0.52098911
vt 0.44632849 0.54297793
vt 0.45802177 0.62593468
vt 0.33208709 0.62593468
vt 0.50000048 0.86101342
vt 0.54197823 0.91978227
vt 0.75186936 0.62593468
vt 0.62593468 0.62593468
vt 0.61995340 0.54249134
vt 1.00000000 0.86902003
vt 0.97588261 0.92724455
vt 0.92724455 0.97588261
vt 0.86902003 1.00000000
vt 0.13097997 1.00000000
vt 0.07275545 0.97588261
vt 0.02411739 0.92724455
vt 0.00000000 0.86902003
vn 0.00000041 -0.00000000 -1.00000000
vn 0.00000041 0.00000000 -1.00000000
vn 0.00000041 0.00000000 -1.00000000
vn 0.00000041 -0.00000000 -1.00000000
vn 0.00000041 0.00000000 -1.00000000
vn 0.00000038 0.38268343 -0.92387953
vn 0.00000038 0.38268343 -0.92387953
vn 0.00000038 0.38268343 -0.92387953
vn 0.00000038 0.38268343 -0.92387953
vn 0.00000029 0.70710678 -0.70710678
vn 0.00000029 0.70710678 -0.70710678
vn 0.00000029 0.70710678 -0.70710678
vn 0.00000029 0.70710678 -0.70710678
vn 0.00000016 0.92387953 -0.38268343
vn 0.00000016 0.92387953 -0.38268343
vn 0.00000016 0.92387953 -0.38268343
vn 0.00000016 0.92387953 -0.38268343
vn -0.00000000 1.00000000 -0.00000000
vn -0.00000000 1.00000000 -0.00000000
vn -0.00000000 1.00000000 -0.00000000
vn -0.00000000 1.00000000 -0.00000000
vn -0.00000016 0.92387953 0.38268343
vn -0.00000016 0.92387953 0.38268343
vn -0.00000016 0.92387953 0.38268343
vn -0.00000016 0.92387953 0.38268343
vn -0.00000029 0.70710678 0.70710678
vn -0.00000029 0.70710678 0.70710678
vn -0.00000029 0.70710678 0.70710678
vn -0.00000029 0.70710678 0.70710678
vn -0.00000038 0.38268343 0.92387953
vn -0.00000038 0.38268343 0.92387953
vn -0.00000038 0.38268343 0.92387953
vn -0.00000038 0.38268343 0.92387953
vn -0.00000041 0.00000000 1.00000000
vn -0.00000041 0.00000000 1.00000000
vn -0.00000041 0.00000000 1.00000000
vn -0.00000041 0.00000000 1.00000000
vn -0.00000041 0.00000000 1.00000000
vn -0.00000038 -0.38268343 0.92387953
vn -0.00000038 -0.38268343 0.92387953
vn -0.00000038 -0.38268343 0.92387953
vn -0.00000038 -0.38268343 0.92387953
vn -0.00000029 -0.70710678 0.70710678
vn -0.00000029 -0.70710678 0.70710678
vn -0.00000029 -0.70710678 0.70710678
vn -0.00000029 -0.70710678 0.70710678
vn -0.00000016 -0.92387953 0.38268343
vn -0.00000016 -0.92387953 0.38268343
vn -0.00000016 -0.92387953 0.38268343
vn -0.00000016 -0.92387953 0.38268343
vn 0.00000000 -1.00000000 0.00000000
vn 0.00000000 -1.00000000 0.00000000
vn 0.00000000 -1.00000000 0.00000000
vn 0.00000000 -1.00000000 0.00000000
vn 0.00000016 -0.92387953 -0.38268343
vn 0.00000016 -0.92387953 -0.38268343
vn 0.00000016 -0.92387953 -0.38268343
vn 0.00000016 -0.92387953 -0.38268343
vn 0.00000029 -0.70710678 -0.70710678
vn 0.00000029 -0.70710678 -0.70710678
vn 0.00000029 -0.70710678 -0.70710678
vn 0.00000029 -0.70710678 -0.70710678
vn -1.00000000 0.00000000 -0.00000000
vn -1.00000000 0.00000000 -0.00000000
vn -1.00000000 0.00000000 -0.00000000
vn -1.00000000 0.00000000 -0.00000000
vn -1.00000000 0.00000000 -0.00000000
vn -1.00000000 0.00000000 -0.00000000
vn -1.00000000 0.00000000 -0.00000000
vn -1.00000000 0.00000000 -0.00000000
vn -1.00000000 0.00000000 -0.00000000
vn -1.00000000 0.00000000 -0.00000000
vn -1.00000000 0.00000000 -0.00000000
vn -1.00000000 0.00000000 -0.00000000
vn -1.00000000 0.00000000 -0.00000000
vn -1.00000000 0.00000000 -0.00000000
vn -1.00000000 0.00000000 -0.00000000
vn -1.00000000 0.00000000 -0.00000000
vn 0.00000038 -0.38268343 -0.92387953
vn 0.00000038 -0.38268343 -0.92387953
vn 0.00000038 -0.38268343 -0.92387953
vn 0.00000038 -0.38268343 -0.92387953
vn 1.00000000 0.00000000 0.00000000
vn 1.00000000 0.00000000 0.00000000
vn 1.00000000 0.00000000 0.00000000
vn 1.00000000 0.00000000 0.00000000
vn 1.00000000 0.00000000 0.00000000
vn 1.00000000 0.00000000 0.00000000
vn 1.00000000 0.00000000 0.00000000
vn 1.00000000 0.00000000 0.00000000
vn 1.00000000 0.00000000 0.00000000
vn 1.00000000 0.00000000 0.00000000
vn 1.00000000 0.00000000 0.00000000
vn 1.00000000 0.00000000 0.00000000
vn 1.00000000 0.00000000 0.00000000
vn 1.00000000 0.00000000 0.00000000
vn 1.00000000 0.00000000 0.00000000
vn 1.00000000 0.00000000 0.00000000
vn 1.00000000 0.00000000 0.00000000
vn 1.00000000 0.00000000 0.00000000
vn 1.00000000 0.00000000 0.00000000
vn 1.00000000 0.00000000 0.00000000
vn 1.00000000 0.00000000 0.00000000
vn 1.00000000 0.00000000 0.00000000
vn 1.00000000 0.00000000 0.00000000
vn 1.00000000 0.00000000 0.00000000
vn 1.00000000 0.00000000 0.00000000
vn 1.00000000 0.00000000 0.00000000
vn 1.00000000 0.00000000 0.00000000
vn 1.00000000 0.00000000 0.00000000
vn 1.00000000 0.00000000 0.00000000
vn 1.00000000 0.00000000 0.00000000
vn 1.00000000 0.00000000 0.00000000
vn 1.00000000 0.00000000 0.00000000
vn 1.00000000 0.00000000 0.00000000
vn 1.00000000 0.00000000 0.00000000
vn 1.00000000 0.00000000 0.00000000
vn 1.00000000 0.00000000 0.00000000
vn 1.00000000 0.00000000 0.00000000
vn 1.00000000 0.00000000 0.00000000
vn 1.00000000 0.00000000 0.00000000
vn 1.00000000 0.00000000 0.00000000
vn 1.00000000 0.00000000 0.00000000
s 1
usemtl Yellow
f 33/45/45 32/44/44 34/46/46
f 34/46/46 31/43/43 30/42/42
f 33/45/45 34/46/46 30/42/42
s 2
f 35/47/47 36/48/48 32/49/49
f 35/47/47 32/49/49 33/50/50
s 3
f 37/51/51 38/52/52 36/53/53
f 37/51/51 36/53/53 35/54/54
s 4
f 39/55/55 40/56/56 38/57/57
f 39/55/55 38/57/57 37/58/58
s 5
f 40/62/62 39/61/61 42/60/60
f 40/62/62 42/60/60 41/59/59
s 6
f 43/63/63 44/64/64 41/65/65
f 43/63/63 41/65/65 42/66/66
s 7
f 45/67/67 46/68/68 44/69/69
f 45/67/67 44/69/69 43/70/70
s 8
f 47/71/71 48/72/72 46/73/73
f 47/71/71 46/73/73 45/74/74
s 9
f 51/79/79 48/77/77 47/78/78
f 49/75/75 51/79/79 47/78/78
f 49/75/75 50/76/76 51/79/79
s 10
f 52/80/80 53/81/81 49/83/83
f 53/81/81 50/82/82 49/83/83
s 11
f 54/84/84 55/85/85 52/87/87
f 55/85/85 53/86/86 52/87/87
s 12
f 56/88/88 57/89/89 54/91/91
f 57/89/89 55/90/90 54/91/91
s 13
f 58/92/92 59/93/93 56/95/95
f 59/93/93 57/94/94 56/95/95
s 14
f 60/96/96 61/97/97 58/99/99
f 61/97/97 59/98/98 58/99/99
s 15
f 62/100/100 63/101/101 60/103/103
f 63/101/101 61/102/102 60/103/103
s 16
f 62/113/113 60/114/114 58/115/115
f 30/112/112 58/115/115 56/116/116
f 33/111/111 56/116/116 47/104/104
f 47/104/104 43/106/106 42/107/107
f 47/104/104 45/105/105 43/106/106
f 47/104/104 42/107/107 33/111/111
f 42/107/107 39/108/108 33/111/111
f 39/108/108 37/109/109 35/110/110
f 39/108/108 35/110/110 33/111/111
f 56/116/116 49/119/119 47/104/104
f 56/116/116 52/118/118 49/119/119
f 56/116/116 54/117/117 52/118/118
f 33/111/111 30/112/112 56/116/116
f 30/112/112 62/113/113 58/115/115
s 17
f 30/120/120 31/121/121 62/123/123
f 31/121/121 63/122/122 62/123/123
s 18
f 53/146/146 55/145/145 57/144/144
f 57/144/144 65/125/125 64/124/124
f 51/148/148 64/124/124 84/154/154
f 41/160/160 84/154/154 83/153/153
f 40/161/161 83/153/153 82/152/152
f 82/152/152 81/151/151 34/139/139
f 59/143/143 34/139/139 73/133/133
f 59/143/143 72/132/132 71/131/131
f 71/131/131 70/130/130 69/129/129
f 59/143/143 73/133/133 72/132/132
f 59/143/143 63/141/141 31/140/140
f 59/143/143 61/142/142 63/141/141
f 34/139/139 74/134/134 73/133/133
f 34/139/139 75/135/135 74/134/134
f 34/139/139 76/136/136 75/135/135
f 78/138/138 77/137/137 76/136/136
f 34/139/139 78/138/138 76/136/136
f 59/143/143 31/140/140 34/139/139
f 81/151/151 78/138/138 34/139/139
f 81/151/151 79/149/149 78/138/138
f 81/151/151 80/150/150 79/149/149
f 82/152/152 34/139/139 40/161/161
f 34/139/139 32/164/164 40/161/161
f 32/164/164 36/163/163 38/162/162
f 32/164/164 38/162/162 40/161/161
f 40/161/161 41/160/160 83/153/153
f 41/160/160 46/158/158 48/157/157
f 41/160/160 44/159/159 46/158/158
f 86/156/156 85/155/155 84/154/154
f 41/160/160 51/148/148 84/154/154
f 41/160/160 48/157/157 51/148/148
f 64/124/124 86/156/156 84/154/154
f 57/144/144 66/126/126 65/125/125
f 57/144/144 67/127/127 66/126/126
f 57/144/144 68/128/128 67/127/127
f 57/144/144 69/129/129 68/128/128
f 57/144/144 71/131/131 69/129/129
f 57/144/144 59/143/143 71/131/131
f 64/124/124 51/148/148 57/144/144
f 51/148/148 50/147/147 57/144/144
f 50/147/147 53/146/146 57/144/144
