mtllib Prop_Decorative_Rock_4.mtl
o Rock
g Rock
v 0.02536511 0.14383171 -0.48798021
v -0.10994172 0.41209145 -0.55805709
v -0.08011524 0.59614334 -0.54896165
v 0.15763773 0.80349157 -0.44355491
v 0.26377781 0.45942747 -0.38509339
v 0.04953861 0.13332813 -0.47643798
v -0.46903500 0.21032432 -0.35371720
v -0.41923574 0.46774182 -0.48006603
v -0.31775098 0.12262032 -0.36602713
v -0.59252857 0.21724446 -0.16973355
v -0.59821240 0.47777103 -0.21342237
v -0.14375241 0.88653958 -0.40049245
v -0.23296757 0.68077373 -0.50540718
v -0.57264402 0.56241436 -0.15438558
v -0.35535601 0.89839709 -0.08524039
v -0.01305982 0.97434902 -0.02903884
v 0.06877142 0.98494092 -0.06062790
v -0.07963636 0.90014190 -0.39368093
v -0.02375771 0.66658715 0.43066406
v -0.22309462 0.75660302 0.33539688
v -0.23835878 0.84194345 0.21145287
v 0.27085827 0.74176712 0.26184803
v 0.29744100 0.87706374 -0.14563634
v 0.42338031 0.73322033 0.03461708
v 0.22911090 0.37857154 0.38392402
v 0.27485480 0.28996061 0.32986948
v 0.50137678 0.27726713 -0.00760833
v 0.36464003 -0.00000000 -0.12541196
v 0.11833367 0.01380213 0.24154109
v 0.48306163 0.19107074 -0.07874498
v -0.12621304 0.01287178 0.30662423
v -0.34252717 -0.00490116 0.01758264
v -0.21988822 -0.01177341 -0.16512778
v 0.20565473 -0.00999934 -0.27520823
v -0.54667803 0.14061961 -0.03887350
v -0.43378051 0.25368343 0.25032712
v -0.18463541 0.11425762 0.37010174
v 0.03556768 0.43895326 0.46426292
v -0.42585398 0.46351681 0.24854103
vt 0.10743053 0.00000000
vt 0.80705613 0.21096082
vt 1.00000000 0.48264489
vt 0.73958188 1.00000000
vt 0.00000000 0.65967024
vt 0.03586159 0.01127492
vt 1.00000000 0.48672798
vt 0.61021441 1.00000000
vt 0.00000000 0.66558703
vt 0.00000000 0.00000000
vt 0.76772396 0.19438794
vt 0.62857375 1.00000000
vt 0.00000000 1.00000000
vt 0.08902118 0.00000000
vt 1.00000000 0.00000000
vt 0.13570822 1.00000000
vt 0.00000000 0.51462869
vt 0.21056507 0.00000000
vt 0.90256108 0.00000000
vt 1.00000000 0.19822475
vt 0.95385318 1.00000000
vt 0.76799258 0.86241161
vt 0.60902338 1.00000000
vt 0.00000000 0.15587976
vt 0.05199938 0.00000000
vt 1.00000000 0.00000000
vt 0.00000000 0.75474895
vt 0.00000000 0.23610968
vt 0.21782634 0.00000000
vt 0.86798115 0.00000000
vt 1.00000000 0.09388049
vt 0.57817219 1.00000000
vt 1.00000000 0.00000000
vt 0.46696029 1.00000000
vt 0.00000000 0.58997829
vt 0.28292348 0.00000000
vt 0.25340964 1.00000000
vt 0.00000000 0.19054678
vt 0.14909455 0.00000000
vt 1.00000000 0.00000000
vt 0.82634229 1.00000000
vt 0.00696818 0.00000000
vt 0.95556658 0.00000000
vt 1.00000000 1.00000000
vt 0.12759707 1.00000000
vt 0.00000000 0.69387958
vt 0.24290183 1.00000000
vt 0.00000000 0.67135787
vt 0.25596357 0.00000000
vt 0.58162893 0.00000000
vt 1.00000000 0.57536417
vt 0.89696358 1.00000000
vt 1.00000000 0.61250549
vt 0.70490325 1.00000000
vt 0.00000000 0.55845421
vt 0.18893987 0.04074006
vt 0.54135369 0.00000000
vt 0.00000000 0.73985108
vt 0.00000000 0.17318681
vt 0.23881603 0.00000000
vt 1.00000000 0.38974148
vt 0.85635037 0.86096353
vt 0.64767340 1.00000000
vt 1.00000000 0.00000000
vt 0.56588629 1.00000000
vt 0.00000000 0.75216419
vt 0.00000000 0.09062184
vt 0.04648009 0.07819034
vt 0.74796897 0.00000000
vt 1.00000000 0.29313051
vt 0.94966274 0.90822837
vt 0.41598809 1.00000000
vt 0.00000000 0.75488017
vt 0.00000000 1.00000000
vt 0.00000000 0.00000000
vt 1.00000000 0.70364787
vt 0.97064757 0.00000000
vt 1.00000000 1.00000000
vt 0.00000000 0.92678491
vt 0.00000000 0.02746168
vt 0.10812865 0.07287041
vt 1.00000000 0.00000000
vt 0.90833737 0.87991934
vt 0.10812865 1.00000000
vt 0.00000000 0.71717172
vt 0.62827324 1.00000000
vt 0.00000000 0.73051691
vt 0.00000000 0.23279093
vt 0.87061103 0.00000000
vt 1.00000000 0.20104119
vt 0.91020473 0.81882659
vt 0.90213781 0.00000000
vt 1.00000000 0.64419711
vt 0.75252479 1.00000000
vt 0.19597445 1.00000000
vt 0.00000000 0.61935265
vt 0.34943898 0.00000000
vt 0.00000000 0.95405744
vt 0.00000000 0.00000000
vt 0.93140007 0.16473675
vt 1.00000000 0.20528743
vt 0.87203643 1.00000000
vt 0.00000000 1.00000000
vt 0.00000000 0.00000000
vt 0.62150984 0.08021827
vt 1.00000000 0.42739508
vt 0.98235102 0.99856411
vt 0.00000000 0.46534505
vt 0.24128982 0.15447754
vt 0.86417601 0.00000000
vt 1.00000000 0.44409510
vt 0.60711306 1.00000000
vt 0.40898085 0.95767465
vt 0.20100520 0.94643899
vt 0.00000000 0.25734738
vt 0.41176937 0.00000000
vt 1.00000000 0.71472806
vt 0.36615885 1.00000000
vt 0.76828673 0.98103694
vt 0.00000000 1.00000000
vt 0.00000000 0.00000000
vt 1.00000000 0.45203594
vn 0.42236412 -0.02366777 -0.90611720
vn 0.42236412 -0.02366777 -0.90611720
vn 0.42236412 -0.02366777 -0.90611720
vn 0.42236412 -0.02366777 -0.90611720
vn 0.42236412 -0.02366777 -0.90611720
vn 0.42236412 -0.02366777 -0.90611720
vn -0.28960294 -0.37600451 -0.88019926
vn -0.28960294 -0.37600451 -0.88019926
vn -0.28960294 -0.37600451 -0.88019926
vn -0.28960294 -0.37600451 -0.88019926
vn -0.28960294 -0.37600451 -0.88019926
vn -0.82713838 -0.11045133 -0.55103775
vn -0.82713838 -0.11045133 -0.55103775
vn -0.82713838 -0.11045133 -0.55103775
vn -0.82713838 -0.11045133 -0.55103775
vn -0.68728668 0.54363247 -0.48176836
vn -0.68728668 0.54363247 -0.48176836
vn -0.68728668 0.54363247 -0.48176836
vn -0.68728668 0.54363247 -0.48176836
vn -0.68728668 0.54363247 -0.48176836
vn -0.68728668 0.54363247 -0.48176836
vn -0.18819060 0.96855438 -0.16274739
vn -0.18819060 0.96855438 -0.16274739
vn -0.18819060 0.96855438 -0.16274739
vn -0.18819060 0.96855438 -0.16274739
vn -0.18819060 0.96855438 -0.16274739
vn 0.10739171 0.82500697 0.55482477
vn 0.10739171 0.82500697 0.55482477
vn 0.10739171 0.82500697 0.55482477
vn 0.10739171 0.82500697 0.55482477
vn 0.10739171 0.82500697 0.55482477
vn 0.10739171 0.82500697 0.55482477
vn 0.49634448 0.81369835 0.30255106
vn 0.49634448 0.81369835 0.30255106
vn 0.49634448 0.81369835 0.30255106
vn 0.49634448 0.81369835 0.30255106
vn 0.82846366 0.09053618 0.55267637
vn 0.82846366 0.09053618 0.55267637
vn 0.82846366 0.09053618 0.55267637
vn 0.82846366 0.09053618 0.55267637
vn 0.82846366 0.09053618 0.55267637
vn 0.68728668 -0.54363247 0.48176836
vn 0.68728668 -0.54363247 0.48176836
vn 0.68728668 -0.54363247 0.48176836
vn 0.68728668 -0.54363247 0.48176836
vn 0.68728668 -0.54363247 0.48176836
vn 0.01679663 -0.99866553 0.04883683
vn 0.01679663 -0.99866553 0.04883683
vn 0.01679663 -0.99866553 0.04883683
vn 0.01679663 -0.99866553 0.04883683
vn 0.01679663 -0.99866553 0.04883683
vn 0.01679663 -0.99866553 0.04883683
vn -0.59283536 -0.64419488 0.48327962
vn -0.59283536 -0.64419488 0.48327962
vn -0.59283536 -0.64419488 0.48327962
vn -0.59283536 -0.64419488 0.48327962
vn -0.59283536 -0.64419488 0.48327962
vn 0.23550972 -0.41462407 0.87898922
vn 0.23550972 -0.41462407 0.87898922
vn 0.23550972 -0.41462407 0.87898922
vn 0.23550972 -0.41462407 0.87898922
vn 0.23550972 -0.41462407 0.87898922
vn 0.23550972 -0.41462407 0.87898922
vn 0.43533718 0.24146746 0.86728023
vn 0.43533718 0.24146746 0.86728023
vn 0.43533718 0.24146746 0.86728023
vn 0.43533718 0.24146746 0.86728023
vn -0.42236412 0.02366777 0.90611720
vn -0.42236412 0.02366777 0.90611720
vn -0.42236412 0.02366777 0.90611720
vn -0.42236412 0.02366777 0.90611720
vn -0.42236412 0.02366777 0.90611720
vn -0.42236412 0.02366777 0.90611720
vn -0.25113798 0.92789046 0.27558846
vn -0.25113798 0.92789046 0.27558846
vn -0.25113798 0.92789046 0.27558846
vn 0.28779154 0.88957264 -0.35473447
vn 0.28779154 0.88957264 -0.35473447
vn 0.28779154 0.88957264 -0.35473447
vn 0.28779154 0.88957264 -0.35473447
vn -0.80474819 0.43798964 0.40068121
vn -0.80474819 0.43798964 0.40068121
vn -0.80474819 0.43798964 0.40068121
vn -0.80474819 0.43798964 0.40068121
vn -0.80474819 0.43798964 0.40068121
vn -0.93583661 0.03833368 0.35034321
vn -0.93583661 0.03833368 0.35034321
vn -0.93583661 0.03833368 0.35034321
vn -0.93583661 0.03833368 0.35034321
vn -0.93583661 0.03833368 0.35034321
vn -0.93583661 0.03833368 0.35034321
vn -0.49634448 -0.81369835 -0.30255106
vn -0.49634448 -0.81369835 -0.30255106
vn -0.49634448 -0.81369835 -0.30255106
vn -0.49634448 -0.81369835 -0.30255106
vn -0.49634448 -0.81369835 -0.30255106
vn -0.49634448 -0.81369835 -0.30255106
vn -0.12778318 -0.85199995 -0.50770813
vn -0.12778318 -0.85199995 -0.50770813
vn -0.12778318 -0.85199995 -0.50770813
vn -0.12778318 -0.85199995 -0.50770813
vn -0.12778318 -0.85199995 -0.50770813
vn 0.67275516 -0.24658694 -0.69756389
vn 0.67275516 -0.24658694 -0.69756389
vn 0.67275516 -0.24658694 -0.69756389
vn 0.67275516 -0.24658694 -0.69756389
vn 0.67275516 -0.24658694 -0.69756389
vn 0.86965285 0.19092512 -0.45524885
vn 0.86965285 0.19092512 -0.45524885
vn 0.86965285 0.19092512 -0.45524885
vn 0.86965285 0.19092512 -0.45524885
vn 0.86965285 0.19092512 -0.45524885
vn 0.86965285 0.19092512 -0.45524885
vn -0.00189622 0.45488885 -0.89054620
vn -0.00189622 0.45488885 -0.89054620
vn -0.00189622 0.45488885 -0.89054620
vn -0.00189622 0.45488885 -0.89054620
vn -0.00189622 0.45488885 -0.89054620
vn -0.22920174 0.08506149 -0.96965515
vn -0.22920174 0.08506149 -0.96965515
vn -0.22920174 0.08506149 -0.96965515
vn -0.22920174 0.08506149 -0.96965515
s 1
usemtl Rock
f 1/1/1 2/2/2 3/3/3
f 3/3/3 4/4/4 5/5/5
f 1/1/1 5/5/5 6/6/6
f 1/1/1 3/3/3 5/5/5
s 2
f 9/11/11 7/7/7 8/8/8
f 8/8/8 2/9/9 9/11/11
f 2/9/9 1/10/10 9/11/11
s 3
f 7/12/12 10/13/13 11/14/14
f 7/12/12 11/14/14 8/15/15
s 4
f 8/18/18 11/19/19 14/20/20
f 12/16/16 8/18/18 15/21/21
f 8/18/18 14/20/20 15/21/21
f 12/16/16 13/17/17 8/18/18
s 5
f 16/22/22 17/23/23 18/24/24
f 16/22/22 18/24/24 12/25/25
f 12/25/25 15/26/26 16/22/22
s 6
f 21/29/29 20/28/28 19/27/27
f 22/32/32 16/30/30 21/29/29
f 22/32/32 17/31/31 16/30/30
f 21/29/29 19/27/27 22/32/32
s 7
f 22/33/33 24/36/36 23/35/35
f 23/35/35 17/34/34 22/33/33
s 8
f 22/37/37 25/38/38 26/39/39
f 26/39/39 27/40/40 24/41/41
f 24/41/41 22/37/37 26/39/39
s 9
f 28/42/42 30/46/46 27/45/45
f 27/45/45 26/44/44 29/43/43
f 27/45/45 29/43/43 28/42/42
s 10
f 31/48/48 32/49/49 33/50/50
f 29/47/47 33/50/50 34/51/51
f 34/51/51 28/52/52 29/47/47
f 29/47/47 31/48/48 33/50/50
s 11
f 31/57/57 37/56/56 36/55/55
f 36/55/55 35/54/54 32/53/53
f 31/57/57 36/55/55 32/53/53
s 12
f 26/63/63 25/62/62 38/61/61
f 38/61/61 37/60/60 29/58/58
f 37/60/60 31/59/59 29/58/58
f 29/58/58 26/63/63 38/61/61
s 13
f 19/67/67 38/66/66 25/65/65
f 19/67/67 25/65/65 22/64/64
s 14
f 38/73/73 19/72/72 20/71/71
f 38/73/73 39/70/70 37/68/68
f 39/70/70 36/69/69 37/68/68
f 38/73/73 20/71/71 39/70/70
s 15
f 15/76/76 21/75/75 16/74/74
s 16
f 17/78/78 23/79/79 4/80/80
f 18/77/77 17/78/78 4/80/80
s 17
f 39/83/83 20/84/84 21/85/85
f 21/85/85 15/81/81 14/82/82
f 14/82/82 39/83/83 21/85/85
s 18
f 14/89/89 11/90/90 10/91/91
f 10/91/91 36/87/87 39/88/88
f 10/91/91 35/86/86 36/87/87
f 39/88/88 14/89/89 10/91/91
s 19
f 35/93/93 10/94/94 7/95/95
f 7/95/95 9/96/96 33/97/97
f 35/93/93 7/95/95 33/97/97
f 33/97/97 32/92/92 35/93/93
s 20
f 33/98/98 9/102/102 1/101/101
f 1/101/101 6/100/100 33/98/98
f 6/100/100 34/99/99 33/98/98
s 21
f 30/107/107 28/106/106 34/105/105
f 34/105/105 6/104/104 5/103/103
f 30/107/107 34/105/105 5/103/103
s 22
f 27/113/113 30/112/112 5/111/111
f 5/111/111 4/110/110 24/108/108
f 4/110/110 23/109/109 24/108/108
f 27/113/113 5/111/111 24/108/108
s 23
f 13/115/115 12/114/114 18/118/118
f 18/118/118 4/117/117 3/116/116
f 3/116/116 13/115/115 18/118/118
s 24
f 13/122/122 3/119/119 2/120/120
f 2/120/120 8/121/121 13/122/122
