mtllib Prop_Decorative_Tree_Cedar_1.mtl
o Leaves
g Leaves
v -0.00000000 0.91276080 -0.42500000
v -0.00000000 0.53015700 -0.19134172
v 0.13529903 0.53015700 -0.13529903
v 0.30052038 0.91276080 -0.30052038
v 0.19134172 0.53015700 0.00000000
v 0.42500000 0.91276080 0.00000000
v 0.13529903 0.53015700 0.13529903
v 0.30052038 0.91276080 0.30052038
v -0.00000000 0.53015700 0.19134172
v -0.00000000 0.91276080 0.42500000
v -0.00000000 0.43236374 0.00000000
v -0.13529903 0.53015700 0.13529903
v -0.19134172 0.53015700 0.00000000
v -0.13529903 0.53015700 -0.13529903
v -0.42500000 0.91276080 0.00000000
v -0.30052038 0.91276080 -0.30052038
v -0.50000000 1.39315787 0.00000000
v -0.35355339 1.39315787 -0.35355339
v -0.00000000 1.39315787 -0.50000000
v -0.32664074 1.90382454 -0.32664074
v -0.00000000 1.90382454 -0.46193977
v 0.35355339 1.39315787 -0.35355339
v 0.32664074 1.90382454 -0.32664074
v 0.50000000 1.39315787 0.00000000
v 0.46193977 1.90382454 0.00000000
v 0.35355339 1.39315787 0.35355339
v 0.32664074 1.90382454 0.32664074
v -0.00000000 1.39315787 0.50000000
v -0.00000000 1.90382454 0.46193977
v -0.35355339 1.39315787 0.35355339
v -0.32664074 1.90382454 0.32664074
v -0.46193977 1.90382454 0.00000000
v -0.25000000 2.40875842 0.25000000
v -0.35355339 2.40875842 0.00000000
v -0.25000000 2.40875842 -0.25000000
v -0.19134172 2.80919686 0.00000000
v -0.13529903 2.80919686 -0.13529903
v -0.00000000 2.40875842 -0.35355339
v -0.00000000 2.80919686 -0.19134172
v 0.25000000 2.40875842 -0.25000000
v 0.13529903 2.80919686 -0.13529903
v 0.35355339 2.40875842 0.00000000
v 0.19134172 2.80919686 0.00000000
v 0.25000000 2.40875842 0.25000000
v 0.13529903 2.80919686 0.13529903
v -0.00000000 2.40875842 0.35355339
v -0.00000000 2.80919686 0.19134172
v -0.13529903 2.80919686 0.13529903
v -0.00000000 3.00000000 0.00000000
v -0.30052038 0.91276080 0.30052038
vt 0.00000000 1.00000000
vt 0.00000000 0.00000000
vt 1.00000000 0.00000000
vt 1.00000000 1.00000000
vt 0.00000000 1.00000000
vt 0.00000000 0.00000000
vt 1.00000000 0.00000000
vt 1.00000000 1.00000000
vt 0.00000000 1.00000000
vt 0.00000000 0.00000000
vt 1.00000000 0.00000000
vt 1.00000000 1.00000000
vt 1.00000000 0.00000000
vt 1.00000000 1.00000000
vt 0.00000000 1.00000000
vt 0.00000000 0.00000000
vt 1.00000000 1.00000000
vt 0.00000000 1.00000000
vt 1.00000000 0.00000000
vt 1.00000000 1.00000000
vt 0.00000000 1.00000000
vt 0.00000000 0.00000000
vt 1.00000000 1.00000000
vt 0.00000000 1.00000000
vt 0.00000000 0.00000000
vt 1.00000000 1.00000000
vt 0.00000000 1.00000000
vt 0.00000000 0.00000000
vt 1.00000000 1.00000000
vt 0.00000000 1.00000000
vt 0.00000000 0.00000000
vt 0.00000000 1.00000000
vt 0.00000000 0.00000000
vt 1.00000000 0.00000000
vt 1.00000000 1.00000000
vt 0.00000000 1.00000000
vt 0.00000000 0.00000000
vt 1.00000000 0.00000000
vt 1.00000000 1.00000000
vt 0.00000000 1.00000000
vt 0.00000000 0.00000000
vt 1.00000000 0.00000000
vt 1.00000000 1.00000000
vt 0.00000000 1.00000000
vt 0.00000000 0.00000000
vt 1.00000000 0.00000000
vt 1.00000000 1.00000000
vt 0.00000000 1.00000000
vt 0.00000000 0.00000000
vt 1.00000000 0.00000000
vt 1.00000000 1.00000000
vt 0.00000000 1.00000000
vt 0.00000000 0.00000000
vt 1.00000000 0.00000000
vt 1.00000000 1.00000000
vt 0.00000000 1.00000000
vt 0.00000000 0.00000000
vt 1.00000000 0.00000000
vt 1.00000000 1.00000000
vt 1.00000000 0.00000000
vt 1.00000000 1.00000000
vt 0.00000000 1.00000000
vt 0.00000000 0.00000000
vt 0.00000000 1.00000000
vt 0.00000000 0.00000000
vt 1.00000000 0.00000000
vt 1.00000000 1.00000000
vt 0.00000000 1.00000000
vt 0.00000000 0.00000000
vt 1.00000000 0.00000000
vt 1.00000000 1.00000000
vt 0.00000000 1.00000000
vt 0.00000000 0.00000000
vt 1.00000000 0.00000000
vt 1.00000000 1.00000000
vt 0.00000000 1.00000000
vt 0.00000000 0.00000000
vt 1.00000000 0.00000000
vt 1.00000000 1.00000000
vt 0.00000000 1.00000000
vt 0.00000000 0.00000000
vt 1.00000000 0.00000000
vt 1.00000000 1.00000000
vt 0.00000000 1.00000000
vt 0.00000000 0.00000000
vt 1.00000000 0.00000000
vt 1.00000000 1.00000000
vt 0.00000000 1.00000000
vt 0.00000000 0.00000000
vt 1.00000000 0.00000000
vt 1.00000000 1.00000000
vt 0.00000000 1.00000000
vt 0.00000000 0.00000000
vt 1.00000000 0.00000000
vt 1.00000000 1.00000000
vt 0.00000000 1.00000000
vt 0.00000000 0.00000000
vt 1.00000000 0.00000000
vt 1.00000000 1.00000000
vt 1.00000000 0.00000000
vt 1.00000000 1.00000000
vt 0.00000000 1.00000000
vt 0.00000000 0.00000000
vt 0.00000000 1.00000000
vt 0.00000000 0.00000000
vt 1.00000000 0.00000000
vt 1.00000000 1.00000000
vt 0.00000000 0.00000000
vt 1.00000000 0.00000000
vt 0.00000000 1.00000000
vt 0.00000000 0.00000000
vt 1.00000000 0.00000000
vt 0.00000000 1.00000000
vt 0.00000000 0.00000000
vt 1.00000000 0.00000000
vt 1.00000000 1.00000000
vt 0.00000000 0.00000000
vt 1.00000000 0.00000000
vt 0.00000000 1.00000000
vt 0.00000000 0.00000000
vt 1.00000000 0.00000000
vt 0.00000000 1.00000000
vt 0.00000000 0.00000000
vt 1.00000000 0.00000000
vt 0.00000000 1.00000000
vt 0.00000000 0.00000000
vt 1.00000000 0.00000000
vt 0.00000000 1.00000000
vt 0.00000000 0.00000000
vt 1.00000000 0.00000000
vt 0.00000000 1.00000000
vt 0.00000000 1.00000000
vt 0.00000000 0.00000000
vt 1.00000000 0.00000000
vt 1.00000000 1.00000000
vt 0.00000000 1.00000000
vt 0.00000000 0.00000000
vt 1.00000000 0.00000000
vt 1.00000000 1.00000000
vt 0.00000000 1.00000000
vt 0.00000000 0.00000000
vt 1.00000000 0.00000000
vt 1.00000000 1.00000000
vt 1.00000000 0.00000000
vt 1.00000000 1.00000000
vt 0.00000000 1.00000000
vt 0.00000000 0.00000000
vt 0.00000000 1.00000000
vt 0.00000000 0.00000000
vt 1.00000000 0.00000000
vt 1.00000000 1.00000000
vt 0.00000000 1.00000000
vt 0.00000000 0.00000000
vt 1.00000000 0.00000000
vt 1.00000000 1.00000000
vt 0.00000000 1.00000000
vt 0.00000000 0.00000000
vt 1.00000000 0.00000000
vt 1.00000000 1.00000000
vt 0.00000000 1.00000000
vt 0.00000000 0.00000000
vt 1.00000000 0.00000000
vt 1.00000000 1.00000000
vt 0.00000000 1.00000000
vt 0.00000000 0.00000000
vt 1.00000000 0.00000000
vt 1.00000000 1.00000000
vt 0.00000000 1.00000000
vt 0.00000000 0.00000000
vt 1.00000000 0.00000000
vt 1.00000000 1.00000000
vt 0.00000000 1.00000000
vt 0.00000000 0.00000000
vt 1.00000000 0.00000000
vt 1.00000000 1.00000000
vt 0.00000000 1.00000000
vt 0.00000000 0.00000000
vt 1.00000000 0.00000000
vt 1.00000000 1.00000000
vt 1.00000000 0.00000000
vt 1.00000000 1.00000000
vt 0.00000000 1.00000000
vt 0.00000000 0.00000000
vt 0.00000000 1.00000000
vt 0.00000000 0.00000000
vt 1.00000000 0.00000000
vt 1.00000000 1.00000000
vt 1.00000000 1.00000000
vt 0.00000000 1.00000000
vt 0.00000000 0.00000000
vt 0.00000000 1.00000000
vt 0.00000000 0.00000000
vt 1.00000000 0.00000000
vt 1.00000000 1.00000000
vt 1.00000000 1.00000000
vt 0.00000000 1.00000000
vt 0.00000000 0.00000000
vt 0.00000000 1.00000000
vt 0.00000000 0.00000000
vt 1.00000000 0.00000000
vt 1.00000000 1.00000000
vt 0.00000000 1.00000000
vt 0.00000000 0.00000000
vt 1.00000000 0.00000000
vt 1.00000000 1.00000000
vt 1.00000000 1.00000000
vt 0.00000000 1.00000000
vt 0.00000000 0.00000000
vn 0.33329251 -0.49139772 -0.80463929
vn 0.33329251 -0.49139772 -0.80463929
vn 0.33329251 -0.49139772 -0.80463929
vn 0.33329251 -0.49139772 -0.80463929
vn 0.80463929 -0.49139772 -0.33329251
vn 0.80463929 -0.49139772 -0.33329251
vn 0.80463929 -0.49139772 -0.33329251
vn 0.80463929 -0.49139772 -0.33329251
vn 0.80463929 -0.49139772 0.33329251
vn 0.80463929 -0.49139772 0.33329251
vn 0.80463929 -0.49139772 0.33329251
vn 0.80463929 -0.49139772 0.33329251
vn 0.33329251 -0.49139772 0.80463929
vn 0.33329251 -0.49139772 0.80463929
vn 0.33329251 -0.49139772 0.80463929
vn 0.33329251 -0.49139772 0.80463929
vn 0.18524503 -0.87503005 0.44722107
vn 0.18524503 -0.87503005 0.44722107
vn 0.18524503 -0.87503005 0.44722107
vn -0.18524503 -0.87503005 0.44722107
vn -0.18524503 -0.87503005 0.44722107
vn -0.18524503 -0.87503005 0.44722107
vn -0.44722107 -0.87503005 0.18524503
vn -0.44722107 -0.87503005 0.18524503
vn -0.44722107 -0.87503005 0.18524503
vn -0.44722107 -0.87503005 -0.18524503
vn -0.44722107 -0.87503005 -0.18524503
vn -0.44722107 -0.87503005 -0.18524503
vn -0.18524503 -0.87503005 -0.44722107
vn -0.18524503 -0.87503005 -0.44722107
vn -0.18524503 -0.87503005 -0.44722107
vn -0.80463929 -0.49139772 -0.33329251
vn -0.80463929 -0.49139772 -0.33329251
vn -0.80463929 -0.49139772 -0.33329251
vn -0.80463929 -0.49139772 -0.33329251
vn -0.91441661 -0.14275950 -0.37876376
vn -0.91441661 -0.14275950 -0.37876376
vn -0.91441661 -0.14275950 -0.37876376
vn -0.91441661 -0.14275950 -0.37876376
vn -0.37876376 -0.14275950 -0.91441661
vn -0.37876376 -0.14275950 -0.91441661
vn -0.37876376 -0.14275950 -0.91441661
vn -0.37876376 -0.14275950 -0.91441661
vn -0.38177943 0.06869453 -0.92169709
vn -0.38177943 0.06869453 -0.92169709
vn -0.38177943 0.06869453 -0.92169709
vn -0.38177943 0.06869453 -0.92169709
vn 0.38177943 0.06869453 -0.92169709
vn 0.38177943 0.06869453 -0.92169709
vn 0.38177943 0.06869453 -0.92169709
vn 0.38177943 0.06869453 -0.92169709
vn 0.92169709 0.06869453 -0.38177943
vn 0.92169709 0.06869453 -0.38177943
vn 0.92169709 0.06869453 -0.38177943
vn 0.92169709 0.06869453 -0.38177943
vn 0.92169709 0.06869453 0.38177943
vn 0.92169709 0.06869453 0.38177943
vn 0.92169709 0.06869453 0.38177943
vn 0.92169709 0.06869453 0.38177943
vn 0.38177943 0.06869453 0.92169709
vn 0.38177943 0.06869453 0.92169709
vn 0.38177943 0.06869453 0.92169709
vn 0.38177943 0.06869453 0.92169709
vn -0.38177943 0.06869453 0.92169709
vn -0.38177943 0.06869453 0.92169709
vn -0.38177943 0.06869453 0.92169709
vn -0.38177943 0.06869453 0.92169709
vn -0.92169709 0.06869453 0.38177943
vn -0.92169709 0.06869453 0.38177943
vn -0.92169709 0.06869453 0.38177943
vn -0.92169709 0.06869453 0.38177943
vn -0.90623088 0.19452662 0.37537312
vn -0.90623088 0.19452662 0.37537312
vn -0.90623088 0.19452662 0.37537312
vn -0.90623088 0.19452662 0.37537312
vn -0.90623088 0.19452662 -0.37537312
vn -0.90623088 0.19452662 -0.37537312
vn -0.90623088 0.19452662 -0.37537312
vn -0.90623088 0.19452662 -0.37537312
vn -0.86526856 0.35050747 -0.35840597
vn -0.86526856 0.35050747 -0.35840597
vn -0.86526856 0.35050747 -0.35840597
vn -0.86526856 0.35050747 -0.35840597
vn -0.35840597 0.35050747 -0.86526856
vn -0.35840597 0.35050747 -0.86526856
vn -0.35840597 0.35050747 -0.86526856
vn -0.35840597 0.35050747 -0.86526856
vn 0.35840597 0.35050747 -0.86526856
vn 0.35840597 0.35050747 -0.86526856
vn 0.35840597 0.35050747 -0.86526856
vn 0.35840597 0.35050747 -0.86526856
vn 0.86526856 0.35050747 -0.35840597
vn 0.86526856 0.35050747 -0.35840597
vn 0.86526856 0.35050747 -0.35840597
vn 0.86526856 0.35050747 -0.35840597
vn 0.86526856 0.35050747 0.35840597
vn 0.86526856 0.35050747 0.35840597
vn 0.86526856 0.35050747 0.35840597
vn 0.86526856 0.35050747 0.35840597
vn 0.35840597 0.35050747 0.86526856
vn 0.35840597 0.35050747 0.86526856
vn 0.35840597 0.35050747 0.86526856
vn 0.35840597 0.35050747 0.86526856
vn -0.35840597 0.35050747 0.86526856
vn -0.35840597 0.35050747 0.86526856
vn -0.35840597 0.35050747 0.86526856
vn -0.35840597 0.35050747 0.86526856
vn -0.28071947 0.67962973 0.67771676
vn -0.28071947 0.67962973 0.67771676
vn -0.28071947 0.67962973 0.67771676
vn -0.67771676 0.67962973 0.28071947
vn -0.67771676 0.67962973 0.28071947
vn -0.67771676 0.67962973 0.28071947
vn 0.28071947 0.67962973 0.67771676
vn 0.28071947 0.67962973 0.67771676
vn 0.28071947 0.67962973 0.67771676
vn 0.67771676 0.67962973 0.28071947
vn 0.67771676 0.67962973 0.28071947
vn 0.67771676 0.67962973 0.28071947
vn 0.67771676 0.67962973 -0.28071947
vn 0.67771676 0.67962973 -0.28071947
vn 0.67771676 0.67962973 -0.28071947
vn 0.28071947 0.67962973 -0.67771676
vn 0.28071947 0.67962973 -0.67771676
vn 0.28071947 0.67962973 -0.67771676
vn -0.28071947 0.67962973 -0.67771676
vn -0.28071947 0.67962973 -0.67771676
vn -0.28071947 0.67962973 -0.67771676
vn -0.67771676 0.67962973 -0.28071947
vn -0.67771676 0.67962973 -0.28071947
vn -0.67771676 0.67962973 -0.28071947
vn -0.86526856 0.35050747 0.35840597
vn -0.86526856 0.35050747 0.35840597
vn -0.86526856 0.35050747 0.35840597
vn -0.86526856 0.35050747 0.35840597
vn -0.37537312 0.19452662 0.90623088
vn -0.37537312 0.19452662 0.90623088
vn -0.37537312 0.19452662 0.90623088
vn -0.37537312 0.19452662 0.90623088
vn -0.37876376 -0.14275950 0.91441661
vn -0.37876376 -0.14275950 0.91441661
vn -0.37876376 -0.14275950 0.91441661
vn -0.37876376 -0.14275950 0.91441661
vn 0.37537312 0.19452662 0.90623088
vn 0.37537312 0.19452662 0.90623088
vn 0.37537312 0.19452662 0.90623088
vn 0.37537312 0.19452662 0.90623088
vn 0.90623088 0.19452662 0.37537312
vn 0.90623088 0.19452662 0.37537312
vn 0.90623088 0.19452662 0.37537312
vn 0.90623088 0.19452662 0.37537312
vn 0.90623088 0.19452662 -0.37537312
vn 0.90623088 0.19452662 -0.37537312
vn 0.90623088 0.19452662 -0.37537312
vn 0.90623088 0.19452662 -0.37537312
vn 0.37537312 0.19452662 -0.90623088
vn 0.37537312 0.19452662 -0.90623088
vn 0.37537312 0.19452662 -0.90623088
vn 0.37537312 0.19452662 -0.90623088
vn -0.37537312 0.19452662 -0.90623088
vn -0.37537312 0.19452662 -0.90623088
vn -0.37537312 0.19452662 -0.90623088
vn -0.37537312 0.19452662 -0.90623088
vn -0.92169709 0.06869453 -0.38177943
vn -0.92169709 0.06869453 -0.38177943
vn -0.92169709 0.06869453 -0.38177943
vn -0.92169709 0.06869453 -0.38177943
vn -0.91441661 -0.14275950 0.37876376
vn -0.91441661 -0.14275950 0.37876376
vn -0.91441661 -0.14275950 0.37876376
vn -0.91441661 -0.14275950 0.37876376
vn -0.80463929 -0.49139772 0.33329251
vn -0.80463929 -0.49139772 0.33329251
vn -0.80463929 -0.49139772 0.33329251
vn -0.80463929 -0.49139772 0.33329251
vn -0.33329251 -0.49139772 0.80463929
vn -0.33329251 -0.49139772 0.80463929
vn -0.33329251 -0.49139772 0.80463929
vn -0.33329251 -0.49139772 0.80463929
vn 0.37876376 -0.14275950 0.91441661
vn 0.37876376 -0.14275950 0.91441661
vn 0.37876376 -0.14275950 0.91441661
vn 0.37876376 -0.14275950 0.91441661
vn 0.91441661 -0.14275950 0.37876376
vn 0.91441661 -0.14275950 0.37876376
vn 0.91441661 -0.14275950 0.37876376
vn 0.91441661 -0.14275950 0.37876376
vn 0.44722107 -0.87503005 0.18524503
vn 0.44722107 -0.87503005 0.18524503
vn 0.44722107 -0.87503005 0.18524503
vn 0.91441661 -0.14275950 -0.37876376
vn 0.91441661 -0.14275950 -0.37876376
vn 0.91441661 -0.14275950 -0.37876376
vn 0.91441661 -0.14275950 -0.37876376
vn 0.44722107 -0.87503005 -0.18524503
vn 0.44722107 -0.87503005 -0.18524503
vn 0.44722107 -0.87503005 -0.18524503
vn 0.37876376 -0.14275950 -0.91441661
vn 0.37876376 -0.14275950 -0.91441661
vn 0.37876376 -0.14275950 -0.91441661
vn 0.37876376 -0.14275950 -0.91441661
vn -0.33329251 -0.49139772 -0.80463929
vn -0.33329251 -0.49139772 -0.80463929
vn -0.33329251 -0.49139772 -0.80463929
vn -0.33329251 -0.49139772 -0.80463929
vn 0.18524503 -0.87503005 -0.44722107
vn 0.18524503 -0.87503005 -0.44722107
vn 0.18524503 -0.87503005 -0.44722107
s 1
usemtl Cedar_Leaves
f 4/4/4 3/3/3 1/1/1
f 3/3/3 2/2/2 1/1/1
s 2
f 6/8/8 5/7/7 4/5/5
f 5/7/7 3/6/6 4/5/5
s 3
f 8/12/12 7/11/11 6/9/9
f 7/11/11 5/10/10 6/9/9
s 4
f 7/16/16 8/15/15 9/13/13
f 8/15/15 10/14/14 9/13/13
s 5
f 11/19/19 7/18/18 9/17/17
s 6
f 11/22/22 9/21/21 12/20/20
s 7
f 11/25/25 12/24/24 13/23/23
s 8
f 11/28/28 13/27/27 14/26/26
s 9
f 11/31/31 14/30/30 2/29/29
s 10
f 16/35/35 14/34/34 13/33/33
f 16/35/35 13/33/33 15/32/32
s 11
f 18/39/39 16/38/38 15/37/37
f 18/39/39 15/37/37 17/36/36
s 12
f 19/43/43 1/42/42 16/41/41
f 19/43/43 16/41/41 18/40/40
s 13
f 21/47/47 19/46/46 20/44/44
f 19/46/46 18/45/45 20/44/44
s 14
f 23/51/51 22/50/50 19/49/49
f 23/51/51 19/49/49 21/48/48
s 15
f 25/55/55 24/54/54 22/53/53
f 25/55/55 22/53/53 23/52/52
s 16
f 27/59/59 26/58/58 24/57/57
f 27/59/59 24/57/57 25/56/56
s 17
f 26/63/63 27/62/62 28/60/60
f 27/62/62 29/61/61 28/60/60
s 18
f 31/67/67 30/66/66 29/64/64
f 30/66/66 28/65/65 29/64/64
s 19
f 32/71/71 17/70/70 31/68/68
f 17/70/70 30/69/69 31/68/68
s 20
f 34/75/75 32/74/74 33/72/72
f 32/74/74 31/73/73 33/72/72
s 21
f 35/79/79 20/78/78 34/76/76
f 20/78/78 32/77/77 34/76/76
s 22
f 37/83/83 35/82/82 36/80/80
f 35/82/82 34/81/81 36/80/80
s 23
f 39/87/87 38/86/86 37/84/84
f 38/86/86 35/85/85 37/84/84
s 24
f 41/91/91 40/90/90 39/88/88
f 40/90/90 38/89/89 39/88/88
s 25
f 43/95/95 42/94/94 40/93/93
f 43/95/95 40/93/93 41/92/92
s 26
f 45/99/99 44/98/98 42/97/97
f 45/99/99 42/97/97 43/96/96
s 27
f 44/103/103 45/102/102 46/100/100
f 45/102/102 47/101/101 46/100/100
s 28
f 48/107/107 33/106/106 46/105/105
f 48/107/107 46/105/105 47/104/104
s 29
f 49/110/110 48/109/109 47/108/108
s 30
f 49/113/113 36/112/112 48/111/111
s 31
f 49/116/116 47/115/115 45/114/114
s 32
f 49/119/119 45/118/118 43/117/117
s 33
f 49/122/122 43/121/121 41/120/120
s 34
f 49/125/125 41/124/124 39/123/123
s 35
f 49/128/128 39/127/127 37/126/126
s 36
f 49/131/131 37/130/130 36/129/129
s 37
f 36/135/135 34/134/134 48/132/132
f 34/134/134 33/133/133 48/132/132
s 38
f 33/139/139 31/138/138 46/136/136
f 31/138/138 29/137/137 46/136/136
s 39
f 30/143/143 50/142/142 10/141/141
f 30/143/143 10/141/141 28/140/140
s 40
f 27/147/147 44/146/146 29/144/144
f 44/146/146 46/145/145 29/144/144
s 41
f 44/151/151 27/150/150 25/149/149
f 44/151/151 25/149/149 42/148/148
s 42
f 42/155/155 25/154/154 23/153/153
f 42/155/155 23/153/153 40/152/152
s 43
f 40/159/159 23/158/158 21/157/157
f 40/159/159 21/157/157 38/156/156
s 44
f 38/163/163 21/162/162 35/160/160
f 21/162/162 20/161/161 35/160/160
s 45
f 20/167/167 18/166/166 32/164/164
f 18/166/166 17/165/165 32/164/164
s 46
f 17/171/171 15/170/170 50/169/169
f 17/171/171 50/169/169 30/168/168
s 47
f 15/175/175 13/174/174 12/173/173
f 15/175/175 12/173/173 50/172/172
s 48
f 50/179/179 12/178/178 9/177/177
f 50/179/179 9/177/177 10/176/176
s 49
f 8/183/183 26/182/182 28/181/181
f 8/183/183 28/181/181 10/180/180
s 50
f 26/187/187 8/186/186 24/184/184
f 8/186/186 6/185/185 24/184/184
s 51
f 11/190/190 5/189/189 7/188/188
s 52
f 24/194/194 6/193/193 22/191/191
f 6/193/193 4/192/192 22/191/191
s 53
f 11/197/197 3/196/196 5/195/195
s 54
f 22/201/201 4/200/200 19/198/198
f 4/200/200 1/199/199 19/198/198
s 55
f 1/205/205 2/204/204 16/202/202
f 2/204/204 14/203/203 16/202/202
s 56
f 11/208/208 2/207/207 3/206/206
o Trunk
g Trunk
v -0.05303301 0.00000000 0.05303301
v -0.07500000 0.00000000 0.00000000
v -0.07500000 0.85587875 0.00000000
v -0.05303301 0.85587875 0.05303301
v -0.00000000 0.00000000 0.07500000
v -0.00000000 0.85587875 0.07500000
v 0.05303301 0.00000000 0.05303301
v 0.05303301 0.85587875 0.05303301
v 0.07500000 0.00000000 0.00000000
v 0.07500000 0.85587875 0.00000000
v 0.05303301 0.00000000 -0.05303301
v 0.05303301 0.85587875 -0.05303301
v -0.00000000 0.00000000 -0.07500000
v -0.00000000 0.85587875 -0.07500000
v -0.05303301 0.00000000 -0.05303301
v -0.05303301 0.85587875 -0.05303301
vt 0.00000000 1.00000000
vt 0.00000000 0.00000000
vt 1.00000000 0.00000000
vt 1.00000000 1.00000000
vt 0.00000000 1.00000000
vt 0.00000000 0.00000000
vt 1.00000000 0.00000000
vt 1.00000000 1.00000000
vt 0.00000000 1.00000000
vt 0.00000000 0.00000000
vt 1.00000000 0.00000000
vt 1.00000000 1.00000000
vt 0.00000000 1.00000000
vt 0.00000000 0.00000000
vt 1.00000000 0.00000000
vt 1.00000000 1.00000000
vt 0.00000000 1.00000000
vt 0.00000000 0.00000000
vt 1.00000000 0.00000000
vt 1.00000000 1.00000000
vt 0.00000000 1.00000000
vt 0.00000000 0.00000000
vt 1.00000000 0.00000000
vt 1.00000000 1.00000000
vt 0.00000000 1.00000000
vt 0.00000000 0.00000000
vt 1.00000000 0.00000000
vt 1.00000000 1.00000000
vt 0.00000000 1.00000000
vt 0.00000000 0.00000000
vt 1.00000000 0.00000000
vt 1.00000000 1.00000000
vn -0.92387953 0.00000000 0.38268343
vn -0.92387953 0.00000000 0.38268343
vn -0.92387953 0.00000000 0.38268343
vn -0.92387953 0.00000000 0.38268343
vn -0.38268343 0.00000000 0.92387953
vn -0.38268343 0.00000000 0.92387953
vn -0.38268343 0.00000000 0.92387953
vn -0.38268343 0.00000000 0.92387953
vn 0.38268343 0.00000000 0.92387953
vn 0.38268343 0.00000000 0.92387953
vn 0.38268343 0.00000000 0.92387953
vn 0.38268343 0.00000000 0.92387953
vn 0.92387953 0.00000000 0.38268343
vn 0.92387953 0.00000000 0.38268343
vn 0.92387953 0.00000000 0.38268343
vn 0.92387953 0.00000000 0.38268343
vn 0.92387953 0.00000000 -0.38268343
vn 0.92387953 0.00000000 -0.38268343
vn 0.92387953 0.00000000 -0.38268343
vn 0.92387953 0.00000000 -0.38268343
vn 0.38268343 0.00000000 -0.92387953
vn 0.38268343 0.00000000 -0.92387953
vn 0.38268343 0.00000000 -0.92387953
vn 0.38268343 0.00000000 -0.92387953
vn -0.38268343 0.00000000 -0.92387953
vn -0.38268343 0.00000000 -0.92387953
vn -0.38268343 0.00000000 -0.92387953
vn -0.38268343 0.00000000 -0.92387953
vn -0.92387953 0.00000000 -0.38268343
vn -0.92387953 0.00000000 -0.38268343
vn -0.92387953 0.00000000 -0.38268343
vn -0.92387953 0.00000000 -0.38268343
s 1
usemtl Darker_Wood
f 54/212/212 53/211/211 51/209/209
f 53/211/211 52/210/210 51/209/209
s 2
f 56/216/216 54/215/215 55/213/213
f 54/215/215 51/214/214 55/213/213
s 3
f 58/220/220 56/219/219 57/217/217
f 56/219/219 55/218/218 57/217/217
s 4
f 60/224/224 58/223/223 59/221/221
f 58/223/223 57/222/222 59/221/221
s 5
f 62/228/228 60/227/227 61/225/225
f 60/227/227 59/226/226 61/225/225
s 6
f 64/232/232 62/231/231 63/229/229
f 62/231/231 61/230/230 63/229/229
s 7
f 66/236/236 64/235/235 65/233/233
f 64/235/235 63/234/234 65/233/233
s 8
f 53/240/240 66/239/239 52/237/237
f 66/239/239 65/238/238 52/237/237
