mtllib Prop_Decorative_Tree_Cedar_2.mtl
o Leaves
g Leaves
v 0.13529903 2.39125648 -0.13529903
v 0.25000000 2.08158112 -0.25000000
v 0.35355339 2.08158112 0.00000000
v 0.19134172 2.39125648 0.00000000
v 0.25000000 2.08158112 0.25000000
v 0.13529903 2.39125648 0.13529903
v 0.32664074 1.61811919 0.32664074
v 0.46193977 1.61811919 0.00000000
v 0.35355339 1.07142857 0.35355339
v 0.50000000 1.07142857 0.00000000
v 0.32664074 1.61811919 -0.32664074
v 0.35355339 1.07142857 -0.35355339
v -0.00000000 1.61811919 -0.46193977
v -0.00000000 1.07142857 -0.50000000
v -0.32664074 1.61811919 -0.32664074
v -0.35355339 1.07142857 -0.35355339
v -0.25000000 2.08158112 -0.25000000
v -0.00000000 2.08158112 -0.35355339
v -0.13529903 2.39125648 -0.13529903
v -0.00000000 2.39125648 -0.19134172
v -0.00000000 2.50000000 0.00000000
v -0.19134172 2.39125648 0.00000000
v -0.13529903 2.39125648 0.13529903
v -0.00000000 2.39125648 0.19134172
v -0.25000000 2.08158112 0.25000000
v -0.00000000 2.08158112 0.35355339
v -0.32664074 1.61811919 0.32664074
v -0.00000000 1.61811919 0.46193977
v -0.35355339 1.07142857 0.35355339
v -0.00000000 1.07142857 0.50000000
v -0.32664074 0.79808326 0.32664074
v -0.00000000 0.79808326 0.46193977
v 0.32664074 0.79808326 0.32664074
v 0.25000000 0.56635230 0.25000000
v -0.00000000 0.56635230 0.35355339
v 0.46193977 0.79808326 0.00000000
v 0.35355339 0.56635230 0.00000000
v 0.32664074 0.79808326 -0.32664074
v 0.25000000 0.56635230 -0.25000000
v -0.00000000 0.79808326 -0.46193977
v -0.00000000 0.56635230 -0.35355339
v -0.32664074 0.79808326 -0.32664074
v -0.25000000 0.56635230 -0.25000000
v -0.46193977 0.79808326 0.00000000
v -0.35355339 0.56635230 0.00000000
v -0.25000000 0.56635230 0.25000000
v -0.13529903 0.41151462 0.13529903
v -0.19134172 0.41151462 0.00000000
v -0.00000000 0.41151462 0.19134172
v -0.00000000 0.35714286 0.00000000
v 0.13529903 0.41151462 0.13529903
v 0.19134172 0.41151462 0.00000000
v 0.13529903 0.41151462 -0.13529903
v -0.00000000 0.41151462 -0.19134172
v -0.13529903 0.41151462 -0.13529903
v -0.50000000 1.07142857 0.00000000
v -0.46193977 1.61811919 0.00000000
v -0.35355339 2.08158112 0.00000000
vt 0.00000000 1.00000000
vt 0.00000000 0.00000000
vt 1.00000000 0.00000000
vt 1.00000000 1.00000000
vt 1.00000000 0.00000000
vt 1.00000000 1.00000000
vt 0.00000000 1.00000000
vt 0.00000000 0.00000000
vt 1.00000000 0.00000000
vt 1.00000000 1.00000000
vt 0.00000000 1.00000000
vt 0.00000000 0.00000000
vt 1.00000000 0.00000000
vt 1.00000000 1.00000000
vt 0.00000000 1.00000000
vt 0.00000000 0.00000000
vt 0.00000000 1.00000000
vt 0.00000000 0.00000000
vt 1.00000000 0.00000000
vt 1.00000000 1.00000000
vt 1.00000000 0.00000000
vt 1.00000000 1.00000000
vt 0.00000000 1.00000000
vt 0.00000000 0.00000000
vt 0.00000000 1.00000000
vt 0.00000000 0.00000000
vt 1.00000000 0.00000000
vt 1.00000000 1.00000000
vt 0.00000000 1.00000000
vt 0.00000000 0.00000000
vt 1.00000000 0.00000000
vt 1.00000000 1.00000000
vt 0.00000000 1.00000000
vt 0.00000000 0.00000000
vt 1.00000000 0.00000000
vt 1.00000000 1.00000000
vt 0.00000000 0.00000000
vt 1.00000000 0.00000000
vt 0.00000000 1.00000000
vt 0.00000000 0.00000000
vt 1.00000000 0.00000000
vt 1.00000000 1.00000000
vt 0.00000000 0.00000000
vt 1.00000000 0.00000000
vt 0.00000000 1.00000000
vt 0.00000000 0.00000000
vt 1.00000000 0.00000000
vt 1.00000000 1.00000000
vt 0.00000000 0.00000000
vt 1.00000000 0.00000000
vt 0.00000000 1.00000000
vt 1.00000000 0.00000000
vt 1.00000000 1.00000000
vt 0.00000000 1.00000000
vt 0.00000000 0.00000000
vt 1.00000000 0.00000000
vt 1.00000000 1.00000000
vt 0.00000000 1.00000000
vt 0.00000000 0.00000000
vt 1.00000000 0.00000000
vt 1.00000000 1.00000000
vt 0.00000000 1.00000000
vt 0.00000000 0.00000000
vt 1.00000000 0.00000000
vt 1.00000000 1.00000000
vt 0.00000000 1.00000000
vt 0.00000000 0.00000000
vt 0.00000000 1.00000000
vt 0.00000000 0.00000000
vt 1.00000000 0.00000000
vt 1.00000000 1.00000000
vt 0.00000000 1.00000000
vt 0.00000000 0.00000000
vt 1.00000000 0.00000000
vt 1.00000000 1.00000000
vt 1.00000000 0.00000000
vt 1.00000000 1.00000000
vt 0.00000000 1.00000000
vt 0.00000000 0.00000000
vt 0.00000000 1.00000000
vt 0.00000000 0.00000000
vt 1.00000000 0.00000000
vt 1.00000000 1.00000000
vt 1.00000000 0.00000000
vt 1.00000000 1.00000000
vt 0.00000000 1.00000000
vt 0.00000000 0.00000000
vt 0.00000000 1.00000000
vt 0.00000000 0.00000000
vt 1.00000000 0.00000000
vt 1.00000000 1.00000000
vt 1.00000000 0.00000000
vt 1.00000000 1.00000000
vt 0.00000000 1.00000000
vt 0.00000000 0.00000000
vt 0.00000000 1.00000000
vt 0.00000000 0.00000000
vt 1.00000000 0.00000000
vt 1.00000000 1.00000000
vt 0.00000000 1.00000000
vt 0.00000000 0.00000000
vt 1.00000000 0.00000000
vt 1.00000000 1.00000000
vt 1.00000000 0.00000000
vt 1.00000000 1.00000000
vt 0.00000000 1.00000000
vt 0.00000000 0.00000000
vt 1.00000000 1.00000000
vt 0.00000000 1.00000000
vt 1.00000000 0.00000000
vt 1.00000000 1.00000000
vt 0.00000000 1.00000000
vt 0.00000000 0.00000000
vt 1.00000000 1.00000000
vt 0.00000000 1.00000000
vt 1.00000000 0.00000000
vt 1.00000000 1.00000000
vt 0.00000000 1.00000000
vt 0.00000000 0.00000000
vt 1.00000000 1.00000000
vt 0.00000000 1.00000000
vt 1.00000000 0.00000000
vt 1.00000000 1.00000000
vt 0.00000000 1.00000000
vt 0.00000000 0.00000000
vt 1.00000000 1.00000000
vt 0.00000000 1.00000000
vt 1.00000000 0.00000000
vt 1.00000000 1.00000000
vt 0.00000000 1.00000000
vt 0.00000000 0.00000000
vt 1.00000000 0.00000000
vt 1.00000000 1.00000000
vt 0.00000000 1.00000000
vt 0.00000000 0.00000000
vt 1.00000000 0.00000000
vt 1.00000000 1.00000000
vt 0.00000000 1.00000000
vt 0.00000000 0.00000000
vt 0.00000000 1.00000000
vt 0.00000000 0.00000000
vt 1.00000000 0.00000000
vt 1.00000000 1.00000000
vt 1.00000000 0.00000000
vt 1.00000000 1.00000000
vt 0.00000000 1.00000000
vt 0.00000000 0.00000000
vt 0.00000000 1.00000000
vt 0.00000000 0.00000000
vt 1.00000000 0.00000000
vt 1.00000000 1.00000000
vt 1.00000000 0.00000000
vt 1.00000000 1.00000000
vt 0.00000000 1.00000000
vt 0.00000000 0.00000000
vt 0.00000000 1.00000000
vt 0.00000000 0.00000000
vt 1.00000000 0.00000000
vt 1.00000000 1.00000000
vt 1.00000000 0.00000000
vt 1.00000000 1.00000000
vt 0.00000000 1.00000000
vt 0.00000000 0.00000000
vt 0.00000000 1.00000000
vt 0.00000000 0.00000000
vt 1.00000000 0.00000000
vt 1.00000000 1.00000000
vt 0.00000000 1.00000000
vt 0.00000000 0.00000000
vt 1.00000000 0.00000000
vt 1.00000000 1.00000000
vt 0.00000000 1.00000000
vt 0.00000000 0.00000000
vt 1.00000000 0.00000000
vt 1.00000000 1.00000000
vt 0.00000000 1.00000000
vt 0.00000000 0.00000000
vt 1.00000000 0.00000000
vt 1.00000000 1.00000000
vt 0.00000000 0.00000000
vt 1.00000000 0.00000000
vt 1.00000000 1.00000000
vt 1.00000000 0.00000000
vt 1.00000000 1.00000000
vt 0.00000000 1.00000000
vt 0.00000000 0.00000000
vt 1.00000000 0.00000000
vt 1.00000000 1.00000000
vt 0.00000000 1.00000000
vt 0.00000000 0.00000000
vt 1.00000000 0.00000000
vt 1.00000000 1.00000000
vt 0.00000000 1.00000000
vt 0.00000000 0.00000000
vt 0.00000000 1.00000000
vt 0.00000000 0.00000000
vt 1.00000000 0.00000000
vt 1.00000000 1.00000000
vt 1.00000000 0.00000000
vt 1.00000000 1.00000000
vt 0.00000000 1.00000000
vt 0.00000000 0.00000000
vt 1.00000000 0.00000000
vt 1.00000000 1.00000000
vt 0.00000000 1.00000000
vt 0.00000000 0.00000000
vt 0.00000000 1.00000000
vt 0.00000000 0.00000000
vt 1.00000000 0.00000000
vt 1.00000000 1.00000000
vt 1.00000000 0.00000000
vt 1.00000000 1.00000000
vt 0.00000000 1.00000000
vt 0.00000000 0.00000000
vt 0.00000000 1.00000000
vt 0.00000000 0.00000000
vt 1.00000000 0.00000000
vt 1.00000000 1.00000000
vt 0.00000000 1.00000000
vt 0.00000000 0.00000000
vt 1.00000000 0.00000000
vt 1.00000000 1.00000000
vt 0.00000000 1.00000000
vt 0.00000000 0.00000000
vt 1.00000000 0.00000000
vt 1.00000000 1.00000000
vt 0.00000000 0.00000000
vt 1.00000000 0.00000000
vt 1.00000000 1.00000000
vt 0.00000000 0.00000000
vt 1.00000000 0.00000000
vt 0.00000000 1.00000000
vt 1.00000000 0.00000000
vt 1.00000000 1.00000000
vt 0.00000000 1.00000000
vt 0.00000000 0.00000000
vt 0.00000000 1.00000000
vt 0.00000000 0.00000000
vt 1.00000000 0.00000000
vt 1.00000000 1.00000000
vn 0.83161646 0.43561069 -0.34446682
vn 0.83161646 0.43561069 -0.34446682
vn 0.83161646 0.43561069 -0.34446682
vn 0.83161646 0.43561069 -0.34446682
vn 0.83161646 0.43561069 0.34446682
vn 0.83161646 0.43561069 0.34446682
vn 0.83161646 0.43561069 0.34446682
vn 0.83161646 0.43561069 0.34446682
vn 0.90304192 0.21118766 0.37405221
vn 0.90304192 0.21118766 0.37405221
vn 0.90304192 0.21118766 0.37405221
vn 0.90304192 0.21118766 0.37405221
vn 0.92197438 0.06418724 0.38189429
vn 0.92197438 0.06418724 0.38189429
vn 0.92197438 0.06418724 0.38189429
vn 0.92197438 0.06418724 0.38189429
vn 0.92197438 0.06418724 -0.38189429
vn 0.92197438 0.06418724 -0.38189429
vn 0.92197438 0.06418724 -0.38189429
vn 0.92197438 0.06418724 -0.38189429
vn 0.38189429 0.06418724 -0.92197438
vn 0.38189429 0.06418724 -0.92197438
vn 0.38189429 0.06418724 -0.92197438
vn 0.38189429 0.06418724 -0.92197438
vn -0.38189429 0.06418724 -0.92197438
vn -0.38189429 0.06418724 -0.92197438
vn -0.38189429 0.06418724 -0.92197438
vn -0.38189429 0.06418724 -0.92197438
vn -0.37405221 0.21118766 -0.90304192
vn -0.37405221 0.21118766 -0.90304192
vn -0.37405221 0.21118766 -0.90304192
vn -0.37405221 0.21118766 -0.90304192
vn -0.34446682 0.43561069 -0.83161646
vn -0.34446682 0.43561069 -0.83161646
vn -0.34446682 0.43561069 -0.83161646
vn -0.34446682 0.43561069 -0.83161646
vn -0.20050705 0.85174892 -0.48406684
vn -0.20050705 0.85174892 -0.48406684
vn -0.20050705 0.85174892 -0.48406684
vn -0.48406684 0.85174892 -0.20050705
vn -0.48406684 0.85174892 -0.20050705
vn -0.48406684 0.85174892 -0.20050705
vn -0.48406684 0.85174892 0.20050705
vn -0.48406684 0.85174892 0.20050705
vn -0.48406684 0.85174892 0.20050705
vn -0.20050705 0.85174892 0.48406684
vn -0.20050705 0.85174892 0.48406684
vn -0.20050705 0.85174892 0.48406684
vn 0.20050705 0.85174892 0.48406684
vn 0.20050705 0.85174892 0.48406684
vn 0.20050705 0.85174892 0.48406684
vn -0.34446682 0.43561069 0.83161646
vn -0.34446682 0.43561069 0.83161646
vn -0.34446682 0.43561069 0.83161646
vn -0.34446682 0.43561069 0.83161646
vn -0.37405221 0.21118766 0.90304192
vn -0.37405221 0.21118766 0.90304192
vn -0.37405221 0.21118766 0.90304192
vn -0.37405221 0.21118766 0.90304192
vn -0.38189429 0.06418724 0.92197438
vn -0.38189429 0.06418724 0.92197438
vn -0.38189429 0.06418724 0.92197438
vn -0.38189429 0.06418724 0.92197438
vn -0.37955584 -0.12758840 0.91632885
vn -0.37955584 -0.12758840 0.91632885
vn -0.37955584 -0.12758840 0.91632885
vn -0.37955584 -0.12758840 0.91632885
vn 0.37955584 -0.12758840 0.91632885
vn 0.37955584 -0.12758840 0.91632885
vn 0.37955584 -0.12758840 0.91632885
vn 0.37955584 -0.12758840 0.91632885
vn 0.35128845 -0.39667075 0.84808534
vn 0.35128845 -0.39667075 0.84808534
vn 0.35128845 -0.39667075 0.84808534
vn 0.35128845 -0.39667075 0.84808534
vn 0.84808534 -0.39667075 0.35128845
vn 0.84808534 -0.39667075 0.35128845
vn 0.84808534 -0.39667075 0.35128845
vn 0.84808534 -0.39667075 0.35128845
vn 0.84808534 -0.39667075 -0.35128845
vn 0.84808534 -0.39667075 -0.35128845
vn 0.84808534 -0.39667075 -0.35128845
vn 0.84808534 -0.39667075 -0.35128845
vn 0.35128845 -0.39667075 -0.84808534
vn 0.35128845 -0.39667075 -0.84808534
vn 0.35128845 -0.39667075 -0.84808534
vn 0.35128845 -0.39667075 -0.84808534
vn -0.35128845 -0.39667075 -0.84808534
vn -0.35128845 -0.39667075 -0.84808534
vn -0.35128845 -0.39667075 -0.84808534
vn -0.35128845 -0.39667075 -0.84808534
vn -0.84808534 -0.39667075 -0.35128845
vn -0.84808534 -0.39667075 -0.35128845
vn -0.84808534 -0.39667075 -0.35128845
vn -0.84808534 -0.39667075 -0.35128845
vn -0.84808534 -0.39667075 0.35128845
vn -0.84808534 -0.39667075 0.35128845
vn -0.84808534 -0.39667075 0.35128845
vn -0.84808534 -0.39667075 0.35128845
vn -0.66385654 -0.69547206 0.27497838
vn -0.66385654 -0.69547206 0.27497838
vn -0.66385654 -0.69547206 0.27497838
vn -0.66385654 -0.69547206 0.27497838
vn -0.27497838 -0.69547206 0.66385654
vn -0.27497838 -0.69547206 0.66385654
vn -0.27497838 -0.69547206 0.66385654
vn -0.27497838 -0.69547206 0.66385654
vn -0.11250196 -0.95581102 0.27160376
vn -0.11250196 -0.95581102 0.27160376
vn -0.11250196 -0.95581102 0.27160376
vn 0.11250196 -0.95581102 0.27160376
vn 0.11250196 -0.95581102 0.27160376
vn 0.11250196 -0.95581102 0.27160376
vn 0.27160376 -0.95581102 0.11250196
vn 0.27160376 -0.95581102 0.11250196
vn 0.27160376 -0.95581102 0.11250196
vn 0.27160376 -0.95581102 -0.11250196
vn 0.27160376 -0.95581102 -0.11250196
vn 0.27160376 -0.95581102 -0.11250196
vn 0.11250196 -0.95581102 -0.27160376
vn 0.11250196 -0.95581102 -0.27160376
vn 0.11250196 -0.95581102 -0.27160376
vn -0.11250196 -0.95581102 -0.27160376
vn -0.11250196 -0.95581102 -0.27160376
vn -0.11250196 -0.95581102 -0.27160376
vn -0.27160376 -0.95581102 -0.11250196
vn -0.27160376 -0.95581102 -0.11250196
vn -0.27160376 -0.95581102 -0.11250196
vn -0.27160376 -0.95581102 0.11250196
vn -0.27160376 -0.95581102 0.11250196
vn -0.27160376 -0.95581102 0.11250196
vn -0.66385654 -0.69547206 -0.27497838
vn -0.66385654 -0.69547206 -0.27497838
vn -0.66385654 -0.69547206 -0.27497838
vn -0.66385654 -0.69547206 -0.27497838
vn -0.91632885 -0.12758840 -0.37955584
vn -0.91632885 -0.12758840 -0.37955584
vn -0.91632885 -0.12758840 -0.37955584
vn -0.91632885 -0.12758840 -0.37955584
vn -0.27497838 -0.69547206 -0.66385654
vn -0.27497838 -0.69547206 -0.66385654
vn -0.27497838 -0.69547206 -0.66385654
vn -0.27497838 -0.69547206 -0.66385654
vn 0.27497838 -0.69547206 -0.66385654
vn 0.27497838 -0.69547206 -0.66385654
vn 0.27497838 -0.69547206 -0.66385654
vn 0.27497838 -0.69547206 -0.66385654
vn 0.66385654 -0.69547206 -0.27497838
vn 0.66385654 -0.69547206 -0.27497838
vn 0.66385654 -0.69547206 -0.27497838
vn 0.66385654 -0.69547206 -0.27497838
vn 0.66385654 -0.69547206 0.27497838
vn 0.66385654 -0.69547206 0.27497838
vn 0.66385654 -0.69547206 0.27497838
vn 0.66385654 -0.69547206 0.27497838
vn 0.27497838 -0.69547206 0.66385654
vn 0.27497838 -0.69547206 0.66385654
vn 0.27497838 -0.69547206 0.66385654
vn 0.27497838 -0.69547206 0.66385654
vn -0.35128845 -0.39667075 0.84808534
vn -0.35128845 -0.39667075 0.84808534
vn -0.35128845 -0.39667075 0.84808534
vn -0.35128845 -0.39667075 0.84808534
vn -0.91632885 -0.12758840 0.37955584
vn -0.91632885 -0.12758840 0.37955584
vn -0.91632885 -0.12758840 0.37955584
vn -0.91632885 -0.12758840 0.37955584
vn -0.92197438 0.06418724 0.38189429
vn -0.92197438 0.06418724 0.38189429
vn -0.92197438 0.06418724 0.38189429
vn -0.92197438 0.06418724 0.38189429
vn -0.90304192 0.21118766 0.37405221
vn -0.90304192 0.21118766 0.37405221
vn -0.90304192 0.21118766 0.37405221
vn -0.90304192 0.21118766 0.37405221
vn -0.83161646 0.43561069 0.34446682
vn -0.83161646 0.43561069 0.34446682
vn -0.83161646 0.43561069 0.34446682
vn -0.83161646 0.43561069 0.34446682
vn 0.20050705 0.85174892 -0.48406684
vn 0.20050705 0.85174892 -0.48406684
vn 0.20050705 0.85174892 -0.48406684
vn -0.83161646 0.43561069 -0.34446682
vn -0.83161646 0.43561069 -0.34446682
vn -0.83161646 0.43561069 -0.34446682
vn -0.83161646 0.43561069 -0.34446682
vn -0.90304192 0.21118766 -0.37405221
vn -0.90304192 0.21118766 -0.37405221
vn -0.90304192 0.21118766 -0.37405221
vn -0.90304192 0.21118766 -0.37405221
vn -0.92197438 0.06418724 -0.38189429
vn -0.92197438 0.06418724 -0.38189429
vn -0.92197438 0.06418724 -0.38189429
vn -0.92197438 0.06418724 -0.38189429
vn -0.37955584 -0.12758840 -0.91632885
vn -0.37955584 -0.12758840 -0.91632885
vn -0.37955584 -0.12758840 -0.91632885
vn -0.37955584 -0.12758840 -0.91632885
vn 0.37955584 -0.12758840 -0.91632885
vn 0.37955584 -0.12758840 -0.91632885
vn 0.37955584 -0.12758840 -0.91632885
vn 0.37955584 -0.12758840 -0.91632885
vn 0.37405221 0.21118766 -0.90304192
vn 0.37405221 0.21118766 -0.90304192
vn 0.37405221 0.21118766 -0.90304192
vn 0.37405221 0.21118766 -0.90304192
vn 0.91632885 -0.12758840 -0.37955584
vn 0.91632885 -0.12758840 -0.37955584
vn 0.91632885 -0.12758840 -0.37955584
vn 0.91632885 -0.12758840 -0.37955584
vn 0.91632885 -0.12758840 0.37955584
vn 0.91632885 -0.12758840 0.37955584
vn 0.91632885 -0.12758840 0.37955584
vn 0.91632885 -0.12758840 0.37955584
vn 0.38189429 0.06418724 0.92197438
vn 0.38189429 0.06418724 0.92197438
vn 0.38189429 0.06418724 0.92197438
vn 0.38189429 0.06418724 0.92197438
vn 0.37405221 0.21118766 0.90304192
vn 0.37405221 0.21118766 0.90304192
vn 0.37405221 0.21118766 0.90304192
vn 0.37405221 0.21118766 0.90304192
vn 0.34446682 0.43561069 0.83161646
vn 0.34446682 0.43561069 0.83161646
vn 0.34446682 0.43561069 0.83161646
vn 0.34446682 0.43561069 0.83161646
vn 0.48406684 0.85174892 0.20050705
vn 0.48406684 0.85174892 0.20050705
vn 0.48406684 0.85174892 0.20050705
vn 0.48406684 0.85174892 -0.20050705
vn 0.48406684 0.85174892 -0.20050705
vn 0.48406684 0.85174892 -0.20050705
vn 0.34446682 0.43561069 -0.83161646
vn 0.34446682 0.43561069 -0.83161646
vn 0.34446682 0.43561069 -0.83161646
vn 0.34446682 0.43561069 -0.83161646
vn 0.90304192 0.21118766 -0.37405221
vn 0.90304192 0.21118766 -0.37405221
vn 0.90304192 0.21118766 -0.37405221
vn 0.90304192 0.21118766 -0.37405221
s 1
usemtl Cedar_Leaves
f 4/4/4 3/3/3 2/2/2
f 4/4/4 2/2/2 1/1/1
s 2
f 3/8/8 4/7/7 5/5/5
f 4/7/7 6/6/6 5/5/5
s 3
f 8/12/12 3/11/11 7/9/9
f 3/11/11 5/10/10 7/9/9
s 4
f 10/16/16 8/15/15 9/13/13
f 8/15/15 7/14/14 9/13/13
s 5
f 8/20/20 10/19/19 12/18/18
f 8/20/20 12/18/18 11/17/17
s 6
f 14/24/24 13/23/23 12/21/21
f 13/23/23 11/22/22 12/21/21
s 7
f 13/28/28 14/27/27 15/25/25
f 14/27/27 16/26/26 15/25/25
s 8
f 18/32/32 13/31/31 17/29/29
f 13/31/31 15/30/30 17/29/29
s 9
f 20/36/36 18/35/35 19/33/33
f 18/35/35 17/34/34 19/33/33
s 10
f 21/39/39 20/38/38 19/37/37
s 11
f 21/42/42 19/41/41 22/40/40
s 12
f 21/45/45 22/44/44 23/43/43
s 13
f 21/48/48 23/47/47 24/46/46
s 14
f 21/51/51 24/50/50 6/49/49
s 15
f 26/55/55 24/54/54 25/52/52
f 24/54/54 23/53/53 25/52/52
s 16
f 28/59/59 26/58/58 25/57/57
f 28/59/59 25/57/57 27/56/56
s 17
f 30/63/63 28/62/62 27/61/61
f 30/63/63 27/61/61 29/60/60
s 18
f 32/67/67 30/66/66 31/64/64
f 30/66/66 29/65/65 31/64/64
s 19
f 30/71/71 32/70/70 9/68/68
f 32/70/70 33/69/69 9/68/68
s 20
f 32/75/75 35/74/74 33/72/72
f 35/74/74 34/73/73 33/72/72
s 21
f 37/79/79 36/78/78 33/77/77
f 37/79/79 33/77/77 34/76/76
s 22
f 36/83/83 37/82/82 38/80/80
f 37/82/82 39/81/81 38/80/80
s 23
f 41/87/87 40/86/86 38/85/85
f 41/87/87 38/85/85 39/84/84
s 24
f 40/91/91 41/90/90 43/89/89
f 40/91/91 43/89/89 42/88/88
s 25
f 45/95/95 44/94/94 43/92/92
f 44/94/94 42/93/93 43/92/92
s 26
f 44/99/99 45/98/98 46/97/97
f 44/99/99 46/97/97 31/96/96
s 27
f 45/103/103 48/102/102 47/101/101
f 45/103/103 47/101/101 46/100/100
s 28
f 49/107/107 35/106/106 47/104/104
f 35/106/106 46/105/105 47/104/104
s 29
f 50/110/110 49/109/109 47/108/108
s 30
f 50/113/113 51/112/112 49/111/111
s 31
f 50/116/116 52/115/115 51/114/114
s 32
f 50/119/119 53/118/118 52/117/117
s 33
f 50/122/122 54/121/121 53/120/120
s 34
f 50/125/125 55/124/124 54/123/123
s 35
f 50/128/128 48/127/127 55/126/126
s 36
f 50/131/131 47/130/130 48/129/129
s 37
f 48/135/135 45/134/134 55/132/132
f 45/134/134 43/133/133 55/132/132
s 38
f 44/139/139 56/138/138 42/136/136
f 56/138/138 16/137/137 42/136/136
s 39
f 41/143/143 54/142/142 43/140/140
f 54/142/142 55/141/141 43/140/140
s 40
f 54/147/147 41/146/146 39/145/145
f 54/147/147 39/145/145 53/144/144
s 41
f 37/151/151 52/150/150 39/148/148
f 52/150/150 53/149/149 39/148/148
s 42
f 52/155/155 37/154/154 34/153/153
f 52/155/155 34/153/153 51/152/152
s 43
f 35/159/159 49/158/158 51/157/157
f 35/159/159 51/157/157 34/156/156
s 44
f 35/163/163 32/162/162 46/160/160
f 32/162/162 31/161/161 46/160/160
s 45
f 56/167/167 44/166/166 31/165/165
f 56/167/167 31/165/165 29/164/164
s 46
f 57/171/171 56/170/170 27/168/168
f 56/170/170 29/169/169 27/168/168
s 47
f 58/175/175 57/174/174 25/172/172
f 57/174/174 27/173/173 25/172/172
s 48
f 22/179/179 58/178/178 23/176/176
f 58/178/178 25/177/177 23/176/176
s 49
f 21/182/182 1/181/181 20/180/180
s 50
f 58/186/186 22/185/185 19/184/184
f 58/186/186 19/184/184 17/183/183
s 51
f 57/190/190 58/189/189 17/188/188
f 57/190/190 17/188/188 15/187/187
s 52
f 56/194/194 57/193/193 15/192/192
f 56/194/194 15/192/192 16/191/191
s 53
f 14/198/198 40/197/197 42/196/196
f 14/198/198 42/196/196 16/195/195
s 54
f 40/202/202 14/201/201 12/200/200
f 40/202/202 12/200/200 38/199/199
s 55
f 13/206/206 18/205/205 11/203/203
f 18/205/205 2/204/204 11/203/203
s 56
f 10/210/210 36/209/209 12/207/207
f 36/209/209 38/208/208 12/207/207
s 57
f 36/214/214 10/213/213 9/212/212
f 36/214/214 9/212/212 33/211/211
s 58
f 28/218/218 30/217/217 9/216/216
f 28/218/218 9/216/216 7/215/215
s 59
f 26/222/222 28/221/221 7/220/220
f 26/222/222 7/220/220 5/219/219
s 60
f 24/226/226 26/225/225 5/224/224
f 24/226/226 5/224/224 6/223/223
s 61
f 21/229/229 6/228/228 4/227/227
s 62
f 21/232/232 4/231/231 1/230/230
s 63
f 18/236/236 20/235/235 1/234/234
f 18/236/236 1/234/234 2/233/233
s 64
f 3/240/240 8/239/239 11/238/238
f 3/240/240 11/238/238 2/237/237
o Trunk
g Trunk
v -0.05568466 0.00000000 0.05568466
v -0.07875000 0.00000000 0.00000000
v -0.07875000 0.71428571 0.00000000
v -0.05568466 0.71428571 0.05568466
v -0.00000000 0.00000000 0.07875000
v -0.00000000 0.71428571 0.07875000
v 0.05568466 0.00000000 0.05568466
v 0.05568466 0.71428571 0.05568466
v 0.07875000 0.00000000 0.00000000
v 0.07875000 0.71428571 0.00000000
v 0.05568466 0.00000000 -0.05568466
v 0.05568466 0.71428571 -0.05568466
v -0.00000000 0.00000000 -0.07875000
v -0.00000000 0.71428571 -0.07875000
v -0.05568466 0.00000000 -0.05568466
v -0.05568466 0.71428571 -0.05568466
vt 0.00000000 1.00000000
vt 0.00000000 0.00000000
vt 1.00000000 0.00000000
vt 1.00000000 1.00000000
vt 0.00000000 1.00000000
vt 0.00000000 0.00000000
vt 1.00000000 0.00000000
vt 1.00000000 1.00000000
vt 0.00000000 1.00000000
vt 0.00000000 0.00000000
vt 1.00000000 0.00000000
vt 1.00000000 1.00000000
vt 0.00000000 1.00000000
vt 0.00000000 0.00000000
vt 1.00000000 0.00000000
vt 1.00000000 1.00000000
vt 0.00000000 1.00000000
vt 0.00000000 0.00000000
vt 1.00000000 0.00000000
vt 1.00000000 1.00000000
vt 0.00000000 1.00000000
vt 0.00000000 0.00000000
vt 1.00000000 0.00000000
vt 1.00000000 1.00000000
vt 0.00000000 1.00000000
vt 0.00000000 0.00000000
vt 1.00000000 0.00000000
vt 1.00000000 1.00000000
vt 0.00000000 1.00000000
vt 0.00000000 0.00000000
vt 1.00000000 0.00000000
vt 1.00000000 1.00000000
vn -0.92387953 0.00000000 0.38268343
vn -0.92387953 -0.00000000 0.38268343
vn -0.92387953 -0.00000000 0.38268343
vn -0.92387953 0.00000000 0.38268343
vn -0.38268343 0.00000000 0.92387953
vn -0.38268343 0.00000000 0.92387953
vn -0.38268343 0.00000000 0.92387953
vn -0.38268343 0.00000000 0.92387953
vn 0.38268343 0.00000000 0.92387953
vn 0.38268343 0.00000000 0.92387953
vn 0.38268343 0.00000000 0.92387953
vn 0.38268343 0.00000000 0.92387953
vn 0.92387953 -0.00000000 0.38268343
vn 0.92387953 0.00000000 0.38268343
vn 0.92387953 0.00000000 0.38268343
vn 0.92387953 -0.00000000 0.38268343
vn 0.92387953 0.00000000 -0.38268343
vn 0.92387953 0.00000000 -0.38268343
vn 0.92387953 0.00000000 -0.38268343
vn 0.92387953 0.00000000 -0.38268343
vn 0.38268343 0.00000000 -0.92387953
vn 0.38268343 0.00000000 -0.92387953
vn 0.38268343 0.00000000 -0.92387953
vn 0.38268343 0.00000000 -0.92387953
vn -0.38268343 0.00000000 -0.92387953
vn -0.38268343 0.00000000 -0.92387953
vn -0.38268343 0.00000000 -0.92387953
vn -0.38268343 0.00000000 -0.92387953
vn -0.92387953 0.00000000 -0.38268343
vn -0.92387953 0.00000000 -0.38268343
vn -0.92387953 0.00000000 -0.38268343
vn -0.92387953 0.00000000 -0.38268343
s 1
usemtl Darker_Wood
f 62/244/244 61/243/243 59/241/241
f 61/243/243 60/242/242 59/241/241
s 2
f 64/248/248 62/247/247 63/245/245
f 62/247/247 59/246/246 63/245/245
s 3
f 66/252/252 64/251/251 65/249/249
f 64/251/251 63/250/250 65/249/249
s 4
f 68/256/256 66/255/255 67/253/253
f 66/255/255 65/254/254 67/253/253
s 5
f 70/260/260 68/259/259 69/257/257
f 68/259/259 67/258/258 69/257/257
s 6
f 72/264/264 70/263/263 71/261/261
f 70/263/263 69/262/262 71/261/261
s 7
f 74/268/268 72/267/267 73/265/265
f 72/267/267 71/266/266 73/265/265
s 8
f 61/272/272 74/271/271 60/269/269
f 74/271/271 73/270/270 60/269/269
