mtllib Prop_Decorative_Tree_Cedar_3.mtl
o Leaves
g Leaves
v 0.13529903 0.59514256 0.13529903
v 0.19134172 0.59514256 0.00000000
v -0.00000000 0.45395201 0.00000000
v -0.00000000 0.59514256 0.19134172
v -0.13529903 0.59514256 0.13529903
v -0.19134172 0.59514256 0.00000000
v -0.13529903 0.59514256 -0.13529903
v -0.00000000 0.59514256 -0.19134172
v 0.13529903 0.59514256 -0.13529903
v 0.25000000 0.89145907 -0.25000000
v -0.00000000 0.89145907 -0.35355339
v 0.35355339 0.89145907 0.00000000
v 0.46193977 1.26510015 0.00000000
v 0.32664074 1.26510015 -0.32664074
v 0.25000000 0.89145907 0.25000000
v 0.32664074 1.26510015 0.32664074
v -0.00000000 0.89145907 0.35355339
v -0.00000000 1.26510015 0.46193977
v -0.25000000 0.89145907 0.25000000
v -0.32664074 1.26510015 0.32664074
v -0.35355339 0.89145907 0.00000000
v -0.46193977 1.26510015 0.00000000
v -0.25000000 0.89145907 -0.25000000
v -0.32664074 1.26510015 -0.32664074
v -0.00000000 1.26510015 -0.46193977
v -0.00000000 1.64298337 -0.50000000
v -0.35355339 1.64298337 -0.35355339
v 0.35355339 1.64298337 -0.35355339
v 0.32664074 1.96120082 -0.32664074
v -0.00000000 1.96120082 -0.46193977
v 0.46193977 1.96120082 0.00000000
v 0.50000000 1.64298337 0.00000000
v 0.32664074 1.96120082 0.32664074
v 0.35355339 1.64298337 0.35355339
v -0.00000000 1.96120082 0.46193977
v -0.00000000 1.64298337 0.50000000
v -0.32664074 1.96120082 0.32664074
v -0.35355339 1.64298337 0.35355339
v -0.46193977 1.96120082 0.00000000
v -0.50000000 1.64298337 0.00000000
v -0.32664074 1.96120082 -0.32664074
v -0.25000000 2.27584594 -0.25000000
v -0.35355339 2.27584594 0.00000000
v -0.00000000 2.27584594 -0.35355339
v -0.00000000 2.52537563 -0.19134172
v -0.13529903 2.52537563 -0.13529903
v 0.13529903 2.52537563 -0.13529903
v 0.25000000 2.27584594 -0.25000000
v 0.19134172 2.52537563 0.00000000
v 0.35355339 2.27584594 0.00000000
v 0.13529903 2.52537563 0.13529903
v 0.25000000 2.27584594 0.25000000
v -0.00000000 2.52537563 0.19134172
v -0.00000000 2.27584594 0.35355339
v -0.13529903 2.52537563 0.13529903
v -0.25000000 2.27584594 0.25000000
v -0.19134172 2.52537563 0.00000000
v -0.00000000 2.64427294 0.00000000
vt 0.00000000 0.00000000
vt 1.00000000 0.00000000
vt 0.00000000 1.00000000
vt 0.00000000 0.00000000
vt 1.00000000 0.00000000
vt 0.00000000 1.00000000
vt 0.00000000 0.00000000
vt 1.00000000 0.00000000
vt 1.00000000 1.00000000
vt 0.00000000 0.00000000
vt 1.00000000 0.00000000
vt 0.00000000 1.00000000
vt 0.00000000 0.00000000
vt 1.00000000 0.00000000
vt 0.00000000 1.00000000
vt 0.00000000 0.00000000
vt 1.00000000 0.00000000
vt 0.00000000 1.00000000
vt 0.00000000 0.00000000
vt 1.00000000 0.00000000
vt 0.00000000 1.00000000
vt 0.00000000 1.00000000
vt 0.00000000 0.00000000
vt 1.00000000 0.00000000
vt 1.00000000 1.00000000
vt 0.00000000 1.00000000
vt 0.00000000 0.00000000
vt 1.00000000 0.00000000
vt 1.00000000 1.00000000
vt 0.00000000 1.00000000
vt 0.00000000 0.00000000
vt 1.00000000 0.00000000
vt 1.00000000 1.00000000
vt 0.00000000 1.00000000
vt 0.00000000 0.00000000
vt 1.00000000 0.00000000
vt 1.00000000 1.00000000
vt 0.00000000 1.00000000
vt 0.00000000 0.00000000
vt 1.00000000 0.00000000
vt 1.00000000 1.00000000
vt 1.00000000 0.00000000
vt 1.00000000 1.00000000
vt 0.00000000 1.00000000
vt 0.00000000 0.00000000
vt 0.00000000 1.00000000
vt 0.00000000 0.00000000
vt 1.00000000 0.00000000
vt 1.00000000 1.00000000
vt 0.00000000 1.00000000
vt 0.00000000 0.00000000
vt 1.00000000 0.00000000
vt 1.00000000 1.00000000
vt 0.00000000 1.00000000
vt 0.00000000 0.00000000
vt 1.00000000 0.00000000
vt 1.00000000 1.00000000
vt 0.00000000 1.00000000
vt 0.00000000 0.00000000
vt 1.00000000 0.00000000
vt 1.00000000 1.00000000
vt 0.00000000 1.00000000
vt 0.00000000 0.00000000
vt 1.00000000 0.00000000
vt 1.00000000 1.00000000
vt 0.00000000 1.00000000
vt 0.00000000 0.00000000
vt 1.00000000 0.00000000
vt 1.00000000 1.00000000
vt 0.00000000 1.00000000
vt 0.00000000 0.00000000
vt 1.00000000 0.00000000
vt 1.00000000 1.00000000
vt 0.00000000 1.00000000
vt 0.00000000 0.00000000
vt 1.00000000 0.00000000
vt 1.00000000 1.00000000
vt 0.00000000 1.00000000
vt 0.00000000 0.00000000
vt 1.00000000 0.00000000
vt 1.00000000 1.00000000
vt 1.00000000 0.00000000
vt 1.00000000 1.00000000
vt 0.00000000 1.00000000
vt 0.00000000 0.00000000
vt 0.00000000 1.00000000
vt 0.00000000 0.00000000
vt 1.00000000 0.00000000
vt 1.00000000 1.00000000
vt 0.00000000 1.00000000
vt 0.00000000 0.00000000
vt 1.00000000 0.00000000
vt 1.00000000 1.00000000
vt 0.00000000 1.00000000
vt 0.00000000 0.00000000
vt 1.00000000 0.00000000
vt 1.00000000 1.00000000
vt 0.00000000 1.00000000
vt 0.00000000 0.00000000
vt 1.00000000 0.00000000
vt 1.00000000 1.00000000
vt 0.00000000 1.00000000
vt 0.00000000 0.00000000
vt 1.00000000 0.00000000
vt 1.00000000 1.00000000
vt 0.00000000 1.00000000
vt 0.00000000 0.00000000
vt 1.00000000 0.00000000
vt 1.00000000 1.00000000
vt 0.00000000 1.00000000
vt 0.00000000 0.00000000
vt 1.00000000 0.00000000
vt 1.00000000 1.00000000
vt 0.00000000 1.00000000
vt 0.00000000 0.00000000
vt 1.00000000 0.00000000
vt 1.00000000 1.00000000
vt 0.00000000 1.00000000
vt 0.00000000 0.00000000
vt 1.00000000 0.00000000
vt 1.00000000 1.00000000
vt 1.00000000 0.00000000
vt 1.00000000 1.00000000
vt 0.00000000 1.00000000
vt 0.00000000 0.00000000
vt 0.00000000 1.00000000
vt 0.00000000 0.00000000
vt 1.00000000 0.00000000
vt 1.00000000 1.00000000
vt 0.00000000 0.00000000
vt 1.00000000 0.00000000
vt 1.00000000 1.00000000
vt 0.00000000 0.00000000
vt 1.00000000 0.00000000
vt 1.00000000 1.00000000
vt 0.00000000 1.00000000
vt 0.00000000 0.00000000
vt 1.00000000 0.00000000
vt 0.00000000 0.00000000
vt 1.00000000 0.00000000
vt 1.00000000 1.00000000
vt 0.00000000 0.00000000
vt 1.00000000 0.00000000
vt 1.00000000 1.00000000
vt 0.00000000 0.00000000
vt 1.00000000 0.00000000
vt 1.00000000 1.00000000
vt 0.00000000 0.00000000
vt 1.00000000 0.00000000
vt 1.00000000 1.00000000
vt 0.00000000 0.00000000
vt 1.00000000 0.00000000
vt 1.00000000 1.00000000
vt 0.00000000 1.00000000
vt 0.00000000 0.00000000
vt 1.00000000 0.00000000
vt 1.00000000 1.00000000
vt 0.00000000 1.00000000
vt 0.00000000 0.00000000
vt 1.00000000 0.00000000
vt 1.00000000 1.00000000
vt 1.00000000 0.00000000
vt 1.00000000 1.00000000
vt 0.00000000 1.00000000
vt 0.00000000 0.00000000
vt 0.00000000 1.00000000
vt 0.00000000 0.00000000
vt 1.00000000 0.00000000
vt 1.00000000 1.00000000
vt 0.00000000 1.00000000
vt 0.00000000 0.00000000
vt 1.00000000 0.00000000
vt 1.00000000 1.00000000
vt 0.00000000 1.00000000
vt 0.00000000 0.00000000
vt 1.00000000 0.00000000
vt 1.00000000 1.00000000
vt 0.00000000 1.00000000
vt 0.00000000 0.00000000
vt 1.00000000 0.00000000
vt 1.00000000 1.00000000
vt 0.00000000 1.00000000
vt 0.00000000 0.00000000
vt 1.00000000 0.00000000
vt 1.00000000 1.00000000
vt 0.00000000 1.00000000
vt 0.00000000 0.00000000
vt 1.00000000 0.00000000
vt 1.00000000 1.00000000
vt 0.00000000 1.00000000
vt 0.00000000 0.00000000
vt 1.00000000 0.00000000
vt 1.00000000 1.00000000
vt 1.00000000 0.00000000
vt 1.00000000 1.00000000
vt 0.00000000 1.00000000
vt 0.00000000 0.00000000
vt 0.00000000 1.00000000
vt 0.00000000 0.00000000
vt 1.00000000 0.00000000
vt 1.00000000 1.00000000
vt 0.00000000 1.00000000
vt 0.00000000 0.00000000
vt 1.00000000 0.00000000
vt 1.00000000 1.00000000
vt 0.00000000 1.00000000
vt 0.00000000 0.00000000
vt 1.00000000 0.00000000
vt 1.00000000 1.00000000
vt 0.00000000 1.00000000
vt 0.00000000 0.00000000
vt 1.00000000 0.00000000
vt 1.00000000 1.00000000
vt 0.00000000 1.00000000
vt 0.00000000 0.00000000
vt 1.00000000 0.00000000
vt 1.00000000 1.00000000
vt 0.00000000 1.00000000
vt 0.00000000 0.00000000
vt 1.00000000 0.00000000
vt 1.00000000 1.00000000
vt 0.00000000 1.00000000
vt 0.00000000 0.00000000
vt 1.00000000 0.00000000
vt 1.00000000 1.00000000
vt 1.00000000 0.00000000
vt 1.00000000 1.00000000
vt 0.00000000 1.00000000
vt 0.00000000 0.00000000
vt 0.00000000 1.00000000
vt 0.00000000 0.00000000
vt 1.00000000 0.00000000
vt 1.00000000 1.00000000
vt 0.00000000 1.00000000
vt 0.00000000 0.00000000
vt 1.00000000 0.00000000
vt 1.00000000 1.00000000
vt 0.00000000 0.00000000
vt 1.00000000 0.00000000
vt 0.00000000 1.00000000
vn 0.57656807 -0.78136621 0.23882232
vn 0.57656807 -0.78136621 0.23882232
vn 0.57656807 -0.78136621 0.23882232
vn 0.23882232 -0.78136621 0.57656807
vn 0.23882232 -0.78136621 0.57656807
vn 0.23882232 -0.78136621 0.57656807
vn -0.23882232 -0.78136621 0.57656807
vn -0.23882232 -0.78136621 0.57656807
vn -0.23882232 -0.78136621 0.57656807
vn -0.57656807 -0.78136621 0.23882232
vn -0.57656807 -0.78136621 0.23882232
vn -0.57656807 -0.78136621 0.23882232
vn -0.57656807 -0.78136621 -0.23882232
vn -0.57656807 -0.78136621 -0.23882232
vn -0.57656807 -0.78136621 -0.23882232
vn -0.23882232 -0.78136621 -0.57656807
vn -0.23882232 -0.78136621 -0.57656807
vn -0.23882232 -0.78136621 -0.57656807
vn 0.23882232 -0.78136621 -0.57656807
vn 0.23882232 -0.78136621 -0.57656807
vn 0.23882232 -0.78136621 -0.57656807
vn 0.34149251 -0.45131849 -0.82443586
vn 0.34149251 -0.45131849 -0.82443586
vn 0.34149251 -0.45131849 -0.82443586
vn 0.34149251 -0.45131849 -0.82443586
vn 0.82443586 -0.45131849 -0.34149251
vn 0.82443586 -0.45131849 -0.34149251
vn 0.82443586 -0.45131849 -0.34149251
vn 0.82443586 -0.45131849 -0.34149251
vn 0.89238768 -0.25886518 -0.36963908
vn 0.89238768 -0.25886518 -0.36963908
vn 0.89238768 -0.25886518 -0.36963908
vn 0.89238768 -0.25886518 -0.36963908
vn 0.89238768 -0.25886518 0.36963908
vn 0.89238768 -0.25886518 0.36963908
vn 0.89238768 -0.25886518 0.36963908
vn 0.89238768 -0.25886518 0.36963908
vn 0.36963908 -0.25886518 0.89238768
vn 0.36963908 -0.25886518 0.89238768
vn 0.36963908 -0.25886518 0.89238768
vn 0.36963908 -0.25886518 0.89238768
vn -0.36963908 -0.25886518 0.89238768
vn -0.36963908 -0.25886518 0.89238768
vn -0.36963908 -0.25886518 0.89238768
vn -0.36963908 -0.25886518 0.89238768
vn -0.89238768 -0.25886518 0.36963908
vn -0.89238768 -0.25886518 0.36963908
vn -0.89238768 -0.25886518 0.36963908
vn -0.89238768 -0.25886518 0.36963908
vn -0.89238768 -0.25886518 -0.36963908
vn -0.89238768 -0.25886518 -0.36963908
vn -0.89238768 -0.25886518 -0.36963908
vn -0.89238768 -0.25886518 -0.36963908
vn -0.36963908 -0.25886518 -0.89238768
vn -0.36963908 -0.25886518 -0.89238768
vn -0.36963908 -0.25886518 -0.89238768
vn -0.36963908 -0.25886518 -0.89238768
vn -0.38103732 -0.09265248 -0.91990547
vn -0.38103732 -0.09265248 -0.91990547
vn -0.38103732 -0.09265248 -0.91990547
vn -0.38103732 -0.09265248 -0.91990547
vn 0.38103732 -0.09265248 -0.91990547
vn 0.38103732 -0.09265248 -0.91990547
vn 0.38103732 -0.09265248 -0.91990547
vn 0.38103732 -0.09265248 -0.91990547
vn 0.38036828 0.10983163 -0.91829025
vn 0.38036828 0.10983163 -0.91829025
vn 0.38036828 0.10983163 -0.91829025
vn 0.38036828 0.10983163 -0.91829025
vn 0.91829025 0.10983163 -0.38036828
vn 0.91829025 0.10983163 -0.38036828
vn 0.91829025 0.10983163 -0.38036828
vn 0.91829025 0.10983163 -0.38036828
vn 0.91829025 0.10983163 0.38036828
vn 0.91829025 0.10983163 0.38036828
vn 0.91829025 0.10983163 0.38036828
vn 0.91829025 0.10983163 0.38036828
vn 0.38036828 0.10983163 0.91829025
vn 0.38036828 0.10983163 0.91829025
vn 0.38036828 0.10983163 0.91829025
vn 0.38036828 0.10983163 0.91829025
vn -0.38036828 0.10983163 0.91829025
vn -0.38036828 0.10983163 0.91829025
vn -0.38036828 0.10983163 0.91829025
vn -0.38036828 0.10983163 0.91829025
vn -0.91829025 0.10983163 0.38036828
vn -0.91829025 0.10983163 0.38036828
vn -0.91829025 0.10983163 0.38036828
vn -0.91829025 0.10983163 0.38036828
vn -0.91829025 0.10983163 -0.38036828
vn -0.91829025 0.10983163 -0.38036828
vn -0.91829025 0.10983163 -0.38036828
vn -0.91829025 0.10983163 -0.38036828
vn -0.88037116 0.30326305 -0.36466168
vn -0.88037116 0.30326305 -0.36466168
vn -0.88037116 0.30326305 -0.36466168
vn -0.88037116 0.30326305 -0.36466168
vn -0.36466168 0.30326305 -0.88037116
vn -0.36466168 0.30326305 -0.88037116
vn -0.36466168 0.30326305 -0.88037116
vn -0.36466168 0.30326305 -0.88037116
vn -0.32806349 0.51486510 -0.79201532
vn -0.32806349 0.51486510 -0.79201532
vn -0.32806349 0.51486510 -0.79201532
vn -0.32806349 0.51486510 -0.79201532
vn 0.32806349 0.51486510 -0.79201532
vn 0.32806349 0.51486510 -0.79201532
vn 0.32806349 0.51486510 -0.79201532
vn 0.32806349 0.51486510 -0.79201532
vn 0.79201532 0.51486510 -0.32806349
vn 0.79201532 0.51486510 -0.32806349
vn 0.79201532 0.51486510 -0.32806349
vn 0.79201532 0.51486510 -0.32806349
vn 0.79201532 0.51486510 0.32806349
vn 0.79201532 0.51486510 0.32806349
vn 0.79201532 0.51486510 0.32806349
vn 0.79201532 0.51486510 0.32806349
vn 0.32806349 0.51486510 0.79201532
vn 0.32806349 0.51486510 0.79201532
vn 0.32806349 0.51486510 0.79201532
vn 0.32806349 0.51486510 0.79201532
vn -0.32806349 0.51486510 0.79201532
vn -0.32806349 0.51486510 0.79201532
vn -0.32806349 0.51486510 0.79201532
vn -0.32806349 0.51486510 0.79201532
vn -0.79201532 0.51486510 0.32806349
vn -0.79201532 0.51486510 0.32806349
vn -0.79201532 0.51486510 0.32806349
vn -0.79201532 0.51486510 0.32806349
vn -0.51561279 0.82977689 0.21357381
vn -0.51561279 0.82977689 0.21357381
vn -0.51561279 0.82977689 0.21357381
vn -0.51561279 0.82977689 -0.21357381
vn -0.51561279 0.82977689 -0.21357381
vn -0.51561279 0.82977689 -0.21357381
vn -0.21357381 0.82977689 0.51561279
vn -0.21357381 0.82977689 0.51561279
vn -0.21357381 0.82977689 0.51561279
vn 0.21357381 0.82977689 0.51561279
vn 0.21357381 0.82977689 0.51561279
vn 0.21357381 0.82977689 0.51561279
vn 0.51561279 0.82977689 0.21357381
vn 0.51561279 0.82977689 0.21357381
vn 0.51561279 0.82977689 0.21357381
vn 0.51561279 0.82977689 -0.21357381
vn 0.51561279 0.82977689 -0.21357381
vn 0.51561279 0.82977689 -0.21357381
vn 0.21357381 0.82977689 -0.51561279
vn 0.21357381 0.82977689 -0.51561279
vn 0.21357381 0.82977689 -0.51561279
vn -0.21357381 0.82977689 -0.51561279
vn -0.21357381 0.82977689 -0.51561279
vn -0.21357381 0.82977689 -0.51561279
vn -0.79201532 0.51486510 -0.32806349
vn -0.79201532 0.51486510 -0.32806349
vn -0.79201532 0.51486510 -0.32806349
vn -0.79201532 0.51486510 -0.32806349
vn -0.88037116 0.30326305 0.36466168
vn -0.88037116 0.30326305 0.36466168
vn -0.88037116 0.30326305 0.36466168
vn -0.88037116 0.30326305 0.36466168
vn -0.36466168 0.30326305 0.88037116
vn -0.36466168 0.30326305 0.88037116
vn -0.36466168 0.30326305 0.88037116
vn -0.36466168 0.30326305 0.88037116
vn 0.36466168 0.30326305 0.88037116
vn 0.36466168 0.30326305 0.88037116
vn 0.36466168 0.30326305 0.88037116
vn 0.36466168 0.30326305 0.88037116
vn 0.88037116 0.30326305 0.36466168
vn 0.88037116 0.30326305 0.36466168
vn 0.88037116 0.30326305 0.36466168
vn 0.88037116 0.30326305 0.36466168
vn 0.88037116 0.30326305 -0.36466168
vn 0.88037116 0.30326305 -0.36466168
vn 0.88037116 0.30326305 -0.36466168
vn 0.88037116 0.30326305 -0.36466168
vn 0.36466168 0.30326305 -0.88037116
vn 0.36466168 0.30326305 -0.88037116
vn 0.36466168 0.30326305 -0.88037116
vn 0.36466168 0.30326305 -0.88037116
vn -0.38036828 0.10983163 -0.91829025
vn -0.38036828 0.10983163 -0.91829025
vn -0.38036828 0.10983163 -0.91829025
vn -0.38036828 0.10983163 -0.91829025
vn -0.91990547 -0.09265248 -0.38103732
vn -0.91990547 -0.09265248 -0.38103732
vn -0.91990547 -0.09265248 -0.38103732
vn -0.91990547 -0.09265248 -0.38103732
vn -0.91990547 -0.09265248 0.38103732
vn -0.91990547 -0.09265248 0.38103732
vn -0.91990547 -0.09265248 0.38103732
vn -0.91990547 -0.09265248 0.38103732
vn -0.38103732 -0.09265248 0.91990547
vn -0.38103732 -0.09265248 0.91990547
vn -0.38103732 -0.09265248 0.91990547
vn -0.38103732 -0.09265248 0.91990547
vn 0.38103732 -0.09265248 0.91990547
vn 0.38103732 -0.09265248 0.91990547
vn 0.38103732 -0.09265248 0.91990547
vn 0.38103732 -0.09265248 0.91990547
vn 0.91990547 -0.09265248 0.38103732
vn 0.91990547 -0.09265248 0.38103732
vn 0.91990547 -0.09265248 0.38103732
vn 0.91990547 -0.09265248 0.38103732
vn 0.91990547 -0.09265248 -0.38103732
vn 0.91990547 -0.09265248 -0.38103732
vn 0.91990547 -0.09265248 -0.38103732
vn 0.91990547 -0.09265248 -0.38103732
vn 0.36963908 -0.25886518 -0.89238768
vn 0.36963908 -0.25886518 -0.89238768
vn 0.36963908 -0.25886518 -0.89238768
vn 0.36963908 -0.25886518 -0.89238768
vn -0.34149251 -0.45131849 -0.82443586
vn -0.34149251 -0.45131849 -0.82443586
vn -0.34149251 -0.45131849 -0.82443586
vn -0.34149251 -0.45131849 -0.82443586
vn -0.82443586 -0.45131849 -0.34149251
vn -0.82443586 -0.45131849 -0.34149251
vn -0.82443586 -0.45131849 -0.34149251
vn -0.82443586 -0.45131849 -0.34149251
vn -0.82443586 -0.45131849 0.34149251
vn -0.82443586 -0.45131849 0.34149251
vn -0.82443586 -0.45131849 0.34149251
vn -0.82443586 -0.45131849 0.34149251
vn -0.34149251 -0.45131849 0.82443586
vn -0.34149251 -0.45131849 0.82443586
vn -0.34149251 -0.45131849 0.82443586
vn -0.34149251 -0.45131849 0.82443586
vn 0.34149251 -0.45131849 0.82443586
vn 0.34149251 -0.45131849 0.82443586
vn 0.34149251 -0.45131849 0.82443586
vn 0.34149251 -0.45131849 0.82443586
vn 0.82443586 -0.45131849 0.34149251
vn 0.82443586 -0.45131849 0.34149251
vn 0.82443586 -0.45131849 0.34149251
vn 0.82443586 -0.45131849 0.34149251
vn 0.57656807 -0.78136621 -0.23882232
vn 0.57656807 -0.78136621 -0.23882232
vn 0.57656807 -0.78136621 -0.23882232
s 1
usemtl Cedar_Leaves
f 3/3/3 2/2/2 1/1/1
s 2
f 3/6/6 1/5/5 4/4/4
s 3
f 3/9/9 4/8/8 5/7/7
s 4
f 3/12/12 5/11/11 6/10/10
s 5
f 3/15/15 6/14/14 7/13/13
s 6
f 3/18/18 7/17/17 8/16/16
s 7
f 3/21/21 8/20/20 9/19/19
s 8
f 8/25/25 11/24/24 10/23/23
f 8/25/25 10/23/23 9/22/22
s 9
f 9/29/29 10/28/28 12/27/27
f 9/29/29 12/27/27 2/26/26
s 10
f 10/33/33 14/32/32 13/31/31
f 10/33/33 13/31/31 12/30/30
s 11
f 12/37/37 13/36/36 16/35/35
f 12/37/37 16/35/35 15/34/34
s 12
f 15/41/41 16/40/40 18/39/39
f 15/41/41 18/39/39 17/38/38
s 13
f 20/45/45 19/44/44 17/43/43
f 20/45/45 17/43/43 18/42/42
s 14
f 19/49/49 20/48/48 21/46/46
f 20/48/48 22/47/47 21/46/46
s 15
f 21/53/53 22/52/52 23/50/50
f 22/52/52 24/51/51 23/50/50
s 16
f 23/57/57 24/56/56 11/54/54
f 24/56/56 25/55/55 11/54/54
s 17
f 24/61/61 27/60/60 25/58/58
f 27/60/60 26/59/59 25/58/58
s 18
f 25/65/65 26/64/64 28/63/63
f 25/65/65 28/63/63 14/62/62
s 19
f 29/66/66 28/67/67 26/68/68
f 29/66/66 26/68/68 30/69/69
s 20
f 31/70/70 32/71/71 28/72/72
f 31/70/70 28/72/72 29/73/73
s 21
f 33/74/74 34/75/75 32/76/76
f 33/74/74 32/76/76 31/77/77
s 22
f 35/78/78 36/79/79 34/80/80
f 35/78/78 34/80/80 33/81/81
s 23
f 36/82/82 35/83/83 37/84/84
f 36/82/82 37/84/84 38/85/85
s 24
f 39/86/86 40/87/87 37/89/89
f 40/87/87 38/88/88 37/89/89
s 25
f 41/90/90 27/91/91 39/93/93
f 27/91/91 40/92/92 39/93/93
s 26
f 42/94/94 41/95/95 43/97/97
f 41/95/95 39/96/96 43/97/97
s 27
f 44/98/98 30/99/99 42/101/101
f 30/99/99 41/100/100 42/101/101
s 28
f 45/102/102 44/103/103 46/105/105
f 44/103/103 42/104/104 46/105/105
s 29
f 47/106/106 48/107/107 45/109/109
f 48/107/107 44/108/108 45/109/109
s 30
f 49/110/110 50/111/111 48/112/112
f 49/110/110 48/112/112 47/113/113
s 31
f 51/114/114 52/115/115 50/116/116
f 51/114/114 50/116/116 49/117/117
s 32
f 53/118/118 54/119/119 52/120/120
f 53/118/118 52/120/120 51/121/121
s 33
f 54/122/122 53/123/123 56/125/125
f 53/123/123 55/124/124 56/125/125
s 34
f 57/126/126 43/127/127 55/129/129
f 43/127/127 56/128/128 55/129/129
s 35
f 57/130/130 55/131/131 58/132/132
s 36
f 46/133/133 57/134/134 58/135/135
s 37
f 58/136/136 55/137/137 53/138/138
s 38
f 53/139/139 51/140/140 58/141/141
s 39
f 51/142/142 49/143/143 58/144/144
s 40
f 49/145/145 47/146/146 58/147/147
s 41
f 47/148/148 45/149/149 58/150/150
s 42
f 45/151/151 46/152/152 58/153/153
s 43
f 46/154/154 42/155/155 57/157/157
f 42/155/155 43/156/156 57/157/157
s 44
f 43/158/158 39/159/159 56/161/161
f 39/159/159 37/160/160 56/161/161
s 45
f 35/162/162 54/163/163 56/164/164
f 35/162/162 56/164/164 37/165/165
s 46
f 54/166/166 35/167/167 33/168/168
f 54/166/166 33/168/168 52/169/169
s 47
f 52/170/170 33/171/171 31/172/172
f 52/170/170 31/172/172 50/173/173
s 48
f 50/174/174 31/175/175 29/176/176
f 50/174/174 29/176/176 48/177/177
s 49
f 48/178/178 29/179/179 30/180/180
f 48/178/178 30/180/180 44/181/181
s 50
f 30/182/182 26/183/183 41/185/185
f 26/183/183 27/184/184 41/185/185
s 51
f 22/189/189 40/188/188 24/186/186
f 40/188/188 27/187/187 24/186/186
s 52
f 20/193/193 38/192/192 22/190/190
f 38/192/192 40/191/191 22/190/190
s 53
f 38/197/197 20/196/196 18/195/195
f 38/197/197 18/195/195 36/194/194
s 54
f 16/201/201 34/200/200 36/199/199
f 16/201/201 36/199/199 18/198/198
s 55
f 13/205/205 32/204/204 34/203/203
f 13/205/205 34/203/203 16/202/202
s 56
f 14/209/209 28/208/208 32/207/207
f 14/209/209 32/207/207 13/206/206
s 57
f 11/213/213 25/212/212 14/211/211
f 11/213/213 14/211/211 10/210/210
s 58
f 7/217/217 23/216/216 11/215/215
f 7/217/217 11/215/215 8/214/214
s 59
f 6/221/221 21/220/220 7/218/218
f 21/220/220 23/219/219 7/218/218
s 60
f 5/225/225 19/224/224 6/222/222
f 19/224/224 21/223/223 6/222/222
s 61
f 19/229/229 5/228/228 4/227/227
f 19/229/229 4/227/227 17/226/226
s 62
f 1/233/233 15/232/232 4/230/230
f 15/232/232 17/231/231 4/230/230
s 63
f 2/237/237 12/236/236 15/235/235
f 2/237/237 15/235/235 1/234/234
s 64
f 3/240/240 9/239/239 2/238/238
o Trunk
g Trunk
v -0.00000000 0.00000000 -0.06750000
v 0.04772971 0.00000000 -0.04772971
v 0.04772971 0.85587875 -0.04772971
v -0.00000000 0.85587875 -0.06750000
v -0.04772971 0.00000000 -0.04772971
v -0.04772971 0.85587875 -0.04772971
v -0.06750000 0.00000000 0.00000000
v -0.06750000 0.85587875 0.00000000
v -0.04772971 0.00000000 0.04772971
v -0.04772971 0.85587875 0.04772971
v -0.00000000 0.00000000 0.06750000
v -0.00000000 0.85587875 0.06750000
v 0.04772971 0.00000000 0.04772971
v 0.04772971 0.85587875 0.04772971
v 0.06750000 0.00000000 0.00000000
v 0.06750000 0.85587875 0.00000000
vt 0.00000000 1.00000000
vt 0.00000000 0.00000000
vt 1.00000000 0.00000000
vt 1.00000000 1.00000000
vt 0.00000000 1.00000000
vt 0.00000000 0.00000000
vt 1.00000000 0.00000000
vt 1.00000000 1.00000000
vt 0.00000000 1.00000000
vt 0.00000000 0.00000000
vt 1.00000000 0.00000000
vt 1.00000000 1.00000000
vt 0.00000000 1.00000000
vt 0.00000000 0.00000000
vt 1.00000000 0.00000000
vt 1.00000000 1.00000000
vt 0.00000000 1.00000000
vt 0.00000000 0.00000000
vt 1.00000000 0.00000000
vt 1.00000000 1.00000000
vt 0.00000000 1.00000000
vt 0.00000000 0.00000000
vt 1.00000000 0.00000000
vt 1.00000000 1.00000000
vt 0.00000000 1.00000000
vt 0.00000000 0.00000000
vt 1.00000000 0.00000000
vt 1.00000000 1.00000000
vt 0.00000000 1.00000000
vt 0.00000000 0.00000000
vt 1.00000000 0.00000000
vt 1.00000000 1.00000000
vn 0.38268343 0.00000000 -0.92387953
vn 0.38268343 0.00000000 -0.92387953
vn 0.38268343 0.00000000 -0.92387953
vn 0.38268343 0.00000000 -0.92387953
vn -0.38268343 0.00000000 -0.92387953
vn -0.38268343 0.00000000 -0.92387953
vn -0.38268343 0.00000000 -0.92387953
vn -0.38268343 0.00000000 -0.92387953
vn -0.92387953 0.00000000 -0.38268343
vn -0.92387953 0.00000000 -0.38268343
vn -0.92387953 0.00000000 -0.38268343
vn -0.92387953 0.00000000 -0.38268343
vn -0.92387953 0.00000000 0.38268343
vn -0.92387953 0.00000000 0.38268343
vn -0.92387953 0.00000000 0.38268343
vn -0.92387953 0.00000000 0.38268343
vn -0.38268343 0.00000000 0.92387953
vn -0.38268343 0.00000000 0.92387953
vn -0.38268343 0.00000000 0.92387953
vn -0.38268343 0.00000000 0.92387953
vn 0.38268343 0.00000000 0.92387953
vn 0.38268343 0.00000000 0.92387953
vn 0.38268343 0.00000000 0.92387953
vn 0.38268343 0.00000000 0.92387953
vn 0.92387953 0.00000000 0.38268343
vn 0.92387953 0.00000000 0.38268343
vn 0.92387953 0.00000000 0.38268343
vn 0.92387953 0.00000000 0.38268343
vn 0.92387953 0.00000000 -0.38268343
vn 0.92387953 0.00000000 -0.38268343
vn 0.92387953 0.00000000 -0.38268343
vn 0.92387953 0.00000000 -0.38268343
s 1
usemtl Darker_Wood
f 62/244/244 61/243/243 59/241/241
f 61/243/243 60/242/242 59/241/241
s 2
f 64/248/248 62/247/247 63/245/245
f 62/247/247 59/246/246 63/245/245
s 3
f 66/252/252 64/251/251 65/249/249
f 64/251/251 63/250/250 65/249/249
s 4
f 68/256/256 66/255/255 67/253/253
f 66/255/255 65/254/254 67/253/253
s 5
f 70/260/260 68/259/259 69/257/257
f 68/259/259 67/258/258 69/257/257
s 6
f 72/264/264 70/263/263 71/261/261
f 70/263/263 69/262/262 71/261/261
s 7
f 74/268/268 72/267/267 73/265/265
f 72/267/267 71/266/266 73/265/265
s 8
f 61/272/272 74/271/271 60/269/269
f 74/271/271 73/270/270 60/269/269
