mtllib Prop_Track_Banner_Finish_Line_Single_Blank.mtl
o Banner_Back
g Banner_Back
v -0.00625001 1.93750000 -0.86249988
v -0.00625001 1.93750000 0.86249988
v -0.00625001 1.46250000 0.86249988
v -0.00625001 1.46250000 -0.86249988
vt 0.00000000 0.00000000
vt 1.00000000 0.00000000
vt 1.00000000 1.00000000
vt 0.00000000 1.00000000
vn -1.00000000 0.00000000 0.00000000
vn -1.00000000 0.00000000 0.00000000
vn -1.00000000 0.00000000 0.00000000
vn -1.00000000 0.00000000 0.00000000
s 1
usemtl Grey_-_40
f 4/4/4 3/3/3 1/1/1
f 3/3/3 2/2/2 1/1/1
o Banner_Front
g Banner_Front
v 0.00624999 1.46250000 -0.86249988
v 0.00624999 1.46250000 0.86249988
v 0.00624999 1.93750000 0.86249988
v 0.00624999 1.93750000 -0.86249988
vt 0.00000000 0.00000000
vt 1.00000000 0.00000000
vt 1.00000000 1.00000000
vt 0.00000000 1.00000000
vn 1.00000000 -0.00000000 -0.00000000
vn 1.00000000 -0.00000000 -0.00000000
vn 1.00000000 -0.00000000 -0.00000000
vn 1.00000000 -0.00000000 -0.00000000
s 1
usemtl Grey_-_40
f 8/8/8 7/7/7 6/6/6
f 8/8/8 6/6/6 5/5/5
o Flag_Pole_Side
g Flag_Pole_Side
v 0.02500000 0.00000000 0.95000000
v 0.02500000 2.00000000 0.95000000
v -0.02500000 2.00000000 0.95000000
v -0.02500000 0.00000000 0.95000000
v -0.05000000 0.00000000 0.97500000
v -0.05000000 2.00000000 0.97500000
v -0.05000000 2.00000000 1.02500000
v -0.05000000 0.00000000 1.02500000
v -0.02500000 0.00000000 1.05000000
v -0.02500000 2.00000000 1.05000000
v 0.02500000 0.00000000 1.05000000
v 0.02500000 2.00000000 1.05000000
v 0.05000000 0.00000000 1.02500000
v 0.05000000 2.00000000 1.02500000
v 0.05000000 0.00000000 0.97500000
v 0.05000000 2.00000000 0.97500000
vt 0.00000000 0.00000000
vt 1.00000000 0.00000000
vt 1.00000000 1.00000000
vt 0.00000000 1.00000000
vt 0.00000000 0.00000000
vt 1.00000000 0.00000000
vt 1.00000000 1.00000000
vt 0.00000000 1.00000000
vt 0.00000000 0.00000000
vt 1.00000000 0.00000000
vt 1.00000000 1.00000000
vt 0.00000000 1.00000000
vt 0.00000000 0.00000000
vt 1.00000000 0.00000000
vt 1.00000000 1.00000000
vt 0.00000000 1.00000000
vt 0.00000000 0.00000000
vt 1.00000000 0.00000000
vt 1.00000000 1.00000000
vt 0.00000000 1.00000000
vt 0.00000000 0.00000000
vt 1.00000000 0.00000000
vt 1.00000000 1.00000000
vt 0.00000000 1.00000000
vt 0.00000000 0.00000000
vt 1.00000000 0.00000000
vt 1.00000000 1.00000000
vt 0.00000000 1.00000000
vt 0.00000000 0.00000000
vt 1.00000000 0.00000000
vt 1.00000000 1.00000000
vt 0.00000000 1.00000000
vn 0.00000000 0.00000000 -1.00000000
vn 0.00000000 0.00000000 -1.00000000
vn 0.00000000 0.00000000 -1.00000000
vn 0.00000000 0.00000000 -1.00000000
vn -0.70710678 0.00000000 -0.70710678
vn -0.70710678 0.00000000 -0.70710678
vn -0.70710678 0.00000000 -0.70710678
vn -0.70710678 0.00000000 -0.70710678
vn -1.00000000 0.00000000 0.00000000
vn -1.00000000 0.00000000 0.00000000
vn -1.00000000 0.00000000 0.00000000
vn -1.00000000 0.00000000 0.00000000
vn -0.70710678 0.00000000 0.70710678
vn -0.70710678 0.00000000 0.70710678
vn -0.70710678 0.00000000 0.70710678
vn -0.70710678 0.00000000 0.70710678
vn 0.00000000 0.00000000 1.00000000
vn 0.00000000 0.00000000 1.00000000
vn 0.00000000 0.00000000 1.00000000
vn 0.00000000 0.00000000 1.00000000
vn 0.70710678 0.00000000 0.70710678
vn 0.70710678 0.00000000 0.70710678
vn 0.70710678 0.00000000 0.70710678
vn 0.70710678 0.00000000 0.70710678
vn 1.00000000 0.00000000 0.00000000
vn 1.00000000 0.00000000 0.00000000
vn 1.00000000 0.00000000 0.00000000
vn 1.00000000 0.00000000 0.00000000
vn 0.70710678 0.00000000 -0.70710678
vn 0.70710678 0.00000000 -0.70710678
vn 0.70710678 0.00000000 -0.70710678
vn 0.70710678 0.00000000 -0.70710678
s 1
usemtl Dark_Wood
f 12/12/12 11/11/11 9/9/9
f 11/11/11 10/10/10 9/9/9
s 2
f 13/13/13 14/14/14 12/16/16
f 14/14/14 11/15/15 12/16/16
s 3
f 16/20/20 15/19/19 13/17/17
f 15/19/19 14/18/18 13/17/17
s 4
f 17/21/21 18/22/22 16/24/24
f 18/22/22 15/23/23 16/24/24
s 5
f 19/25/25 20/26/26 17/28/28
f 20/26/26 18/27/27 17/28/28
s 6
f 21/29/29 22/30/30 19/32/32
f 22/30/30 20/31/31 19/32/32
s 7
f 23/33/33 24/34/34 21/36/36
f 24/34/34 22/35/35 21/36/36
s 8
f 9/37/37 10/38/38 23/40/40
f 10/38/38 24/39/39 23/40/40
v 0.02500000 0.00000000 -1.05000000
v 0.02500000 2.00000000 -1.05000000
v -0.02500000 2.00000000 -1.05000000
v -0.02500000 0.00000000 -1.05000000
v -0.05000000 2.00000000 -1.02500000
v -0.05000000 0.00000000 -1.02500000
v -0.05000000 0.00000000 -0.97500000
v -0.05000000 2.00000000 -0.97500000
v -0.02500000 2.00000000 -0.95000000
v -0.02500000 0.00000000 -0.95000000
v 0.02500000 0.00000000 -0.95000000
v 0.02500000 2.00000000 -0.95000000
v 0.05000000 2.00000000 -0.97500000
v 0.05000000 0.00000000 -0.97500000
v 0.05000000 2.00000000 -1.02500000
v 0.05000000 0.00000000 -1.02500000
vt 0.00000000 0.00000000
vt 1.00000000 0.00000000
vt 1.00000000 1.00000000
vt 0.00000000 1.00000000
vt 0.00000000 0.00000000
vt 1.00000000 0.00000000
vt 1.00000000 1.00000000
vt 0.00000000 1.00000000
vt 0.00000000 0.00000000
vt 1.00000000 0.00000000
vt 1.00000000 1.00000000
vt 0.00000000 1.00000000
vt 0.00000000 0.00000000
vt 1.00000000 0.00000000
vt 1.00000000 1.00000000
vt 0.00000000 1.00000000
vt 0.00000000 0.00000000
vt 1.00000000 0.00000000
vt 1.00000000 1.00000000
vt 0.00000000 1.00000000
vt 0.00000000 0.00000000
vt 1.00000000 0.00000000
vt 1.00000000 1.00000000
vt 0.00000000 1.00000000
vt 0.00000000 0.00000000
vt 1.00000000 0.00000000
vt 1.00000000 1.00000000
vt 0.00000000 1.00000000
vt 0.00000000 0.00000000
vt 1.00000000 0.00000000
vt 1.00000000 1.00000000
vt 0.00000000 1.00000000
vn 0.00000000 0.00000000 -1.00000000
vn 0.00000000 0.00000000 -1.00000000
vn 0.00000000 0.00000000 -1.00000000
vn 0.00000000 0.00000000 -1.00000000
vn -0.70710678 0.00000000 -0.70710678
vn -0.70710678 0.00000000 -0.70710678
vn -0.70710678 0.00000000 -0.70710678
vn -0.70710678 0.00000000 -0.70710678
vn -1.00000000 0.00000000 0.00000000
vn -1.00000000 0.00000000 0.00000000
vn -1.00000000 0.00000000 0.00000000
vn -1.00000000 0.00000000 0.00000000
vn -0.70710678 0.00000000 0.70710678
vn -0.70710678 0.00000000 0.70710678
vn -0.70710678 0.00000000 0.70710678
vn -0.70710678 0.00000000 0.70710678
vn 0.00000000 0.00000000 1.00000000
vn 0.00000000 0.00000000 1.00000000
vn 0.00000000 0.00000000 1.00000000
vn 0.00000000 0.00000000 1.00000000
vn 0.70710678 0.00000000 0.70710678
vn 0.70710678 0.00000000 0.70710678
vn 0.70710678 0.00000000 0.70710678
vn 0.70710678 0.00000000 0.70710678
vn 1.00000000 0.00000000 0.00000000
vn 1.00000000 0.00000000 0.00000000
vn 1.00000000 0.00000000 0.00000000
vn 1.00000000 0.00000000 0.00000000
vn 0.70710678 0.00000000 -0.70710678
vn 0.70710678 0.00000000 -0.70710678
vn 0.70710678 0.00000000 -0.70710678
vn 0.70710678 0.00000000 -0.70710678
s 1
usemtl Dark_Wood
f 28/44/44 27/43/43 25/41/41
f 27/43/43 26/42/42 25/41/41
s 2
f 30/48/48 29/47/47 28/45/45
f 29/47/47 27/46/46 28/45/45
s 3
f 31/49/49 32/50/50 30/52/52
f 32/50/50 29/51/51 30/52/52
s 4
f 34/56/56 33/55/55 31/53/53
f 33/55/55 32/54/54 31/53/53
s 5
f 35/57/57 36/58/58 34/60/60
f 36/58/58 33/59/59 34/60/60
s 6
f 38/64/64 37/63/63 35/61/61
f 37/63/63 36/62/62 35/61/61
s 7
f 40/68/68 39/67/67 38/65/65
f 39/67/67 37/66/66 38/65/65
s 8
f 25/72/72 26/71/71 40/69/69
f 26/71/71 39/70/70 40/69/69
o Flag_Pole_Top
g Flag_Pole_Top
v 0.02500000 2.00000000 -0.95000000
v 0.05000000 2.00000000 -0.97500000
v 0.05000000 2.00000000 -1.02500000
v 0.02500000 2.00000000 -1.05000000
v -0.02500000 2.00000000 -1.05000000
v -0.05000000 2.00000000 -1.02500000
v -0.05000000 2.00000000 -0.97500000
v -0.02500000 2.00000000 -0.95000000
v -0.00000000 2.00000000 -1.00000000
vt 0.00000000 0.25000000
vt 0.25000000 0.00000000
vt 0.75000000 0.00000000
vt 1.00000000 0.25000000
vt 1.00000000 0.75000000
vt 0.75000000 1.00000000
vt 0.25000000 1.00000000
vt 0.00000000 0.75000000
vt 0.50000000 0.50000000
vn 0.00000000 1.00000000 0.00000000
vn 0.00000000 1.00000000 0.00000000
vn 0.00000000 1.00000000 0.00000000
vn 0.00000000 1.00000000 0.00000000
vn 0.00000000 1.00000000 0.00000000
vn 0.00000000 1.00000000 0.00000000
vn 0.00000000 1.00000000 0.00000000
vn 0.00000000 1.00000000 0.00000000
vn 0.00000000 1.00000000 0.00000000
s 1
usemtl Wood_Light
f 41/73/73 42/74/74 49/81/81
f 47/79/79 48/80/80 49/81/81
f 46/78/78 47/79/79 49/81/81
f 45/77/77 46/78/78 49/81/81
f 44/76/76 45/77/77 49/81/81
f 43/75/75 44/76/76 49/81/81
f 42/74/74 43/75/75 49/81/81
f 48/80/80 41/73/73 49/81/81
v 0.02500000 2.00000000 0.95000000
v 0.05000000 2.00000000 0.97500000
v 0.05000000 2.00000000 1.02500000
v 0.02500000 2.00000000 1.05000000
v -0.02500000 2.00000000 1.05000000
v -0.05000000 2.00000000 1.02500000
v -0.05000000 2.00000000 0.97500000
v -0.02500000 2.00000000 0.95000000
v -0.00000000 2.00000000 1.00000000
vt 0.00000000 0.25000000
vt 0.25000000 0.00000000
vt 0.75000000 0.00000000
vt 1.00000000 0.25000000
vt 1.00000000 0.75000000
vt 0.75000000 1.00000000
vt 0.25000000 1.00000000
vt 0.00000000 0.75000000
vt 0.50000000 0.50000000
vn 0.00000000 1.00000000 0.00000000
vn 0.00000000 1.00000000 0.00000000
vn 0.00000000 1.00000000 0.00000000
vn 0.00000000 1.00000000 0.00000000
vn 0.00000000 1.00000000 0.00000000
vn 0.00000000 1.00000000 0.00000000
vn 0.00000000 1.00000000 0.00000000
vn 0.00000000 1.00000000 0.00000000
vn 0.00000000 1.00000000 0.00000000
s 1
usemtl Wood_Light
f 57/89/89 56/88/88 58/90/90
f 51/83/83 50/82/82 58/90/90
f 52/84/84 51/83/83 58/90/90
f 53/85/85 52/84/84 58/90/90
f 54/86/86 53/85/85 58/90/90
f 55/87/87 54/86/86 58/90/90
f 56/88/88 55/87/87 58/90/90
f 50/82/82 57/89/89 58/90/90
o Flag_Rail
g Flag_Rail
v 0.01249999 1.47500000 -1.00000048
v 0.01249999 1.47500000 0.99999952
v 0.02499999 1.46250000 0.99999952
v 0.02499999 1.46250000 -1.00000048
v 0.02499999 1.43750000 0.99999952
v 0.02499999 1.43750000 -1.00000048
v 0.01249999 1.42500000 0.99999952
v 0.01249999 1.42500000 -1.00000048
v -0.01250001 1.42500000 0.99999952
v -0.01250001 1.42500000 -1.00000048
v -0.02500001 1.43750000 0.99999952
v -0.02500001 1.43750000 -1.00000048
v -0.02500001 1.46250000 -1.00000048
v -0.02500001 1.46250000 0.99999952
v -0.01250001 1.47500000 0.99999952
v -0.01250001 1.47500000 -1.00000048
vt 0.00000000 0.00000000
vt 1.00000000 0.00000000
vt 1.00000000 1.00000000
vt 0.00000000 1.00000000
vt 0.00000000 1.00000000
vt 0.00000000 0.00000000
vt 1.00000000 0.00000000
vt 1.00000000 1.00000000
vt 0.00000000 0.00000000
vt 1.00000000 0.00000000
vt 1.00000000 1.00000000
vt 0.00000000 1.00000000
vt 0.00000000 0.00000000
vt 1.00000000 0.00000000
vt 1.00000000 1.00000000
vt 0.00000000 1.00000000
vt 0.00000000 0.00000000
vt 1.00000000 0.00000000
vt 1.00000000 1.00000000
vt 0.00000000 1.00000000
vt 0.00000000 1.00000000
vt 0.00000000 0.00000000
vt 1.00000000 0.00000000
vt 1.00000000 1.00000000
vt 0.00000000 0.00000000
vt 1.00000000 0.00000000
vt 1.00000000 1.00000000
vt 0.00000000 1.00000000
vt 0.00000000 0.00000000
vt 1.00000000 0.00000000
vt 1.00000000 1.00000000
vt 0.00000000 1.00000000
vn 0.70710678 0.70710678 -0.00000000
vn 0.70710678 0.70710678 -0.00000000
vn 0.70710678 0.70710678 -0.00000000
vn 0.70710678 0.70710678 -0.00000000
vn 1.00000000 0.00000000 -0.00000000
vn 1.00000000 0.00000000 -0.00000000
vn 1.00000000 0.00000000 -0.00000000
vn 1.00000000 0.00000000 -0.00000000
vn 0.70710678 -0.70710678 -0.00000000
vn 0.70710678 -0.70710678 -0.00000000
vn 0.70710678 -0.70710678 -0.00000000
vn 0.70710678 -0.70710678 -0.00000000
vn -0.00000000 -1.00000000 0.00000000
vn -0.00000000 -1.00000000 0.00000000
vn -0.00000000 -1.00000000 0.00000000
vn -0.00000000 -1.00000000 0.00000000
vn -0.70710678 -0.70710678 0.00000000
vn -0.70710678 -0.70710678 0.00000000
vn -0.70710678 -0.70710678 0.00000000
vn -0.70710678 -0.70710678 0.00000000
vn -1.00000000 0.00000000 0.00000000
vn -1.00000000 0.00000000 0.00000000
vn -1.00000000 0.00000000 0.00000000
vn -1.00000000 0.00000000 0.00000000
vn -0.70710678 0.70710678 0.00000000
vn -0.70710678 0.70710678 0.00000000
vn -0.70710678 0.70710678 0.00000000
vn -0.70710678 0.70710678 0.00000000
vn -0.00000000 1.00000000 0.00000000
vn -0.00000000 1.00000000 0.00000000
vn -0.00000000 1.00000000 0.00000000
vn -0.00000000 1.00000000 0.00000000
s 1
usemtl Darker_Wood
f 59/91/91 60/92/92 61/93/93
f 59/91/91 61/93/93 62/94/94
s 2
f 63/95/95 64/96/96 61/98/98
f 64/96/96 62/97/97 61/98/98
s 3
f 64/99/99 63/100/100 66/102/102
f 63/100/100 65/101/101 66/102/102
s 4
f 66/103/103 65/104/104 68/106/106
f 65/104/104 67/105/105 68/106/106
s 5
f 68/107/107 67/108/108 70/110/110
f 67/108/108 69/109/109 70/110/110
s 6
f 72/114/114 71/113/113 69/111/111
f 71/113/113 70/112/112 69/111/111
s 7
f 71/115/115 72/116/116 73/117/117
f 71/115/115 73/117/117 74/118/118
s 8
f 74/122/122 73/121/121 60/120/120
f 74/122/122 60/120/120 59/119/119
v 0.01249999 1.92500000 -1.00000048
v 0.01249999 1.92500000 0.99999952
v -0.01250001 1.92500000 0.99999952
v -0.01250001 1.92500000 -1.00000048
v 0.02499999 1.93750000 -1.00000048
v 0.02499999 1.93750000 0.99999952
v 0.02499999 1.96250000 -1.00000048
v 0.02499999 1.96250000 0.99999952
v 0.01249999 1.97500000 -1.00000048
v 0.01249999 1.97500000 0.99999952
v -0.01250001 1.97500000 0.99999952
v -0.01250001 1.97500000 -1.00000048
v -0.02500001 1.96250000 -1.00000048
v -0.02500001 1.96250000 0.99999952
v -0.02500001 1.93750000 0.99999952
v -0.02500001 1.93750000 -1.00000048
vt 0.00000000 0.00000000
vt 1.00000000 0.00000000
vt 1.00000000 1.00000000
vt 0.00000000 1.00000000
vt 0.00000000 0.00000000
vt 1.00000000 0.00000000
vt 1.00000000 1.00000000
vt 0.00000000 1.00000000
vt 0.00000000 1.00000000
vt 0.00000000 0.00000000
vt 1.00000000 0.00000000
vt 1.00000000 1.00000000
vt 0.00000000 0.00000000
vt 1.00000000 0.00000000
vt 1.00000000 1.00000000
vt 0.00000000 1.00000000
vt 0.00000000 0.00000000
vt 1.00000000 0.00000000
vt 1.00000000 1.00000000
vt 0.00000000 1.00000000
vt 0.00000000 0.00000000
vt 1.00000000 0.00000000
vt 1.00000000 1.00000000
vt 0.00000000 1.00000000
vt 0.00000000 1.00000000
vt 0.00000000 0.00000000
vt 1.00000000 0.00000000
vt 1.00000000 1.00000000
vt 0.00000000 0.00000000
vt 1.00000000 0.00000000
vt 1.00000000 1.00000000
vt 0.00000000 1.00000000
vn 0.00000000 -1.00000000 0.00000000
vn 0.00000000 -1.00000000 0.00000000
vn 0.00000000 -1.00000000 0.00000000
vn 0.00000000 -1.00000000 0.00000000
vn 0.70710678 -0.70710678 -0.00000000
vn 0.70710678 -0.70710678 -0.00000000
vn 0.70710678 -0.70710678 -0.00000000
vn 0.70710678 -0.70710678 -0.00000000
vn 1.00000000 0.00000000 -0.00000000
vn 1.00000000 0.00000000 -0.00000000
vn 1.00000000 0.00000000 -0.00000000
vn 1.00000000 0.00000000 -0.00000000
vn 0.70710678 0.70710678 -0.00000000
vn 0.70710678 0.70710678 -0.00000000
vn 0.70710678 0.70710678 -0.00000000
vn 0.70710678 0.70710678 -0.00000000
vn 0.00000000 1.00000000 0.00000000
vn 0.00000000 1.00000000 0.00000000
vn 0.00000000 1.00000000 0.00000000
vn 0.00000000 1.00000000 0.00000000
vn -0.70710678 0.70710678 0.00000000
vn -0.70710678 0.70710678 0.00000000
vn -0.70710678 0.70710678 0.00000000
vn -0.70710678 0.70710678 0.00000000
vn -1.00000000 0.00000000 0.00000000
vn -1.00000000 0.00000000 0.00000000
vn -1.00000000 0.00000000 0.00000000
vn -1.00000000 0.00000000 0.00000000
vn -0.70710678 -0.70710678 0.00000000
vn -0.70710678 -0.70710678 0.00000000
vn -0.70710678 -0.70710678 0.00000000
vn -0.70710678 -0.70710678 0.00000000
s 1
usemtl Darker_Wood
f 75/123/123 76/124/124 78/126/126
f 76/124/124 77/125/125 78/126/126
s 2
f 79/127/127 80/128/128 75/130/130
f 80/128/128 76/129/129 75/130/130
s 3
f 80/131/131 79/132/132 82/134/134
f 79/132/132 81/133/133 82/134/134
s 4
f 83/135/135 84/136/136 82/137/137
f 83/135/135 82/137/137 81/138/138
s 5
f 86/142/142 85/141/141 84/140/140
f 86/142/142 84/140/140 83/139/139
s 6
f 87/143/143 88/144/144 85/145/145
f 87/143/143 85/145/145 86/146/146
s 7
f 88/150/150 87/149/149 89/147/147
f 87/149/149 90/148/148 89/147/147
s 8
f 78/151/151 77/152/152 90/154/154
f 77/152/152 89/153/153 90/154/154
