mtllib Prop_Decorative_Fence_Gate_2.mtl
o Fence_Gate_Crossrail
g Fence_Gate_Crossrail
v -0.85000000 1.15000000 -0.00000000
v -0.85000000 1.15000000 0.03333333
v 0.22500000 0.67034419 0.03333333
v 0.22500000 0.67034419 -0.00000000
v -0.85000000 1.04081060 -0.00000000
v 0.22500000 0.56115479 -0.00000000
v -0.85000000 1.04081060 0.03333333
v 0.22500000 0.56115479 0.03333333
vt 0.00000000 0.00000000
vt 1.00000000 0.00000000
vt 1.00000000 1.00000000
vt 0.00000000 1.00000000
vt 0.00000000 0.00000000
vt 1.00000000 0.03662094
vt 1.00000000 1.00000000
vt 0.00000000 0.96337906
vt 0.00000000 0.00000000
vt 1.00000000 0.00000000
vt 1.00000000 1.00000000
vt 0.00000000 1.00000000
vt 0.00000000 0.00000000
vt 1.00000000 0.03662094
vt 1.00000000 1.00000000
vt 0.00000000 0.96337906
vn 0.40747028 0.91321847 -0.00000000
vn 0.40747028 0.91321847 -0.00000000
vn 0.40747028 0.91321847 -0.00000000
vn 0.40747028 0.91321847 -0.00000000
vn 0.00000000 0.00000000 -1.00000000
vn 0.00000000 0.00000000 -1.00000000
vn 0.00000000 -0.00000000 -1.00000000
vn 0.00000000 -0.00000000 -1.00000000
vn -0.40747028 -0.91321847 0.00000000
vn -0.40747028 -0.91321847 0.00000000
vn -0.40747028 -0.91321847 0.00000000
vn -0.40747028 -0.91321847 0.00000000
vn -0.00000000 0.00000000 1.00000000
vn -0.00000000 0.00000000 1.00000000
vn -0.00000000 -0.00000000 1.00000000
vn -0.00000000 -0.00000000 1.00000000
s 1
usemtl Medium_Wood
f 1/1/1 2/2/2 3/3/3
f 1/1/1 3/3/3 4/4/4
s 2
f 4/8/8 6/7/7 5/6/6
f 4/8/8 5/6/6 1/5/5
s 3
f 6/12/12 8/11/11 5/9/9
f 8/11/11 7/10/10 5/9/9
s 4
f 2/13/13 7/14/14 3/16/16
f 7/14/14 8/15/15 3/16/16
o Fence_Gate_Hinge
g Fence_Gate_Hinge
v 0.35000000 0.92500000 -0.02500000
v 0.40000000 0.92500000 -0.02500000
v 0.40000000 1.07500000 -0.02500000
v 0.35000000 1.07500000 -0.02500000
v 0.40000000 1.07500000 0.02500000
v 0.35000000 1.07500000 0.02500000
v 0.35000000 0.92500000 0.02500000
v 0.40000000 0.92500000 0.02500000
vt 0.00000000 1.00000000
vt 0.00000000 0.00000000
vt 1.00000000 0.00000000
vt 1.00000000 1.00000000
vt 0.00000000 1.00000000
vt 0.00000000 0.00000000
vt 1.00000000 0.00000000
vt 1.00000000 1.00000000
vt 0.00000000 1.00000000
vt 0.00000000 0.00000000
vt 1.00000000 0.00000000
vt 1.00000000 1.00000000
vt 0.00000000 1.00000000
vt 0.00000000 0.00000000
vt 1.00000000 0.00000000
vt 1.00000000 1.00000000
vn 0.00000000 0.00000000 -1.00000000
vn 0.00000000 0.00000000 -1.00000000
vn 0.00000000 0.00000000 -1.00000000
vn 0.00000000 0.00000000 -1.00000000
vn 0.00000000 1.00000000 0.00000000
vn 0.00000000 1.00000000 0.00000000
vn 0.00000000 1.00000000 0.00000000
vn 0.00000000 1.00000000 0.00000000
vn 0.00000000 0.00000000 1.00000000
vn 0.00000000 0.00000000 1.00000000
vn 0.00000000 0.00000000 1.00000000
vn 0.00000000 0.00000000 1.00000000
vn 0.00000000 -1.00000000 0.00000000
vn 0.00000000 -1.00000000 0.00000000
vn 0.00000000 -1.00000000 0.00000000
vn 0.00000000 -1.00000000 0.00000000
s 1
usemtl Grey_-_40
f 12/20/20 11/19/19 9/17/17
f 11/19/19 10/18/18 9/17/17
s 2
f 14/24/24 13/23/23 11/22/22
f 14/24/24 11/22/22 12/21/21
s 3
f 15/25/25 16/26/26 14/28/28
f 16/26/26 13/27/27 14/28/28
s 4
f 9/29/29 10/30/30 16/31/31
f 9/29/29 16/31/31 15/32/32
v 0.35000000 0.62500000 -0.02500000
v 0.40000000 0.62500000 -0.02500000
v 0.40000000 0.77500000 -0.02500000
v 0.35000000 0.77500000 -0.02500000
v 0.40000000 0.77500000 0.02500000
v 0.35000000 0.77500000 0.02500000
v 0.35000000 0.62500000 0.02500000
v 0.40000000 0.62500000 0.02500000
vt 0.00000000 1.00000000
vt 0.00000000 0.00000000
vt 1.00000000 0.00000000
vt 1.00000000 1.00000000
vt 0.00000000 1.00000000
vt 0.00000000 0.00000000
vt 1.00000000 0.00000000
vt 1.00000000 1.00000000
vt 0.00000000 1.00000000
vt 0.00000000 0.00000000
vt 1.00000000 0.00000000
vt 1.00000000 1.00000000
vt 0.00000000 1.00000000
vt 0.00000000 0.00000000
vt 1.00000000 0.00000000
vt 1.00000000 1.00000000
vn 0.00000000 0.00000000 -1.00000000
vn 0.00000000 0.00000000 -1.00000000
vn 0.00000000 0.00000000 -1.00000000
vn 0.00000000 0.00000000 -1.00000000
vn 0.00000000 1.00000000 0.00000000
vn 0.00000000 1.00000000 0.00000000
vn 0.00000000 1.00000000 0.00000000
vn 0.00000000 1.00000000 0.00000000
vn 0.00000000 0.00000000 1.00000000
vn 0.00000000 0.00000000 1.00000000
vn 0.00000000 0.00000000 1.00000000
vn 0.00000000 0.00000000 1.00000000
vn 0.00000000 -1.00000000 0.00000000
vn 0.00000000 -1.00000000 0.00000000
vn 0.00000000 -1.00000000 0.00000000
vn 0.00000000 -1.00000000 0.00000000
s 1
usemtl Grey_-_40
f 20/36/36 19/35/35 17/33/33
f 19/35/35 18/34/34 17/33/33
s 2
f 22/40/40 21/39/39 19/38/38
f 22/40/40 19/38/38 20/37/37
s 3
f 23/41/41 24/42/42 22/44/44
f 24/42/42 21/43/43 22/44/44
s 4
f 17/45/45 18/46/46 24/47/47
f 17/45/45 24/47/47 23/48/48
o Fence_Gate_Post_Side
g Fence_Gate_Post_Side
v 0.60000000 1.25000000 -0.06666667
v 0.60000000 1.25000000 0.06666667
v 0.60000000 -0.00000000 0.06666667
v 0.60000000 0.00000000 -0.06666667
v 0.56666667 1.25000000 -0.10000000
v 0.56666667 0.00000000 -0.10000000
v 0.43333333 1.25000000 -0.10000000
v 0.43333333 -0.00000000 -0.10000000
v 0.40000000 1.25000000 -0.06666667
v 0.40000000 -0.00000000 -0.06666667
v 0.40000000 1.25000000 0.06666667
v 0.40000000 -0.00000000 0.06666667
v 0.43333333 1.25000000 0.10000000
v 0.43333333 0.00000000 0.10000000
v 0.56666667 1.25000000 0.10000000
v 0.56666667 -0.00000000 0.10000000
vt 0.00000000 1.00000000
vt 0.00000000 0.00000000
vt 1.00000000 0.00000000
vt 1.00000000 1.00000000
vt 0.00000000 1.00000000
vt 0.00000000 0.00000000
vt 1.00000000 0.00000000
vt 1.00000000 1.00000000
vt 0.00000000 1.00000000
vt 0.00000000 0.00000000
vt 1.00000000 0.00000000
vt 1.00000000 1.00000000
vt 0.00000000 1.00000000
vt 0.00000000 0.00000000
vt 1.00000000 0.00000000
vt 1.00000000 1.00000000
vt 0.00000000 1.00000000
vt 0.00000000 0.00000000
vt 1.00000000 0.00000000
vt 1.00000000 1.00000000
vt 0.00000000 1.00000000
vt 0.00000000 0.00000000
vt 1.00000000 0.00000000
vt 1.00000000 1.00000000
vt 0.00000000 1.00000000
vt 0.00000000 0.00000000
vt 1.00000000 0.00000000
vt 1.00000000 1.00000000
vt 0.00000000 1.00000000
vt 0.00000000 0.00000000
vt 1.00000000 0.00000000
vt 1.00000000 1.00000000
vn 1.00000000 0.00000000 0.00000000
vn 1.00000000 0.00000000 0.00000000
vn 1.00000000 0.00000000 0.00000000
vn 1.00000000 0.00000000 0.00000000
vn 0.70710678 -0.00000000 -0.70710678
vn 0.70710678 0.00000000 -0.70710678
vn 0.70710678 0.00000000 -0.70710678
vn 0.70710678 -0.00000000 -0.70710678
vn 0.00000000 0.00000000 -1.00000000
vn 0.00000000 0.00000000 -1.00000000
vn 0.00000000 0.00000000 -1.00000000
vn 0.00000000 0.00000000 -1.00000000
vn -0.70710678 0.00000000 -0.70710678
vn -0.70710678 -0.00000000 -0.70710678
vn -0.70710678 -0.00000000 -0.70710678
vn -0.70710678 0.00000000 -0.70710678
vn -1.00000000 0.00000000 0.00000000
vn -1.00000000 0.00000000 0.00000000
vn -1.00000000 0.00000000 0.00000000
vn -1.00000000 0.00000000 0.00000000
vn -0.70710678 0.00000000 0.70710678
vn -0.70710678 0.00000000 0.70710678
vn -0.70710678 0.00000000 0.70710678
vn -0.70710678 0.00000000 0.70710678
vn 0.00000000 0.00000000 1.00000000
vn 0.00000000 0.00000000 1.00000000
vn 0.00000000 0.00000000 1.00000000
vn 0.00000000 0.00000000 1.00000000
vn 0.70710678 0.00000000 0.70710678
vn 0.70710678 -0.00000000 0.70710678
vn 0.70710678 -0.00000000 0.70710678
vn 0.70710678 0.00000000 0.70710678
s 1
usemtl Dark_Wood
f 25/49/49 26/50/50 28/52/52
f 26/50/50 27/51/51 28/52/52
s 2
f 29/53/53 25/54/54 30/56/56
f 25/54/54 28/55/55 30/56/56
s 3
f 30/60/60 32/59/59 29/57/57
f 32/59/59 31/58/58 29/57/57
s 4
f 33/61/61 31/62/62 34/64/64
f 31/62/62 32/63/63 34/64/64
s 5
f 34/68/68 36/67/67 33/65/65
f 36/67/67 35/66/66 33/65/65
s 6
f 37/69/69 35/70/70 38/72/72
f 35/70/70 36/71/71 38/72/72
s 7
f 39/73/73 37/74/74 40/76/76
f 37/74/74 38/75/75 40/76/76
s 8
f 26/77/77 39/78/78 27/80/80
f 39/78/78 40/79/79 27/80/80
o Fence_Gate_Post_Top
g Fence_Gate_Post_Top
v 0.60000000 1.25000000 0.06666667
v 0.60000000 1.25000000 -0.06666667
v 0.56666667 1.25000000 -0.10000000
v 0.43333333 1.25000000 -0.10000000
v 0.40000000 1.25000000 -0.06666667
v 0.40000000 1.25000000 0.06666667
v 0.43333333 1.25000000 0.10000000
v 0.56666667 1.25000000 0.10000000
v 0.50000000 1.25000000 -0.00000000
vt 1.00000000 0.16666667
vt 1.00000000 0.83333333
vt 0.83333333 1.00000000
vt 0.16666667 1.00000000
vt 0.00000000 0.83333333
vt 0.00000000 0.16666667
vt 0.16666667 0.00000000
vt 0.83333333 0.00000000
vt 0.50000000 0.50000000
vn 0.00000000 1.00000000 0.00000000
vn 0.00000000 1.00000000 0.00000000
vn 0.00000000 1.00000000 0.00000000
vn 0.00000000 1.00000000 0.00000000
vn 0.00000000 1.00000000 0.00000000
vn 0.00000000 1.00000000 0.00000000
vn 0.00000000 1.00000000 0.00000000
vn 0.00000000 1.00000000 0.00000000
vn 0.00000000 1.00000000 0.00000000
s 1
usemtl Wood_Light
f 41/81/81 42/82/82 49/89/89
f 47/87/87 48/88/88 49/89/89
f 46/86/86 47/87/87 49/89/89
f 45/85/85 46/86/86 49/89/89
f 44/84/84 45/85/85 49/89/89
f 43/83/83 44/84/84 49/89/89
f 42/82/82 43/83/83 49/89/89
f 48/88/88 41/81/81 49/89/89
o Fence_Gate_Rail
g Fence_Gate_Rail
v -0.85000000 0.78681818 -0.03333333
v -0.85000000 0.78681818 -0.00000000
v 0.25000000 0.78681818 -0.00000000
v 0.25000000 0.78681818 -0.03333333
v -0.85000000 0.91181818 -0.03333333
v 0.25000000 0.91181818 -0.03333333
v -0.85000000 0.91181818 -0.00000000
v 0.25000000 0.91181818 -0.00000000
vt 0.00000000 0.00000000
vt 1.00000000 0.00000000
vt 1.00000000 1.00000000
vt 0.00000000 1.00000000
vt 0.00000000 0.00000000
vt 1.00000000 0.00000000
vt 1.00000000 1.00000000
vt 0.00000000 1.00000000
vt 0.00000000 0.00000000
vt 1.00000000 0.00000000
vt 1.00000000 1.00000000
vt 0.00000000 1.00000000
vt 0.00000000 0.00000000
vt 1.00000000 0.00000000
vt 1.00000000 1.00000000
vt 0.00000000 1.00000000
vn 0.00000000 -1.00000000 0.00000000
vn 0.00000000 -1.00000000 0.00000000
vn 0.00000000 -1.00000000 0.00000000
vn 0.00000000 -1.00000000 0.00000000
vn 0.00000000 0.00000000 -1.00000000
vn 0.00000000 0.00000000 -1.00000000
vn 0.00000000 0.00000000 -1.00000000
vn 0.00000000 0.00000000 -1.00000000
vn 0.00000000 1.00000000 0.00000000
vn 0.00000000 1.00000000 0.00000000
vn 0.00000000 1.00000000 0.00000000
vn 0.00000000 1.00000000 0.00000000
vn -0.00000000 0.00000000 1.00000000
vn -0.00000000 0.00000000 1.00000000
vn -0.00000000 0.00000000 1.00000000
vn -0.00000000 0.00000000 1.00000000
s 1
usemtl Wood_Light
f 53/93/93 52/92/92 50/90/90
f 52/92/92 51/91/91 50/90/90
s 2
f 55/97/97 53/96/96 54/94/94
f 53/96/96 50/95/95 54/94/94
s 3
f 54/98/98 56/99/99 57/100/100
f 54/98/98 57/100/100 55/101/101
s 4
f 56/102/102 51/103/103 57/105/105
f 51/103/103 52/104/104 57/105/105
v -0.85000000 0.67500000 -0.00000000
v -0.85000000 0.55000000 -0.00000000
v 0.25000000 0.55000000 -0.00000000
v 0.25000000 0.67500000 -0.00000000
v -0.85000000 0.67500000 -0.03333333
v 0.25000000 0.67500000 -0.03333333
v -0.85000000 0.55000000 -0.03333333
v 0.25000000 0.55000000 -0.03333333
vt 0.00000000 0.00000000
vt 1.00000000 0.00000000
vt 1.00000000 1.00000000
vt 0.00000000 1.00000000
vt 0.00000000 0.00000000
vt 1.00000000 0.00000000
vt 1.00000000 1.00000000
vt 0.00000000 1.00000000
vt 0.00000000 0.00000000
vt 1.00000000 0.00000000
vt 1.00000000 1.00000000
vt 0.00000000 1.00000000
vt 0.00000000 0.00000000
vt 1.00000000 0.00000000
vt 1.00000000 1.00000000
vt 0.00000000 1.00000000
vn -0.00000000 0.00000000 1.00000000
vn -0.00000000 0.00000000 1.00000000
vn -0.00000000 0.00000000 1.00000000
vn -0.00000000 0.00000000 1.00000000
vn 0.00000000 1.00000000 0.00000000
vn 0.00000000 1.00000000 0.00000000
vn 0.00000000 1.00000000 0.00000000
vn 0.00000000 1.00000000 0.00000000
vn 0.00000000 0.00000000 -1.00000000
vn 0.00000000 0.00000000 -1.00000000
vn 0.00000000 0.00000000 -1.00000000
vn 0.00000000 0.00000000 -1.00000000
vn 0.00000000 -1.00000000 0.00000000
vn 0.00000000 -1.00000000 0.00000000
vn 0.00000000 -1.00000000 0.00000000
vn 0.00000000 -1.00000000 0.00000000
s 1
usemtl Wood_Light
f 58/106/106 59/107/107 61/109/109
f 59/107/107 60/108/108 61/109/109
s 2
f 62/110/110 58/111/111 61/112/112
f 62/110/110 61/112/112 63/113/113
s 3
f 63/117/117 65/116/116 62/114/114
f 65/116/116 64/115/115 62/114/114
s 4
f 65/121/121 60/120/120 64/118/118
f 60/120/120 59/119/119 64/118/118
v -0.85000000 1.15000000 -0.03333333
v -0.85000000 1.02500000 -0.03333333
v 0.25000000 1.02500000 -0.03333333
v 0.25000000 1.15000000 -0.03333333
v -0.85000000 1.15000000 -0.00000000
v 0.25000000 1.15000000 -0.00000000
v -0.85000000 1.02500000 -0.00000000
v 0.25000000 1.02500000 -0.00000000
vt 0.00000000 0.00000000
vt 1.00000000 0.00000000
vt 1.00000000 1.00000000
vt 0.00000000 1.00000000
vt 0.00000000 0.00000000
vt 1.00000000 0.00000000
vt 1.00000000 1.00000000
vt 0.00000000 1.00000000
vt 0.00000000 0.00000000
vt 1.00000000 0.00000000
vt 1.00000000 1.00000000
vt 0.00000000 1.00000000
vt 0.00000000 0.00000000
vt 1.00000000 0.00000000
vt 1.00000000 1.00000000
vt 0.00000000 1.00000000
vn 0.00000000 0.00000000 -1.00000000
vn 0.00000000 0.00000000 -1.00000000
vn 0.00000000 0.00000000 -1.00000000
vn 0.00000000 0.00000000 -1.00000000
vn 0.00000000 1.00000000 0.00000000
vn 0.00000000 1.00000000 0.00000000
vn 0.00000000 1.00000000 0.00000000
vn 0.00000000 1.00000000 0.00000000
vn -0.00000000 -0.00000000 1.00000000
vn -0.00000000 -0.00000000 1.00000000
vn -0.00000000 0.00000000 1.00000000
vn -0.00000000 0.00000000 1.00000000
vn 0.00000000 -1.00000000 0.00000000
vn 0.00000000 -1.00000000 0.00000000
vn 0.00000000 -1.00000000 0.00000000
vn 0.00000000 -1.00000000 0.00000000
s 1
usemtl Wood_Light
f 69/125/125 68/124/124 66/122/122
f 68/124/124 67/123/123 66/122/122
s 2
f 66/126/126 70/127/127 71/128/128
f 66/126/126 71/128/128 69/129/129
s 3
f 70/130/130 72/131/131 71/133/133
f 72/131/131 73/132/132 71/133/133
s 4
f 68/137/137 73/136/136 67/134/134
f 73/136/136 72/135/135 67/134/134
o Fence_Gate_Side
g Fence_Gate_Side
v -0.86650000 1.18750000 0.05000000
v -0.86650000 0.51250000 0.05000000
v -0.85000000 0.51250000 0.03350000
v -0.85000000 1.18750000 0.03350000
v -0.85000000 0.51250000 -0.03350000
v -0.85000000 1.18750000 -0.03350000
v -0.86650000 0.51250000 -0.05000000
v -0.86650000 1.18750000 -0.05000000
v -0.98350000 1.18750000 -0.05000000
v -0.98350000 0.51250000 -0.05000000
v -1.00000000 0.51250000 -0.03350000
v -1.00000000 1.18750000 -0.03350000
v -1.00000000 1.18750000 0.03350000
v -1.00000000 0.51250000 0.03350000
v -0.98350000 0.51250000 0.05000000
v -0.98350000 1.18750000 0.05000000
vt 0.00000000 0.00000000
vt 1.00000000 0.00000000
vt 1.00000000 1.00000000
vt 0.00000000 1.00000000
vt 1.00000000 1.00000000
vt 0.00000000 1.00000000
vt 0.00000000 0.00000000
vt 1.00000000 0.00000000
vt 0.00000000 0.00000000
vt 1.00000000 0.00000000
vt 1.00000000 1.00000000
vt 0.00000000 1.00000000
vt 1.00000000 1.00000000
vt 0.00000000 1.00000000
vt 0.00000000 0.00000000
vt 1.00000000 0.00000000
vt 0.00000000 0.00000000
vt 1.00000000 0.00000000
vt 1.00000000 1.00000000
vt 0.00000000 1.00000000
vt 1.00000000 1.00000000
vt 0.00000000 1.00000000
vt 0.00000000 0.00000000
vt 1.00000000 0.00000000
vt 0.00000000 0.00000000
vt 1.00000000 0.00000000
vt 1.00000000 1.00000000
vt 0.00000000 1.00000000
vt 0.89000000 0.00000000
vt 1.00000000 0.16500000
vt 1.00000000 0.83500000
vt 0.89000000 1.00000000
vt 0.11000000 1.00000000
vt 0.00000000 0.83500000
vt 0.00000000 0.16500000
vt 0.11000000 0.00000000
vt 0.00000000 0.00000000
vt 1.00000000 0.00000000
vt 1.00000000 1.00000000
vt 0.00000000 1.00000000
vn 0.70710678 0.00000000 0.70710678
vn 0.70710678 0.00000000 0.70710678
vn 0.70710678 0.00000000 0.70710678
vn 0.70710678 0.00000000 0.70710678
vn 1.00000000 0.00000000 0.00000000
vn 1.00000000 0.00000000 0.00000000
vn 1.00000000 0.00000000 0.00000000
vn 1.00000000 0.00000000 0.00000000
vn 0.70710678 0.00000000 -0.70710678
vn 0.70710678 0.00000000 -0.70710678
vn 0.70710678 0.00000000 -0.70710678
vn 0.70710678 0.00000000 -0.70710678
vn 0.00000000 0.00000000 -1.00000000
vn 0.00000000 0.00000000 -1.00000000
vn 0.00000000 0.00000000 -1.00000000
vn 0.00000000 0.00000000 -1.00000000
vn -0.70710678 0.00000000 -0.70710678
vn -0.70710678 0.00000000 -0.70710678
vn -0.70710678 0.00000000 -0.70710678
vn -0.70710678 0.00000000 -0.70710678
vn -1.00000000 0.00000000 0.00000000
vn -1.00000000 0.00000000 0.00000000
vn -1.00000000 0.00000000 0.00000000
vn -1.00000000 0.00000000 0.00000000
vn -0.70710678 -0.00000000 0.70710678
vn -0.70710678 -0.00000000 0.70710678
vn -0.70710678 0.00000000 0.70710678
vn -0.70710678 0.00000000 0.70710678
vn 0.00000000 1.00000000 0.00000000
vn 0.00000000 1.00000000 0.00000000
vn 0.00000000 1.00000000 0.00000000
vn 0.00000000 1.00000000 0.00000000
vn 0.00000000 1.00000000 0.00000000
vn 0.00000000 1.00000000 0.00000000
vn 0.00000000 1.00000000 0.00000000
vn 0.00000000 1.00000000 0.00000000
vn -0.00000000 0.00000000 1.00000000
vn -0.00000000 0.00000000 1.00000000
vn -0.00000000 0.00000000 1.00000000
vn -0.00000000 0.00000000 1.00000000
s 1
usemtl Medium_Wood
f 74/138/138 75/139/139 77/141/141
f 75/139/139 76/140/140 77/141/141
s 2
f 78/142/142 79/143/143 76/145/145
f 79/143/143 77/144/144 76/145/145
s 3
f 79/146/146 78/147/147 81/149/149
f 78/147/147 80/148/148 81/149/149
s 4
f 83/153/153 82/152/152 80/150/150
f 82/152/152 81/151/151 80/150/150
s 5
f 82/154/154 83/155/155 85/157/157
f 83/155/155 84/156/156 85/157/157
s 6
f 87/161/161 86/160/160 84/158/158
f 86/160/160 85/159/159 84/158/158
s 7
f 86/162/162 87/163/163 89/165/165
f 87/163/163 88/164/164 89/165/165
s 8
f 77/172/172 79/171/171 81/170/170
f 74/173/173 81/170/170 82/169/169
f 82/169/169 85/168/168 89/166/166
f 85/168/168 86/167/167 89/166/166
f 82/169/169 89/166/166 74/173/173
f 74/173/173 77/172/172 81/170/170
s 9
f 89/174/174 88/175/175 74/177/177
f 88/175/175 75/176/176 74/177/177
v 0.35850000 0.51250000 -0.05000000
v 0.35850000 1.18750000 -0.05000000
v 0.24150000 1.18750000 -0.05000000
v 0.24150000 0.51250000 -0.05000000
v 0.37500000 1.18750000 -0.03350000
v 0.37500000 0.51250000 -0.03350000
v 0.37500000 1.18750000 0.03350000
v 0.37500000 0.51250000 0.03350000
v 0.35850000 1.18750000 0.05000000
v 0.35850000 0.51250000 0.05000000
v 0.24150000 1.18750000 0.05000000
v 0.24150000 0.51250000 0.05000000
v 0.22500000 1.18750000 0.03350000
v 0.22500000 0.51250000 0.03350000
v 0.22500000 0.51250000 -0.03350000
v 0.22500000 1.18750000 -0.03350000
vt 1.00000000 1.00000000
vt 0.00000000 1.00000000
vt 0.00000000 0.00000000
vt 1.00000000 0.00000000
vt 0.00000000 0.00000000
vt 1.00000000 0.00000000
vt 1.00000000 1.00000000
vt 0.00000000 1.00000000
vt 1.00000000 1.00000000
vt 0.00000000 1.00000000
vt 0.00000000 0.00000000
vt 1.00000000 0.00000000
vt 0.00000000 0.00000000
vt 1.00000000 0.00000000
vt 1.00000000 1.00000000
vt 0.00000000 1.00000000
vt 0.00000000 0.00000000
vt 1.00000000 0.00000000
vt 1.00000000 1.00000000
vt 0.00000000 1.00000000
vt 0.00000000 0.00000000
vt 1.00000000 0.00000000
vt 1.00000000 1.00000000
vt 0.00000000 1.00000000
vt 1.00000000 1.00000000
vt 0.00000000 1.00000000
vt 0.00000000 0.00000000
vt 1.00000000 0.00000000
vt 0.00000000 0.00000000
vt 1.00000000 0.00000000
vt 1.00000000 1.00000000
vt 0.00000000 1.00000000
vt 0.89000000 0.00000000
vt 1.00000000 0.16500000
vt 1.00000000 0.83500000
vt 0.89000000 1.00000000
vt 0.11000000 1.00000000
vt 0.00000000 0.83500000
vt 0.00000000 0.16500000
vt 0.11000000 0.00000000
vn 0.00000000 0.00000000 -1.00000000
vn 0.00000000 0.00000000 -1.00000000
vn 0.00000000 0.00000000 -1.00000000
vn 0.00000000 0.00000000 -1.00000000
vn 0.70710678 0.00000000 -0.70710678
vn 0.70710678 0.00000000 -0.70710678
vn 0.70710678 0.00000000 -0.70710678
vn 0.70710678 0.00000000 -0.70710678
vn 1.00000000 0.00000000 0.00000000
vn 1.00000000 0.00000000 0.00000000
vn 1.00000000 0.00000000 0.00000000
vn 1.00000000 0.00000000 0.00000000
vn 0.70710678 0.00000000 0.70710678
vn 0.70710678 0.00000000 0.70710678
vn 0.70710678 0.00000000 0.70710678
vn 0.70710678 0.00000000 0.70710678
vn 0.00000000 0.00000000 1.00000000
vn 0.00000000 0.00000000 1.00000000
vn 0.00000000 0.00000000 1.00000000
vn 0.00000000 0.00000000 1.00000000
vn -0.70710678 0.00000000 0.70710678
vn -0.70710678 0.00000000 0.70710678
vn -0.70710678 0.00000000 0.70710678
vn -0.70710678 0.00000000 0.70710678
vn -1.00000000 0.00000000 0.00000000
vn -1.00000000 0.00000000 0.00000000
vn -1.00000000 0.00000000 0.00000000
vn -1.00000000 0.00000000 0.00000000
vn -0.70710678 0.00000000 -0.70710678
vn -0.70710678 0.00000000 -0.70710678
vn -0.70710678 0.00000000 -0.70710678
vn -0.70710678 0.00000000 -0.70710678
vn 0.00000000 1.00000000 0.00000000
vn 0.00000000 1.00000000 0.00000000
vn 0.00000000 1.00000000 0.00000000
vn 0.00000000 1.00000000 0.00000000
vn 0.00000000 1.00000000 0.00000000
vn 0.00000000 1.00000000 0.00000000
vn 0.00000000 1.00000000 0.00000000
vn 0.00000000 1.00000000 0.00000000
s 1
usemtl Medium_Wood
f 93/181/181 92/180/180 90/178/178
f 92/180/180 91/179/179 90/178/178
s 2
f 94/182/182 95/183/183 91/185/185
f 95/183/183 90/184/184 91/185/185
s 3
f 95/186/186 94/187/187 97/189/189
f 94/187/187 96/188/188 97/189/189
s 4
f 98/190/190 99/191/191 96/193/193
f 99/191/191 97/192/192 96/193/193
s 5
f 100/194/194 101/195/195 98/197/197
f 101/195/195 99/196/196 98/197/197
s 6
f 102/198/198 103/199/199 100/201/201
f 103/199/199 101/200/200 100/201/201
s 7
f 103/205/205 102/204/204 104/202/202
f 102/204/204 105/203/203 104/202/202
s 8
f 92/206/206 93/207/207 105/209/209
f 93/207/207 104/208/208 105/209/209
s 9
f 105/212/212 102/211/211 100/210/210
f 98/217/217 92/213/213 100/210/210
f 98/217/217 91/214/214 92/213/213
f 96/216/216 94/215/215 91/214/214
f 98/217/217 96/216/216 91/214/214
f 92/213/213 105/212/212 100/210/210
