mtllib Prop_Track_Bump_Small_Row_End.mtl
o Dirt
g Dirt
v -0.14176523 0.01425321 -0.08184819
v -0.07474112 0.06074679 -0.04315181
v -0.08630362 0.06074679 0.00000000
v -0.16369638 0.01425321 0.00000000
v -0.08630362 0.06074679 0.50000000
v -0.16369638 0.01425321 0.50000000
v -0.02985238 0.07500000 0.50000000
v -0.02985238 0.07500000 0.00000000
v 0.02985238 0.07500000 0.50000000
v -0.02585292 0.07500000 -0.01492619
v -0.01492619 0.07500000 -0.02585292
v -0.00000000 0.07500000 -0.02985238
v 0.01492619 0.07500000 -0.02585292
v 0.02585292 0.07500000 -0.01492619
v 0.02985238 0.07500000 0.00000000
v -0.04315181 0.06074679 -0.07474112
v -0.00000000 0.06074679 -0.08630362
v -0.00000000 0.01425321 -0.16369638
v -0.08184819 0.01425321 -0.14176523
v -0.00000000 0.00000000 -0.22014762
v -0.11007381 0.00000000 -0.19065343
v -0.19065343 0.00000000 -0.11007381
v 0.11007381 0.00000000 -0.19065343
v 0.08184819 0.01425321 -0.14176523
v 0.19065343 0.00000000 -0.11007381
v 0.14176523 0.01425321 -0.08184819
v 0.22014762 0.00000000 0.00000000
v 0.16369638 0.01425321 0.00000000
v 0.22014762 0.00000000 0.50000000
v 0.16369638 0.01425321 0.50000000
v 0.08630362 0.06074679 0.50000000
v 0.08630362 0.06074679 0.00000000
v 0.07474112 0.06074679 -0.04315181
v 0.04315181 0.06074679 -0.07474112
v -0.22014762 0.00000000 0.50000000
v -0.22014762 0.00000000 0.00000000
vt 0.00000000 1.00000000
vt 0.00000000 0.00000000
vt 1.00000000 0.00000000
vt 1.00000000 1.00000000
vt 0.00000000 1.00000000
vt 0.00000000 0.00000000
vt 1.00000000 0.00000000
vt 1.00000000 1.00000000
vt 0.00000000 1.00000000
vt 0.00000000 0.00000000
vt 1.00000000 0.00000000
vt 1.00000000 1.00000000
vt 1.00000000 1.00000000
vt 0.00000000 1.00000000
vt 0.00000000 0.05634094
vt 0.06698730 0.02817047
vt 0.25000000 0.00754825
vt 0.50000000 0.00000000
vt 0.75000000 0.00754825
vt 0.93301270 0.02817047
vt 1.00000000 0.05634094
vt 0.00000000 1.00000000
vt 0.00000000 0.00000000
vt 1.00000000 0.00000000
vt 1.00000000 1.00000000
vt 0.00000000 1.00000000
vt 0.00000000 0.00000000
vt 1.00000000 0.00000000
vt 1.00000000 1.00000000
vt 0.00000000 1.00000000
vt 0.00000000 0.00000000
vt 1.00000000 0.00000000
vt 1.00000000 1.00000000
vt 0.00000000 1.00000000
vt 0.00000000 0.00000000
vt 1.00000000 0.00000000
vt 1.00000000 1.00000000
vt 0.00000000 1.00000000
vt 0.00000000 0.00000000
vt 1.00000000 0.00000000
vt 1.00000000 1.00000000
vt 0.00000000 1.00000000
vt 0.00000000 0.00000000
vt 1.00000000 0.00000000
vt 1.00000000 1.00000000
vt 0.00000000 1.00000000
vt 0.00000000 0.00000000
vt 1.00000000 0.00000000
vt 1.00000000 1.00000000
vt 1.00000000 0.00000000
vt 1.00000000 1.00000000
vt 0.00000000 1.00000000
vt 0.00000000 0.00000000
vt 0.00000000 1.00000000
vt 0.00000000 0.00000000
vt 1.00000000 0.00000000
vt 1.00000000 1.00000000
vt 0.00000000 1.00000000
vt 0.00000000 0.00000000
vt 1.00000000 0.00000000
vt 1.00000000 1.00000000
vt 1.00000000 0.00000000
vt 1.00000000 1.00000000
vt 0.00000000 1.00000000
vt 0.00000000 0.00000000
vt 0.00000000 1.00000000
vt 0.00000000 0.00000000
vt 1.00000000 0.00000000
vt 1.00000000 1.00000000
vt 0.00000000 1.00000000
vt 0.00000000 0.00000000
vt 1.00000000 0.00000000
vt 1.00000000 1.00000000
vt 0.00000000 1.00000000
vt 0.00000000 0.00000000
vt 1.00000000 0.00000000
vt 1.00000000 1.00000000
vt 0.00000000 1.00000000
vt 0.00000000 0.00000000
vt 1.00000000 0.00000000
vt 1.00000000 1.00000000
vt 1.00000000 0.00000000
vt 1.00000000 1.00000000
vt 0.00000000 1.00000000
vt 0.00000000 0.00000000
vt 0.00000000 1.00000000
vt 0.00000000 0.00000000
vt 1.00000000 0.00000000
vt 1.00000000 1.00000000
vt 0.00000000 1.00000000
vt 0.00000000 0.00000000
vt 1.00000000 0.00000000
vt 1.00000000 1.00000000
vt 0.00000000 1.00000000
vt 0.00000000 0.00000000
vt 1.00000000 0.00000000
vt 1.00000000 1.00000000
vt 0.00000000 1.00000000
vt 0.00000000 0.00000000
vt 1.00000000 0.00000000
vt 1.00000000 1.00000000
vt 0.00000000 1.00000000
vt 0.00000000 0.00000000
vt 1.00000000 0.00000000
vt 1.00000000 1.00000000
vn -0.51013384 0.84916390 -0.13668995
vn -0.51013384 0.84916390 -0.13668995
vn -0.51013384 0.84916390 -0.13668995
vn -0.51013384 0.84916390 -0.13668995
vn -0.51496739 0.85720977 0.00000000
vn -0.51496739 0.85720977 0.00000000
vn -0.51496739 0.85720977 0.00000000
vn -0.51496739 0.85720977 0.00000000
vn -0.24480455 0.96957245 0.00000000
vn -0.24480455 0.96957245 0.00000000
vn -0.24480455 0.96957245 0.00000000
vn -0.24480455 0.96957245 0.00000000
vn 0.00000000 1.00000000 0.00000000
vn 0.00000000 1.00000000 0.00000000
vn 0.00000000 1.00000000 0.00000000
vn 0.00000000 1.00000000 0.00000000
vn 0.00000000 1.00000000 0.00000000
vn 0.00000000 1.00000000 0.00000000
vn 0.00000000 1.00000000 0.00000000
vn 0.00000000 1.00000000 0.00000000
vn 0.00000000 1.00000000 0.00000000
vn -0.17882506 0.96749325 -0.17882506
vn -0.17882506 0.96749325 -0.17882506
vn -0.17882506 0.96749325 -0.17882506
vn -0.17882506 0.96749325 -0.17882506
vn -0.06545452 0.96749325 -0.24427958
vn -0.06545452 0.96749325 -0.24427958
vn -0.06545452 0.96749325 -0.24427958
vn -0.06545452 0.96749325 -0.24427958
vn -0.13668995 0.84916390 -0.51013384
vn -0.13668995 0.84916390 -0.51013384
vn -0.13668995 0.84916390 -0.51013384
vn -0.13668995 0.84916390 -0.51013384
vn -0.06545452 0.96749325 -0.24427958
vn -0.06545452 0.96749325 -0.24427958
vn -0.06545452 0.96749325 -0.24427958
vn -0.06545452 0.96749325 -0.24427958
vn -0.17882506 0.96749325 -0.17882506
vn -0.17882506 0.96749325 -0.17882506
vn -0.17882506 0.96749325 -0.17882506
vn -0.17882506 0.96749325 -0.17882506
vn 0.06545452 0.96749325 -0.24427958
vn 0.06545452 0.96749325 -0.24427958
vn 0.06545452 0.96749325 -0.24427958
vn 0.06545452 0.96749325 -0.24427958
vn 0.17882506 0.96749325 -0.17882506
vn 0.17882506 0.96749325 -0.17882506
vn 0.17882506 0.96749325 -0.17882506
vn 0.17882506 0.96749325 -0.17882506
vn 0.24427958 0.96749325 -0.06545452
vn 0.24427958 0.96749325 -0.06545452
vn 0.24427958 0.96749325 -0.06545452
vn 0.24427958 0.96749325 -0.06545452
vn 0.24480455 0.96957245 0.00000000
vn 0.24480455 0.96957245 0.00000000
vn 0.24480455 0.96957245 0.00000000
vn 0.24480455 0.96957245 0.00000000
vn 0.51496739 0.85720977 0.00000000
vn 0.51496739 0.85720977 0.00000000
vn 0.51496739 0.85720977 0.00000000
vn 0.51496739 0.85720977 0.00000000
vn 0.51013384 0.84916390 -0.13668995
vn 0.51013384 0.84916390 -0.13668995
vn 0.51013384 0.84916390 -0.13668995
vn 0.51013384 0.84916390 -0.13668995
vn 0.37344389 0.84916390 -0.37344389
vn 0.37344389 0.84916390 -0.37344389
vn 0.37344389 0.84916390 -0.37344389
vn 0.37344389 0.84916390 -0.37344389
vn 0.13668995 0.84916390 -0.51013384
vn 0.13668995 0.84916390 -0.51013384
vn 0.13668995 0.84916390 -0.51013384
vn 0.13668995 0.84916390 -0.51013384
vn 0.06545452 0.96749325 -0.24427958
vn 0.06545452 0.96749325 -0.24427958
vn 0.06545452 0.96749325 -0.24427958
vn 0.06545452 0.96749325 -0.24427958
vn 0.17882506 0.96749325 -0.17882506
vn 0.17882506 0.96749325 -0.17882506
vn 0.17882506 0.96749325 -0.17882506
vn 0.17882506 0.96749325 -0.17882506
vn 0.24427958 0.96749325 -0.06545452
vn 0.24427958 0.96749325 -0.06545452
vn 0.24427958 0.96749325 -0.06545452
vn 0.24427958 0.96749325 -0.06545452
vn 0.24480455 0.96957245 0.00000000
vn 0.24480455 0.96957245 0.00000000
vn 0.24480455 0.96957245 0.00000000
vn 0.24480455 0.96957245 0.00000000
vn -0.24480455 0.96957245 0.00000000
vn -0.24480455 0.96957245 0.00000000
vn -0.24480455 0.96957245 0.00000000
vn -0.24480455 0.96957245 0.00000000
vn -0.24427958 0.96749325 -0.06545452
vn -0.24427958 0.96749325 -0.06545452
vn -0.24427958 0.96749325 -0.06545452
vn -0.24427958 0.96749325 -0.06545452
vn -0.37344389 0.84916390 -0.37344389
vn -0.37344389 0.84916390 -0.37344389
vn -0.37344389 0.84916390 -0.37344389
vn -0.37344389 0.84916390 -0.37344389
vn -0.24427958 0.96749325 -0.06545452
vn -0.24427958 0.96749325 -0.06545452
vn -0.24427958 0.96749325 -0.06545452
vn -0.24427958 0.96749325 -0.06545452
s 1
usemtl Dirt
f 4/4/4 3/3/3 1/1/1
f 3/3/3 2/2/2 1/1/1
s 2
f 3/8/8 4/7/7 5/5/5
f 4/7/7 6/6/6 5/5/5
s 3
f 8/12/12 3/11/11 7/9/9
f 3/11/11 5/10/10 7/9/9
s 4
f 15/21/21 14/20/20 13/19/19
f 13/19/19 12/18/18 11/17/17
f 11/17/17 10/16/16 8/15/15
f 15/21/21 8/15/15 7/14/14
f 7/14/14 9/13/13 15/21/21
f 15/21/21 11/17/17 8/15/15
f 15/21/21 13/19/19 11/17/17
s 5
f 2/25/25 10/24/24 11/23/23
f 2/25/25 11/23/23 16/22/22
s 6
f 16/29/29 11/28/28 12/27/27
f 16/29/29 12/27/27 17/26/26
s 7
f 19/33/33 16/32/32 17/31/31
f 19/33/33 17/31/31 18/30/30
s 8
f 21/37/37 19/36/36 18/35/35
f 21/37/37 18/35/35 20/34/34
s 9
f 22/41/41 1/40/40 19/39/39
f 22/41/41 19/39/39 21/38/38
s 10
f 20/45/45 18/44/44 24/43/43
f 20/45/45 24/43/43 23/42/42
s 11
f 23/49/49 24/48/48 25/46/46
f 24/48/48 26/47/47 25/46/46
s 12
f 28/53/53 27/52/52 25/51/51
f 28/53/53 25/51/51 26/50/50
s 13
f 27/57/57 28/56/56 29/54/54
f 28/56/56 30/55/55 29/54/54
s 14
f 28/61/61 32/60/60 30/58/58
f 32/60/60 31/59/59 30/58/58
s 15
f 32/65/65 28/64/64 26/63/63
f 32/65/65 26/63/63 33/62/62
s 16
f 24/69/69 34/68/68 33/67/67
f 24/69/69 33/67/67 26/66/66
s 17
f 18/73/73 17/72/72 34/71/71
f 18/73/73 34/71/71 24/70/70
s 18
f 17/77/77 12/76/76 13/75/75
f 17/77/77 13/75/75 34/74/74
s 19
f 34/81/81 13/80/80 14/79/79
f 34/81/81 14/79/79 33/78/78
s 20
f 15/85/85 32/84/84 33/83/83
f 15/85/85 33/83/83 14/82/82
s 21
f 32/89/89 15/88/88 31/86/86
f 15/88/88 9/87/87 31/86/86
s 22
f 4/93/93 36/92/92 6/90/90
f 36/92/92 35/91/91 6/90/90
s 23
f 36/97/97 4/96/96 1/95/95
f 36/97/97 1/95/95 22/94/94
s 24
f 1/101/101 2/100/100 16/99/99
f 1/101/101 16/99/99 19/98/98
s 25
f 3/105/105 8/104/104 2/102/102
f 8/104/104 10/103/103 2/102/102
