mtllib Terrain_Cliff_Bottom_Corner_Inner_1x1.mtl
o Rock
g Rock
v -0.25777223 1.50000000 -0.06250000
v -0.16265237 0.79289322 -0.11741748
v -0.39016504 0.79289322 -0.50000000
v -0.50000000 1.50000000 -0.50000000
v 0.06250000 1.50000000 0.25777223
v 0.11741748 0.79289322 0.16265237
v 0.50000000 1.50000000 0.50000000
v 0.50000000 0.79289322 0.39016504
v 0.25000000 0.50000000 -0.06698730
v 0.50000000 0.50000000 0.10000000
v 0.06698730 0.50000000 -0.25000000
v -0.10000000 0.50000000 -0.50000000
vt 0.00000000 1.00000000
vt 0.00000000 0.00000000
vt 1.00000000 0.00000000
vt 1.00000000 1.00000000
vt 0.00000000 1.00000000
vt 0.00000000 0.00000000
vt 1.00000000 0.00000000
vt 1.00000000 1.00000000
vt 1.00000000 0.00000000
vt 1.00000000 1.00000000
vt 0.00000000 1.00000000
vt 0.00000000 0.00000000
vt 1.00000000 0.00000000
vt 1.00000000 1.00000000
vt 0.00000000 1.00000000
vt 0.00000000 0.00000000
vt 0.00000000 1.00000000
vt 0.00000000 0.00000000
vt 1.00000000 0.00000000
vt 1.00000000 1.00000000
vt 0.00000000 1.00000000
vt 0.00000000 0.00000000
vt 1.00000000 0.00000000
vt 1.00000000 1.00000000
vn 0.86449553 0.15346533 -0.47863960
vn 0.84932189 0.15347700 -0.50507142
vn 0.85194606 0.13233285 -0.50663195
vn 0.86689142 0.13465432 -0.47996612
vn 0.69927977 0.14837657 -0.69927977
vn 0.69927977 0.14837657 -0.69927977
vn 0.69927977 0.14837657 -0.69927977
vn 0.69927977 0.14837657 -0.69927977
vn 0.50507142 0.15347700 -0.84932189
vn 0.47863960 0.15346533 -0.86449553
vn 0.47996612 0.13465432 -0.86689142
vn 0.50663195 0.13233285 -0.85194606
vn 0.41215631 0.67035788 -0.61704739
vn 0.37892613 0.67111423 -0.63719752
vn 0.38915982 0.64831084 -0.65440636
vn 0.42870015 0.63583727 -0.64181551
vn 0.53228878 0.65828361 -0.53228878
vn 0.53228878 0.65828361 -0.53228878
vn 0.53228878 0.65828361 -0.53228878
vn 0.53228878 0.65828361 -0.53228878
vn 0.63719752 0.67111423 -0.37892613
vn 0.61704739 0.67035788 -0.41215631
vn 0.64181551 0.63583727 -0.42870015
vn 0.65440636 0.64831084 -0.38915982
s 1
usemtl Rock
f 1/1/1 2/2/2 3/3/3
f 1/1/1 3/3/3 4/4/4
s 2
f 5/5/5 6/6/6 2/7/7
f 5/5/5 2/7/7 1/8/8
s 3
f 6/9/9 5/10/10 8/12/12
f 5/10/10 7/11/11 8/12/12
s 4
f 9/13/13 6/14/14 10/16/16
f 6/14/14 8/15/15 10/16/16
s 5
f 6/17/17 9/18/18 11/19/19
f 6/17/17 11/19/19 2/20/20
s 6
f 2/21/21 11/22/22 12/23/23
f 2/21/21 12/23/23 3/24/24
