mtllib Terrain_Cliff_Middle_Corner_Outer_1x1.mtl
o Rock
g Rock
v -0.06948114 0.50000000 -0.53936447
v -0.50000000 0.50000000 -0.50000000
v -0.50000000 1.50000000 -0.50000000
v -0.06948114 1.50000000 -0.53936447
v 0.20710678 0.50000000 -0.20710678
v 0.20710678 1.50000000 -0.20710678
v 0.53936447 0.50000000 0.06948114
v 0.53936447 1.50000000 0.06948114
v 0.50000000 0.50000000 0.50000000
v 0.50000000 1.50000000 0.50000000
vt 0.00000000 1.00000000
vt 0.00000000 0.00000000
vt 1.00000000 0.00000000
vt 1.00000000 1.00000000
vt 0.00000000 1.00000000
vt 0.00000000 0.00000000
vt 1.00000000 0.00000000
vt 1.00000000 1.00000000
vt 0.00000000 1.00000000
vt 0.00000000 0.00000000
vt 1.00000000 0.00000000
vt 1.00000000 1.00000000
vt 0.00000000 1.00000000
vt 0.00000000 0.00000000
vt 1.00000000 0.00000000
vt 1.00000000 1.00000000
vn -0.09105512 0.00000000 -0.99584585
vn -0.09105512 0.00000000 -0.99584585
vn -0.09105512 0.00000000 -0.99584585
vn -0.09105512 0.00000000 -0.99584585
vn 0.76855505 0.00000000 -0.63978366
vn 0.76855505 0.00000000 -0.63978366
vn 0.76855505 0.00000000 -0.63978366
vn 0.76855505 0.00000000 -0.63978366
vn 0.63978366 0.00000000 -0.76855505
vn 0.63978366 0.00000000 -0.76855505
vn 0.63978366 0.00000000 -0.76855505
vn 0.63978366 0.00000000 -0.76855505
vn 0.99584585 0.00000000 0.09105512
vn 0.99584585 0.00000000 0.09105512
vn 0.99584585 0.00000000 0.09105512
vn 0.99584585 0.00000000 0.09105512
s 1
usemtl Rock
f 1/1/1 2/2/2 4/4/4
f 2/2/2 3/3/3 4/4/4
s 2
f 5/5/5 1/6/6 6/8/8
f 1/6/6 4/7/7 6/8/8
s 3
f 7/9/9 5/10/10 8/12/12
f 5/10/10 6/11/11 8/12/12
s 4
f 9/13/13 7/14/14 10/16/16
f 7/14/14 8/15/15 10/16/16
