mtllib Terrain_Cliff_2_Tall_Side.mtl
o Grass
g Grass
v -0.28349365 2.37500000 -0.50000000
v -0.25000000 2.25000000 -0.50000000
v -0.25000000 2.25000000 0.50000000
v -0.28349365 2.37500000 0.50000000
v -0.37500000 2.46650635 -0.50000000
v -0.37500000 2.46650635 0.50000000
v -0.50000000 2.50000000 -0.50000000
v -0.50000000 2.50000000 0.50000000
v -0.25000000 2.05000000 -0.50000000
v -0.25000000 2.05000000 0.50000000
v -0.28349365 1.92500000 -0.50000000
v -0.28349365 1.92500000 0.50000000
v -0.37500000 1.83349365 -0.50000000
v -0.37500000 1.83349365 0.50000000
v -0.37500000 1.83349365 -0.00000000
v -0.50000000 1.80000000 -0.50000000
v -0.50000000 1.80000000 0.50000000
vt 0.00000000 1.00000000
vt 0.00000000 0.00000000
vt 1.00000000 0.00000000
vt 1.00000000 1.00000000
vt 0.00000000 1.00000000
vt 0.00000000 0.00000000
vt 1.00000000 0.00000000
vt 1.00000000 1.00000000
vt 0.00000000 1.00000000
vt 0.00000000 0.00000000
vt 1.00000000 0.00000000
vt 1.00000000 1.00000000
vt 0.00000000 1.00000000
vt 0.00000000 0.00000000
vt 1.00000000 0.00000000
vt 1.00000000 1.00000000
vt 0.00000000 1.00000000
vt 0.00000000 0.00000000
vt 1.00000000 0.00000000
vt 1.00000000 1.00000000
vt 0.00000000 1.00000000
vt 0.00000000 0.00000000
vt 1.00000000 0.00000000
vt 1.00000000 1.00000000
vt 0.50000000 1.00000000
vt 0.00000000 0.00000000
vt 1.00000000 0.00000000
vt 0.00000000 1.00000000
vt 1.00000000 0.00000000
vt 1.00000000 1.00000000
vt 0.00000000 0.00000000
vn 0.96592583 0.25881905 0.00000000
vn 0.96592583 0.25881905 0.00000000
vn 0.96592583 0.25881905 0.00000000
vn 0.96592583 0.25881905 0.00000000
vn 0.70710678 0.70710678 0.00000000
vn 0.70710678 0.70710678 0.00000000
vn 0.70710678 0.70710678 0.00000000
vn 0.70710678 0.70710678 0.00000000
vn 0.25881905 0.96592583 0.00000000
vn 0.25881905 0.96592583 0.00000000
vn 0.25881905 0.96592583 0.00000000
vn 0.25881905 0.96592583 0.00000000
vn 1.00000000 0.00000000 0.00000000
vn 1.00000000 0.00000000 0.00000000
vn 1.00000000 0.00000000 0.00000000
vn 1.00000000 0.00000000 0.00000000
vn 0.96592583 -0.25881905 0.00000000
vn 0.96592583 -0.25881905 0.00000000
vn 0.96592583 -0.25881905 0.00000000
vn 0.96592583 -0.25881905 0.00000000
vn 0.70710678 -0.70710678 0.00000000
vn 0.70710678 -0.70710678 0.00000000
vn 0.70710678 -0.70710678 0.00000000
vn 0.70710678 -0.70710678 0.00000000
vn 0.70710678 -0.70710678 0.00000000
vn 0.25881905 -0.96592583 0.00000000
vn 0.25881905 -0.96592583 0.00000000
vn 0.25881905 -0.96592583 0.00000000
vn 0.25881905 -0.96592583 0.00000000
vn 0.25881905 -0.96592583 0.00000000
s 1
usemtl Grass
f 4/4/4 3/3/3 2/2/2
f 4/4/4 2/2/2 1/1/1
s 2
f 6/8/8 4/7/7 1/6/6
f 6/8/8 1/6/6 5/5/5
s 3
f 8/12/12 6/11/11 5/10/10
f 8/12/12 5/10/10 7/9/9
s 4
f 3/16/16 10/15/15 2/13/13
f 10/15/15 9/14/14 2/13/13
s 5
f 11/17/17 9/18/18 10/19/19
f 11/17/17 10/19/19 12/20/20
s 6
f 12/23/23 14/24/24 15/25/25
f 15/25/25 13/21/21 11/22/22
f 11/22/22 12/23/23 15/25/25
s 7
f 13/26/26 15/27/27 16/28/28
f 14/29/29 17/30/30 15/31/27
o Rock
g Rock
v -0.39016504 0.79289322 0.50000000
v -0.26516504 0.79289322 0.00000000
v -0.00000000 0.50000000 0.00000000
v -0.10000000 0.50000000 0.50000000
v -0.50000000 1.50000000 0.50000000
v -0.37500000 1.50000000 0.00000000
v -0.39016504 0.79289322 -0.50000000
v -0.50000000 1.50000000 -0.50000000
v -0.37500000 1.83349365 -0.00000000
v -0.50000000 1.80000000 -0.50000000
v -0.50000000 1.80000000 0.50000000
v -0.10000000 0.50000000 -0.50000000
vt 1.00000000 0.00000000
vt 1.00000000 1.00000000
vt 0.00000000 1.00000000
vt 0.00000000 0.00000000
vt 0.00000000 1.00000000
vt 0.00000000 0.00000000
vt 1.00000000 0.00000000
vt 1.00000000 1.00000000
vt 0.00000000 1.00000000
vt 0.00000000 0.00000000
vt 1.00000000 0.00000000
vt 1.00000000 1.00000000
vt 0.00000000 0.00000000
vt 1.00000000 0.00000000
vt 0.89956736 1.00000000
vt 0.00000000 1.00000000
vt 0.00000000 0.00000000
vt 0.89956736 0.00000000
vt 1.00000000 1.00000000
vt 0.00000000 1.00000000
vt 1.00000000 0.00000000
vt 1.00000000 1.00000000
vt 0.00000000 1.00000000
vt 0.00000000 0.00000000
vn 0.69946189 0.69294670 0.17486547
vn 0.72891359 0.65990741 0.18222840
vn 0.73330998 0.66388759 0.14666200
vn 0.70334383 0.69679248 0.14066877
vn 0.95931154 0.14900994 0.23982788
vn 0.95931154 0.14900994 0.23982788
vn 0.95931154 0.14900994 0.23982788
vn 0.95931154 0.14900994 0.23982788
vn 0.95931154 0.14900994 -0.23982788
vn 0.95931154 0.14900994 -0.23982788
vn 0.95931154 0.14900994 -0.23982788
vn 0.95931154 0.14900994 -0.23982788
vn 0.97014250 0.00000000 -0.24253563
vn 0.97014250 0.00000000 -0.24253563
vn 0.97014250 0.00000000 -0.24253563
vn 0.97014250 0.00000000 -0.24253563
vn 0.97014250 0.00000000 0.24253563
vn 0.97014250 0.00000000 0.24253563
vn 0.97014250 0.00000000 0.24253563
vn 0.97014250 0.00000000 0.24253563
vn 0.72891359 0.65990741 -0.18222840
vn 0.69946189 0.69294670 -0.17486547
vn 0.70334383 0.69679248 -0.14066877
vn 0.73330998 0.66388759 -0.14666200
s 1
usemtl Rock
f 21/35/34 20/34/33 19/33/32
f 21/35/34 19/33/32 18/32/31
s 2
f 23/39/38 22/38/37 18/37/36
f 23/39/38 18/37/36 19/36/35
s 3
f 25/43/42 23/42/41 24/40/39
f 23/42/41 19/41/40 24/40/39
s 4
f 25/47/46 27/46/45 23/44/43
f 27/46/45 26/45/44 23/44/43
s 5
f 23/51/50 26/50/49 28/49/48
f 23/51/50 28/49/48 22/48/47
s 6
f 20/55/54 29/54/53 19/52/51
f 29/54/53 24/53/52 19/52/51
