mtllib Terrain_Hill_Corner_Inner_4x4.mtl
o Grass
g Grass
v -0.40096887 0.50000000 -0.06611626
v -0.47492791 0.50000000 -0.27747907
v -0.50000000 0.50000000 -0.50000000
v 0.50000000 0.50000000 -0.50000000
v 0.50000000 0.50000000 0.50000000
v 0.27747907 0.50000000 0.47492791
v 0.06611626 0.50000000 0.40096887
v -0.12348980 0.50000000 0.28183148
v -0.28183148 0.50000000 0.12348980
v -0.65659546 0.53490365 0.05698702
v -0.50365592 0.53490365 0.30038889
v -0.93864014 0.63288402 0.19281258
v -0.74840512 0.63288402 0.49556986
v -1.23761231 0.77657377 0.33678998
v -1.00784345 0.77657377 0.70246502
v -1.88299842 1.12792935 0.64759156
v -1.56788853 1.12792935 1.14908608
v -2.24363158 1.30082665 0.82126333
v -1.88083426 1.30082665 1.39865197
v -2.64732136 1.43991191 1.01567008
v -2.23114312 1.43991191 1.67801396
v -3.10387547 1.50000000 1.23553496
v -2.62732593 1.50000000 1.99395921
v -2.50000000 1.50000000 2.50000000
v -3.50000000 1.50000000 2.50000000
v -3.50000000 1.50000000 -0.50000000
v -3.39971165 1.50000000 0.39008374
v -1.99395921 1.50000000 2.62732593
v -1.23553496 1.50000000 3.10387547
v -0.39008374 1.50000000 3.39971165
v 0.50000000 1.50000000 3.50000000
v -2.50000000 1.50000000 3.50000000
v -0.27732418 1.43991191 2.90567976
v 0.50000000 1.43991191 2.99326316
v -0.17762104 1.30082665 2.46885176
v 0.50000000 1.30082665 2.54520132
v -0.08855201 1.12792935 2.07861482
v 0.50000000 1.12792935 2.14492871
v 0.07084520 0.77657377 1.38025003
v 0.50000000 0.77657377 1.42860416
v 0.14468523 0.63288402 1.05673573
v 0.50000000 0.63288402 1.09677009
v 0.21434451 0.53490365 0.75153846
v 0.50000000 0.53490365 0.78372411
v -0.19281258 0.63288402 0.93864014
v -0.05698702 0.53490365 0.65659546
v -0.49556986 0.63288402 0.74840512
v -0.30038889 0.53490365 0.50365592
v -0.70246502 0.77657377 1.00784345
v -0.33678998 0.77657377 1.23761231
v -1.14908608 1.12792935 1.56788853
v -0.64759156 1.12792935 1.88299842
v -1.39865197 1.30082665 1.88083426
v -0.82126333 1.30082665 2.24363158
v -1.67801396 1.43991191 2.23114312
v -1.01567008 1.43991191 2.64732136
v -2.90567976 1.43991191 0.27732418
v -2.99326316 1.43991191 -0.50000000
v -2.46885176 1.30082665 0.17762104
v -2.54520132 1.30082665 -0.50000000
v -2.07861482 1.12792935 0.08855201
v -2.14492871 1.12792935 -0.50000000
v -1.38025003 0.77657377 -0.07084520
v -1.42860416 0.77657377 -0.50000000
v -1.05673573 0.63288402 -0.14468523
v -1.09677009 0.63288402 -0.50000000
v -0.75153846 0.53490365 -0.21434451
v -0.78372411 0.53490365 -0.50000000
vt 0.56611626 0.09903113
vt 0.77747907 0.02507209
vt 1.00000000 0.00000000
vt 1.00000000 1.00000000
vt 0.00000000 1.00000000
vt 0.02507209 0.77747907
vt 0.09903113 0.56611626
vt 0.21816852 0.37651020
vt 0.37651020 0.21816852
vt 0.00000000 1.00000000
vt 0.00000000 0.00000000
vt 1.00000000 0.00000000
vt 1.00000000 1.00000000
vt 0.00000000 1.00000000
vt 0.00000000 0.00000000
vt 1.00000000 0.00000000
vt 1.00000000 1.00000000
vt 0.00000000 1.00000000
vt 0.00000000 0.00000000
vt 1.00000000 0.00000000
vt 1.00000000 1.00000000
vt 0.00000000 1.00000000
vt 0.00000000 0.00000000
vt 1.00000000 0.00000000
vt 1.00000000 1.00000000
vt 0.00000000 1.00000000
vt 0.00000000 0.00000000
vt 1.00000000 0.00000000
vt 1.00000000 1.00000000
vt 0.00000000 1.00000000
vt 0.00000000 0.00000000
vt 1.00000000 0.00000000
vt 1.00000000 1.00000000
vt 0.00000000 1.00000000
vt 0.00000000 0.00000000
vt 1.00000000 0.00000000
vt 1.00000000 1.00000000
vt 0.25000000 0.25000000
vt 0.25000000 0.00000000
vt 1.00000000 0.00000000
vt 0.77747907 0.02507209
vt 0.56611626 0.09903113
vt 0.37651020 0.21816852
vt 0.21816852 0.37651020
vt 0.09903113 0.56611626
vt 0.02507209 0.77747907
vt 0.00000000 1.00000000
vt 0.00000000 0.25000000
vt 0.00000000 1.00000000
vt 0.00000000 0.00000000
vt 1.00000000 0.00000000
vt 1.00000000 1.00000000
vt 0.00000000 1.00000000
vt 0.00000000 0.00000000
vt 1.00000000 0.00000000
vt 1.00000000 1.00000000
vt 0.00000000 1.00000000
vt 0.00000000 0.00000000
vt 1.00000000 0.00000000
vt 1.00000000 1.00000000
vt 0.00000000 1.00000000
vt 0.00000000 0.00000000
vt 1.00000000 0.00000000
vt 1.00000000 1.00000000
vt 0.00000000 1.00000000
vt 0.00000000 0.00000000
vt 1.00000000 0.00000000
vt 1.00000000 1.00000000
vt 0.00000000 1.00000000
vt 0.00000000 0.00000000
vt 1.00000000 0.00000000
vt 1.00000000 1.00000000
vt 0.00000000 1.00000000
vt 0.00000000 0.00000000
vt 1.00000000 0.00000000
vt 1.00000000 1.00000000
vt 0.00000000 1.00000000
vt 0.00000000 0.00000000
vt 1.00000000 0.00000000
vt 1.00000000 1.00000000
vt 0.00000000 1.00000000
vt 0.00000000 0.00000000
vt 1.00000000 0.00000000
vt 1.00000000 1.00000000
vt 0.00000000 1.00000000
vt 0.00000000 0.00000000
vt 1.00000000 0.00000000
vt 1.00000000 1.00000000
vt 0.00000000 1.00000000
vt 0.00000000 0.00000000
vt 1.00000000 0.00000000
vt 1.00000000 1.00000000
vt 0.00000000 1.00000000
vt 0.00000000 0.00000000
vt 1.00000000 0.00000000
vt 1.00000000 1.00000000
vt 0.00000000 1.00000000
vt 0.00000000 0.00000000
vt 1.00000000 0.00000000
vt 1.00000000 1.00000000
vt 0.00000000 1.00000000
vt 0.00000000 0.00000000
vt 1.00000000 0.00000000
vt 1.00000000 1.00000000
vt 0.00000000 1.00000000
vt 0.00000000 0.00000000
vt 1.00000000 0.00000000
vt 1.00000000 1.00000000
vt 0.00000000 1.00000000
vt 0.00000000 0.00000000
vt 1.00000000 0.00000000
vt 1.00000000 1.00000000
vt 0.00000000 1.00000000
vt 0.00000000 0.00000000
vt 1.00000000 0.00000000
vt 1.00000000 1.00000000
vt 0.00000000 1.00000000
vt 0.00000000 0.00000000
vt 1.00000000 0.00000000
vt 1.00000000 1.00000000
vt 1.00000000 0.00000000
vt 1.00000000 1.00000000
vt 0.00000000 1.00000000
vt 0.00000000 0.00000000
vt 1.00000000 0.00000000
vt 1.00000000 1.00000000
vt 0.00000000 1.00000000
vt 0.00000000 0.00000000
vt 1.00000000 0.00000000
vt 1.00000000 1.00000000
vt 0.00000000 1.00000000
vt 0.00000000 0.00000000
vt 1.00000000 0.00000000
vt 1.00000000 1.00000000
vt 0.00000000 1.00000000
vt 0.00000000 0.00000000
vt 1.00000000 0.00000000
vt 1.00000000 1.00000000
vt 0.00000000 1.00000000
vt 0.00000000 0.00000000
vt 1.00000000 0.00000000
vt 1.00000000 1.00000000
vt 0.00000000 1.00000000
vt 0.00000000 0.00000000
vt 0.00000000 1.00000000
vt 0.00000000 0.00000000
vt 1.00000000 0.00000000
vt 1.00000000 1.00000000
vt 0.00000000 1.00000000
vt 0.00000000 0.00000000
vt 1.00000000 0.00000000
vt 1.00000000 1.00000000
vt 0.00000000 1.00000000
vt 0.00000000 0.00000000
vt 1.00000000 0.00000000
vt 1.00000000 1.00000000
vt 0.00000000 1.00000000
vt 0.00000000 0.00000000
vt 1.00000000 0.00000000
vt 1.00000000 1.00000000
vt 0.00000000 1.00000000
vt 0.00000000 0.00000000
vt 1.00000000 0.00000000
vt 1.00000000 1.00000000
vt 0.00000000 1.00000000
vt 0.00000000 0.00000000
vt 1.00000000 0.00000000
vt 1.00000000 1.00000000
vt 0.00000000 1.00000000
vt 0.00000000 0.00000000
vt 1.00000000 0.00000000
vt 1.00000000 1.00000000
vt 0.00000000 1.00000000
vt 0.00000000 0.00000000
vt 1.00000000 0.00000000
vt 1.00000000 1.00000000
vt 0.00000000 1.00000000
vt 0.00000000 0.00000000
vt 1.00000000 0.00000000
vt 1.00000000 1.00000000
vt 0.00000000 1.00000000
vt 0.00000000 0.00000000
vt 1.00000000 0.00000000
vt 1.00000000 1.00000000
vt 0.00000000 1.00000000
vt 0.00000000 0.00000000
vt 1.00000000 0.00000000
vt 1.00000000 1.00000000
vt 0.00000000 1.00000000
vt 0.00000000 0.00000000
vt 1.00000000 0.00000000
vt 1.00000000 1.00000000
vt 0.00000000 1.00000000
vt 0.00000000 0.00000000
vt 1.00000000 0.00000000
vt 1.00000000 1.00000000
vt 0.00000000 1.00000000
vt 0.00000000 0.00000000
vt 1.00000000 0.00000000
vt 1.00000000 1.00000000
vt 0.00000000 1.00000000
vt 0.00000000 0.00000000
vt 1.00000000 0.00000000
vt 1.00000000 1.00000000
vt 0.00000000 1.00000000
vt 0.00000000 0.00000000
vt 1.00000000 0.00000000
vt 1.00000000 1.00000000
vt 1.00000000 0.00000000
vt 1.00000000 1.00000000
vt 0.00000000 1.00000000
vt 0.00000000 0.00000000
vt 0.00000000 1.00000000
vt 0.00000000 0.00000000
vt 1.00000000 0.00000000
vt 1.00000000 1.00000000
vn 0.00000000 1.00000000 0.00000000
vn 0.00000000 1.00000000 0.00000000
vn 0.00000000 1.00000000 0.00000000
vn 0.00000000 1.00000000 0.00000000
vn 0.00000000 1.00000000 0.00000000
vn 0.00000000 1.00000000 0.00000000
vn 0.00000000 1.00000000 0.00000000
vn 0.00000000 1.00000000 0.00000000
vn 0.00000000 1.00000000 0.00000000
vn 0.10402871 0.99242399 -0.06536557
vn 0.10402871 0.99242399 -0.06536557
vn 0.10402871 0.99242399 -0.06536557
vn 0.10402871 0.99242399 -0.06536557
vn 0.25437393 0.95380663 -0.15983373
vn 0.25437393 0.95380663 -0.15983373
vn 0.25437393 0.95380663 -0.15983373
vn 0.25437393 0.95380663 -0.15983373
vn 0.33824692 0.91674318 -0.21253462
vn 0.33824692 0.91674318 -0.21253462
vn 0.33824692 0.91674318 -0.21253462
vn 0.33824692 0.91674318 -0.21253462
vn 0.37477501 0.89671048 -0.23548675
vn 0.37477501 0.89671048 -0.23548675
vn 0.33754538 0.91710377 -0.21209382
vn 0.33754538 0.91710377 -0.21209382
vn 0.25246792 0.95451272 -0.15863611
vn 0.25246792 0.95451272 -0.15863611
vn 0.25246792 0.95451272 -0.15863611
vn 0.25246792 0.95451272 -0.15863611
vn 0.10032682 0.99295546 -0.06303952
vn 0.10032682 0.99295546 -0.06303952
vn 0.10032682 0.99295546 -0.06303952
vn 0.10032682 0.99295546 -0.06303952
vn 0.00000000 1.00000000 0.00000000
vn 0.00000000 1.00000000 0.00000000
vn 0.00000000 1.00000000 0.00000000
vn 0.00000000 1.00000000 0.00000000
vn 0.00000000 1.00000000 0.00000000
vn 0.00000000 1.00000000 0.00000000
vn 0.00000000 1.00000000 0.00000000
vn 0.00000000 1.00000000 0.00000000
vn 0.00000000 1.00000000 0.00000000
vn 0.00000000 1.00000000 0.00000000
vn 0.00000000 1.00000000 0.00000000
vn 0.01326647 0.99295546 -0.11774316
vn 0.01326647 0.99295546 -0.11774316
vn 0.01326647 0.99295546 -0.11774316
vn 0.01326647 0.99295546 -0.11774316
vn 0.03338447 0.95451272 -0.29629536
vn 0.03338447 0.95451272 -0.29629536
vn 0.03338447 0.95451272 -0.29629536
vn 0.03338447 0.95451272 -0.29629536
vn 0.04463448 0.91710377 -0.39614194
vn 0.04463448 0.91710377 -0.39614194
vn 0.04463448 0.91710377 -0.39614194
vn 0.04463448 0.91710377 -0.39614194
vn 0.04955744 0.89671048 -0.43983448
vn 0.04955744 0.89671048 -0.43983448
vn 0.04472724 0.91674318 -0.39696526
vn 0.04472724 0.91674318 -0.39696526
vn 0.03363651 0.95380663 -0.29853225
vn 0.03363651 0.95380663 -0.29853225
vn 0.03363651 0.95380663 -0.29853225
vn 0.03363651 0.95380663 -0.29853225
vn 0.09922284 0.95380663 -0.28356260
vn 0.09922284 0.95380663 -0.28356260
vn 0.09922284 0.95380663 -0.28356260
vn 0.09922284 0.95380663 -0.28356260
vn 0.15983373 0.95380663 -0.25437393
vn 0.15983373 0.95380663 -0.25437393
vn 0.15983373 0.95380663 -0.25437393
vn 0.15983373 0.95380663 -0.25437393
vn 0.21253462 0.91674318 -0.33824692
vn 0.21253462 0.91674318 -0.33824692
vn 0.21253462 0.91674318 -0.33824692
vn 0.21253462 0.91674318 -0.33824692
vn 0.23548675 0.89671048 -0.37477501
vn 0.23548675 0.89671048 -0.37477501
vn 0.21209382 0.91710377 -0.33754538
vn 0.21209382 0.91710377 -0.33754538
vn 0.15863611 0.95451272 -0.25246792
vn 0.15863611 0.95451272 -0.25246792
vn 0.15863611 0.95451272 -0.25246792
vn 0.15863611 0.95451272 -0.25246792
vn 0.13193892 0.91674318 -0.37705976
vn 0.13193892 0.91674318 -0.37705976
vn 0.13193892 0.91674318 -0.37705976
vn 0.13193892 0.91674318 -0.37705976
vn 0.14618732 0.89671048 -0.41777935
vn 0.14618732 0.89671048 -0.41777935
vn 0.13166527 0.91710377 -0.37627773
vn 0.13166527 0.91710377 -0.37627773
vn 0.09847937 0.95451272 -0.28143787
vn 0.09847937 0.95451272 -0.28143787
vn 0.09847937 0.95451272 -0.28143787
vn 0.09847937 0.95451272 -0.28143787
vn 0.03913417 0.99295546 -0.11183903
vn 0.03913417 0.99295546 -0.11183903
vn 0.06303952 0.99295546 -0.10032682
vn 0.06303952 0.99295546 -0.10032682
vn 0.11774316 0.99295546 -0.01326647
vn 0.11774316 0.99295546 -0.01326647
vn 0.11774316 0.99295546 -0.01326647
vn 0.11774316 0.99295546 -0.01326647
vn 0.29629536 0.95451272 -0.03338447
vn 0.29629536 0.95451272 -0.03338447
vn 0.29629536 0.95451272 -0.03338447
vn 0.29629536 0.95451272 -0.03338447
vn 0.39614194 0.91710377 -0.04463448
vn 0.39614194 0.91710377 -0.04463448
vn 0.39614194 0.91710377 -0.04463448
vn 0.39614194 0.91710377 -0.04463448
vn 0.43983448 0.89671048 -0.04955744
vn 0.43983448 0.89671048 -0.04955744
vn 0.39696526 0.91674318 -0.04472724
vn 0.39696526 0.91674318 -0.04472724
vn 0.29853225 0.95380663 -0.03363651
vn 0.29853225 0.95380663 -0.03363651
vn 0.29853225 0.95380663 -0.03363651
vn 0.29853225 0.95380663 -0.03363651
vn 0.21083816 0.95451272 -0.21083816
vn 0.21083816 0.95451272 -0.21083816
vn 0.21083816 0.95451272 -0.21083816
vn 0.21083816 0.95451272 -0.21083816
vn 0.28143787 0.95451272 -0.09847937
vn 0.28143787 0.95451272 -0.09847937
vn 0.28143787 0.95451272 -0.09847937
vn 0.28143787 0.95451272 -0.09847937
vn 0.28188710 0.91710377 -0.28188710
vn 0.28188710 0.91710377 -0.28188710
vn 0.28188710 0.91710377 -0.28188710
vn 0.28188710 0.91710377 -0.28188710
vn 0.37627773 0.91710377 -0.13166527
vn 0.37627773 0.91710377 -0.13166527
vn 0.37627773 0.91710377 -0.13166527
vn 0.37627773 0.91710377 -0.13166527
vn 0.31297789 0.89671048 -0.31297789
vn 0.31297789 0.89671048 -0.31297789
vn 0.41777935 0.89671048 -0.14618732
vn 0.41777935 0.89671048 -0.14618732
vn 0.28247296 0.91674318 -0.28247296
vn 0.28247296 0.91674318 -0.28247296
vn 0.37705976 0.91674318 -0.13193892
vn 0.37705976 0.91674318 -0.13193892
vn 0.21242989 0.95380663 -0.21242989
vn 0.21242989 0.95380663 -0.21242989
vn 0.21242989 0.95380663 -0.21242989
vn 0.21242989 0.95380663 -0.21242989
vn 0.28356260 0.95380663 -0.09922284
vn 0.28356260 0.95380663 -0.09922284
vn 0.28356260 0.95380663 -0.09922284
vn 0.28356260 0.95380663 -0.09922284
vn 0.08687529 0.99242399 -0.08687529
vn 0.08687529 0.99242399 -0.08687529
vn 0.06536557 0.99242399 -0.10402871
vn 0.06536557 0.99242399 -0.10402871
vn 0.04057815 0.99242399 -0.11596570
vn 0.04057815 0.99242399 -0.11596570
vn 0.01375598 0.99242399 -0.12208769
vn 0.01375598 0.99242399 -0.12208769
vn 0.12208769 0.99242399 -0.01375598
vn 0.12208769 0.99242399 -0.01375598
vn 0.12208769 0.99242399 -0.01375598
vn 0.12208769 0.99242399 -0.01375598
s 1
usemtl Grass
f 6/6/6 5/5/5 4/4/4
f 4/4/4 2/2/2 1/1/1
f 1/1/1 9/9/9 4/4/4
f 9/9/9 8/8/8 4/4/4
f 8/8/8 7/7/7 4/4/4
f 4/4/4 3/3/3 2/2/2
f 7/7/7 6/6/6 4/4/4
s 2
f 11/13/13 9/12/12 1/11/11
f 10/216/10 1/215/11 2/214/161
f 68/211/163 67/210/162 2/209/161
f 3/212/164 68/211/163 2/209/161
f 10/216/10 2/214/161 67/213/162
f 8/195/153 9/194/12 11/193/13
f 7/199/155 8/198/153 48/197/154
f 6/203/157 7/202/155 46/201/156
f 5/207/159 6/206/157 43/205/158
f 44/208/160 5/207/159 43/205/158
f 43/204/158 6/203/157 46/201/156
f 46/200/156 7/199/155 48/197/154
f 48/196/154 8/195/153 11/193/13
f 11/13/13 1/11/11 10/10/10
s 3
f 13/17/17 11/16/16 10/15/15
f 13/17/17 10/15/15 12/14/14
s 4
f 15/21/21 13/20/20 12/19/19
f 17/25/23 15/24/21 14/23/18
f 19/29/25 17/28/23 16/27/22
f 19/29/25 16/27/22 18/26/24
f 17/25/23 14/23/18 16/22/22
f 15/21/21 12/19/19 14/18/18
s 5
f 21/33/29 19/32/28 18/31/27
f 21/33/29 18/31/27 20/30/26
s 6
f 23/37/33 21/36/32 20/35/31
f 22/152/30 20/151/31 57/150/101
f 26/123/103 27/122/102 57/121/101
f 58/124/104 26/123/103 57/121/101
f 22/152/30 57/150/101 27/149/102
f 28/148/99 55/147/100 21/146/32
f 29/120/97 56/119/98 55/118/100
f 33/115/46 56/114/98 29/113/97
f 34/51/47 33/50/46 30/49/45
f 31/52/48 34/51/47 30/49/45
f 30/116/45 33/115/46 29/113/97
f 29/120/97 55/118/100 28/117/99
f 28/148/99 21/146/32 23/145/33
f 23/37/33 20/35/31 22/34/30
s 7
f 27/41/37 26/40/36 25/39/35
f 23/43/39 25/39/35 24/38/34
f 28/44/40 24/38/34 32/48/44
f 32/48/44 31/47/43 30/46/42
f 30/46/42 29/45/41 32/48/44
f 29/45/41 28/44/40 32/48/44
f 28/44/40 23/43/39 24/38/34
f 23/43/39 22/42/38 25/39/35
f 22/42/38 27/41/37 25/39/35
s 8
f 34/56/52 36/55/51 33/53/49
f 36/55/51 35/54/50 33/53/49
s 9
f 36/60/56 38/59/55 35/57/53
f 38/64/55 40/63/58 37/61/54
f 40/68/58 42/67/60 39/65/57
f 42/67/60 41/66/59 39/65/57
f 40/63/58 39/62/57 37/61/54
f 38/59/55 37/58/54 35/57/53
s 10
f 42/72/64 44/71/63 41/69/61
f 44/71/63 43/70/62 41/69/61
s 11
f 41/76/68 43/75/67 45/73/65
f 43/75/67 46/74/66 45/73/65
s 12
f 45/80/72 46/79/71 47/77/69
f 46/79/71 48/78/70 47/77/69
s 13
f 50/84/76 45/83/75 49/81/73
f 45/83/75 47/82/74 49/81/73
f 50/87/76 49/86/73 51/85/77
f 54/92/80 51/90/77 53/89/79
f 54/92/80 52/91/78 51/90/77
f 52/88/78 50/87/76 51/85/77
s 14
f 56/96/84 54/95/83 53/94/82
f 56/96/84 53/94/82 55/93/81
s 15
f 39/100/88 41/99/87 50/97/85
f 41/99/87 45/98/86 50/97/85
f 39/103/88 50/102/85 52/101/89
f 37/107/90 52/106/89 54/105/91
f 35/108/92 37/107/90 54/105/91
f 37/104/90 39/103/88 52/101/89
s 16
f 33/112/96 35/111/95 56/109/93
f 35/111/95 54/110/94 56/109/93
s 17
f 60/128/108 58/127/107 59/125/105
f 58/127/107 57/126/106 59/125/105
s 18
f 62/132/112 60/131/111 61/129/109
f 60/131/111 59/130/110 61/129/109
f 62/135/112 61/134/109 63/133/113
f 64/139/114 63/138/113 65/137/115
f 66/140/116 64/139/114 65/137/115
f 64/136/114 62/135/112 63/133/113
s 19
f 68/144/120 66/143/119 67/141/117
f 66/143/119 65/142/118 67/141/117
s 20
f 55/156/124 53/155/123 19/154/122
f 55/156/124 19/154/122 21/153/121
s 21
f 20/160/128 18/159/127 59/158/126
f 20/160/128 59/158/126 57/157/125
s 22
f 53/164/132 51/163/131 17/162/130
f 49/171/138 15/170/137 17/169/130
f 49/180/138 13/178/141 15/177/137
f 49/180/138 47/179/142 13/178/141
f 51/172/131 49/171/138 17/169/130
f 53/164/132 17/162/130 19/161/129
s 23
f 18/168/136 16/167/135 61/166/134
f 16/176/135 63/174/139 61/173/134
f 14/184/140 65/182/143 63/181/139
f 14/184/140 12/183/144 65/182/143
f 16/176/135 14/175/140 63/174/139
f 18/168/136 61/166/134 59/165/133
s 24
f 47/188/148 48/187/147 11/186/146
f 47/188/148 11/186/146 13/185/145
s 25
f 12/192/152 10/191/151 67/190/150
f 12/192/152 67/190/150 65/189/149
