mtllib Terrain_Cliff_Top_Corner_Inner_1x1.mtl
o Grass
g Grass
v 0.10825318 1.37500000 0.17852540
v 0.12500000 1.25000000 0.14951905
v -0.14951905 1.25000000 -0.12500000
v -0.17852540 1.37500000 -0.10825318
v -0.25000000 1.25000000 -0.50000000
v -0.28349365 1.37500000 -0.50000000
v -0.25777223 1.46650635 -0.06250000
v -0.37500000 1.46650635 -0.50000000
v -0.36602540 1.50000000 0.00000000
v -0.50000000 1.50000000 -0.50000000
v -0.00000000 1.50000000 0.36602540
v 0.50000000 1.50000000 0.50000000
v -0.50000000 1.50000000 0.50000000
v 0.06250000 1.46650635 0.25777223
v 0.50000000 1.46650635 0.37500000
v 0.50000000 1.37500000 0.28349365
v -0.14951905 1.05000000 -0.12500000
v -0.25000000 1.05000000 -0.50000000
v -0.17852540 0.92500000 -0.10825318
v -0.28349365 0.92500000 -0.50000000
v 0.12500000 1.05000000 0.14951905
v 0.10825318 0.92500000 0.17852540
v 0.50000000 1.05000000 0.25000000
v 0.50000000 0.92500000 0.28349365
v 0.06250000 0.83349365 0.25777223
v 0.50000000 0.83349365 0.37500000
v 0.50000000 0.80000000 0.50000000
v 0.50000000 1.25000000 0.25000000
v -0.25777223 0.83349365 -0.06250000
v -0.37500000 0.83349365 -0.50000000
v -0.50000000 0.80000000 -0.50000000
vt 0.00000000 1.00000000
vt 0.00000000 0.00000000
vt 1.00000000 0.00000000
vt 1.00000000 1.00000000
vt 0.00000000 1.00000000
vt 0.00000000 0.00000000
vt 1.00000000 0.00000000
vt 1.00000000 1.00000000
vt 0.00000000 1.00000000
vt 0.00000000 0.00000000
vt 1.00000000 0.00000000
vt 1.00000000 1.00000000
vt 0.00000000 1.00000000
vt 0.00000000 0.00000000
vt 1.00000000 0.00000000
vt 1.00000000 1.00000000
vt 0.86602540 0.50000000
vt 1.00000000 0.00000000
vt 1.00000000 1.00000000
vt 0.00000000 1.00000000
vt 0.50000000 0.86602540
vt 1.00000000 0.00000000
vt 1.00000000 1.00000000
vt 0.00000000 1.00000000
vt 0.00000000 0.00000000
vt 1.00000000 0.00000000
vt 1.00000000 1.00000000
vt 0.00000000 1.00000000
vt 0.00000000 0.00000000
vt 0.00000000 1.00000000
vt 0.00000000 0.00000000
vt 1.00000000 0.00000000
vt 1.00000000 1.00000000
vt 0.00000000 1.00000000
vt 0.00000000 0.00000000
vt 1.00000000 0.00000000
vt 1.00000000 1.00000000
vt 0.00000000 1.00000000
vt 0.00000000 0.00000000
vt 1.00000000 0.00000000
vt 1.00000000 1.00000000
vt 0.00000000 1.00000000
vt 0.00000000 0.00000000
vt 1.00000000 0.00000000
vt 1.00000000 1.00000000
vt 1.00000000 0.00000000
vt 1.00000000 1.00000000
vt 0.00000000 1.00000000
vt 0.00000000 0.00000000
vt 1.00000000 0.00000000
vt 1.00000000 1.00000000
vt 0.00000000 1.00000000
vt 0.00000000 0.00000000
vt 0.00000000 1.00000000
vt 0.00000000 0.00000000
vt 1.00000000 1.00000000
vt 1.00000000 0.00000000
vt 1.00000000 1.00000000
vt 0.00000000 1.00000000
vt 0.00000000 0.00000000
vt 0.00000000 1.00000000
vt 0.00000000 0.00000000
vt 1.00000000 0.00000000
vt 1.00000000 1.00000000
vt 0.00000000 1.00000000
vt 0.00000000 0.00000000
vt 1.00000000 0.00000000
vt 1.00000000 1.00000000
vt 1.00000000 1.00000000
vt 0.00000000 1.00000000
vt 1.00000000 0.00000000
vt 0.00000000 1.00000000
vt 0.00000000 0.00000000
vt 1.00000000 0.00000000
vt 1.00000000 1.00000000
vt 1.00000000 0.00000000
vt 1.00000000 1.00000000
vt 0.00000000 1.00000000
vt 0.00000000 0.00000000
vt 0.00000000 1.00000000
vt 0.00000000 0.00000000
vt 1.00000000 0.00000000
vt 1.00000000 1.00000000
vn 0.68455032 0.25056281 -0.68455032
vn 0.68455032 0.25056281 -0.68455032
vn 0.68455032 0.25056281 -0.68455032
vn 0.68455032 0.25056281 -0.68455032
vn 0.93511313 0.25056281 -0.25056281
vn 0.93511313 0.25056281 -0.25056281
vn 0.93511313 0.25056281 -0.25056281
vn 0.93511313 0.25056281 -0.25056281
vn 0.69474659 0.69474659 -0.18615679
vn 0.69474659 0.69474659 -0.18615679
vn 0.69474659 0.69474659 -0.18615679
vn 0.69474659 0.69474659 -0.18615679
vn 0.25819889 0.96361137 -0.06918418
vn 0.25819889 0.96361137 -0.06918418
vn 0.25819889 0.96361137 -0.06918418
vn 0.25819889 0.96361137 -0.06918418
vn 0.00000000 1.00000000 0.00000000
vn 0.00000000 1.00000000 0.00000000
vn 0.00000000 1.00000000 0.00000000
vn 0.00000000 1.00000000 0.00000000
vn 0.00000000 1.00000000 0.00000000
vn 0.06918418 0.96361137 -0.25819889
vn 0.06918418 0.96361137 -0.25819889
vn 0.06918418 0.96361137 -0.25819889
vn 0.06918418 0.96361137 -0.25819889
vn 0.18615679 0.69474659 -0.69474659
vn 0.18615679 0.69474659 -0.69474659
vn 0.18615679 0.69474659 -0.69474659
vn 0.18615679 0.69474659 -0.69474659
vn 0.18901471 0.96361137 -0.18901471
vn 0.18901471 0.96361137 -0.18901471
vn 0.18901471 0.96361137 -0.18901471
vn 0.18901471 0.96361137 -0.18901471
vn 0.96592583 0.00000000 -0.25881905
vn 0.96592583 0.00000000 -0.25881905
vn 0.96592583 0.00000000 -0.25881905
vn 0.96592583 0.00000000 -0.25881905
vn 0.93511313 -0.25056281 -0.25056281
vn 0.93511313 -0.25056281 -0.25056281
vn 0.93511313 -0.25056281 -0.25056281
vn 0.93511313 -0.25056281 -0.25056281
vn 0.68455032 -0.25056281 -0.68455032
vn 0.68455032 -0.25056281 -0.68455032
vn 0.68455032 -0.25056281 -0.68455032
vn 0.68455032 -0.25056281 -0.68455032
vn 0.25056281 -0.25056281 -0.93511313
vn 0.25056281 -0.25056281 -0.93511313
vn 0.25056281 -0.25056281 -0.93511313
vn 0.25056281 -0.25056281 -0.93511313
vn 0.18615679 -0.69474659 -0.69474659
vn 0.18615679 -0.69474659 -0.69474659
vn 0.18615679 -0.69474659 -0.69474659
vn 0.18615679 -0.69474659 -0.69474659
vn 0.06918418 -0.96361137 -0.25819889
vn 0.06918418 -0.96361137 -0.25819889
vn 0.06918418 -0.96361137 -0.25819889
vn 0.25881905 0.00000000 -0.96592583
vn 0.25881905 0.00000000 -0.96592583
vn 0.25881905 0.00000000 -0.96592583
vn 0.25881905 0.00000000 -0.96592583
vn 0.50858980 -0.69474659 -0.50858980
vn 0.50858980 -0.69474659 -0.50858980
vn 0.50858980 -0.69474659 -0.50858980
vn 0.50858980 -0.69474659 -0.50858980
vn 0.69474659 -0.69474659 -0.18615679
vn 0.69474659 -0.69474659 -0.18615679
vn 0.69474659 -0.69474659 -0.18615679
vn 0.69474659 -0.69474659 -0.18615679
vn 0.25819889 -0.96361137 -0.06918418
vn 0.25819889 -0.96361137 -0.06918418
vn 0.25819889 -0.96361137 -0.06918418
vn 0.50858980 0.69474659 -0.50858980
vn 0.50858980 0.69474659 -0.50858980
vn 0.50858980 0.69474659 -0.50858980
vn 0.50858980 0.69474659 -0.50858980
vn 0.25056281 0.25056281 -0.93511313
vn 0.25056281 0.25056281 -0.93511313
vn 0.25056281 0.25056281 -0.93511313
vn 0.25056281 0.25056281 -0.93511313
vn 0.70710678 0.00000000 -0.70710678
vn 0.70710678 0.00000000 -0.70710678
vn 0.70710678 0.00000000 -0.70710678
vn 0.70710678 0.00000000 -0.70710678
s 1
usemtl Grass
f 1/1/1 2/2/2 3/3/3
f 1/1/1 3/3/3 4/4/4
s 2
f 4/5/5 3/6/6 5/7/7
f 4/5/5 5/7/7 6/8/8
s 3
f 7/9/9 4/10/10 6/11/11
f 7/9/9 6/11/11 8/12/12
s 4
f 9/13/13 7/14/14 8/15/15
f 9/13/13 8/15/15 10/16/16
s 5
f 9/21/21 10/20/20 13/19/19
f 13/19/19 12/18/18 11/17/17
f 11/17/17 9/21/21 13/19/19
s 6
f 14/22/22 11/23/23 15/25/25
f 11/23/23 12/24/24 15/25/25
s 7
f 1/26/26 14/27/27 16/29/29
f 14/27/27 15/28/28 16/29/29
s 8
f 11/30/30 14/31/31 7/32/32
f 11/30/30 7/32/32 9/33/33
s 9
f 3/34/34 17/35/35 5/37/37
f 17/35/35 18/36/36 5/37/37
s 10
f 17/38/38 19/39/39 18/41/41
f 19/39/39 20/40/40 18/41/41
s 11
f 21/42/42 22/43/43 17/45/45
f 22/43/43 19/44/44 17/45/45
s 12
f 22/46/46 21/47/47 23/48/48
f 22/46/46 23/48/48 24/49/49
s 13
f 25/50/50 22/51/51 24/52/52
f 25/50/50 24/52/52 26/53/53
s 14
f 26/54/54 27/55/55 25/56/56
s 15
f 21/57/57 2/58/58 23/60/60
f 2/58/58 28/59/59 23/60/60
s 16
f 22/61/61 25/62/62 19/64/64
f 25/62/62 29/63/63 19/64/64
s 17
f 19/65/65 29/66/66 20/68/68
f 29/66/66 30/67/67 20/68/68
s 18
f 30/69/69 29/70/70 31/71/71
s 19
f 14/72/72 1/73/73 4/74/74
f 14/72/72 4/74/74 7/75/75
s 20
f 2/76/76 1/77/77 28/79/79
f 1/77/77 16/78/78 28/79/79
s 21
f 2/80/80 21/81/81 3/83/83
f 21/81/81 17/82/82 3/83/83
o Rock
g Rock
v 0.50000000 0.50000000 0.50000000
v 0.50000000 0.80000000 0.50000000
v 0.06250000 0.83349365 0.25777223
v 0.06250000 0.50000000 0.25777223
v -0.25777223 0.50000000 -0.06250000
v -0.25777223 0.83349365 -0.06250000
v -0.50000000 0.80000000 -0.50000000
v -0.50000000 0.50000000 -0.50000000
vt 0.00000000 0.00000000
vt 0.89956736 0.00000000
vt 1.00000000 1.00000000
vt 0.00000000 1.00000000
vt 0.00000000 1.00000000
vt 0.00000000 0.00000000
vt 1.00000000 0.00000000
vt 1.00000000 1.00000000
vt 0.00000000 0.00000000
vt 1.00000000 0.00000000
vt 0.89956736 1.00000000
vt 0.00000000 1.00000000
vn 0.48437752 0.00000000 -0.87485908
vn 0.48437752 0.00000000 -0.87485908
vn 0.48437752 0.00000000 -0.87485908
vn 0.48437752 0.00000000 -0.87485908
vn 0.70710678 -0.00000000 -0.70710678
vn 0.70710678 0.00000000 -0.70710678
vn 0.70710678 0.00000000 -0.70710678
vn 0.70710678 -0.00000000 -0.70710678
vn 0.87485908 -0.00000000 -0.48437752
vn 0.87485908 -0.00000000 -0.48437752
vn 0.87485908 0.00000000 -0.48437752
vn 0.87485908 0.00000000 -0.48437752
s 1
usemtl Rock
f 35/87/87 34/86/86 33/85/85
f 35/87/87 33/85/85 32/84/84
s 2
f 37/91/91 34/90/90 36/88/88
f 34/90/90 35/89/89 36/88/88
s 3
f 39/95/95 38/94/94 36/92/92
f 38/94/94 37/93/93 36/92/92
