mtllib Terrain_Cliff_3_Tall_Corner_Inner_1x1.mtl
o Grass
g Grass
v -0.25777223 3.46650635 -0.06250000
v -0.17852540 3.37500000 -0.10825318
v -0.28349365 3.37500000 -0.50000000
v -0.37500000 3.46650635 -0.50000000
v -0.36602540 3.50000000 -0.00000000
v -0.50000000 3.50000000 -0.50000000
v 0.00000000 3.50000000 0.36602540
v 0.50000000 3.50000000 0.50000000
v -0.50000000 3.50000000 0.50000000
v 0.06250000 3.46650635 0.25777223
v 0.50000000 3.46650635 0.37500000
v 0.10825318 3.37500000 0.17852540
v 0.50000000 3.37500000 0.28349365
v 0.12500000 3.25000000 0.14951905
v 0.50000000 3.25000000 0.25000000
v 0.12500000 3.05000000 0.14951905
v 0.50000000 3.05000000 0.25000000
v 0.10825318 2.92500000 0.17852540
v 0.50000000 2.92500000 0.28349365
v 0.06250000 2.83349365 0.25777223
v 0.50000000 2.83349365 0.37500000
v 0.50000000 2.80000000 0.50000000
v -0.25777223 2.83349365 -0.06250000
v -0.17852540 2.92500000 -0.10825318
v -0.37500000 2.83349365 -0.50000000
v -0.28349365 2.92500000 -0.50000000
v -0.14951905 3.05000000 -0.12500000
v -0.25000000 3.05000000 -0.50000000
v -0.14951905 3.25000000 -0.12500000
v -0.25000000 3.25000000 -0.50000000
v -0.50000000 2.80000000 -0.50000000
vt 0.00000000 1.00000000
vt 0.00000000 0.00000000
vt 1.00000000 0.00000000
vt 1.00000000 1.00000000
vt 0.00000000 1.00000000
vt 0.00000000 0.00000000
vt 1.00000000 0.00000000
vt 1.00000000 1.00000000
vt 0.86602540 0.50000000
vt 1.00000000 0.00000000
vt 1.00000000 1.00000000
vt 0.00000000 1.00000000
vt 0.50000000 0.86602540
vt 1.00000000 0.00000000
vt 1.00000000 1.00000000
vt 0.00000000 1.00000000
vt 0.00000000 0.00000000
vt 1.00000000 0.00000000
vt 1.00000000 1.00000000
vt 0.00000000 1.00000000
vt 0.00000000 0.00000000
vt 1.00000000 0.00000000
vt 1.00000000 1.00000000
vt 0.00000000 1.00000000
vt 0.00000000 0.00000000
vt 1.00000000 0.00000000
vt 1.00000000 1.00000000
vt 0.00000000 1.00000000
vt 0.00000000 0.00000000
vt 1.00000000 0.00000000
vt 1.00000000 1.00000000
vt 0.00000000 1.00000000
vt 0.00000000 0.00000000
vt 1.00000000 0.00000000
vt 1.00000000 1.00000000
vt 0.00000000 1.00000000
vt 0.00000000 0.00000000
vt 0.00000000 1.00000000
vt 0.00000000 0.00000000
vt 1.00000000 1.00000000
vt 0.00000000 1.00000000
vt 0.00000000 0.00000000
vt 1.00000000 0.00000000
vt 1.00000000 1.00000000
vt 0.00000000 1.00000000
vt 0.00000000 0.00000000
vt 1.00000000 0.00000000
vt 1.00000000 1.00000000
vt 0.00000000 1.00000000
vt 0.00000000 0.00000000
vt 1.00000000 0.00000000
vt 1.00000000 1.00000000
vt 0.00000000 1.00000000
vt 0.00000000 0.00000000
vt 1.00000000 0.00000000
vt 1.00000000 1.00000000
vt 1.00000000 1.00000000
vt 0.00000000 1.00000000
vt 1.00000000 0.00000000
vt 0.00000000 1.00000000
vt 0.00000000 0.00000000
vt 1.00000000 0.00000000
vt 1.00000000 1.00000000
vt 0.00000000 1.00000000
vt 0.00000000 0.00000000
vt 1.00000000 0.00000000
vt 1.00000000 1.00000000
vt 0.00000000 1.00000000
vt 0.00000000 0.00000000
vt 1.00000000 0.00000000
vt 1.00000000 1.00000000
vt 0.00000000 1.00000000
vt 0.00000000 0.00000000
vt 1.00000000 0.00000000
vt 1.00000000 1.00000000
vt 0.00000000 1.00000000
vt 0.00000000 0.00000000
vt 1.00000000 0.00000000
vt 1.00000000 1.00000000
vt 0.00000000 1.00000000
vt 0.00000000 0.00000000
vt 1.00000000 0.00000000
vt 1.00000000 1.00000000
vn 0.69474659 0.69474659 -0.18615679
vn 0.69474659 0.69474659 -0.18615679
vn 0.69474659 0.69474659 -0.18615679
vn 0.69474659 0.69474659 -0.18615679
vn 0.25819889 0.96361137 -0.06918418
vn 0.25819889 0.96361137 -0.06918418
vn 0.25819889 0.96361137 -0.06918418
vn 0.25819889 0.96361137 -0.06918418
vn 0.00000000 1.00000000 0.00000000
vn 0.00000000 1.00000000 0.00000000
vn 0.00000000 1.00000000 0.00000000
vn 0.00000000 1.00000000 0.00000000
vn 0.00000000 1.00000000 0.00000000
vn 0.06918418 0.96361137 -0.25819889
vn 0.06918418 0.96361137 -0.25819889
vn 0.06918418 0.96361137 -0.25819889
vn 0.06918418 0.96361137 -0.25819889
vn 0.18615679 0.69474659 -0.69474659
vn 0.18615679 0.69474659 -0.69474659
vn 0.18615679 0.69474659 -0.69474659
vn 0.18615679 0.69474659 -0.69474659
vn 0.25056281 0.25056281 -0.93511313
vn 0.25056281 0.25056281 -0.93511313
vn 0.25056281 0.25056281 -0.93511313
vn 0.25056281 0.25056281 -0.93511313
vn 0.25881905 0.00000000 -0.96592583
vn 0.25881905 0.00000000 -0.96592583
vn 0.25881905 0.00000000 -0.96592583
vn 0.25881905 0.00000000 -0.96592583
vn 0.25056281 -0.25056281 -0.93511313
vn 0.25056281 -0.25056281 -0.93511313
vn 0.25056281 -0.25056281 -0.93511313
vn 0.25056281 -0.25056281 -0.93511313
vn 0.18615679 -0.69474659 -0.69474659
vn 0.18615679 -0.69474659 -0.69474659
vn 0.18615679 -0.69474659 -0.69474659
vn 0.18615679 -0.69474659 -0.69474659
vn 0.06918418 -0.96361137 -0.25819889
vn 0.06918418 -0.96361137 -0.25819889
vn 0.06918418 -0.96361137 -0.25819889
vn 0.50858980 -0.69474659 -0.50858980
vn 0.50858980 -0.69474659 -0.50858980
vn 0.50858980 -0.69474659 -0.50858980
vn 0.50858980 -0.69474659 -0.50858980
vn 0.69474659 -0.69474659 -0.18615679
vn 0.69474659 -0.69474659 -0.18615679
vn 0.69474659 -0.69474659 -0.18615679
vn 0.69474659 -0.69474659 -0.18615679
vn 0.93511313 -0.25056281 -0.25056281
vn 0.93511313 -0.25056281 -0.25056281
vn 0.93511313 -0.25056281 -0.25056281
vn 0.93511313 -0.25056281 -0.25056281
vn 0.96592583 0.00000000 -0.25881905
vn 0.96592583 0.00000000 -0.25881905
vn 0.96592583 0.00000000 -0.25881905
vn 0.96592583 0.00000000 -0.25881905
vn 0.25819889 -0.96361137 -0.06918418
vn 0.25819889 -0.96361137 -0.06918418
vn 0.25819889 -0.96361137 -0.06918418
vn 0.68455032 -0.25056281 -0.68455032
vn 0.68455032 -0.25056281 -0.68455032
vn 0.68455032 -0.25056281 -0.68455032
vn 0.68455032 -0.25056281 -0.68455032
vn 0.70710678 0.00000000 -0.70710678
vn 0.70710678 0.00000000 -0.70710678
vn 0.70710678 0.00000000 -0.70710678
vn 0.70710678 0.00000000 -0.70710678
vn 0.68455032 0.25056281 -0.68455032
vn 0.68455032 0.25056281 -0.68455032
vn 0.68455032 0.25056281 -0.68455032
vn 0.68455032 0.25056281 -0.68455032
vn 0.18901471 0.96361137 -0.18901471
vn 0.18901471 0.96361137 -0.18901471
vn 0.18901471 0.96361137 -0.18901471
vn 0.18901471 0.96361137 -0.18901471
vn 0.50858980 0.69474659 -0.50858980
vn 0.50858980 0.69474659 -0.50858980
vn 0.50858980 0.69474659 -0.50858980
vn 0.50858980 0.69474659 -0.50858980
vn 0.93511313 0.25056281 -0.25056281
vn 0.93511313 0.25056281 -0.25056281
vn 0.93511313 0.25056281 -0.25056281
vn 0.93511313 0.25056281 -0.25056281
s 1
usemtl Grass
f 1/1/1 2/2/2 3/3/3
f 1/1/1 3/3/3 4/4/4
s 2
f 5/5/5 1/6/6 4/7/7
f 5/5/5 4/7/7 6/8/8
s 3
f 5/13/13 6/12/12 9/11/11
f 9/11/11 8/10/10 7/9/9
f 7/9/9 5/13/13 9/11/11
s 4
f 10/14/14 7/15/15 11/17/17
f 7/15/15 8/16/16 11/17/17
s 5
f 12/18/18 10/19/19 13/21/21
f 10/19/19 11/20/20 13/21/21
s 6
f 14/22/22 12/23/23 15/25/25
f 12/23/23 13/24/24 15/25/25
s 7
f 16/26/26 14/27/27 17/29/29
f 14/27/27 15/28/28 17/29/29
s 8
f 18/30/30 16/31/31 17/32/32
f 18/30/30 17/32/32 19/33/33
s 9
f 20/34/34 18/35/35 19/36/36
f 20/34/34 19/36/36 21/37/37
s 10
f 21/38/38 22/39/39 20/40/40
s 11
f 18/41/41 20/42/42 24/44/44
f 20/42/42 23/43/43 24/44/44
s 12
f 24/45/45 23/46/46 26/48/48
f 23/46/46 25/47/47 26/48/48
s 13
f 27/49/49 24/50/50 28/52/52
f 24/50/50 26/51/51 28/52/52
s 14
f 29/53/53 27/54/54 30/56/56
f 27/54/54 28/55/55 30/56/56
s 15
f 25/57/57 23/58/58 31/59/59
s 16
f 16/60/60 18/61/61 27/63/63
f 18/61/61 24/62/62 27/63/63
s 17
f 14/64/64 16/65/65 29/67/67
f 16/65/65 27/66/66 29/67/67
s 18
f 12/68/68 14/69/69 29/70/70
f 12/68/68 29/70/70 2/71/71
s 19
f 7/72/72 10/73/73 1/74/74
f 7/72/72 1/74/74 5/75/75
s 20
f 10/76/76 12/77/77 2/78/78
f 10/76/76 2/78/78 1/79/79
s 21
f 2/80/80 29/81/81 30/82/82
f 2/80/80 30/82/82 3/83/83
o Rock
g Rock
v 0.11741748 0.79289322 0.16265237
v 0.06250000 1.50000000 0.25777223
v 0.50000000 1.50000000 0.50000000
v 0.50000000 0.79289322 0.39016504
v -0.16265237 0.79289322 -0.11741748
v -0.25777223 1.50000000 -0.06250000
v 0.06250000 2.83349365 0.25777223
v -0.25777223 2.83349365 -0.06250000
v -0.50000000 1.50000000 -0.50000000
v -0.50000000 2.80000000 -0.50000000
v -0.39016504 0.79289322 -0.50000000
v 0.06698730 0.50000000 -0.25000000
v -0.10000000 0.50000000 -0.50000000
v 0.25000000 0.50000000 -0.06698730
v 0.50000000 0.50000000 0.10000000
v 0.50000000 2.80000000 0.50000000
vt 1.00000000 0.00000000
vt 1.00000000 1.00000000
vt 0.00000000 1.00000000
vt 0.00000000 0.00000000
vt 0.00000000 1.00000000
vt 0.00000000 0.00000000
vt 1.00000000 0.00000000
vt 1.00000000 1.00000000
vt 0.00000000 1.00000000
vt 0.00000000 0.00000000
vt 1.00000000 0.00000000
vt 1.00000000 1.00000000
vt 0.00000000 1.00000000
vt 0.00000000 0.00000000
vt 1.00000000 0.00000000
vt 0.97488278 1.00000000
vt 0.00000000 1.00000000
vt 0.00000000 0.00000000
vt 1.00000000 0.00000000
vt 1.00000000 1.00000000
vt 0.00000000 1.00000000
vt 0.00000000 0.00000000
vt 1.00000000 0.00000000
vt 1.00000000 1.00000000
vt 0.00000000 1.00000000
vt 0.00000000 0.00000000
vt 1.00000000 0.00000000
vt 1.00000000 1.00000000
vt 1.00000000 0.00000000
vt 1.00000000 1.00000000
vt 0.00000000 1.00000000
vt 0.00000000 0.00000000
vt 0.00000000 1.00000000
vt 0.00000000 0.00000000
vt 0.97488278 0.00000000
vt 1.00000000 1.00000000
vn 0.50507142 0.15347700 -0.84932189
vn 0.47863960 0.15346533 -0.86449553
vn 0.47996612 0.13465432 -0.86689142
vn 0.50663195 0.13233285 -0.85194606
vn 0.69927977 0.14837657 -0.69927977
vn 0.69927977 0.14837657 -0.69927977
vn 0.69927977 0.14837657 -0.69927977
vn 0.69927977 0.14837657 -0.69927977
vn 0.70710678 0.00000000 -0.70710678
vn 0.70710678 0.00000000 -0.70710678
vn 0.70710678 0.00000000 -0.70710678
vn 0.70710678 0.00000000 -0.70710678
vn 0.87485908 0.00000000 -0.48437752
vn 0.87485908 0.00000000 -0.48437752
vn 0.87485908 0.00000000 -0.48437752
vn 0.87485908 0.00000000 -0.48437752
vn 0.86449553 0.15346533 -0.47863960
vn 0.84932189 0.15347700 -0.50507142
vn 0.85194606 0.13233285 -0.50663195
vn 0.86689142 0.13465432 -0.47996612
vn 0.63719752 0.67111423 -0.37892613
vn 0.61704739 0.67035788 -0.41215631
vn 0.64181551 0.63583727 -0.42870015
vn 0.65440636 0.64831084 -0.38915982
vn 0.53228878 0.65828361 -0.53228878
vn 0.53228878 0.65828361 -0.53228878
vn 0.53228878 0.65828361 -0.53228878
vn 0.53228878 0.65828361 -0.53228878
vn 0.41215631 0.67035788 -0.61704739
vn 0.37892613 0.67111423 -0.63719752
vn 0.38915982 0.64831084 -0.65440636
vn 0.42870015 0.63583727 -0.64181551
vn 0.48437752 0.00000000 -0.87485908
vn 0.48437752 0.00000000 -0.87485908
vn 0.48437752 0.00000000 -0.87485908
vn 0.48437752 0.00000000 -0.87485908
s 1
usemtl Rock
f 32/84/84 33/85/85 35/87/87
f 33/85/85 34/86/86 35/87/87
s 2
f 33/88/88 32/89/89 36/90/90
f 33/88/88 36/90/90 37/91/91
s 3
f 39/95/95 38/94/94 37/92/92
f 38/94/94 33/93/93 37/92/92
s 4
f 41/99/99 39/98/98 37/97/97
f 41/99/99 37/97/97 40/96/96
s 5
f 37/100/100 36/101/101 42/102/102
f 37/100/100 42/102/102 40/103/103
s 6
f 36/104/104 43/105/105 44/106/106
f 36/104/104 44/106/106 42/107/107
s 7
f 32/108/108 45/109/109 43/110/110
f 32/108/108 43/110/110 36/111/111
s 8
f 45/112/112 32/113/113 46/115/115
f 32/113/113 35/114/114 46/115/115
s 9
f 38/119/119 47/118/118 33/116/116
f 47/118/118 34/117/117 33/116/116
