mtllib Terrain_Cliff_3_Tall_Corner_Inner_2x2.mtl
o Grass
g Grass
v 1.01471429 3.46650635 0.31111092
v 1.03839788 3.37500000 0.22272258
v 0.60825318 3.37500000 0.04455081
v 0.56250000 3.46650635 0.12379763
v 0.23887955 3.37500000 -0.23887955
v 0.17417479 3.46650635 -0.17417479
v -0.04455081 3.37500000 -0.60825318
v -0.12379763 3.46650635 -0.56250000
v -0.22272258 3.37500000 -1.03839788
v -0.31111092 3.46650635 -1.01471429
v -0.28349365 3.37500000 -1.50000000
v -0.37500000 3.46650635 -1.50000000
v -0.43185165 3.50000000 -0.98236191
v -0.50000000 3.50000000 -1.50000000
v -0.23205081 3.50000000 -0.50000000
v 0.08578644 3.50000000 -0.08578644
v 0.50000000 3.50000000 0.23205081
v 0.98236191 3.50000000 0.43185165
v 1.50000000 3.50000000 0.50000000
v -0.50000000 3.50000000 0.50000000
v 1.50000000 3.46650635 0.37500000
v -0.19037020 3.25000000 -1.04706667
v -0.25000000 3.25000000 -1.50000000
v -0.19037020 3.05000000 -1.04706667
v -0.25000000 3.05000000 -1.50000000
v -0.01554446 3.25000000 -0.62500000
v -0.01554446 3.05000000 -0.62500000
v 0.26256313 3.25000000 -0.26256313
v 0.26256313 3.05000000 -0.26256313
v 0.62500000 3.25000000 0.01554446
v 0.62500000 3.05000000 0.01554446
v 1.04706667 3.25000000 0.19037020
v 1.04706667 3.05000000 0.19037020
v 1.50000000 3.25000000 0.25000000
v 1.50000000 3.05000000 0.25000000
v 1.03839788 2.92500000 0.22272258
v 1.50000000 2.92500000 0.28349365
v 1.01471429 2.83349365 0.31111092
v 1.50000000 2.83349365 0.37500000
v 1.50000000 2.80000000 0.50000000
v 0.56250000 2.83349365 0.12379763
v 0.60825318 2.92500000 0.04455081
v 0.17417479 2.83349365 -0.17417479
v 0.23887955 2.92500000 -0.23887955
v -0.12379763 2.83349365 -0.56250000
v -0.04455081 2.92500000 -0.60825318
v -0.31111092 2.83349365 -1.01471429
v -0.22272258 2.92500000 -1.03839788
v -0.37500000 2.83349365 -1.50000000
v -0.28349365 2.92500000 -1.50000000
v -0.50000000 2.80000000 -1.50000000
v -0.23205081 2.80000000 -0.50000000
v 0.50000000 2.80000000 0.23205081
v 1.50000000 3.37500000 0.28349365
vt 0.00000000 1.00000000
vt 0.00000000 0.00000000
vt 1.00000000 0.00000000
vt 1.00000000 1.00000000
vt 0.00000000 1.00000000
vt 0.00000000 0.00000000
vt 1.00000000 0.00000000
vt 1.00000000 1.00000000
vt 0.00000000 1.00000000
vt 0.00000000 0.00000000
vt 1.00000000 0.00000000
vt 1.00000000 1.00000000
vt 0.00000000 1.00000000
vt 0.00000000 0.00000000
vt 1.00000000 0.00000000
vt 1.00000000 1.00000000
vt 0.00000000 1.00000000
vt 0.00000000 0.00000000
vt 1.00000000 0.00000000
vt 1.00000000 1.00000000
vt 0.00000000 1.00000000
vt 0.00000000 0.00000000
vt 1.00000000 0.00000000
vt 1.00000000 1.00000000
vt 0.25881905 0.96592583
vt 0.50000000 0.86602540
vt 0.70710678 0.70710678
vt 0.86602540 0.50000000
vt 0.96592583 0.25881905
vt 1.00000000 0.00000000
vt 1.00000000 1.00000000
vt 0.00000000 1.00000000
vt 1.00000000 0.00000000
vt 1.00000000 1.00000000
vt 0.00000000 1.00000000
vt 0.00000000 0.00000000
vt 0.00000000 1.00000000
vt 0.00000000 0.00000000
vt 1.00000000 0.00000000
vt 1.00000000 1.00000000
vt 0.00000000 1.00000000
vt 0.00000000 0.00000000
vt 1.00000000 0.00000000
vt 1.00000000 1.00000000
vt 0.00000000 1.00000000
vt 0.00000000 0.00000000
vt 1.00000000 0.00000000
vt 1.00000000 1.00000000
vt 0.00000000 1.00000000
vt 0.00000000 0.00000000
vt 1.00000000 0.00000000
vt 1.00000000 1.00000000
vt 0.00000000 1.00000000
vt 0.00000000 0.00000000
vt 1.00000000 0.00000000
vt 1.00000000 1.00000000
vt 0.00000000 1.00000000
vt 0.00000000 0.00000000
vt 1.00000000 0.00000000
vt 1.00000000 1.00000000
vt 1.00000000 0.00000000
vt 1.00000000 1.00000000
vt 0.00000000 1.00000000
vt 0.00000000 0.00000000
vt 1.00000000 0.00000000
vt 1.00000000 1.00000000
vt 0.00000000 1.00000000
vt 0.00000000 0.00000000
vt 1.00000000 0.00000000
vt 1.00000000 1.00000000
vt 0.00000000 1.00000000
vt 0.00000000 0.00000000
vt 0.00000000 1.00000000
vt 0.00000000 0.00000000
vt 1.00000000 1.00000000
vt 0.00000000 1.00000000
vt 0.00000000 0.00000000
vt 1.00000000 0.00000000
vt 1.00000000 1.00000000
vt 0.00000000 1.00000000
vt 0.00000000 0.00000000
vt 1.00000000 0.00000000
vt 1.00000000 1.00000000
vt 0.00000000 1.00000000
vt 0.00000000 0.00000000
vt 1.00000000 0.00000000
vt 1.00000000 1.00000000
vt 0.00000000 1.00000000
vt 0.00000000 0.00000000
vt 1.00000000 0.00000000
vt 1.00000000 1.00000000
vt 0.00000000 1.00000000
vt 0.00000000 0.00000000
vt 1.00000000 0.00000000
vt 1.00000000 1.00000000
vt 1.00000000 1.00000000
vt 0.00000000 1.00000000
vt 1.00000000 0.00000000
vt 0.00000000 1.00000000
vt 0.00000000 0.00000000
vt 1.00000000 1.00000000
vt 1.00000000 1.00000000
vt 0.00000000 1.00000000
vt 1.00000000 0.00000000
vt 0.00000000 1.00000000
vt 0.00000000 0.00000000
vt 1.00000000 1.00000000
vt 1.00000000 1.00000000
vt 0.00000000 1.00000000
vt 1.00000000 0.00000000
vt 1.00000000 0.00000000
vt 1.00000000 1.00000000
vt 0.00000000 1.00000000
vt 0.00000000 0.00000000
vt 0.00000000 1.00000000
vt 0.00000000 0.00000000
vt 1.00000000 0.00000000
vt 1.00000000 1.00000000
vt 0.00000000 1.00000000
vt 0.00000000 0.00000000
vt 1.00000000 0.00000000
vt 1.00000000 1.00000000
vt 0.00000000 1.00000000
vt 0.00000000 0.00000000
vt 1.00000000 0.00000000
vt 1.00000000 1.00000000
vt 0.00000000 1.00000000
vt 0.00000000 0.00000000
vt 1.00000000 0.00000000
vt 1.00000000 1.00000000
vt 0.00000000 1.00000000
vt 0.00000000 0.00000000
vt 1.00000000 0.00000000
vt 1.00000000 1.00000000
vt 0.00000000 1.00000000
vt 0.00000000 0.00000000
vt 1.00000000 0.00000000
vt 1.00000000 1.00000000
vt 0.00000000 1.00000000
vt 0.00000000 0.00000000
vt 1.00000000 0.00000000
vt 1.00000000 1.00000000
vt 0.00000000 1.00000000
vt 0.00000000 0.00000000
vt 1.00000000 0.00000000
vt 1.00000000 1.00000000
vt 0.00000000 1.00000000
vt 0.00000000 0.00000000
vt 1.00000000 0.00000000
vt 1.00000000 1.00000000
vt 0.00000000 1.00000000
vt 0.00000000 0.00000000
vt 1.00000000 0.00000000
vt 1.00000000 1.00000000
vt 0.00000000 1.00000000
vt 0.00000000 0.00000000
vt 1.00000000 0.00000000
vt 1.00000000 1.00000000
vt 0.00000000 1.00000000
vt 0.00000000 0.00000000
vt 1.00000000 0.00000000
vt 1.00000000 1.00000000
vt 1.00000000 0.00000000
vt 1.00000000 1.00000000
vt 0.00000000 1.00000000
vt 0.00000000 0.00000000
vt 0.00000000 1.00000000
vt 0.00000000 0.00000000
vt 1.00000000 0.00000000
vt 1.00000000 1.00000000
vn 0.27175802 0.70406259 -0.65608189
vn 0.27175802 0.70406259 -0.65608189
vn 0.27175802 0.70406259 -0.65608189
vn 0.27175802 0.70406259 -0.65608189
vn 0.43230458 0.70406259 -0.56339029
vn 0.43230458 0.70406259 -0.56339029
vn 0.43230458 0.70406259 -0.56339029
vn 0.43230458 0.70406259 -0.56339029
vn 0.56339029 0.70406259 -0.43230458
vn 0.56339029 0.70406259 -0.43230458
vn 0.56339029 0.70406259 -0.43230458
vn 0.56339029 0.70406259 -0.43230458
vn 0.65608189 0.70406259 -0.27175802
vn 0.65608189 0.70406259 -0.27175802
vn 0.65608189 0.70406259 -0.27175802
vn 0.65608189 0.70406259 -0.27175802
vn 0.70406259 0.70406259 -0.09269160
vn 0.70406259 0.70406259 -0.09269160
vn 0.70406259 0.70406259 -0.09269160
vn 0.70406259 0.70406259 -0.09269160
vn 0.25866892 0.96536557 -0.03405441
vn 0.25866892 0.96536557 -0.03405441
vn 0.25866892 0.96536557 -0.03405441
vn 0.25866892 0.96536557 -0.03405441
vn 0.00000000 1.00000000 0.00000000
vn 0.00000000 1.00000000 0.00000000
vn 0.00000000 1.00000000 0.00000000
vn 0.00000000 1.00000000 0.00000000
vn 0.00000000 1.00000000 0.00000000
vn 0.00000000 1.00000000 0.00000000
vn 0.00000000 1.00000000 0.00000000
vn 0.00000000 1.00000000 0.00000000
vn 0.03405441 0.96536557 -0.25866892
vn 0.03405441 0.96536557 -0.25866892
vn 0.03405441 0.96536557 -0.25866892
vn 0.03405441 0.96536557 -0.25866892
vn 0.95820914 0.25675137 -0.12615063
vn 0.95820914 0.25675137 -0.12615063
vn 0.95820914 0.25675137 -0.12615063
vn 0.95820914 0.25675137 -0.12615063
vn 0.99144486 0.00000000 -0.13052619
vn 0.99144486 0.00000000 -0.13052619
vn 0.99144486 0.00000000 -0.13052619
vn 0.99144486 0.00000000 -0.13052619
vn 0.92387953 0.00000000 -0.38268343
vn 0.92387953 0.00000000 -0.38268343
vn 0.92387953 0.00000000 -0.38268343
vn 0.92387953 0.00000000 -0.38268343
vn 0.79335334 0.00000000 -0.60876143
vn 0.79335334 0.00000000 -0.60876143
vn 0.79335334 0.00000000 -0.60876143
vn 0.79335334 0.00000000 -0.60876143
vn 0.60876143 0.00000000 -0.79335334
vn 0.60876143 0.00000000 -0.79335334
vn 0.60876143 0.00000000 -0.79335334
vn 0.60876143 0.00000000 -0.79335334
vn 0.38268343 0.00000000 -0.92387953
vn 0.38268343 0.00000000 -0.92387953
vn 0.38268343 0.00000000 -0.92387953
vn 0.38268343 0.00000000 -0.92387953
vn 0.13052619 0.00000000 -0.99144486
vn 0.13052619 0.00000000 -0.99144486
vn 0.13052619 0.00000000 -0.99144486
vn 0.13052619 0.00000000 -0.99144486
vn 0.12615063 -0.25675137 -0.95820914
vn 0.12615063 -0.25675137 -0.95820914
vn 0.12615063 -0.25675137 -0.95820914
vn 0.12615063 -0.25675137 -0.95820914
vn 0.09269160 -0.70406259 -0.70406259
vn 0.09269160 -0.70406259 -0.70406259
vn 0.09269160 -0.70406259 -0.70406259
vn 0.09269160 -0.70406259 -0.70406259
vn 0.03405441 -0.96536557 -0.25866892
vn 0.03405441 -0.96536557 -0.25866892
vn 0.03405441 -0.96536557 -0.25866892
vn 0.27175802 -0.70406259 -0.65608189
vn 0.27175802 -0.70406259 -0.65608189
vn 0.27175802 -0.70406259 -0.65608189
vn 0.27175802 -0.70406259 -0.65608189
vn 0.43230458 -0.70406259 -0.56339029
vn 0.43230458 -0.70406259 -0.56339029
vn 0.43230458 -0.70406259 -0.56339029
vn 0.43230458 -0.70406259 -0.56339029
vn 0.56339029 -0.70406259 -0.43230458
vn 0.56339029 -0.70406259 -0.43230458
vn 0.56339029 -0.70406259 -0.43230458
vn 0.56339029 -0.70406259 -0.43230458
vn 0.65608189 -0.70406259 -0.27175802
vn 0.65608189 -0.70406259 -0.27175802
vn 0.65608189 -0.70406259 -0.27175802
vn 0.65608189 -0.70406259 -0.27175802
vn 0.70406259 -0.70406259 -0.09269160
vn 0.70406259 -0.70406259 -0.09269160
vn 0.70406259 -0.70406259 -0.09269160
vn 0.70406259 -0.70406259 -0.09269160
vn 0.25866892 -0.96536557 -0.03405441
vn 0.25866892 -0.96536557 -0.03405441
vn 0.25866892 -0.96536557 -0.03405441
vn 0.24104107 -0.96536557 -0.09984248
vn 0.24104107 -0.96536557 -0.09984248
vn 0.24104107 -0.96536557 -0.09984248
vn 0.20698666 -0.96536557 -0.15882645
vn 0.20698666 -0.96536557 -0.15882645
vn 0.20698666 -0.96536557 -0.15882645
vn 0.15882645 -0.96536557 -0.20698666
vn 0.15882645 -0.96536557 -0.20698666
vn 0.15882645 -0.96536557 -0.20698666
vn 0.09984248 -0.96536557 -0.24104107
vn 0.09984248 -0.96536557 -0.24104107
vn 0.09984248 -0.96536557 -0.24104107
vn 0.12615063 0.25675137 -0.95820914
vn 0.12615063 0.25675137 -0.95820914
vn 0.12615063 0.25675137 -0.95820914
vn 0.12615063 0.25675137 -0.95820914
vn 0.36985492 -0.25675137 -0.89290877
vn 0.36985492 -0.25675137 -0.89290877
vn 0.36985492 -0.25675137 -0.89290877
vn 0.36985492 -0.25675137 -0.89290877
vn 0.58835422 -0.25675137 -0.76675814
vn 0.58835422 -0.25675137 -0.76675814
vn 0.58835422 -0.25675137 -0.76675814
vn 0.58835422 -0.25675137 -0.76675814
vn 0.76675814 -0.25675137 -0.58835422
vn 0.76675814 -0.25675137 -0.58835422
vn 0.76675814 -0.25675137 -0.58835422
vn 0.76675814 -0.25675137 -0.58835422
vn 0.89290877 -0.25675137 -0.36985492
vn 0.89290877 -0.25675137 -0.36985492
vn 0.89290877 -0.25675137 -0.36985492
vn 0.89290877 -0.25675137 -0.36985492
vn 0.95820914 -0.25675137 -0.12615063
vn 0.95820914 -0.25675137 -0.12615063
vn 0.95820914 -0.25675137 -0.12615063
vn 0.95820914 -0.25675137 -0.12615063
vn 0.24104107 0.96536557 -0.09984248
vn 0.24104107 0.96536557 -0.09984248
vn 0.24104107 0.96536557 -0.09984248
vn 0.24104107 0.96536557 -0.09984248
vn 0.89290877 0.25675137 -0.36985492
vn 0.89290877 0.25675137 -0.36985492
vn 0.89290877 0.25675137 -0.36985492
vn 0.89290877 0.25675137 -0.36985492
vn 0.20698666 0.96536557 -0.15882645
vn 0.20698666 0.96536557 -0.15882645
vn 0.20698666 0.96536557 -0.15882645
vn 0.20698666 0.96536557 -0.15882645
vn 0.76675814 0.25675137 -0.58835422
vn 0.76675814 0.25675137 -0.58835422
vn 0.76675814 0.25675137 -0.58835422
vn 0.76675814 0.25675137 -0.58835422
vn 0.15882645 0.96536557 -0.20698666
vn 0.15882645 0.96536557 -0.20698666
vn 0.15882645 0.96536557 -0.20698666
vn 0.15882645 0.96536557 -0.20698666
vn 0.58835422 0.25675137 -0.76675814
vn 0.58835422 0.25675137 -0.76675814
vn 0.58835422 0.25675137 -0.76675814
vn 0.58835422 0.25675137 -0.76675814
vn 0.09984248 0.96536557 -0.24104107
vn 0.09984248 0.96536557 -0.24104107
vn 0.09984248 0.96536557 -0.24104107
vn 0.09984248 0.96536557 -0.24104107
vn 0.09269160 0.70406259 -0.70406259
vn 0.09269160 0.70406259 -0.70406259
vn 0.09269160 0.70406259 -0.70406259
vn 0.09269160 0.70406259 -0.70406259
vn 0.36985492 0.25675137 -0.89290877
vn 0.36985492 0.25675137 -0.89290877
vn 0.36985492 0.25675137 -0.89290877
vn 0.36985492 0.25675137 -0.89290877
s 1
usemtl Grass
f 1/1/1 2/2/2 3/3/3
f 1/1/1 3/3/3 4/4/4
s 2
f 4/5/5 3/6/6 5/7/7
f 4/5/5 5/7/7 6/8/8
s 3
f 6/9/9 5/10/10 7/11/11
f 6/9/9 7/11/11 8/12/12
s 4
f 8/13/13 7/14/14 9/15/15
f 8/13/13 9/15/15 10/16/16
s 5
f 10/17/17 9/18/18 11/19/19
f 10/17/17 11/19/19 12/20/20
s 6
f 13/21/21 10/22/22 12/23/23
f 13/21/21 12/23/23 14/24/24
s 7
f 13/25/25 14/32/32 20/31/31
f 20/31/31 19/30/30 18/29/29
f 18/29/29 17/28/28 20/31/31
f 17/28/28 16/27/27 20/31/31
f 16/27/27 15/26/26 20/31/31
f 15/26/26 13/25/25 20/31/31
s 8
f 1/33/33 18/34/34 19/35/35
f 1/33/33 19/35/35 21/36/36
s 9
f 9/37/37 22/38/38 23/39/39
f 9/37/37 23/39/39 11/40/40
s 10
f 22/41/41 24/42/42 23/44/44
f 24/42/42 25/43/43 23/44/44
s 11
f 26/45/45 27/46/46 22/48/48
f 27/46/46 24/47/47 22/48/48
s 12
f 28/49/49 29/50/50 26/52/52
f 29/50/50 27/51/51 26/52/52
s 13
f 30/53/53 31/54/54 28/56/56
f 31/54/54 29/55/55 28/56/56
s 14
f 32/57/57 33/58/58 30/60/60
f 33/58/58 31/59/59 30/60/60
s 15
f 33/61/61 32/62/62 35/64/64
f 32/62/62 34/63/63 35/64/64
s 16
f 36/65/65 33/66/66 35/67/67
f 36/65/65 35/67/67 37/68/68
s 17
f 38/69/69 36/70/70 37/71/71
f 38/69/69 37/71/71 39/72/72
s 18
f 39/73/73 40/74/74 38/75/75
s 19
f 36/76/76 38/77/77 42/79/79
f 38/77/77 41/78/78 42/79/79
s 20
f 42/80/80 41/81/81 44/83/83
f 41/81/81 43/82/82 44/83/83
s 21
f 44/84/84 43/85/85 46/87/87
f 43/85/85 45/86/86 46/87/87
s 22
f 46/88/88 45/89/89 48/91/91
f 45/89/89 47/90/90 48/91/91
s 23
f 48/92/92 47/93/93 50/95/95
f 47/93/93 49/94/94 50/95/95
s 24
f 49/96/96 47/97/97 51/98/98
s 25
f 45/99/99 52/100/100 47/101/101
s 26
f 45/102/102 43/103/103 52/104/104
s 27
f 41/105/105 53/106/106 43/107/107
s 28
f 41/108/108 38/109/109 53/110/110
s 29
f 32/111/111 2/112/112 34/114/114
f 2/112/112 54/113/113 34/114/114
s 30
f 33/115/115 36/116/116 31/118/118
f 36/116/116 42/117/117 31/118/118
s 31
f 31/119/119 42/120/120 29/122/122
f 42/120/120 44/121/121 29/122/122
s 32
f 29/123/123 44/124/124 27/126/126
f 44/124/124 46/125/125 27/126/126
s 33
f 27/127/127 46/128/128 24/130/130
f 46/128/128 48/129/129 24/130/130
s 34
f 24/131/131 48/132/132 25/134/134
f 48/132/132 50/133/133 25/134/134
s 35
f 15/135/135 8/136/136 10/137/137
f 15/135/135 10/137/137 13/138/138
s 36
f 7/139/139 26/140/140 22/141/141
f 7/139/139 22/141/141 9/142/142
s 37
f 16/143/143 6/144/144 8/145/145
f 16/143/143 8/145/145 15/146/146
s 38
f 5/147/147 28/148/148 26/149/149
f 5/147/147 26/149/149 7/150/150
s 39
f 17/151/151 4/152/152 6/153/153
f 17/151/151 6/153/153 16/154/154
s 40
f 3/155/155 30/156/156 28/157/157
f 3/155/155 28/157/157 5/158/158
s 41
f 18/159/159 1/160/160 4/161/161
f 18/159/159 4/161/161 17/162/162
s 42
f 2/163/163 1/164/164 21/165/165
f 2/163/163 21/165/165 54/166/166
s 43
f 2/167/167 32/168/168 30/169/169
f 2/167/167 30/169/169 3/170/170
o Rock
g Rock
v -0.50000000 1.50000000 -1.50000000
v -0.31111092 1.50000000 -1.01471429
v -0.31111092 2.83349365 -1.01471429
v -0.50000000 2.80000000 -1.50000000
v -0.20501850 0.79289322 -1.04314167
v -0.39016504 0.79289322 -1.50000000
v -0.23205081 1.50000000 -0.50000000
v -0.13693094 0.79289322 -0.55491748
v 0.17417479 1.50000000 -0.17417479
v 0.25183983 0.79289322 -0.25183983
v 0.50000000 1.50000000 0.23205081
v 0.55491748 0.79289322 0.13693094
v 1.01471429 1.50000000 0.31111092
v 1.04314167 0.79289322 0.20501850
v 1.50000000 1.50000000 0.50000000
v 1.50000000 0.79289322 0.39016504
v 1.11177143 0.50000000 -0.05111126
v 1.50000000 0.50000000 0.10000000
v 1.50000000 2.80000000 0.50000000
v 1.01471429 2.83349365 0.31111092
v 0.50000000 2.80000000 0.23205081
v 0.70000000 0.50000000 -0.11435935
v 0.17417479 2.83349365 -0.17417479
v 0.43933983 0.50000000 -0.43933983
v -0.23205081 2.80000000 -0.50000000
v 0.11435935 0.50000000 -0.70000000
v 0.05111126 0.50000000 -1.11177143
v -0.10000000 0.50000000 -1.50000000
vt 0.00000000 1.00000000
vt 0.00000000 0.00000000
vt 1.00000000 0.00000000
vt 0.97488278 1.00000000
vt 0.00000000 1.00000000
vt 0.00000000 0.00000000
vt 1.00000000 0.00000000
vt 1.00000000 1.00000000
vt 0.00000000 1.00000000
vt 0.00000000 0.00000000
vt 1.00000000 0.00000000
vt 1.00000000 1.00000000
vt 0.00000000 1.00000000
vt 0.00000000 0.00000000
vt 1.00000000 0.00000000
vt 1.00000000 1.00000000
vt 0.00000000 1.00000000
vt 0.00000000 0.00000000
vt 1.00000000 0.00000000
vt 1.00000000 1.00000000
vt 0.00000000 1.00000000
vt 0.00000000 0.00000000
vt 1.00000000 0.00000000
vt 1.00000000 1.00000000
vt 1.00000000 0.00000000
vt 1.00000000 1.00000000
vt 0.00000000 1.00000000
vt 0.00000000 0.00000000
vt 1.00000000 0.00000000
vt 1.00000000 1.00000000
vt 0.00000000 1.00000000
vt 0.00000000 0.00000000
vt 0.00000000 1.00000000
vt 0.00000000 0.00000000
vt 0.97488278 0.00000000
vt 1.00000000 1.00000000
vt 0.00000000 1.00000000
vt 0.00000000 0.00000000
vt 1.00000000 0.00000000
vt 0.97488278 1.00000000
vt 0.00000000 1.00000000
vt 0.00000000 0.00000000
vt 1.00000000 0.00000000
vt 1.00000000 1.00000000
vt 0.00000000 1.00000000
vt 0.00000000 0.00000000
vt 0.97488278 0.00000000
vt 1.00000000 1.00000000
vt 0.00000000 1.00000000
vt 0.00000000 0.00000000
vt 1.00000000 0.00000000
vt 1.00000000 1.00000000
vt 0.00000000 1.00000000
vt 0.00000000 0.00000000
vt 1.00000000 0.00000000
vt 0.97488278 1.00000000
vt 0.00000000 1.00000000
vt 0.00000000 0.00000000
vt 1.00000000 0.00000000
vt 1.00000000 1.00000000
vt 0.00000000 1.00000000
vt 0.00000000 0.00000000
vt 1.00000000 0.00000000
vt 1.00000000 1.00000000
vt 0.00000000 1.00000000
vt 0.00000000 0.00000000
vt 1.00000000 0.00000000
vt 1.00000000 1.00000000
vt 0.00000000 1.00000000
vt 0.00000000 0.00000000
vt 0.97488278 0.00000000
vt 1.00000000 1.00000000
vn 0.93189639 0.00000000 -0.36272457
vn 0.93189639 0.00000000 -0.36272457
vn 0.93189639 0.00000000 -0.36272457
vn 0.93189639 0.00000000 -0.36272457
vn 0.92098300 0.15259346 -0.35847672
vn 0.91596698 0.15235258 -0.37120504
vn 0.91732954 0.14248888 -0.37175724
vn 0.92228417 0.14325848 -0.35898317
vn 0.97821311 0.14325848 -0.15025354
vn 0.98030930 0.14248888 -0.13671356
vn 0.97885320 0.15235258 -0.13651049
vn 0.97683303 0.15259346 -0.15004156
vn 0.61835631 0.15259346 -0.77094144
vn 0.60764815 0.15235258 -0.77945649
vn 0.60855206 0.14248888 -0.78061598
vn 0.61922993 0.14325848 -0.77203063
vn 0.77203063 0.14325848 -0.61922993
vn 0.78061598 0.14248888 -0.60855206
vn 0.77945649 0.15235258 -0.60764815
vn 0.77094144 0.15259346 -0.61835631
vn 0.15004156 0.15259346 -0.97683303
vn 0.13651049 0.15235258 -0.97885320
vn 0.13671356 0.14248888 -0.98030930
vn 0.15025354 0.14325848 -0.97821311
vn 0.37120504 0.15235258 -0.91596698
vn 0.35847672 0.15259346 -0.92098300
vn 0.35898317 0.14325848 -0.92228417
vn 0.37175724 0.14248888 -0.91732954
vn 0.26962194 0.66893137 -0.69270111
vn 0.27938678 0.66833339 -0.68940083
vn 0.27666244 0.67631953 -0.68267839
vn 0.26651276 0.67833534 -0.68471316
vn 0.36272457 0.00000000 -0.93189639
vn 0.36272457 0.00000000 -0.93189639
vn 0.36272457 0.00000000 -0.93189639
vn 0.36272457 0.00000000 -0.93189639
vn 0.15181951 0.00000000 -0.98840823
vn 0.15181951 0.00000000 -0.98840823
vn 0.15181951 0.00000000 -0.98840823
vn 0.15181951 0.00000000 -0.98840823
vn 0.10274436 0.66833339 -0.73673202
vn 0.11285111 0.66893137 -0.73470773
vn 0.11154976 0.67833534 -0.72623537
vn 0.10174249 0.67631953 -0.72954805
vn 0.78007689 0.00000000 -0.62568367
vn 0.78007689 0.00000000 -0.62568367
vn 0.78007689 0.00000000 -0.62568367
vn 0.78007689 0.00000000 -0.62568367
vn 0.58093590 0.67631953 -0.45288561
vn 0.57316340 0.67833534 -0.45972261
vn 0.57985000 0.66893137 -0.46508579
vn 0.58665646 0.66833339 -0.45734524
vn 0.62568367 0.00000000 -0.78007689
vn 0.62568367 0.00000000 -0.78007689
vn 0.62568367 0.00000000 -0.78007689
vn 0.62568367 0.00000000 -0.78007689
vn 0.45734524 0.66833339 -0.58665646
vn 0.46508579 0.66893137 -0.57985000
vn 0.45972261 0.67833534 -0.57316340
vn 0.45288561 0.67631953 -0.58093590
vn 0.72954805 0.67631953 -0.10174249
vn 0.72623537 0.67833534 -0.11154976
vn 0.73470773 0.66893137 -0.11285111
vn 0.73673202 0.66833339 -0.10274436
vn 0.68940083 0.66833339 -0.27938678
vn 0.69270111 0.66893137 -0.26962194
vn 0.68471316 0.67833534 -0.26651276
vn 0.68267839 0.67631953 -0.27666244
vn 0.98840823 0.00000000 -0.15181951
vn 0.98840823 0.00000000 -0.15181951
vn 0.98840823 0.00000000 -0.15181951
vn 0.98840823 0.00000000 -0.15181951
s 1
usemtl Rock
f 58/174/174 57/173/173 56/172/172
f 58/174/174 56/172/172 55/171/171
s 2
f 56/175/175 59/176/176 60/177/177
f 56/175/175 60/177/177 55/178/178
s 3
f 61/179/179 62/180/180 56/182/182
f 62/180/180 59/181/181 56/182/182
s 4
f 63/183/183 64/184/184 62/185/185
f 63/183/183 62/185/185 61/186/186
s 5
f 65/187/187 66/188/188 63/190/190
f 66/188/188 64/189/189 63/190/190
s 6
f 67/191/191 68/192/192 66/193/193
f 67/191/191 66/193/193 65/194/194
s 7
f 68/195/195 67/196/196 70/198/198
f 67/196/196 69/197/197 70/198/198
s 8
f 71/199/199 68/200/200 72/202/202
f 68/200/200 70/201/201 72/202/202
s 9
f 74/206/206 73/205/205 67/203/203
f 73/205/205 69/204/204 67/203/203
s 10
f 75/210/210 74/209/209 67/208/208
f 75/210/210 67/208/208 65/207/207
s 11
f 68/211/211 71/212/212 76/213/213
f 68/211/211 76/213/213 66/214/214
s 12
f 77/218/218 75/217/217 63/215/215
f 75/217/217 65/216/216 63/215/215
s 13
f 66/219/219 76/220/220 64/222/222
f 76/220/220 78/221/221 64/222/222
s 14
f 79/226/226 77/225/225 63/224/224
f 79/226/226 63/224/224 61/223/223
s 15
f 64/227/227 78/228/228 80/229/229
f 64/227/227 80/229/229 62/230/230
s 16
f 62/231/231 80/232/232 59/234/234
f 80/232/232 81/233/233 59/234/234
s 17
f 59/235/235 81/236/236 82/237/237
f 59/235/235 82/237/237 60/238/238
s 18
f 57/242/242 79/241/241 56/239/239
f 79/241/241 61/240/240 56/239/239
