mtllib Terrain_Cliff_3_Tall_Side.mtl
o Grass
g Grass
v -0.25000000 3.25000000 0.50000000
v -0.25000000 3.25000000 -0.50000000
v -0.25000000 3.05000000 -0.50000000
v -0.25000000 3.05000000 0.50000000
v -0.28349365 2.92500000 0.50000000
v -0.28349365 2.92500000 -0.50000000
v -0.37500000 2.83349365 0.00000000
v -0.37500000 2.83349365 -0.50000000
v -0.37500000 2.83349365 0.50000000
v -0.50000000 2.80000000 0.50000000
v -0.50000000 2.80000000 -0.50000000
v -0.28349365 3.37500000 0.50000000
v -0.28349365 3.37500000 -0.50000000
v -0.37500000 3.46650635 0.50000000
v -0.37500000 3.46650635 -0.50000000
v -0.50000000 3.50000000 0.50000000
v -0.50000000 3.50000000 -0.50000000
vt 1.00000000 1.00000000
vt 0.00000000 1.00000000
vt 0.00000000 0.00000000
vt 1.00000000 0.00000000
vt 1.00000000 1.00000000
vt 0.00000000 1.00000000
vt 0.00000000 0.00000000
vt 1.00000000 0.00000000
vt 0.50000000 1.00000000
vt 0.00000000 1.00000000
vt 0.00000000 0.00000000
vt 1.00000000 0.00000000
vt 1.00000000 1.00000000
vt 0.00000000 0.00000000
vt 1.00000000 0.00000000
vt 1.00000000 1.00000000
vt 0.00000000 1.00000000
vt 0.00000000 0.00000000
vt 1.00000000 0.00000000
vt 1.00000000 1.00000000
vt 0.00000000 1.00000000
vt 0.00000000 0.00000000
vt 1.00000000 0.00000000
vt 1.00000000 1.00000000
vt 0.00000000 1.00000000
vt 0.00000000 0.00000000
vt 1.00000000 0.00000000
vt 1.00000000 1.00000000
vt 0.00000000 1.00000000
vt 0.00000000 0.00000000
vt 1.00000000 0.00000000
vn 1.00000000 0.00000000 0.00000000
vn 1.00000000 0.00000000 0.00000000
vn 1.00000000 0.00000000 0.00000000
vn 1.00000000 0.00000000 0.00000000
vn 0.96592583 -0.25881905 0.00000000
vn 0.96592583 -0.25881905 0.00000000
vn 0.96592583 -0.25881905 0.00000000
vn 0.96592583 -0.25881905 0.00000000
vn 0.70710678 -0.70710678 0.00000000
vn 0.70710678 -0.70710678 0.00000000
vn 0.70710678 -0.70710678 0.00000000
vn 0.70710678 -0.70710678 0.00000000
vn 0.70710678 -0.70710678 0.00000000
vn 0.25881905 -0.96592583 0.00000000
vn 0.25881905 -0.96592583 0.00000000
vn 0.25881905 -0.96592583 0.00000000
vn 0.25881905 -0.96592583 0.00000000
vn 0.25881905 -0.96592583 0.00000000
vn 0.96592583 0.25881905 0.00000000
vn 0.96592583 0.25881905 0.00000000
vn 0.96592583 0.25881905 0.00000000
vn 0.96592583 0.25881905 0.00000000
vn 0.70710678 0.70710678 0.00000000
vn 0.70710678 0.70710678 0.00000000
vn 0.70710678 0.70710678 0.00000000
vn 0.70710678 0.70710678 0.00000000
vn 0.25881905 0.96592583 0.00000000
vn 0.25881905 0.96592583 0.00000000
vn 0.25881905 0.96592583 0.00000000
vn 0.25881905 0.96592583 0.00000000
s 1
usemtl Grass
f 4/4/4 3/3/3 1/1/1
f 3/3/3 2/2/2 1/1/1
s 2
f 5/5/5 6/6/6 3/7/7
f 5/5/5 3/7/7 4/8/8
s 3
f 5/12/12 9/13/13 7/9/9
f 7/9/9 8/10/10 6/11/11
f 7/9/9 6/11/11 5/12/12
s 4
f 7/14/14 9/15/15 10/16/16
f 11/17/17 8/18/18 7/19/14
s 5
f 1/23/22 2/22/21 12/20/19
f 2/22/21 13/21/20 12/20/19
s 6
f 12/27/26 13/26/25 14/24/23
f 13/26/25 15/25/24 14/24/23
s 7
f 14/31/30 15/30/29 16/28/27
f 15/30/29 17/29/28 16/28/27
o Rock
g Rock
v -0.37500000 2.83349365 0.00000000
v -0.50000000 2.80000000 0.50000000
v -0.50000000 1.50000000 0.50000000
v -0.37500000 1.50000000 0.00000000
v -0.50000000 2.80000000 -0.50000000
v -0.50000000 1.50000000 -0.50000000
v -0.39016504 0.79289322 -0.50000000
v -0.26516504 0.79289322 0.00000000
v -0.00000000 0.50000000 0.00000000
v -0.10000000 0.50000000 -0.50000000
v -0.10000000 0.50000000 0.50000000
v -0.39016504 0.79289322 0.50000000
vt 0.00000000 1.00000000
vt 0.02511722 0.00000000
vt 1.00000000 0.00000000
vt 1.00000000 1.00000000
vt 0.02511722 1.00000000
vt 0.00000000 0.00000000
vt 1.00000000 0.00000000
vt 1.00000000 1.00000000
vt 1.00000000 1.00000000
vt 0.00000000 1.00000000
vt 0.00000000 0.00000000
vt 1.00000000 0.00000000
vt 0.00000000 0.00000000
vt 1.00000000 0.00000000
vt 1.00000000 1.00000000
vt 0.00000000 1.00000000
vt 0.00000000 0.00000000
vt 1.00000000 0.00000000
vt 1.00000000 1.00000000
vt 0.00000000 1.00000000
vt 1.00000000 1.00000000
vt 0.00000000 1.00000000
vt 0.00000000 0.00000000
vt 1.00000000 0.00000000
vn 0.97014250 0.00000000 0.24253563
vn 0.97014250 0.00000000 0.24253563
vn 0.97014250 0.00000000 0.24253563
vn 0.97014250 0.00000000 0.24253563
vn 0.97014250 -0.00000000 -0.24253563
vn 0.97014250 -0.00000000 -0.24253563
vn 0.97014250 -0.00000000 -0.24253563
vn 0.97014250 -0.00000000 -0.24253563
vn 0.95931154 0.14900994 -0.23982788
vn 0.95931154 0.14900994 -0.23982788
vn 0.95931154 0.14900994 -0.23982788
vn 0.95931154 0.14900994 -0.23982788
vn 0.73330998 0.66388759 -0.14666200
vn 0.72891359 0.65990741 -0.18222840
vn 0.69946189 0.69294670 -0.17486547
vn 0.70334383 0.69679248 -0.14066877
vn 0.70334383 0.69679248 0.14066877
vn 0.69946189 0.69294670 0.17486547
vn 0.72891359 0.65990741 0.18222840
vn 0.73330998 0.66388759 0.14666200
vn 0.95931154 0.14900994 0.23982788
vn 0.95931154 0.14900994 0.23982788
vn 0.95931154 0.14900994 0.23982788
vn 0.95931154 0.14900994 0.23982788
s 1
usemtl Rock
f 18/32/31 19/33/32 21/35/34
f 19/33/32 20/34/33 21/35/34
s 2
f 22/36/35 18/37/36 21/38/37
f 22/36/35 21/38/37 23/39/38
s 3
f 21/43/42 25/42/41 24/41/40
f 21/43/42 24/41/40 23/40/39
s 4
f 27/47/46 24/46/45 25/45/44
f 27/47/46 25/45/44 26/44/43
s 5
f 26/51/50 25/50/49 28/48/47
f 25/50/49 29/49/48 28/48/47
s 6
f 20/55/54 29/54/53 21/52/51
f 29/54/53 25/53/52 21/52/51
