mtllib Terrain_Water_Flat_Circle.mtl
o object1
g object1
v 12.71638598 0.00000000 -8.49681746
v 8.49681746 0.00000000 -12.71638598
v 2.98368551 0.00000000 -15.00000000
v -2.98368551 0.00000000 -15.00000000
v -8.49681746 0.00000000 -12.71638598
v -12.71638598 0.00000000 -8.49681746
v -15.00000000 0.00000000 -2.98368551
v -15.00000000 0.00000000 2.98368551
v -12.71638598 0.00000000 8.49681746
v -8.49681746 0.00000000 12.71638598
v -2.98368551 0.00000000 15.00000000
v 2.98368551 0.00000000 15.00000000
v 8.49681746 0.00000000 12.71638598
v 12.71638598 0.00000000 8.49681746
v 15.00000000 0.00000000 2.98368551
v 15.00000000 0.00000000 -2.98368551
v 0.00000000 0.00000000 0.00000000
vt 0.78322725 0.07612047
vt 0.92387953 0.21677275
vt 1.00000000 0.40054382
vt 1.00000000 0.59945618
vt 0.92387953 0.78322725
vt 0.78322725 0.92387953
vt 0.59945618 1.00000000
vt 0.40054382 1.00000000
vt 0.21677275 0.92387953
vt 0.07612047 0.78322725
vt 0.00000000 0.59945618
vt 0.00000000 0.40054382
vt 0.07612047 0.21677275
vt 0.21677275 0.07612047
vt 0.40054382 0.00000000
vt 0.59945618 0.00000000
vt 0.50000000 0.50000000
vn 0.00000000 1.00000000 0.00000000
vn 0.00000000 1.00000000 0.00000000
vn 0.00000000 1.00000000 0.00000000
vn 0.00000000 1.00000000 0.00000000
vn 0.00000000 1.00000000 0.00000000
vn 0.00000000 1.00000000 0.00000000
vn 0.00000000 1.00000000 0.00000000
vn 0.00000000 1.00000000 0.00000000
vn 0.00000000 1.00000000 0.00000000
vn 0.00000000 1.00000000 0.00000000
vn 0.00000000 1.00000000 0.00000000
vn 0.00000000 1.00000000 0.00000000
vn 0.00000000 1.00000000 0.00000000
vn 0.00000000 1.00000000 0.00000000
vn 0.00000000 1.00000000 0.00000000
vn 0.00000000 1.00000000 0.00000000
vn 0.00000000 1.00000000 0.00000000
s 1
usemtl Water
f 1/1/1 2/2/2 17/17/17
f 15/15/15 16/16/16 17/17/17
f 14/14/14 15/15/15 17/17/17
f 13/13/13 14/14/14 17/17/17
f 12/12/12 13/13/13 17/17/17
f 11/11/11 12/12/12 17/17/17
f 10/10/10 11/11/11 17/17/17
f 9/9/9 10/10/10 17/17/17
f 8/8/8 9/9/9 17/17/17
f 7/7/7 8/8/8 17/17/17
f 6/6/6 7/7/7 17/17/17
f 5/5/5 6/6/6 17/17/17
f 4/4/4 5/5/5 17/17/17
f 3/3/3 4/4/4 17/17/17
f 2/2/2 3/3/3 17/17/17
f 16/16/16 1/1/1 17/17/17
