mtllib Terrain_Cliff_Top_Corner_Inner_2x2.mtl
o Grass
g Grass
v -0.12379763 1.46650635 -0.56250000
v -0.04455081 1.37500000 -0.60825318
v -0.22272258 1.37500000 -1.03839788
v -0.31111092 1.46650635 -1.01471429
v 0.17417479 1.46650635 -0.17417479
v 0.23887955 1.37500000 -0.23887955
v 0.56250000 1.46650635 0.12379763
v 0.60825318 1.37500000 0.04455081
v 1.01471429 1.46650635 0.31111092
v 1.03839788 1.37500000 0.22272258
v 1.50000000 1.46650635 0.37500000
v 1.50000000 1.37500000 0.28349365
v 1.04706667 1.25000000 0.19037020
v 1.50000000 1.25000000 0.25000000
v 1.04706667 1.05000000 0.19037020
v 1.50000000 1.05000000 0.25000000
v 0.62500000 1.05000000 0.01554446
v 0.62500000 1.25000000 0.01554446
v 0.26256313 1.05000000 -0.26256313
v 0.26256313 1.25000000 -0.26256313
v -0.01554446 1.05000000 -0.62500000
v -0.01554446 1.25000000 -0.62500000
v -0.19037020 1.05000000 -1.04706667
v -0.19037020 1.25000000 -1.04706667
v -0.25000000 1.05000000 -1.50000000
v -0.25000000 1.25000000 -1.50000000
v -0.28349365 1.37500000 -1.50000000
v -0.22272258 0.92500000 -1.03839788
v -0.28349365 0.92500000 -1.50000000
v -0.31111092 0.83349365 -1.01471429
v -0.37500000 0.83349365 -1.50000000
v -0.04455081 0.92500000 -0.60825318
v -0.12379763 0.83349365 -0.56250000
v 0.23887955 0.92500000 -0.23887955
v 0.17417479 0.83349365 -0.17417479
v 0.60825318 0.92500000 0.04455081
v 0.56250000 0.83349365 0.12379763
v 1.03839788 0.92500000 0.22272258
v 1.01471429 0.83349365 0.31111092
v 1.50000000 0.92500000 0.28349365
v 1.50000000 0.83349365 0.37500000
v 1.50000000 0.80000000 0.50000000
v 0.50000000 0.80000000 0.23205081
v -0.23205081 0.80000000 -0.50000000
v -0.50000000 0.80000000 -1.50000000
v 0.98236191 1.50000000 0.43185165
v 1.50000000 1.50000000 0.50000000
v -0.43185165 1.50000000 -0.98236191
v -0.23205081 1.50000000 -0.50000000
v 0.08578644 1.50000000 -0.08578644
v 0.50000000 1.50000000 0.23205081
v -0.50000000 1.50000000 0.50000000
v -0.50000000 1.50000000 -1.50000000
v -0.37500000 1.46650635 -1.50000000
vt 0.00000000 1.00000000
vt 0.00000000 0.00000000
vt 1.00000000 0.00000000
vt 1.00000000 1.00000000
vt 0.00000000 1.00000000
vt 0.00000000 0.00000000
vt 1.00000000 0.00000000
vt 1.00000000 1.00000000
vt 0.00000000 1.00000000
vt 0.00000000 0.00000000
vt 1.00000000 0.00000000
vt 1.00000000 1.00000000
vt 0.00000000 1.00000000
vt 0.00000000 0.00000000
vt 1.00000000 0.00000000
vt 1.00000000 1.00000000
vt 1.00000000 0.00000000
vt 1.00000000 1.00000000
vt 0.00000000 1.00000000
vt 0.00000000 0.00000000
vt 1.00000000 0.00000000
vt 1.00000000 1.00000000
vt 0.00000000 1.00000000
vt 0.00000000 0.00000000
vt 1.00000000 0.00000000
vt 1.00000000 1.00000000
vt 0.00000000 1.00000000
vt 0.00000000 0.00000000
vt 0.00000000 1.00000000
vt 0.00000000 0.00000000
vt 1.00000000 0.00000000
vt 1.00000000 1.00000000
vt 0.00000000 1.00000000
vt 0.00000000 0.00000000
vt 1.00000000 0.00000000
vt 1.00000000 1.00000000
vt 0.00000000 1.00000000
vt 0.00000000 0.00000000
vt 1.00000000 0.00000000
vt 1.00000000 1.00000000
vt 0.00000000 1.00000000
vt 0.00000000 0.00000000
vt 1.00000000 0.00000000
vt 1.00000000 1.00000000
vt 0.00000000 1.00000000
vt 0.00000000 0.00000000
vt 1.00000000 0.00000000
vt 1.00000000 1.00000000
vt 0.00000000 1.00000000
vt 0.00000000 0.00000000
vt 1.00000000 0.00000000
vt 1.00000000 1.00000000
vt 0.00000000 1.00000000
vt 0.00000000 0.00000000
vt 1.00000000 0.00000000
vt 1.00000000 1.00000000
vt 0.00000000 1.00000000
vt 0.00000000 0.00000000
vt 1.00000000 0.00000000
vt 1.00000000 1.00000000
vt 0.00000000 1.00000000
vt 0.00000000 0.00000000
vt 1.00000000 0.00000000
vt 1.00000000 1.00000000
vt 0.00000000 1.00000000
vt 0.00000000 0.00000000
vt 1.00000000 0.00000000
vt 1.00000000 1.00000000
vt 0.00000000 1.00000000
vt 0.00000000 0.00000000
vt 1.00000000 0.00000000
vt 1.00000000 1.00000000
vt 0.00000000 1.00000000
vt 0.00000000 0.00000000
vt 1.00000000 0.00000000
vt 1.00000000 1.00000000
vt 1.00000000 0.00000000
vt 1.00000000 1.00000000
vt 0.00000000 1.00000000
vt 0.00000000 0.00000000
vt 0.00000000 1.00000000
vt 0.00000000 0.00000000
vt 1.00000000 1.00000000
vt 1.00000000 1.00000000
vt 0.00000000 1.00000000
vt 1.00000000 0.00000000
vt 0.00000000 1.00000000
vt 0.00000000 0.00000000
vt 1.00000000 1.00000000
vt 1.00000000 1.00000000
vt 0.00000000 1.00000000
vt 1.00000000 0.00000000
vt 0.00000000 1.00000000
vt 0.00000000 0.00000000
vt 1.00000000 1.00000000
vt 1.00000000 1.00000000
vt 0.00000000 1.00000000
vt 1.00000000 0.00000000
vt 0.00000000 1.00000000
vt 0.00000000 0.00000000
vt 1.00000000 0.00000000
vt 1.00000000 1.00000000
vt 0.00000000 1.00000000
vt 0.00000000 0.00000000
vt 1.00000000 0.00000000
vt 1.00000000 1.00000000
vt 0.00000000 1.00000000
vt 0.00000000 0.00000000
vt 1.00000000 0.00000000
vt 1.00000000 1.00000000
vt 0.00000000 1.00000000
vt 0.00000000 0.00000000
vt 1.00000000 0.00000000
vt 1.00000000 1.00000000
vt 1.00000000 0.00000000
vt 1.00000000 1.00000000
vt 0.00000000 1.00000000
vt 0.00000000 0.00000000
vt 1.00000000 0.00000000
vt 1.00000000 1.00000000
vt 0.00000000 1.00000000
vt 0.00000000 0.00000000
vt 0.25881905 0.96592583
vt 0.50000000 0.86602540
vt 0.70710678 0.70710678
vt 0.86602540 0.50000000
vt 0.96592583 0.25881905
vt 1.00000000 0.00000000
vt 1.00000000 1.00000000
vt 0.00000000 1.00000000
vt 0.00000000 1.00000000
vt 0.00000000 0.00000000
vt 1.00000000 0.00000000
vt 1.00000000 1.00000000
vt 0.00000000 1.00000000
vt 0.00000000 0.00000000
vt 1.00000000 0.00000000
vt 1.00000000 1.00000000
vt 0.00000000 1.00000000
vt 0.00000000 0.00000000
vt 1.00000000 0.00000000
vt 1.00000000 1.00000000
vt 0.00000000 1.00000000
vt 0.00000000 0.00000000
vt 1.00000000 0.00000000
vt 1.00000000 1.00000000
vt 0.00000000 1.00000000
vt 0.00000000 0.00000000
vt 1.00000000 0.00000000
vt 1.00000000 1.00000000
vt 0.00000000 1.00000000
vt 0.00000000 0.00000000
vt 1.00000000 0.00000000
vt 1.00000000 1.00000000
vt 0.00000000 1.00000000
vt 0.00000000 0.00000000
vt 1.00000000 0.00000000
vt 1.00000000 1.00000000
vt 0.00000000 1.00000000
vt 0.00000000 0.00000000
vt 1.00000000 0.00000000
vt 1.00000000 1.00000000
vt 0.00000000 1.00000000
vt 0.00000000 0.00000000
vt 1.00000000 0.00000000
vt 1.00000000 1.00000000
vt 0.00000000 1.00000000
vt 0.00000000 0.00000000
vt 1.00000000 0.00000000
vt 1.00000000 1.00000000
vn 0.65608189 0.70406259 -0.27175802
vn 0.65608189 0.70406259 -0.27175802
vn 0.65608189 0.70406259 -0.27175802
vn 0.65608189 0.70406259 -0.27175802
vn 0.56339029 0.70406259 -0.43230458
vn 0.56339029 0.70406259 -0.43230458
vn 0.56339029 0.70406259 -0.43230458
vn 0.56339029 0.70406259 -0.43230458
vn 0.43230458 0.70406259 -0.56339029
vn 0.43230458 0.70406259 -0.56339029
vn 0.43230458 0.70406259 -0.56339029
vn 0.43230458 0.70406259 -0.56339029
vn 0.27175802 0.70406259 -0.65608189
vn 0.27175802 0.70406259 -0.65608189
vn 0.27175802 0.70406259 -0.65608189
vn 0.27175802 0.70406259 -0.65608189
vn 0.09269160 0.70406259 -0.70406259
vn 0.09269160 0.70406259 -0.70406259
vn 0.09269160 0.70406259 -0.70406259
vn 0.09269160 0.70406259 -0.70406259
vn 0.12615063 0.25675137 -0.95820914
vn 0.12615063 0.25675137 -0.95820914
vn 0.12615063 0.25675137 -0.95820914
vn 0.12615063 0.25675137 -0.95820914
vn 0.13052619 0.00000000 -0.99144486
vn 0.13052619 0.00000000 -0.99144486
vn 0.13052619 0.00000000 -0.99144486
vn 0.13052619 0.00000000 -0.99144486
vn 0.38268343 0.00000000 -0.92387953
vn 0.38268343 0.00000000 -0.92387953
vn 0.38268343 0.00000000 -0.92387953
vn 0.38268343 0.00000000 -0.92387953
vn 0.60876143 0.00000000 -0.79335334
vn 0.60876143 0.00000000 -0.79335334
vn 0.60876143 0.00000000 -0.79335334
vn 0.60876143 0.00000000 -0.79335334
vn 0.79335334 0.00000000 -0.60876143
vn 0.79335334 0.00000000 -0.60876143
vn 0.79335334 0.00000000 -0.60876143
vn 0.79335334 0.00000000 -0.60876143
vn 0.92387953 0.00000000 -0.38268343
vn 0.92387953 0.00000000 -0.38268343
vn 0.92387953 0.00000000 -0.38268343
vn 0.92387953 0.00000000 -0.38268343
vn 0.99144486 0.00000000 -0.13052619
vn 0.99144486 0.00000000 -0.13052619
vn 0.99144486 0.00000000 -0.13052619
vn 0.99144486 0.00000000 -0.13052619
vn 0.95820914 0.25675137 -0.12615063
vn 0.95820914 0.25675137 -0.12615063
vn 0.95820914 0.25675137 -0.12615063
vn 0.95820914 0.25675137 -0.12615063
vn 0.95820914 -0.25675137 -0.12615063
vn 0.95820914 -0.25675137 -0.12615063
vn 0.95820914 -0.25675137 -0.12615063
vn 0.95820914 -0.25675137 -0.12615063
vn 0.70406259 -0.70406259 -0.09269160
vn 0.70406259 -0.70406259 -0.09269160
vn 0.70406259 -0.70406259 -0.09269160
vn 0.70406259 -0.70406259 -0.09269160
vn 0.65608189 -0.70406259 -0.27175802
vn 0.65608189 -0.70406259 -0.27175802
vn 0.65608189 -0.70406259 -0.27175802
vn 0.65608189 -0.70406259 -0.27175802
vn 0.56339029 -0.70406259 -0.43230458
vn 0.56339029 -0.70406259 -0.43230458
vn 0.56339029 -0.70406259 -0.43230458
vn 0.56339029 -0.70406259 -0.43230458
vn 0.43230458 -0.70406259 -0.56339029
vn 0.43230458 -0.70406259 -0.56339029
vn 0.43230458 -0.70406259 -0.56339029
vn 0.43230458 -0.70406259 -0.56339029
vn 0.27175802 -0.70406259 -0.65608189
vn 0.27175802 -0.70406259 -0.65608189
vn 0.27175802 -0.70406259 -0.65608189
vn 0.27175802 -0.70406259 -0.65608189
vn 0.09269160 -0.70406259 -0.70406259
vn 0.09269160 -0.70406259 -0.70406259
vn 0.09269160 -0.70406259 -0.70406259
vn 0.09269160 -0.70406259 -0.70406259
vn 0.03405441 -0.96536557 -0.25866892
vn 0.03405441 -0.96536557 -0.25866892
vn 0.03405441 -0.96536557 -0.25866892
vn 0.09984248 -0.96536557 -0.24104107
vn 0.09984248 -0.96536557 -0.24104107
vn 0.09984248 -0.96536557 -0.24104107
vn 0.15882645 -0.96536557 -0.20698666
vn 0.15882645 -0.96536557 -0.20698666
vn 0.15882645 -0.96536557 -0.20698666
vn 0.20698666 -0.96536557 -0.15882645
vn 0.20698666 -0.96536557 -0.15882645
vn 0.20698666 -0.96536557 -0.15882645
vn 0.24104107 -0.96536557 -0.09984248
vn 0.24104107 -0.96536557 -0.09984248
vn 0.24104107 -0.96536557 -0.09984248
vn 0.25866892 -0.96536557 -0.03405441
vn 0.25866892 -0.96536557 -0.03405441
vn 0.25866892 -0.96536557 -0.03405441
vn 0.89290877 -0.25675137 -0.36985492
vn 0.89290877 -0.25675137 -0.36985492
vn 0.89290877 -0.25675137 -0.36985492
vn 0.89290877 -0.25675137 -0.36985492
vn 0.76675814 -0.25675137 -0.58835422
vn 0.76675814 -0.25675137 -0.58835422
vn 0.76675814 -0.25675137 -0.58835422
vn 0.76675814 -0.25675137 -0.58835422
vn 0.58835422 -0.25675137 -0.76675814
vn 0.58835422 -0.25675137 -0.76675814
vn 0.58835422 -0.25675137 -0.76675814
vn 0.58835422 -0.25675137 -0.76675814
vn 0.36985492 -0.25675137 -0.89290877
vn 0.36985492 -0.25675137 -0.89290877
vn 0.36985492 -0.25675137 -0.89290877
vn 0.36985492 -0.25675137 -0.89290877
vn 0.12615063 -0.25675137 -0.95820914
vn 0.12615063 -0.25675137 -0.95820914
vn 0.12615063 -0.25675137 -0.95820914
vn 0.12615063 -0.25675137 -0.95820914
vn 0.03405441 0.96536557 -0.25866892
vn 0.03405441 0.96536557 -0.25866892
vn 0.03405441 0.96536557 -0.25866892
vn 0.03405441 0.96536557 -0.25866892
vn 0.00000000 1.00000000 0.00000000
vn 0.00000000 1.00000000 0.00000000
vn 0.00000000 1.00000000 0.00000000
vn 0.00000000 1.00000000 0.00000000
vn 0.00000000 1.00000000 0.00000000
vn 0.00000000 1.00000000 0.00000000
vn 0.00000000 1.00000000 0.00000000
vn 0.00000000 1.00000000 0.00000000
vn 0.25866892 0.96536557 -0.03405441
vn 0.25866892 0.96536557 -0.03405441
vn 0.25866892 0.96536557 -0.03405441
vn 0.25866892 0.96536557 -0.03405441
vn 0.09984248 0.96536557 -0.24104107
vn 0.09984248 0.96536557 -0.24104107
vn 0.09984248 0.96536557 -0.24104107
vn 0.09984248 0.96536557 -0.24104107
vn 0.36985492 0.25675137 -0.89290877
vn 0.36985492 0.25675137 -0.89290877
vn 0.36985492 0.25675137 -0.89290877
vn 0.36985492 0.25675137 -0.89290877
vn 0.15882645 0.96536557 -0.20698666
vn 0.15882645 0.96536557 -0.20698666
vn 0.15882645 0.96536557 -0.20698666
vn 0.15882645 0.96536557 -0.20698666
vn 0.58835422 0.25675137 -0.76675814
vn 0.58835422 0.25675137 -0.76675814
vn 0.58835422 0.25675137 -0.76675814
vn 0.58835422 0.25675137 -0.76675814
vn 0.20698666 0.96536557 -0.15882645
vn 0.20698666 0.96536557 -0.15882645
vn 0.20698666 0.96536557 -0.15882645
vn 0.20698666 0.96536557 -0.15882645
vn 0.76675814 0.25675137 -0.58835422
vn 0.76675814 0.25675137 -0.58835422
vn 0.76675814 0.25675137 -0.58835422
vn 0.76675814 0.25675137 -0.58835422
vn 0.24104107 0.96536557 -0.09984248
vn 0.24104107 0.96536557 -0.09984248
vn 0.24104107 0.96536557 -0.09984248
vn 0.24104107 0.96536557 -0.09984248
vn 0.70406259 0.70406259 -0.09269160
vn 0.70406259 0.70406259 -0.09269160
vn 0.70406259 0.70406259 -0.09269160
vn 0.70406259 0.70406259 -0.09269160
vn 0.89290877 0.25675137 -0.36985492
vn 0.89290877 0.25675137 -0.36985492
vn 0.89290877 0.25675137 -0.36985492
vn 0.89290877 0.25675137 -0.36985492
s 1
usemtl Grass
f 1/1/1 2/2/2 3/3/3
f 1/1/1 3/3/3 4/4/4
s 2
f 5/5/5 6/6/6 2/7/7
f 5/5/5 2/7/7 1/8/8
s 3
f 7/9/9 8/10/10 6/11/11
f 7/9/9 6/11/11 5/12/12
s 4
f 9/13/13 10/14/14 8/15/15
f 9/13/13 8/15/15 7/16/16
s 5
f 10/17/17 9/18/18 11/19/19
f 10/17/17 11/19/19 12/20/20
s 6
f 13/21/21 10/22/22 14/24/24
f 10/22/22 12/23/23 14/24/24
s 7
f 15/25/25 13/26/26 16/28/28
f 13/26/26 14/27/27 16/28/28
s 8
f 13/29/29 15/30/30 18/32/32
f 15/30/30 17/31/31 18/32/32
s 9
f 18/33/33 17/34/34 20/36/36
f 17/34/34 19/35/35 20/36/36
s 10
f 20/37/37 19/38/38 22/40/40
f 19/38/38 21/39/39 22/40/40
s 11
f 22/41/41 21/42/42 24/44/44
f 21/42/42 23/43/43 24/44/44
s 12
f 24/45/45 23/46/46 26/48/48
f 23/46/46 25/47/47 26/48/48
s 13
f 3/49/49 24/50/50 26/51/51
f 3/49/49 26/51/51 27/52/52
s 14
f 23/53/53 28/54/54 25/56/56
f 28/54/54 29/55/55 25/56/56
s 15
f 28/57/57 30/58/58 29/60/60
f 30/58/58 31/59/59 29/60/60
s 16
f 32/61/61 33/62/62 28/64/64
f 33/62/62 30/63/63 28/64/64
s 17
f 34/65/65 35/66/66 32/68/68
f 35/66/66 33/67/67 32/68/68
s 18
f 36/69/69 37/70/70 34/72/72
f 37/70/70 35/71/71 34/72/72
s 19
f 38/73/73 39/74/74 36/76/76
f 39/74/74 37/75/75 36/76/76
s 20
f 39/77/77 38/78/78 40/79/79
f 39/77/77 40/79/79 41/80/80
s 21
f 41/81/81 42/82/82 39/83/83
s 22
f 37/84/84 39/85/85 43/86/86
s 23
f 37/87/87 43/88/88 35/89/89
s 24
f 33/90/90 35/91/91 44/92/92
s 25
f 33/93/93 44/94/94 30/95/95
s 26
f 31/96/96 30/97/97 45/98/98
s 27
f 21/99/99 32/100/100 23/102/102
f 32/100/100 28/101/101 23/102/102
s 28
f 19/103/103 34/104/104 21/106/106
f 34/104/104 32/105/105 21/106/106
s 29
f 17/107/107 36/108/108 19/110/110
f 36/108/108 34/109/109 19/110/110
s 30
f 15/111/111 38/112/112 17/114/114
f 38/112/112 36/113/113 17/114/114
s 31
f 38/115/115 15/116/116 16/117/117
f 38/115/115 16/117/117 40/118/118
s 32
f 9/119/119 46/120/120 47/121/121
f 9/119/119 47/121/121 11/122/122
s 33
f 48/123/123 53/130/130 52/129/129
f 52/129/129 47/128/128 46/127/127
f 46/127/127 51/126/126 52/129/129
f 51/126/126 50/125/125 52/129/129
f 50/125/125 49/124/124 52/129/129
f 49/124/124 48/123/123 52/129/129
s 34
f 48/131/131 4/132/132 54/133/133
f 48/131/131 54/133/133 53/134/134
s 35
f 46/135/135 9/136/136 7/137/137
f 46/135/135 7/137/137 51/138/138
s 36
f 10/139/139 13/140/140 18/141/141
f 10/139/139 18/141/141 8/142/142
s 37
f 51/143/143 7/144/144 5/145/145
f 51/143/143 5/145/145 50/146/146
s 38
f 8/147/147 18/148/148 20/149/149
f 8/147/147 20/149/149 6/150/150
s 39
f 50/151/151 5/152/152 1/153/153
f 50/151/151 1/153/153 49/154/154
s 40
f 6/155/155 20/156/156 22/157/157
f 6/155/155 22/157/157 2/158/158
s 41
f 49/159/159 1/160/160 4/161/161
f 49/159/159 4/161/161 48/162/162
s 42
f 4/163/163 3/164/164 27/165/165
f 4/163/163 27/165/165 54/166/166
s 43
f 2/167/167 22/168/168 24/169/169
f 2/167/167 24/169/169 3/170/170
o Rock
g Rock
v -0.31111092 0.50000000 -1.01471429
v -0.31111092 0.83349365 -1.01471429
v -0.50000000 0.80000000 -1.50000000
v -0.50000000 0.50000000 -1.50000000
v -0.23205081 0.50000000 -0.50000000
v -0.23205081 0.80000000 -0.50000000
v 0.17417479 0.50000000 -0.17417479
v 0.17417479 0.83349365 -0.17417479
v 0.50000000 0.50000000 0.23205081
v 0.50000000 0.80000000 0.23205081
v 1.01471429 0.50000000 0.31111092
v 1.01471429 0.83349365 0.31111092
v 1.50000000 0.50000000 0.50000000
v 1.50000000 0.80000000 0.50000000
vt 0.00000000 0.00000000
vt 1.00000000 0.00000000
vt 0.89956736 1.00000000
vt 0.00000000 1.00000000
vt 0.00000000 0.00000000
vt 0.89956736 0.00000000
vt 1.00000000 1.00000000
vt 0.00000000 1.00000000
vt 0.00000000 0.00000000
vt 1.00000000 0.00000000
vt 0.89956736 1.00000000
vt 0.00000000 1.00000000
vt 0.00000000 0.00000000
vt 0.89956736 0.00000000
vt 1.00000000 1.00000000
vt 0.00000000 1.00000000
vt 0.00000000 0.00000000
vt 1.00000000 0.00000000
vt 0.89956736 1.00000000
vt 0.00000000 1.00000000
vt 0.00000000 0.00000000
vt 0.89956736 0.00000000
vt 1.00000000 1.00000000
vt 0.00000000 1.00000000
vn 0.93189639 0.00000000 -0.36272457
vn 0.93189639 0.00000000 -0.36272457
vn 0.93189639 0.00000000 -0.36272457
vn 0.93189639 0.00000000 -0.36272457
vn 0.98840823 0.00000000 -0.15181951
vn 0.98840823 0.00000000 -0.15181951
vn 0.98840823 0.00000000 -0.15181951
vn 0.98840823 0.00000000 -0.15181951
vn 0.62568367 0.00000000 -0.78007689
vn 0.62568367 0.00000000 -0.78007689
vn 0.62568367 0.00000000 -0.78007689
vn 0.62568367 0.00000000 -0.78007689
vn 0.78007689 0.00000000 -0.62568367
vn 0.78007689 0.00000000 -0.62568367
vn 0.78007689 0.00000000 -0.62568367
vn 0.78007689 0.00000000 -0.62568367
vn 0.15181951 0.00000000 -0.98840823
vn 0.15181951 0.00000000 -0.98840823
vn 0.15181951 0.00000000 -0.98840823
vn 0.15181951 0.00000000 -0.98840823
vn 0.36272457 0.00000000 -0.93189639
vn 0.36272457 0.00000000 -0.93189639
vn 0.36272457 0.00000000 -0.93189639
vn 0.36272457 0.00000000 -0.93189639
s 1
usemtl Rock
f 58/174/174 57/173/173 55/171/171
f 57/173/173 56/172/172 55/171/171
s 2
f 55/178/178 56/177/177 60/176/176
f 55/178/178 60/176/176 59/175/175
s 3
f 59/182/182 60/181/181 61/179/179
f 60/181/181 62/180/180 61/179/179
s 4
f 61/186/186 62/185/185 64/184/184
f 61/186/186 64/184/184 63/183/183
s 5
f 63/190/190 64/189/189 65/187/187
f 64/189/189 66/188/188 65/187/187
s 6
f 65/194/194 66/193/193 68/192/192
f 65/194/194 68/192/192 67/191/191
