mtllib Terrain_Cliff_Bottom_Side.mtl
o Rock
g Rock
v -0.26516504 0.79289322 0.00000000
v -0.39016504 0.79289322 -0.50000000
v -0.10000000 0.50000000 -0.50000000
v -0.00000000 0.50000000 0.00000000
v -0.39016504 0.79289322 0.50000000
v -0.10000000 0.50000000 0.50000000
v -0.50000000 1.50000000 0.50000000
v -0.37500000 1.50000000 0.00000000
v -0.50000000 1.50000000 -0.50000000
vt 1.00000000 0.00000000
vt 1.00000000 1.00000000
vt 0.00000000 1.00000000
vt 0.00000000 0.00000000
vt 1.00000000 0.00000000
vt 1.00000000 1.00000000
vt 0.00000000 1.00000000
vt 0.00000000 0.00000000
vt 0.00000000 1.00000000
vt 0.00000000 0.00000000
vt 1.00000000 0.00000000
vt 1.00000000 1.00000000
vt 0.00000000 1.00000000
vt 0.00000000 0.00000000
vt 1.00000000 0.00000000
vt 1.00000000 1.00000000
vn 0.72891359 0.65990741 -0.18222840
vn 0.69946189 0.69294670 -0.17486547
vn 0.70334383 0.69679248 -0.14066877
vn 0.73330998 0.66388759 -0.14666200
vn 0.69946189 0.69294670 0.17486547
vn 0.72891359 0.65990741 0.18222840
vn 0.73330998 0.66388759 0.14666200
vn 0.70334383 0.69679248 0.14066877
vn 0.95931154 0.14900994 0.23982788
vn 0.95931154 0.14900994 0.23982788
vn 0.95931154 0.14900994 0.23982788
vn 0.95931154 0.14900994 0.23982788
vn 0.95931154 0.14900994 -0.23982788
vn 0.95931154 0.14900994 -0.23982788
vn 0.95931154 0.14900994 -0.23982788
vn 0.95931154 0.14900994 -0.23982788
s 1
usemtl Rock
f 4/4/4 3/3/3 1/1/1
f 3/3/3 2/2/2 1/1/1
s 2
f 6/8/8 4/7/7 1/6/6
f 6/8/8 1/6/6 5/5/5
s 3
f 8/12/12 7/11/11 5/10/10
f 8/12/12 5/10/10 1/9/9
s 4
f 9/16/16 8/15/15 2/13/13
f 8/15/15 1/14/14 2/13/13
