mtllib Terrain_Cliff_Top_Corner_Outer_1x1.mtl
o Grass
g Grass
v -0.03446317 1.37500000 -0.62390532
v -0.06948114 1.46650635 -0.53936447
v -0.50000000 1.46650635 -0.62500000
v -0.50000000 1.37500000 -0.71650635
v -0.02164571 1.25000000 -0.65484942
v -0.50000000 1.25000000 -0.75000000
v -0.02164571 1.05000000 -0.65484942
v -0.50000000 1.05000000 -0.75000000
v -0.03446317 0.92500000 -0.62390532
v -0.50000000 0.92500000 -0.71650635
v -0.06948114 0.83349365 -0.53936447
v -0.50000000 0.83349365 -0.62500000
v -0.50000000 0.80000000 -0.50000000
v 0.29549513 0.83349365 -0.29549513
v 0.36019989 0.92500000 -0.36019989
v 0.53936447 0.83349365 0.06948114
v 0.62390532 0.92500000 0.03446317
v 0.62500000 0.83349365 0.50000000
v 0.71650635 0.92500000 0.50000000
v 0.65484942 1.05000000 0.02164571
v 0.75000000 1.05000000 0.50000000
v 0.65484942 1.25000000 0.02164571
v 0.75000000 1.25000000 0.50000000
v 0.62390532 1.37500000 0.03446317
v 0.71650635 1.37500000 0.50000000
v 0.53936447 1.46650635 0.06948114
v 0.62500000 1.46650635 0.50000000
v 0.42387953 1.50000000 0.11731657
v 0.50000000 1.50000000 0.50000000
v -0.11731657 1.50000000 -0.42387953
v 0.20710678 1.50000000 -0.20710678
v -0.50000000 1.50000000 0.50000000
v -0.50000000 1.50000000 -0.50000000
v 0.29549513 1.46650635 -0.29549513
v 0.36019989 1.37500000 -0.36019989
v 0.38388348 1.25000000 -0.38388348
v 0.38388348 1.05000000 -0.38388348
v 0.50000000 0.80000000 0.50000000
v 0.20710678 0.80000000 -0.20710678
vt 1.00000000 0.00000000
vt 1.00000000 1.00000000
vt 0.00000000 1.00000000
vt 0.00000000 0.00000000
vt 1.00000000 0.00000000
vt 1.00000000 1.00000000
vt 0.00000000 1.00000000
vt 0.00000000 0.00000000
vt 1.00000000 0.00000000
vt 1.00000000 1.00000000
vt 0.00000000 1.00000000
vt 0.00000000 0.00000000
vt 1.00000000 0.00000000
vt 1.00000000 1.00000000
vt 0.00000000 1.00000000
vt 0.00000000 0.00000000
vt 1.00000000 0.00000000
vt 1.00000000 1.00000000
vt 0.00000000 1.00000000
vt 0.00000000 0.00000000
vt 0.00000000 1.00000000
vt 0.00000000 0.00000000
vt 1.00000000 1.00000000
vt 0.00000000 1.00000000
vt 0.00000000 0.00000000
vt 1.00000000 0.00000000
vt 1.00000000 1.00000000
vt 0.00000000 1.00000000
vt 0.00000000 0.00000000
vt 1.00000000 0.00000000
vt 1.00000000 1.00000000
vt 0.00000000 1.00000000
vt 0.00000000 0.00000000
vt 1.00000000 0.00000000
vt 1.00000000 1.00000000
vt 0.00000000 1.00000000
vt 0.00000000 0.00000000
vt 1.00000000 0.00000000
vt 1.00000000 1.00000000
vt 0.00000000 1.00000000
vt 0.00000000 0.00000000
vt 1.00000000 0.00000000
vt 1.00000000 1.00000000
vt 0.00000000 1.00000000
vt 0.00000000 0.00000000
vt 1.00000000 0.00000000
vt 1.00000000 1.00000000
vt 0.00000000 1.00000000
vt 0.00000000 0.00000000
vt 1.00000000 0.00000000
vt 1.00000000 1.00000000
vt 0.00000000 1.00000000
vt 0.00000000 0.00000000
vt 1.00000000 0.00000000
vt 1.00000000 1.00000000
vt 0.92387953 0.38268343
vt 0.70710678 0.70710678
vt 0.38268343 0.92387953
vt 0.00000000 1.00000000
vt 0.00000000 0.00000000
vt 1.00000000 0.00000000
vt 0.00000000 1.00000000
vt 0.00000000 0.00000000
vt 1.00000000 0.00000000
vt 1.00000000 1.00000000
vt 0.00000000 1.00000000
vt 0.00000000 0.00000000
vt 1.00000000 0.00000000
vt 1.00000000 1.00000000
vt 0.00000000 1.00000000
vt 0.00000000 0.00000000
vt 1.00000000 0.00000000
vt 1.00000000 1.00000000
vt 0.00000000 1.00000000
vt 0.00000000 0.00000000
vt 1.00000000 0.00000000
vt 1.00000000 1.00000000
vt 0.00000000 1.00000000
vt 0.00000000 0.00000000
vt 1.00000000 0.00000000
vt 1.00000000 1.00000000
vt 1.00000000 1.00000000
vt 0.00000000 1.00000000
vt 1.00000000 0.00000000
vt 0.00000000 1.00000000
vt 0.00000000 0.00000000
vt 1.00000000 0.00000000
vt 1.00000000 1.00000000
vt 0.00000000 1.00000000
vt 0.00000000 0.00000000
vt 1.00000000 1.00000000
vt 1.00000000 1.00000000
vt 0.00000000 1.00000000
vt 1.00000000 0.00000000
vt 0.00000000 1.00000000
vt 0.00000000 0.00000000
vt 1.00000000 0.00000000
vt 1.00000000 1.00000000
vt 0.00000000 1.00000000
vt 0.00000000 0.00000000
vt 1.00000000 0.00000000
vt 1.00000000 1.00000000
vt 0.00000000 1.00000000
vt 0.00000000 0.00000000
vt 1.00000000 0.00000000
vt 1.00000000 1.00000000
vt 0.00000000 1.00000000
vt 0.00000000 0.00000000
vt 1.00000000 0.00000000
vt 1.00000000 1.00000000
vt 1.00000000 0.00000000
vt 1.00000000 1.00000000
vt 0.00000000 1.00000000
vt 0.00000000 0.00000000
vn 0.13928133 0.70021451 -0.70021451
vn 0.13928133 0.70021451 -0.70021451
vn 0.13928133 0.70021451 -0.70021451
vn 0.13928133 0.70021451 -0.70021451
vn 0.18868346 0.25417013 -0.94857583
vn 0.18868346 0.25417013 -0.94857583
vn 0.18868346 0.25417013 -0.94857583
vn 0.18868346 0.25417013 -0.94857583
vn 0.19509032 0.00000000 -0.98078528
vn 0.19509032 0.00000000 -0.98078528
vn 0.19509032 0.00000000 -0.98078528
vn 0.19509032 0.00000000 -0.98078528
vn 0.18868346 -0.25417013 -0.94857583
vn 0.18868346 -0.25417013 -0.94857583
vn 0.18868346 -0.25417013 -0.94857583
vn 0.18868346 -0.25417013 -0.94857583
vn 0.13928133 -0.70021451 -0.70021451
vn 0.13928133 -0.70021451 -0.70021451
vn 0.13928133 -0.70021451 -0.70021451
vn 0.13928133 -0.70021451 -0.70021451
vn 0.05141422 -0.96464831 -0.25847673
vn 0.05141422 -0.96464831 -0.25847673
vn 0.05141422 -0.96464831 -0.25847673
vn 0.39663966 -0.70021451 -0.59361320
vn 0.39663966 -0.70021451 -0.59361320
vn 0.39663966 -0.70021451 -0.59361320
vn 0.39663966 -0.70021451 -0.59361320
vn 0.59361320 -0.70021451 -0.39663966
vn 0.59361320 -0.70021451 -0.39663966
vn 0.59361320 -0.70021451 -0.39663966
vn 0.59361320 -0.70021451 -0.39663966
vn 0.70021451 -0.70021451 -0.13928133
vn 0.70021451 -0.70021451 -0.13928133
vn 0.70021451 -0.70021451 -0.13928133
vn 0.70021451 -0.70021451 -0.13928133
vn 0.94857583 -0.25417013 -0.18868346
vn 0.94857583 -0.25417013 -0.18868346
vn 0.94857583 -0.25417013 -0.18868346
vn 0.94857583 -0.25417013 -0.18868346
vn 0.98078528 0.00000000 -0.19509032
vn 0.98078528 0.00000000 -0.19509032
vn 0.98078528 0.00000000 -0.19509032
vn 0.98078528 0.00000000 -0.19509032
vn 0.94857583 0.25417013 -0.18868346
vn 0.94857583 0.25417013 -0.18868346
vn 0.94857583 0.25417013 -0.18868346
vn 0.94857583 0.25417013 -0.18868346
vn 0.70021451 0.70021451 -0.13928133
vn 0.70021451 0.70021451 -0.13928133
vn 0.70021451 0.70021451 -0.13928133
vn 0.70021451 0.70021451 -0.13928133
vn 0.25847673 0.96464831 -0.05141422
vn 0.25847673 0.96464831 -0.05141422
vn 0.25847673 0.96464831 -0.05141422
vn 0.25847673 0.96464831 -0.05141422
vn -0.00000000 1.00000000 0.00000000
vn -0.00000000 1.00000000 0.00000000
vn -0.00000000 1.00000000 0.00000000
vn -0.00000000 1.00000000 0.00000000
vn -0.00000000 1.00000000 0.00000000
vn -0.00000000 1.00000000 0.00000000
vn 0.14641531 0.96464831 -0.21912599
vn 0.14641531 0.96464831 -0.21912599
vn 0.14641531 0.96464831 -0.21912599
vn 0.14641531 0.96464831 -0.21912599
vn 0.21912599 0.96464831 -0.14641531
vn 0.21912599 0.96464831 -0.14641531
vn 0.21912599 0.96464831 -0.14641531
vn 0.21912599 0.96464831 -0.14641531
vn 0.59361320 0.70021451 -0.39663966
vn 0.59361320 0.70021451 -0.39663966
vn 0.59361320 0.70021451 -0.39663966
vn 0.59361320 0.70021451 -0.39663966
vn 0.80416376 0.25417013 -0.53732504
vn 0.80416376 0.25417013 -0.53732504
vn 0.80416376 0.25417013 -0.53732504
vn 0.80416376 0.25417013 -0.53732504
vn 0.83146961 0.00000000 -0.55557023
vn 0.83146961 0.00000000 -0.55557023
vn 0.83146961 0.00000000 -0.55557023
vn 0.83146961 0.00000000 -0.55557023
vn 0.25847673 -0.96464831 -0.05141422
vn 0.25847673 -0.96464831 -0.05141422
vn 0.25847673 -0.96464831 -0.05141422
vn 0.80416376 -0.25417013 -0.53732504
vn 0.80416376 -0.25417013 -0.53732504
vn 0.80416376 -0.25417013 -0.53732504
vn 0.80416376 -0.25417013 -0.53732504
vn 0.21912599 -0.96464831 -0.14641531
vn 0.21912599 -0.96464831 -0.14641531
vn 0.21912599 -0.96464831 -0.14641531
vn 0.14641531 -0.96464831 -0.21912599
vn 0.14641531 -0.96464831 -0.21912599
vn 0.14641531 -0.96464831 -0.21912599
vn 0.53732504 -0.25417013 -0.80416376
vn 0.53732504 -0.25417013 -0.80416376
vn 0.53732504 -0.25417013 -0.80416376
vn 0.53732504 -0.25417013 -0.80416376
vn 0.55557023 0.00000000 -0.83146961
vn 0.55557023 0.00000000 -0.83146961
vn 0.55557023 0.00000000 -0.83146961
vn 0.55557023 0.00000000 -0.83146961
vn 0.53732504 0.25417013 -0.80416376
vn 0.53732504 0.25417013 -0.80416376
vn 0.53732504 0.25417013 -0.80416376
vn 0.53732504 0.25417013 -0.80416376
vn 0.39663966 0.70021451 -0.59361320
vn 0.39663966 0.70021451 -0.59361320
vn 0.39663966 0.70021451 -0.59361320
vn 0.39663966 0.70021451 -0.59361320
vn 0.05141422 0.96464831 -0.25847673
vn 0.05141422 0.96464831 -0.25847673
vn 0.05141422 0.96464831 -0.25847673
vn 0.05141422 0.96464831 -0.25847673
s 1
usemtl Grass
f 4/4/4 3/3/3 1/1/1
f 3/3/3 2/2/2 1/1/1
s 2
f 6/8/8 4/7/7 5/5/5
f 4/7/7 1/6/6 5/5/5
s 3
f 8/12/12 6/11/11 7/9/9
f 6/11/11 5/10/10 7/9/9
s 4
f 10/16/16 8/15/15 7/14/14
f 10/16/16 7/14/14 9/13/13
s 5
f 12/20/20 10/19/19 9/18/18
f 12/20/20 9/18/18 11/17/17
s 6
f 11/23/23 13/22/22 12/21/21
s 7
f 15/27/27 14/26/26 9/24/24
f 14/26/26 11/25/25 9/24/24
s 8
f 17/31/31 16/30/30 15/28/28
f 16/30/30 14/29/29 15/28/28
s 9
f 19/35/35 18/34/34 17/32/32
f 18/34/34 16/33/33 17/32/32
s 10
f 21/39/39 19/38/38 20/36/36
f 19/38/38 17/37/37 20/36/36
s 11
f 23/43/43 21/42/42 22/40/40
f 21/42/42 20/41/41 22/40/40
s 12
f 25/47/47 23/46/46 22/45/45
f 25/47/47 22/45/45 24/44/44
s 13
f 27/51/51 25/50/50 24/49/49
f 27/51/51 24/49/49 26/48/48
s 14
f 29/55/55 27/54/54 26/53/53
f 29/55/55 26/53/53 28/52/52
s 15
f 28/58/58 31/57/57 30/56/56
f 32/60/60 29/59/59 30/56/56
f 30/56/56 33/61/61 32/60/60
f 29/59/59 28/58/58 30/56/56
s 16
f 31/65/65 34/64/64 2/63/63
f 31/65/65 2/63/63 30/62/62
s 17
f 28/69/69 26/68/68 34/67/67
f 28/69/69 34/67/67 31/66/66
s 18
f 26/73/73 24/72/72 35/71/71
f 26/73/73 35/71/71 34/70/70
s 19
f 24/77/77 22/76/76 36/75/75
f 24/77/77 36/75/75 35/74/74
s 20
f 22/81/81 20/80/80 36/78/78
f 20/80/80 37/79/79 36/78/78
s 21
f 38/84/84 16/83/83 18/82/82
s 22
f 20/88/88 17/87/87 37/85/85
f 17/87/87 15/86/86 37/85/85
s 23
f 16/91/91 39/90/90 14/89/89
s 24
f 39/94/94 11/93/93 14/92/92
s 25
f 37/98/98 15/97/97 7/95/95
f 15/97/97 9/96/96 7/95/95
s 26
f 36/102/102 37/101/101 5/99/99
f 37/101/101 7/100/100 5/99/99
s 27
f 35/106/106 36/105/105 5/104/104
f 35/106/106 5/104/104 1/103/103
s 28
f 34/110/110 35/109/109 1/108/108
f 34/110/110 1/108/108 2/107/107
s 29
f 3/114/114 33/113/113 30/112/112
f 3/114/114 30/112/112 2/111/111
o Rock
g Rock
v 0.20710678 0.50000000 -0.20710678
v 0.20710678 0.80000000 -0.20710678
v 0.53936447 0.83349365 0.06948114
v 0.53936447 0.50000000 0.06948114
v 0.50000000 0.80000000 0.50000000
v 0.50000000 0.50000000 0.50000000
v -0.06948114 0.50000000 -0.53936447
v -0.06948114 0.83349365 -0.53936447
v -0.50000000 0.50000000 -0.50000000
v -0.50000000 0.80000000 -0.50000000
vt 0.00000000 0.00000000
vt 0.89956736 0.00000000
vt 1.00000000 1.00000000
vt 0.00000000 1.00000000
vt 0.00000000 0.00000000
vt 1.00000000 0.00000000
vt 0.89956736 1.00000000
vt 0.00000000 1.00000000
vt 0.00000000 0.00000000
vt 1.00000000 0.00000000
vt 0.89956736 1.00000000
vt 0.00000000 1.00000000
vt 0.00000000 0.00000000
vt 0.89956736 0.00000000
vt 1.00000000 1.00000000
vt 0.00000000 1.00000000
vn 0.63978366 0.00000000 -0.76855505
vn 0.63978366 0.00000000 -0.76855505
vn 0.63978366 0.00000000 -0.76855505
vn 0.63978366 0.00000000 -0.76855505
vn 0.99584585 0.00000000 0.09105512
vn 0.99584585 0.00000000 0.09105512
vn 0.99584585 0.00000000 0.09105512
vn 0.99584585 0.00000000 0.09105512
vn 0.76855505 0.00000000 -0.63978366
vn 0.76855505 0.00000000 -0.63978366
vn 0.76855505 0.00000000 -0.63978366
vn 0.76855505 0.00000000 -0.63978366
vn -0.09105512 0.00000000 -0.99584585
vn -0.09105512 0.00000000 -0.99584585
vn -0.09105512 0.00000000 -0.99584585
vn -0.09105512 0.00000000 -0.99584585
s 1
usemtl Rock
f 40/115/115 41/116/116 43/118/118
f 41/116/116 42/117/117 43/118/118
s 2
f 43/119/119 42/120/120 44/121/121
f 43/119/119 44/121/121 45/122/122
s 3
f 46/123/123 47/124/124 41/125/125
f 46/123/123 41/125/125 40/126/126
s 4
f 48/127/127 49/128/128 46/130/130
f 49/128/128 47/129/129 46/130/130
