mtllib Terrain_Hill_Esse_3x4.mtl
o Grass
g Grass
v -2.40542421 1.30082665 -0.70356814
v -2.83090737 1.43991191 -0.56312779
v -2.99326316 1.43991191 -1.50000000
v -2.54520132 1.30082665 -1.50000000
v -2.13249818 1.30082665 -0.04949088
v -2.53615148 1.43991191 0.14499158
v -3.31210878 1.50000000 -0.40429636
v -2.99266435 1.50000000 0.36494209
v -2.70999807 1.50000000 0.93721606
v -2.53671556 1.50000000 1.34461537
v -2.50000000 1.50000000 1.50000000
v -3.50000000 1.50000000 1.50000000
v -3.50000000 1.50000000 -1.50000000
v -2.25348520 1.43991191 0.71726556
v -2.05551415 1.43991191 1.18578394
v -1.84983190 1.30082665 0.52278310
v -1.63003098 1.30082665 1.04534359
v -1.54520132 1.30082665 1.50000000
v -1.99326316 1.43991191 1.50000000
v -1.24992887 1.12792935 0.91988227
v -1.14492871 1.12792935 1.50000000
v -0.56970126 0.77657377 0.69535774
v -0.42860416 0.77657377 1.50000000
v -1.48923132 1.12792935 0.34904369
v -0.84390350 0.77657377 0.03812107
v -1.77189760 1.12792935 -0.22323029
v -1.12656978 0.77657377 -0.53415290
v -2.02532209 1.12792935 -0.82902946
v -1.34509448 0.77657377 -1.05355399
v -2.14492871 1.12792935 -1.50000000
v -1.42860416 0.77657377 -1.50000000
v -1.02998215 0.63288402 -1.15756395
v -1.09677009 0.63288402 -1.50000000
v -0.73271115 0.53490365 -1.25568498
v -0.78372411 0.53490365 -1.50000000
v -0.54560542 0.53490365 -0.81406484
v -0.82762462 0.63288402 -0.67818638
v -0.26293914 0.53490365 -0.24179087
v -0.54495835 0.63288402 -0.10591241
v 0.04268207 0.53490365 0.49322675
v -0.25458893 0.63288402 0.59134778
v 0.21627589 0.53490365 1.50000000
v -0.09677009 0.63288402 1.50000000
v 0.31210878 0.50000000 0.40429636
v 0.50000000 0.50000000 1.50000000
v -0.00733565 0.50000000 -0.36494209
v -0.29000193 0.50000000 -0.93721606
v -0.46328444 0.50000000 -1.34461537
v -0.50000000 0.50000000 -1.50000000
v 0.50000000 0.50000000 -1.50000000
vt 1.00000000 0.00000000
vt 1.00000000 1.00000000
vt 0.00000000 1.00000000
vt 0.00000000 0.00000000
vt 0.00000000 1.00000000
vt 0.00000000 0.00000000
vt 1.00000000 0.00000000
vt 1.00000000 1.00000000
vt 0.00000000 1.00000000
vt 0.00000000 0.00000000
vt 1.00000000 0.00000000
vt 1.00000000 1.00000000
vt 0.81240535 0.20999807
vt 0.94820512 0.03671556
vt 1.00000000 0.00000000
vt 1.00000000 1.00000000
vt 0.00000000 1.00000000
vt 0.36523455 0.81210878
vt 0.62164736 0.49266435
vt 0.00000000 1.00000000
vt 0.00000000 0.00000000
vt 1.00000000 0.00000000
vt 1.00000000 1.00000000
vt 0.00000000 1.00000000
vt 0.00000000 0.00000000
vt 1.00000000 0.00000000
vt 1.00000000 1.00000000
vt 0.00000000 1.00000000
vt 0.00000000 0.00000000
vt 1.00000000 0.00000000
vt 1.00000000 1.00000000
vt 0.00000000 1.00000000
vt 0.00000000 0.00000000
vt 1.00000000 0.00000000
vt 1.00000000 1.00000000
vt 0.00000000 1.00000000
vt 0.00000000 0.00000000
vt 1.00000000 0.00000000
vt 1.00000000 1.00000000
vt 0.00000000 1.00000000
vt 0.00000000 0.00000000
vt 1.00000000 0.00000000
vt 1.00000000 1.00000000
vt 0.00000000 1.00000000
vt 0.00000000 0.00000000
vt 1.00000000 0.00000000
vt 1.00000000 1.00000000
vt 0.00000000 1.00000000
vt 0.00000000 0.00000000
vt 1.00000000 0.00000000
vt 1.00000000 1.00000000
vt 1.00000000 0.00000000
vt 1.00000000 1.00000000
vt 0.00000000 1.00000000
vt 0.00000000 0.00000000
vt 1.00000000 0.00000000
vt 1.00000000 1.00000000
vt 0.00000000 1.00000000
vt 0.00000000 0.00000000
vt 1.00000000 0.00000000
vt 1.00000000 1.00000000
vt 0.00000000 1.00000000
vt 0.00000000 0.00000000
vt 0.00000000 1.00000000
vt 0.00000000 0.00000000
vt 1.00000000 0.00000000
vt 1.00000000 1.00000000
vt 0.00000000 1.00000000
vt 0.00000000 0.00000000
vt 1.00000000 0.00000000
vt 1.00000000 1.00000000
vt 0.00000000 1.00000000
vt 0.00000000 0.00000000
vt 1.00000000 0.00000000
vt 1.00000000 1.00000000
vt 0.00000000 1.00000000
vt 0.00000000 0.00000000
vt 1.00000000 0.00000000
vt 1.00000000 1.00000000
vt 0.00000000 1.00000000
vt 0.00000000 0.00000000
vt 1.00000000 0.00000000
vt 1.00000000 1.00000000
vt 1.00000000 0.00000000
vt 0.63476545 0.18789122
vt 0.37835264 0.50733565
vt 0.18759465 0.79000193
vt 0.05179488 0.96328444
vt 0.00000000 1.00000000
vt 0.00000000 0.00000000
vt 0.00000000 1.00000000
vt 0.00000000 0.00000000
vt 1.00000000 0.00000000
vt 1.00000000 1.00000000
vt 0.00000000 1.00000000
vt 0.00000000 0.00000000
vt 1.00000000 0.00000000
vt 1.00000000 1.00000000
vt 0.00000000 1.00000000
vt 0.00000000 0.00000000
vt 1.00000000 0.00000000
vt 1.00000000 1.00000000
vt 1.00000000 0.00000000
vt 1.00000000 1.00000000
vt 0.00000000 1.00000000
vt 0.00000000 0.00000000
vt 0.00000000 1.00000000
vt 0.00000000 0.00000000
vt 1.00000000 0.00000000
vt 1.00000000 1.00000000
vt 0.00000000 1.00000000
vt 0.00000000 0.00000000
vt 1.00000000 0.00000000
vt 1.00000000 1.00000000
vt 0.00000000 1.00000000
vt 0.00000000 0.00000000
vt 1.00000000 0.00000000
vt 1.00000000 1.00000000
vt 0.00000000 1.00000000
vt 0.00000000 0.00000000
vt 1.00000000 0.00000000
vt 1.00000000 1.00000000
vt 0.00000000 1.00000000
vt 0.00000000 0.00000000
vt 1.00000000 0.00000000
vt 1.00000000 1.00000000
vt 0.00000000 1.00000000
vt 0.00000000 0.00000000
vt 1.00000000 0.00000000
vt 1.00000000 1.00000000
vt 0.00000000 1.00000000
vt 0.00000000 0.00000000
vt 1.00000000 0.00000000
vt 1.00000000 1.00000000
vt 0.00000000 1.00000000
vt 0.00000000 0.00000000
vt 1.00000000 0.00000000
vt 1.00000000 1.00000000
vt 0.00000000 1.00000000
vt 0.00000000 0.00000000
vt 1.00000000 0.00000000
vt 1.00000000 1.00000000
vt 0.00000000 1.00000000
vt 0.00000000 0.00000000
vt 1.00000000 0.00000000
vt 1.00000000 1.00000000
vt 1.00000000 0.00000000
vt 1.00000000 1.00000000
vt 0.00000000 1.00000000
vt 0.00000000 0.00000000
vt 1.00000000 0.00000000
vt 1.00000000 1.00000000
vt 0.00000000 1.00000000
vt 0.00000000 0.00000000
vn 0.29482139 0.95415044 -0.05174238
vn 0.29501635 0.95412346 -0.05112502
vn 0.29607014 0.95378719 -0.05130764
vn 0.29606015 0.95375498 -0.05195979
vn 0.27441155 0.95480423 -0.11422427
vn 0.27432897 0.95479866 -0.11446892
vn 0.27395737 0.95492392 -0.11431386
vn 0.27406806 0.95491997 -0.11408129
vn 0.10904988 0.99300420 -0.04528554
vn 0.10901884 0.99300333 -0.04537928
vn 0.10887126 0.99302233 -0.04531785
vn 0.10891394 0.99302169 -0.04522909
vn 0.00000000 1.00000000 0.00000000
vn 0.00000000 1.00000000 0.00000000
vn 0.00000000 1.00000000 0.00000000
vn 0.00000000 1.00000000 0.00000000
vn 0.00000000 1.00000000 0.00000000
vn 0.00000000 1.00000000 0.00000000
vn 0.00000000 1.00000000 0.00000000
vn 0.10847628 0.99302773 -0.04613911
vn 0.10859732 0.99302616 -0.04588747
vn 0.10881939 0.99299751 -0.04598131
vn 0.10873119 0.99299481 -0.04624753
vn 0.27338408 0.95494336 -0.11551763
vn 0.27359285 0.95493648 -0.11507942
vn 0.27405689 0.95477986 -0.11527461
vn 0.27390097 0.95476878 -0.11573604
vn 0.29283326 0.95440189 -0.05801473
vn 0.29384578 0.95427921 -0.05482566
vn 0.29600813 0.95358740 -0.05522911
vn 0.29595060 0.95340206 -0.05863232
vn 0.39279123 0.91670283 -0.07328688
vn 0.39342729 0.91659378 -0.07120956
vn 0.39551972 0.91566329 -0.07158829
vn 0.39545627 0.91551638 -0.07378412
vn 0.43746539 0.89595726 -0.07671123
vn 0.43906841 0.89514865 -0.07699233
vn 0.40657597 0.89757765 -0.17044158
vn 0.40689624 0.89756188 -0.16975903
vn 0.40738140 0.89730346 -0.16996144
vn 0.40713378 0.89728033 -0.17067542
vn 0.39485235 0.89780529 -0.19503149
vn 0.39485235 0.89780529 -0.19503149
vn 0.40724248 0.89729054 -0.17036210
vn 0.40694729 0.89726258 -0.17121265
vn 0.43601081 0.89623820 -0.08155773
vn 0.43710436 0.89602935 -0.07791784
vn 0.43902494 0.89506002 -0.07826020
vn 0.43888906 0.89478300 -0.08209612
vn 0.39264172 0.91649768 -0.07657993
vn 0.39617492 0.91491799 -0.07726904
vn 0.29410240 0.95379912 -0.06140856
vn 0.29531515 0.95366214 -0.05759758
vn 0.29819567 0.95273125 -0.05815939
vn 0.29812201 0.95249592 -0.06224785
vn 0.27600432 0.95406886 -0.11650848
vn 0.27587741 0.95405966 -0.11688381
vn 0.27532614 0.95424747 -0.11665025
vn 0.27549593 0.95424196 -0.11629388
vn 0.26782478 0.95434257 -0.13228809
vn 0.26782478 0.95434257 -0.13228809
vn 0.27652137 0.95410482 -0.11497792
vn 0.27646881 0.95410128 -0.11513362
vn 0.29720716 0.95341662 -0.05162029
vn 0.29731907 0.95340087 -0.05126552
vn 0.29830589 0.95308340 -0.05143567
vn 0.29830011 0.95306493 -0.05181012
vn 0.12163464 0.99235334 -0.02097297
vn 0.12167033 0.99235126 -0.02086402
vn 0.12207249 0.99230042 -0.02093299
vn 0.12207219 0.99229801 -0.02104841
vn 0.00000000 1.00000000 0.00000000
vn 0.00000000 1.00000000 0.00000000
vn 0.00000000 1.00000000 0.00000000
vn 0.00000000 1.00000000 0.00000000
vn 0.00000000 1.00000000 0.00000000
vn 0.00000000 1.00000000 0.00000000
vn 0.00000000 1.00000000 0.00000000
vn 0.11290938 0.99249553 -0.04694786
vn 0.11293325 0.99249516 -0.04689820
vn 0.10947834 0.99251719 -0.05407521
vn 0.10947834 0.99251719 -0.05407521
vn 0.11279785 0.99246800 -0.04779022
vn 0.11274352 0.99246627 -0.04795413
vn 0.12205958 0.99219551 -0.02548603
vn 0.12204846 0.99210509 -0.02883862
vn 0.36708690 0.91718897 -0.15495677
vn 0.36646187 0.91748341 -0.15469293
vn 0.36666410 0.91747474 -0.15426453
vn 0.35554627 0.91801175 -0.17561683
vn 0.35554627 0.91801175 -0.17561683
vn 0.35554627 0.91801175 -0.17561683
vn 0.35628669 0.91765459 -0.17598255
vn 0.35628669 0.91765459 -0.17598255
vn 0.36771428 0.91724410 -0.15313219
vn 0.39507921 0.91608069 -0.06861915
vn 0.39641994 0.91548382 -0.06885202
vn 0.36649027 0.91756273 -0.15415421
vn 0.11772149 0.99277274 -0.02332242
vn 0.11770797 0.99265869 -0.02781301
vn 0.36685982 0.91759503 -0.15307915
vn 0.36624751 0.91781733 -0.15321264
vn 0.39405353 0.91648185 -0.06915804
vn 0.39558033 0.91580360 -0.06942600
vn 0.11772953 0.99284047 -0.02018825
vn 0.11772901 0.99283616 -0.02040192
s 1
usemtl Grass
f 4/4/4 3/3/3 2/2/2
f 4/4/4 2/2/2 1/1/1
s 2
f 6/8/8 5/7/7 1/6/6
f 14/142/24 16/141/25 5/140/7
f 15/27/27 17/26/26 16/25/25
f 15/27/27 16/25/25 14/24/24
f 14/142/24 5/140/7 6/139/8
f 6/8/8 1/6/6 2/5/5
s 3
f 8/12/12 6/11/11 2/10/10
f 3/154/106 7/152/9 2/151/10
f 3/154/106 13/153/105 7/152/9
f 9/138/20 14/137/21 6/136/11
f 10/23/23 15/22/22 14/21/21
f 11/134/100 19/133/99 15/132/22
f 11/134/100 15/132/22 10/131/23
f 10/23/23 14/21/21 9/20/20
f 9/138/20 6/136/11 8/135/12
f 8/12/12 2/10/10 7/9/9
s 4
f 11/15/15 10/14/14 9/13/13
f 12/16/16 9/13/13 8/19/19
f 7/18/18 13/17/17 12/16/16
f 12/16/16 8/19/19 7/18/18
f 12/16/16 11/15/15 9/13/13
s 5
f 19/31/31 18/30/30 17/29/29
f 19/31/31 17/29/29 15/28/28
s 6
f 18/35/35 21/34/34 20/33/33
f 21/39/34 22/37/36 20/36/33
f 23/126/37 41/124/96 22/123/36
f 23/126/37 43/125/97 41/124/96
f 21/39/34 23/38/37 22/37/36
f 18/35/35 20/33/33 17/32/32
s 7
f 20/43/41 22/42/40 25/41/39
f 24/47/38 25/46/39 27/45/43
f 25/118/94 37/116/88 27/115/43
f 27/110/89 37/109/88 32/108/87
f 27/110/89 32/108/87 29/107/45
f 26/51/42 29/49/45 28/48/44
f 5/146/90 28/144/44 1/143/101
f 5/146/90 26/145/102 28/144/44
f 16/114/92 26/112/42 5/111/90
f 16/114/92 24/113/91 26/112/42
f 25/118/94 39/117/93 37/116/88
f 26/51/42 27/50/43 29/49/45
f 17/130/98 24/128/38 16/127/92
f 24/47/38 27/45/43 26/44/42
f 22/122/40 39/120/93 25/119/39
f 22/122/40 41/121/95 39/120/93
f 17/130/98 20/129/41 24/128/38
f 20/43/41 25/41/39 24/40/38
s 8
f 31/55/49 30/54/48 28/53/47
f 30/150/48 1/148/103 28/147/47
f 30/150/48 4/149/104 1/148/103
f 33/59/51 31/58/49 29/57/46
f 33/59/51 29/57/46 32/56/50
f 31/55/49 28/53/47 29/52/46
s 9
f 35/63/55 33/62/54 32/61/53
f 35/63/55 32/61/53 34/60/52
s 10
f 37/67/59 36/66/58 34/65/57
f 39/71/61 38/70/60 36/69/58
f 41/75/63 40/74/62 38/73/60
f 41/75/63 38/73/60 39/72/61
f 39/71/61 36/69/58 37/68/59
f 37/67/59 34/65/57 32/64/56
s 11
f 43/79/67 42/78/66 40/77/65
f 43/79/67 40/77/65 41/76/64
s 12
f 42/83/71 45/82/70 44/81/69
f 40/94/68 44/93/69 46/92/80
f 38/98/79 46/97/80 47/96/82
f 36/102/81 47/101/82 48/100/84
f 49/106/86 34/104/83 48/103/84
f 49/106/86 35/105/85 34/104/83
f 36/102/81 48/100/84 34/99/83
f 38/98/79 47/96/82 36/95/81
f 40/94/68 46/92/80 38/91/79
f 42/83/71 44/81/69 40/80/68
s 13
f 49/89/77 48/88/76 47/87/75
f 50/90/78 47/87/75 46/86/74
f 50/90/78 44/85/73 45/84/72
f 50/90/78 46/86/74 44/85/73
f 50/90/78 49/89/77 47/87/75
