mtllib Terrain_Hill_Esse_4x5.mtl
o object1
g object1
v 0.32951394 0.50000000 1.39748596
v 0.05927422 0.53490365 1.48391431
v 0.21627589 0.53490365 2.50000000
v 0.50000000 0.50000000 2.50000000
v -1.47209310 0.50000000 -1.31134927
v -1.50000000 0.50000000 -1.50000000
v 0.50000000 0.50000000 -1.50000000
v -0.12617023 0.50000000 0.44971587
v -0.64621497 0.50000000 -0.23180068
v -1.07924014 0.50000000 -0.72432956
v -1.35709887 0.50000000 -1.08252498
v -1.59511794 0.53490365 -0.92810255
v -1.74233283 0.53490365 -1.22492092
v -1.85773544 0.63288402 -0.75772110
v -2.04050086 0.63288402 -1.12956050
v -2.13611446 0.77657377 -0.57711387
v -2.35656406 0.77657377 -1.02847684
v -2.73704650 1.12792935 -0.18724012
v -3.03884429 1.12792935 -0.81026927
v -3.07283932 1.30082665 0.03061613
v -3.42009339 1.30082665 -0.68833778
v -3.44872301 1.43991191 0.27448262
v -3.84686047 1.43991191 -0.55184869
v -3.87382977 1.50000000 0.55028413
v -4.32951394 1.50000000 -0.39748596
v -2.52790690 1.50000000 2.31134927
v -2.50000000 1.50000000 2.50000000
v -4.50000000 1.50000000 2.50000000
v -4.50000000 1.50000000 -1.50000000
v -3.35378503 1.50000000 1.23180068
v -2.92075986 1.50000000 1.72432956
v -2.64290113 1.50000000 2.08252498
v -2.04525343 1.43991191 2.15698653
v -2.21779438 1.43991191 1.80672347
v -1.61848635 1.30082665 2.02049744
v -1.84191068 1.30082665 1.56285699
v -2.19684904 1.30082665 1.10175937
v -2.53656130 1.43991191 1.39391514
v -2.62987421 1.30082665 0.60923049
v -2.96958647 1.43991191 0.90138626
v -1.89336970 1.12792935 0.84076425
v -2.32639487 1.12792935 0.34823537
v -1.35026558 0.77657377 0.37368954
v -1.78329076 0.77657377 -0.11883933
v -1.09867508 0.63288402 0.15731932
v -1.53170026 0.63288402 -0.33520956
v -0.86132937 0.53490365 -0.04680025
v -1.29435455 0.53490365 -0.53932913
v -0.62680681 0.63288402 0.77451975
v -0.36418931 0.53490365 0.60413831
v -0.23889382 0.63288402 1.57927472
v -0.55495702 0.77657377 1.68035838
v -0.90518583 0.77657377 0.95512698
v -1.23723725 1.12792935 1.89856595
v -1.50611787 1.12792935 1.34500073
v -1.14492871 1.12792935 2.50000000
v -0.42860416 0.77657377 2.50000000
v -1.54520132 1.30082665 2.50000000
v -0.09677009 0.63288402 2.50000000
v -1.99326316 1.43991191 2.50000000
v -3.99326316 1.43991191 -1.50000000
v -3.54520132 1.30082665 -1.50000000
v -3.14492871 1.12792935 -1.50000000
v -2.42860416 0.77657377 -1.50000000
v -2.09677009 0.63288402 -1.50000000
v -1.78372411 0.53490365 -1.50000000
vt 1.00000000 0.00000000
vt 1.00000000 1.00000000
vt 0.00000000 1.00000000
vt 0.00000000 0.00000000
vt 0.95283732 0.01395345
vt 1.00000000 0.00000000
vt 1.00000000 1.00000000
vt 0.00000000 1.00000000
vt 0.27562851 0.91475697
vt 0.51257103 0.68691488
vt 0.68295017 0.42689252
vt 0.80608239 0.21037993
vt 0.89563125 0.07145057
vt 0.00000000 1.00000000
vt 0.00000000 0.00000000
vt 1.00000000 0.00000000
vt 1.00000000 1.00000000
vt 0.00000000 1.00000000
vt 0.00000000 0.00000000
vt 1.00000000 0.00000000
vt 1.00000000 1.00000000
vt 0.00000000 1.00000000
vt 0.00000000 0.00000000
vt 1.00000000 0.00000000
vt 1.00000000 1.00000000
vt 0.00000000 1.00000000
vt 0.00000000 0.00000000
vt 1.00000000 0.00000000
vt 1.00000000 1.00000000
vt 0.00000000 1.00000000
vt 0.00000000 0.00000000
vt 1.00000000 0.00000000
vt 1.00000000 1.00000000
vt 0.00000000 1.00000000
vt 0.00000000 0.00000000
vt 1.00000000 0.00000000
vt 1.00000000 1.00000000
vt 0.00000000 1.00000000
vt 0.00000000 0.00000000
vt 1.00000000 0.00000000
vt 1.00000000 1.00000000
vt 0.04716268 0.98604655
vt 0.00000000 1.00000000
vt 0.00000000 0.00000000
vt 1.00000000 0.00000000
vt 0.72437149 0.08524303
vt 0.48742897 0.31308512
vt 0.31704983 0.57310748
vt 0.19391761 0.78962007
vt 0.10436875 0.92854943
vt 0.00000000 1.00000000
vt 0.00000000 0.00000000
vt 1.00000000 0.00000000
vt 1.00000000 1.00000000
vt 0.00000000 1.00000000
vt 0.00000000 0.00000000
vt 1.00000000 0.00000000
vt 1.00000000 1.00000000
vt 0.00000000 1.00000000
vt 0.00000000 0.00000000
vt 1.00000000 0.00000000
vt 1.00000000 1.00000000
vt 0.00000000 1.00000000
vt 0.00000000 0.00000000
vt 1.00000000 0.00000000
vt 1.00000000 1.00000000
vt 0.00000000 1.00000000
vt 0.00000000 0.00000000
vt 1.00000000 0.00000000
vt 1.00000000 1.00000000
vt 0.00000000 1.00000000
vt 0.00000000 0.00000000
vt 1.00000000 0.00000000
vt 1.00000000 1.00000000
vt 0.00000000 1.00000000
vt 0.00000000 0.00000000
vt 1.00000000 0.00000000
vt 1.00000000 1.00000000
vt 0.00000000 1.00000000
vt 0.00000000 0.00000000
vt 1.00000000 0.00000000
vt 1.00000000 1.00000000
vt 0.00000000 1.00000000
vt 0.00000000 0.00000000
vt 1.00000000 0.00000000
vt 1.00000000 1.00000000
vt 0.00000000 1.00000000
vt 0.00000000 0.00000000
vt 1.00000000 0.00000000
vt 1.00000000 1.00000000
vt 0.00000000 1.00000000
vt 0.00000000 0.00000000
vt 1.00000000 0.00000000
vt 1.00000000 1.00000000
vt 0.00000000 1.00000000
vt 0.00000000 0.00000000
vt 1.00000000 0.00000000
vt 1.00000000 1.00000000
vt 1.00000000 0.00000000
vt 1.00000000 1.00000000
vt 0.00000000 1.00000000
vt 0.00000000 0.00000000
vt 1.00000000 0.00000000
vt 1.00000000 1.00000000
vt 0.00000000 1.00000000
vt 0.00000000 0.00000000
vt 1.00000000 0.00000000
vt 1.00000000 1.00000000
vt 0.00000000 1.00000000
vt 0.00000000 0.00000000
vt 0.00000000 1.00000000
vt 0.00000000 0.00000000
vt 1.00000000 0.00000000
vt 1.00000000 1.00000000
vt 0.00000000 1.00000000
vt 0.00000000 0.00000000
vt 1.00000000 0.00000000
vt 1.00000000 1.00000000
vt 0.00000000 1.00000000
vt 0.00000000 0.00000000
vt 1.00000000 0.00000000
vt 1.00000000 1.00000000
vt 0.00000000 1.00000000
vt 0.00000000 0.00000000
vt 1.00000000 0.00000000
vt 1.00000000 1.00000000
vt 1.00000000 0.00000000
vt 1.00000000 1.00000000
vt 0.00000000 1.00000000
vt 0.00000000 0.00000000
vt 0.00000000 1.00000000
vt 0.00000000 0.00000000
vt 1.00000000 0.00000000
vt 1.00000000 1.00000000
vt 0.00000000 1.00000000
vt 0.00000000 0.00000000
vt 1.00000000 0.00000000
vt 1.00000000 1.00000000
vt 1.00000000 0.00000000
vt 1.00000000 1.00000000
vt 0.00000000 1.00000000
vt 0.00000000 0.00000000
vt 0.00000000 1.00000000
vt 0.00000000 0.00000000
vt 1.00000000 0.00000000
vt 1.00000000 1.00000000
vt 0.00000000 1.00000000
vt 0.00000000 0.00000000
vt 1.00000000 0.00000000
vt 1.00000000 1.00000000
vt 0.00000000 1.00000000
vt 0.00000000 0.00000000
vt 1.00000000 0.00000000
vt 1.00000000 1.00000000
vt 0.00000000 1.00000000
vt 0.00000000 0.00000000
vt 1.00000000 0.00000000
vt 1.00000000 1.00000000
vt 0.00000000 1.00000000
vt 0.00000000 0.00000000
vt 1.00000000 0.00000000
vt 1.00000000 1.00000000
vt 0.00000000 1.00000000
vt 0.00000000 0.00000000
vt 1.00000000 0.00000000
vt 1.00000000 1.00000000
vt 0.00000000 1.00000000
vt 0.00000000 0.00000000
vt 1.00000000 0.00000000
vt 1.00000000 1.00000000
vt 0.00000000 1.00000000
vt 0.00000000 0.00000000
vt 1.00000000 0.00000000
vt 1.00000000 1.00000000
vt 0.00000000 1.00000000
vt 0.00000000 0.00000000
vt 1.00000000 0.00000000
vt 1.00000000 1.00000000
vt 0.00000000 1.00000000
vt 0.00000000 0.00000000
vt 1.00000000 0.00000000
vt 1.00000000 1.00000000
vt 0.00000000 1.00000000
vt 0.00000000 0.00000000
vt 1.00000000 0.00000000
vt 1.00000000 1.00000000
vt 0.00000000 1.00000000
vt 0.00000000 0.00000000
vt 1.00000000 0.00000000
vt 1.00000000 1.00000000
vt 0.00000000 1.00000000
vt 0.00000000 0.00000000
vt 1.00000000 0.00000000
vt 1.00000000 1.00000000
vt 0.00000000 1.00000000
vt 0.00000000 0.00000000
vt 1.00000000 0.00000000
vt 1.00000000 1.00000000
vt 0.00000000 1.00000000
vt 0.00000000 0.00000000
vt 1.00000000 0.00000000
vt 1.00000000 1.00000000
vt 0.00000000 1.00000000
vt 0.00000000 0.00000000
vt 1.00000000 0.00000000
vt 1.00000000 1.00000000
vt 1.00000000 0.00000000
vt 1.00000000 1.00000000
vt 0.00000000 1.00000000
vt 0.00000000 0.00000000
vt 0.00000000 1.00000000
vt 0.00000000 0.00000000
vt 1.00000000 0.00000000
vt 1.00000000 1.00000000
vn 0.12212819 0.99233465 -0.01888516
vn 0.12213254 0.99233437 -0.01887145
vn 0.12207752 0.99234131 -0.01886295
vn 0.12207748 0.99234104 -0.01887732
vn 0.00000000 1.00000000 0.00000000
vn 0.00000000 1.00000000 0.00000000
vn 0.00000000 1.00000000 0.00000000
vn 0.00000000 1.00000000 0.00000000
vn 0.00000000 1.00000000 0.00000000
vn 0.00000000 1.00000000 0.00000000
vn 0.00000000 1.00000000 0.00000000
vn 0.00000000 1.00000000 0.00000000
vn 0.00000000 1.00000000 0.00000000
vn 0.11010192 0.99241903 -0.05460794
vn 0.10974912 0.99242793 -0.05515374
vn 0.11042078 0.99233461 -0.05549128
vn 0.11062233 0.99234692 -0.05486606
vn 0.26979790 0.95374190 -0.13261028
vn 0.26921761 0.95377817 -0.13352556
vn 0.27039231 0.95336404 -0.13410818
vn 0.27073882 0.95341079 -0.13307276
vn 0.35926985 0.91658893 -0.17547052
vn 0.35873782 0.91663319 -0.17632577
vn 0.35989300 0.91607079 -0.17689357
vn 0.36022380 0.91612509 -0.17593644
vn 0.39880863 0.89645492 -0.19318448
vn 0.39954334 0.89605092 -0.19354038
vn 0.35945197 0.91687084 -0.17361497
vn 0.36005260 0.91658014 -0.17390507
vn 0.26903775 0.95436670 -0.12962598
vn 0.26888309 0.95437707 -0.12987028
vn 0.26937000 0.95420772 -0.13010546
vn 0.26946177 0.95421929 -0.12983028
vn 0.10697882 0.99292999 -0.05143500
vn 0.10692519 0.99293147 -0.05151798
vn 0.10710764 0.99290724 -0.05160589
vn 0.10713802 0.99290886 -0.05151154
vn 0.00000000 1.00000000 0.00000000
vn 0.00000000 1.00000000 0.00000000
vn 0.00000000 1.00000000 0.00000000
vn 0.00000000 1.00000000 0.00000000
vn 0.00000000 1.00000000 0.00000000
vn 0.00000000 1.00000000 0.00000000
vn 0.00000000 1.00000000 0.00000000
vn 0.00000000 1.00000000 0.00000000
vn 0.00000000 1.00000000 0.00000000
vn 0.10649209 0.99287228 -0.05351694
vn 0.10678641 0.99288949 -0.05260340
vn 0.10635953 0.99294643 -0.05239312
vn 0.10584363 0.99295913 -0.05319106
vn 0.26862803 0.95411136 -0.13232722
vn 0.26896718 0.95415603 -0.13131229
vn 0.26820532 0.95442157 -0.13094034
vn 0.26763598 0.95445774 -0.13183853
vn 0.23536755 0.95476150 -0.18174872
vn 0.23561686 0.95477195 -0.18137040
vn 0.23523631 0.95492138 -0.18107746
vn 0.23494345 0.95492822 -0.18142124
vn 0.22265880 0.95504008 -0.19575881
vn 0.22265880 0.95504008 -0.19575881
vn 0.29782074 0.91801008 -0.26184024
vn 0.29782074 0.91801008 -0.26184024
vn 0.29782074 0.91801008 -0.26184024
vn 0.29782074 0.91801008 -0.26184024
vn 0.33074505 0.89780326 -0.29078688
vn 0.33074505 0.89780326 -0.29078688
vn 0.29844094 0.91765290 -0.26238551
vn 0.29844094 0.91765290 -0.26238551
vn 0.22434165 0.95434158 -0.19723835
vn 0.22434165 0.95434158 -0.19723835
vn 0.22434165 0.95434158 -0.19723835
vn 0.22434165 0.95434158 -0.19723835
vn 0.23794150 0.95409190 -0.18191342
vn 0.23802511 0.95409524 -0.18178646
vn 0.27147821 0.95350687 -0.13085961
vn 0.27153246 0.95351372 -0.13069701
vn 0.27113164 0.95365419 -0.13050408
vn 0.27104025 0.95366040 -0.13064850
vn 0.36080848 0.91621891 -0.17424166
vn 0.36090377 0.91623394 -0.17396507
vn 0.36036608 0.91649471 -0.17370589
vn 0.36021224 0.91650818 -0.17395373
vn 0.39938515 0.89602389 -0.19399146
vn 0.39855910 0.89647837 -0.19359023
vn 0.43956434 0.89565147 -0.06776158
vn 0.43964578 0.89563297 -0.06747716
vn 0.43937313 0.89576991 -0.06743531
vn 0.43936432 0.89575194 -0.06773075
vn 0.39613334 0.91619479 -0.06054325
vn 0.39581090 0.91633739 -0.06049397
vn 0.39678560 0.91586564 -0.06124807
vn 0.39661754 0.91594016 -0.06122213
vn 0.31633615 0.91722137 -0.24214955
vn 0.31646906 0.91722815 -0.24195010
vn 0.31596134 0.91742623 -0.24186265
vn 0.35014946 0.89726298 -0.26891354
vn 0.34969220 0.89754645 -0.26856237
vn 0.31508321 0.91754913 -0.24254108
vn 0.35949886 0.91649144 -0.17551070
vn 0.35855906 0.91694724 -0.17505188
vn 0.29641833 0.95398312 -0.04530325
vn 0.29652755 0.95396615 -0.04494444
vn 0.29616177 0.95408238 -0.04488900
vn 0.29615677 0.95406625 -0.04526328
vn 0.09332866 0.99302368 -0.07206756
vn 0.09315899 0.99302525 -0.07226513
vn 0.08843999 0.99304203 -0.07775533
vn 0.08843999 0.99304203 -0.07775533
vn 0.11773566 0.99289223 -0.01741651
vn 0.11773477 0.99288473 -0.01784496
vn 0.11773406 0.99287875 -0.01817915
vn 0.11773401 0.99287827 -0.01820567
vn 0.29628271 0.95400400 -0.04574859
vn 0.29630604 0.95400042 -0.04567200
vn 0.29615158 0.95404952 -0.04564819
vn 0.29615049 0.95404603 -0.04572817
vn 0.23605087 0.95478967 -0.18071155
vn 0.23618233 0.95479493 -0.18051193
vn 0.39598892 0.91622447 -0.06103691
vn 0.39602577 0.91621692 -0.06091096
vn 0.39580168 0.91631604 -0.06087650
vn 0.39579850 0.91630869 -0.06100756
vn 0.31548310 0.91757006 -0.24194132
vn 0.31566821 0.91757959 -0.24166356
vn 0.43973005 0.89561374 -0.06718269
vn 0.43938221 0.89578842 -0.06712955
vn 0.34988979 0.89753968 -0.26832752
vn 0.34985517 0.89724624 -0.26935207
vn 0.39705909 0.91580918 -0.06031270
vn 0.39664106 0.91599449 -0.06024920
vn 0.31524740 0.91744866 -0.24270770
vn 0.31547567 0.91717617 -0.24343990
vn 0.29873500 0.95325668 -0.04537741
vn 0.29885905 0.95323713 -0.04496946
vn 0.29840003 0.95338417 -0.04490039
vn 0.29839429 0.95336584 -0.04532566
vn 0.23699731 0.95405265 -0.18334617
vn 0.23720045 0.95406133 -0.18303805
vn 0.09670142 0.99249799 -0.07481028
vn 0.09659691 0.99249898 -0.07493199
vn 0.09170388 0.99251701 -0.08062490
vn 0.09170388 0.99251701 -0.08062490
vn 0.09731818 0.99247419 -0.07432463
vn 0.09734602 0.99247467 -0.07428182
vn 0.12207933 0.99235604 -0.01805906
vn 0.12207864 0.99235043 -0.01836923
vn 0.29850775 0.95329202 -0.04612428
vn 0.29852125 0.95328994 -0.04607993
vn 0.29838427 0.95333384 -0.04605878
vn 0.29838363 0.95333180 -0.04610510
s 1
usemtl Grass
f 1/1/1 2/2/2 4/4/4
f 2/211/2 8/213/144 50/214/143
f 50/199/143 9/201/142 47/202/141
f 47/195/141 10/197/140 48/198/139
f 48/191/139 11/193/15 12/194/14
f 12/14/14 5/16/16 13/17/17
f 5/204/16 6/205/145 66/206/146
f 13/203/17 5/204/16 66/206/146
f 12/14/14 11/15/15 5/16/16
f 48/191/139 10/192/140 11/193/15
f 47/195/141 9/196/142 10/197/140
f 50/199/143 8/200/144 9/201/142
f 2/2/2 3/3/3 4/4/4
f 2/211/2 1/212/1 8/213/144
s 2
f 6/6/6 5/5/5 11/13/13
f 7/7/7 11/13/13 10/12/12
f 1/9/9 4/8/8 7/7/7
f 7/7/7 8/10/10 1/9/9
f 7/7/7 9/11/11 8/10/10
f 7/7/7 10/12/12 9/11/11
f 7/7/7 6/6/6 11/13/13
s 3
f 14/18/18 12/19/19 13/20/20
f 14/18/18 13/20/20 15/21/21
s 4
f 16/22/22 14/23/23 15/24/24
f 18/26/26 16/27/22 17/28/25
f 20/30/28 18/31/26 19/32/27
f 20/30/28 19/32/27 21/33/29
f 18/26/26 17/28/25 19/29/27
f 16/22/22 15/24/24 17/25/25
s 5
f 22/34/30 20/35/31 21/36/32
f 22/34/30 21/36/32 23/37/33
s 6
f 24/38/34 22/39/35 23/40/36
f 23/144/36 61/145/111 29/146/112
f 25/143/37 23/144/36 29/146/112
f 30/147/108 40/148/107 22/149/35
f 31/135/106 38/136/105 40/137/107
f 32/131/50 34/132/49 38/133/105
f 26/51/47 33/52/48 34/53/49
f 26/140/47 27/141/109 60/142/110
f 33/139/48 26/140/47 60/142/110
f 26/51/47 34/53/49 32/54/50
f 32/131/50 38/133/105 31/134/106
f 31/135/106 40/137/107 30/138/108
f 30/147/108 22/149/35 24/150/34
f 24/38/34 23/40/36 25/41/37
s 7
f 27/43/39 26/42/38 32/50/46
f 28/44/40 32/50/46 31/49/45
f 25/46/42 29/45/41 28/44/40
f 28/44/40 24/47/43 25/46/42
f 28/44/40 30/48/44 24/47/43
f 28/44/40 31/49/45 30/48/44
f 28/44/40 27/43/39 32/50/46
s 8
f 33/55/51 35/56/52 36/57/53
f 33/55/51 36/57/53 34/58/54
s 9
f 34/59/55 36/60/56 37/61/57
f 38/63/58 37/64/57 39/65/59
f 40/155/60 39/156/59 20/157/117
f 40/155/60 20/157/117 22/158/118
f 38/63/58 39/65/59 40/66/60
f 34/59/55 37/61/57 38/62/58
s 10
f 37/67/61 41/68/62 42/69/63
f 39/163/64 42/164/63 18/165/123
f 42/171/127 16/173/128 18/174/123
f 44/179/131 14/181/132 16/182/128
f 44/179/131 46/180/68 14/181/132
f 43/75/65 46/77/68 44/78/66
f 55/115/96 43/117/65 41/118/97
f 55/115/96 53/116/93 43/117/65
f 53/111/93 45/113/67 43/114/95
f 53/111/93 49/112/94 45/113/67
f 43/75/65 45/76/67 46/77/68
f 42/171/127 44/172/66 16/173/128
f 39/163/64 18/165/123 20/166/124
f 36/119/98 55/120/96 41/121/62
f 41/71/62 44/73/66 42/74/63
f 41/71/62 43/72/65 44/73/66
f 36/119/98 41/121/62 37/122/61
f 37/67/61 42/69/63 39/70/64
s 11
f 45/79/69 47/80/70 48/81/71
f 46/187/72 48/188/71 12/189/137
f 46/187/72 12/189/137 14/190/138
f 49/83/73 50/84/74 47/85/70
f 49/83/73 47/85/70 45/86/69
f 45/79/69 48/81/71 46/82/72
s 12
f 51/87/75 2/88/76 50/89/77
f 51/87/75 50/89/77 49/90/78
s 13
f 52/91/79 51/92/80 49/93/81
f 54/95/83 52/96/79 53/97/82
f 35/123/99 54/124/83 55/125/84
f 35/123/99 55/125/84 36/126/100
f 54/95/83 53/97/82 55/98/84
f 52/91/79 49/93/81 53/94/82
s 14
f 52/99/85 54/100/86 57/102/88
f 54/103/86 35/104/89 56/106/87
f 35/104/89 58/105/90 56/106/87
f 54/100/86 56/101/87 57/102/88
f 52/108/85 57/109/88 59/110/92
f 51/107/91 52/108/85 59/110/92
s 15
f 35/127/101 33/128/102 58/130/104
f 33/128/102 60/129/103 58/130/104
s 16
f 23/151/113 21/152/114 61/154/116
f 21/152/114 62/153/115 61/154/116
s 17
f 21/159/119 19/160/120 62/162/122
f 19/167/120 17/168/125 63/170/121
f 17/175/125 15/176/129 64/178/126
f 15/176/129 65/177/130 64/178/126
f 17/168/125 64/169/126 63/170/121
f 19/160/120 63/161/121 62/162/122
s 18
f 15/183/133 13/184/134 65/186/136
f 13/184/134 66/185/135 65/186/136
s 19
f 2/207/147 51/208/148 3/210/150
f 51/208/148 59/209/149 3/210/150
