mtllib Terrain_Cliff_2_Tall_Corner_Inner_1x1.mtl
o Grass
g Grass
v 0.10825318 1.92500000 0.17852540
v 0.12500000 2.05000000 0.14951905
v 0.50000000 2.05000000 0.25000000
v 0.50000000 1.92500000 0.28349365
v 0.06250000 1.83349365 0.25777223
v 0.50000000 1.83349365 0.37500000
v 0.50000000 1.80000000 0.50000000
v -0.25777223 1.83349365 -0.06250000
v -0.17852540 1.92500000 -0.10825318
v -0.37500000 1.83349365 -0.50000000
v -0.28349365 1.92500000 -0.50000000
v -0.14951905 2.05000000 -0.12500000
v -0.25000000 2.05000000 -0.50000000
v -0.14951905 2.25000000 -0.12500000
v -0.25000000 2.25000000 -0.50000000
v -0.17852540 2.37500000 -0.10825318
v -0.28349365 2.37500000 -0.50000000
v -0.25777223 2.46650635 -0.06250000
v -0.37500000 2.46650635 -0.50000000
v -0.36602540 2.50000000 -0.00000000
v -0.50000000 2.50000000 -0.50000000
v -0.00000000 2.50000000 0.36602540
v 0.50000000 2.50000000 0.50000000
v -0.50000000 2.50000000 0.50000000
v 0.06250000 2.46650635 0.25777223
v 0.50000000 2.46650635 0.37500000
v 0.10825318 2.37500000 0.17852540
v 0.50000000 2.37500000 0.28349365
v 0.12500000 2.25000000 0.14951905
v 0.50000000 2.25000000 0.25000000
v -0.50000000 1.80000000 -0.50000000
vt 1.00000000 0.00000000
vt 1.00000000 1.00000000
vt 0.00000000 1.00000000
vt 0.00000000 0.00000000
vt 1.00000000 0.00000000
vt 1.00000000 1.00000000
vt 0.00000000 1.00000000
vt 0.00000000 0.00000000
vt 0.00000000 1.00000000
vt 0.00000000 0.00000000
vt 1.00000000 1.00000000
vt 0.00000000 1.00000000
vt 0.00000000 0.00000000
vt 1.00000000 0.00000000
vt 1.00000000 1.00000000
vt 0.00000000 1.00000000
vt 0.00000000 0.00000000
vt 1.00000000 0.00000000
vt 1.00000000 1.00000000
vt 0.00000000 1.00000000
vt 0.00000000 0.00000000
vt 1.00000000 0.00000000
vt 1.00000000 1.00000000
vt 0.00000000 1.00000000
vt 0.00000000 0.00000000
vt 1.00000000 0.00000000
vt 1.00000000 1.00000000
vt 0.00000000 1.00000000
vt 0.00000000 0.00000000
vt 1.00000000 0.00000000
vt 1.00000000 1.00000000
vt 0.00000000 1.00000000
vt 0.00000000 0.00000000
vt 1.00000000 0.00000000
vt 1.00000000 1.00000000
vt 0.00000000 1.00000000
vt 0.00000000 0.00000000
vt 1.00000000 0.00000000
vt 1.00000000 1.00000000
vt 0.86602540 0.50000000
vt 1.00000000 0.00000000
vt 1.00000000 1.00000000
vt 0.00000000 1.00000000
vt 0.50000000 0.86602540
vt 1.00000000 0.00000000
vt 1.00000000 1.00000000
vt 0.00000000 1.00000000
vt 0.00000000 0.00000000
vt 1.00000000 0.00000000
vt 1.00000000 1.00000000
vt 0.00000000 1.00000000
vt 0.00000000 0.00000000
vt 1.00000000 0.00000000
vt 1.00000000 1.00000000
vt 0.00000000 1.00000000
vt 0.00000000 0.00000000
vt 0.00000000 1.00000000
vt 0.00000000 0.00000000
vt 1.00000000 0.00000000
vt 1.00000000 1.00000000
vt 0.00000000 1.00000000
vt 0.00000000 0.00000000
vt 1.00000000 0.00000000
vt 1.00000000 1.00000000
vt 0.00000000 1.00000000
vt 0.00000000 0.00000000
vt 1.00000000 0.00000000
vt 1.00000000 1.00000000
vt 0.00000000 1.00000000
vt 0.00000000 0.00000000
vt 1.00000000 0.00000000
vt 1.00000000 1.00000000
vt 1.00000000 1.00000000
vt 0.00000000 1.00000000
vt 1.00000000 0.00000000
vt 0.00000000 1.00000000
vt 0.00000000 0.00000000
vt 1.00000000 0.00000000
vt 1.00000000 1.00000000
vt 1.00000000 0.00000000
vt 1.00000000 1.00000000
vt 0.00000000 1.00000000
vt 0.00000000 0.00000000
vn 0.25056281 -0.25056281 -0.93511313
vn 0.25056281 -0.25056281 -0.93511313
vn 0.25056281 -0.25056281 -0.93511313
vn 0.25056281 -0.25056281 -0.93511313
vn 0.18615679 -0.69474659 -0.69474659
vn 0.18615679 -0.69474659 -0.69474659
vn 0.18615679 -0.69474659 -0.69474659
vn 0.18615679 -0.69474659 -0.69474659
vn 0.06918418 -0.96361137 -0.25819889
vn 0.06918418 -0.96361137 -0.25819889
vn 0.06918418 -0.96361137 -0.25819889
vn 0.50858980 -0.69474659 -0.50858980
vn 0.50858980 -0.69474659 -0.50858980
vn 0.50858980 -0.69474659 -0.50858980
vn 0.50858980 -0.69474659 -0.50858980
vn 0.69474659 -0.69474659 -0.18615679
vn 0.69474659 -0.69474659 -0.18615679
vn 0.69474659 -0.69474659 -0.18615679
vn 0.69474659 -0.69474659 -0.18615679
vn 0.93511313 -0.25056281 -0.25056281
vn 0.93511313 -0.25056281 -0.25056281
vn 0.93511313 -0.25056281 -0.25056281
vn 0.93511313 -0.25056281 -0.25056281
vn 0.96592583 0.00000000 -0.25881905
vn 0.96592583 0.00000000 -0.25881905
vn 0.96592583 0.00000000 -0.25881905
vn 0.96592583 0.00000000 -0.25881905
vn 0.93511313 0.25056281 -0.25056281
vn 0.93511313 0.25056281 -0.25056281
vn 0.93511313 0.25056281 -0.25056281
vn 0.93511313 0.25056281 -0.25056281
vn 0.69474659 0.69474659 -0.18615679
vn 0.69474659 0.69474659 -0.18615679
vn 0.69474659 0.69474659 -0.18615679
vn 0.69474659 0.69474659 -0.18615679
vn 0.25819889 0.96361137 -0.06918418
vn 0.25819889 0.96361137 -0.06918418
vn 0.25819889 0.96361137 -0.06918418
vn 0.25819889 0.96361137 -0.06918418
vn 0.00000000 1.00000000 0.00000000
vn 0.00000000 1.00000000 0.00000000
vn 0.00000000 1.00000000 0.00000000
vn 0.00000000 1.00000000 0.00000000
vn 0.00000000 1.00000000 0.00000000
vn 0.06918418 0.96361137 -0.25819889
vn 0.06918418 0.96361137 -0.25819889
vn 0.06918418 0.96361137 -0.25819889
vn 0.06918418 0.96361137 -0.25819889
vn 0.18615679 0.69474659 -0.69474659
vn 0.18615679 0.69474659 -0.69474659
vn 0.18615679 0.69474659 -0.69474659
vn 0.18615679 0.69474659 -0.69474659
vn 0.25056281 0.25056281 -0.93511313
vn 0.25056281 0.25056281 -0.93511313
vn 0.25056281 0.25056281 -0.93511313
vn 0.25056281 0.25056281 -0.93511313
vn 0.18901471 0.96361137 -0.18901471
vn 0.18901471 0.96361137 -0.18901471
vn 0.18901471 0.96361137 -0.18901471
vn 0.18901471 0.96361137 -0.18901471
vn 0.50858980 0.69474659 -0.50858980
vn 0.50858980 0.69474659 -0.50858980
vn 0.50858980 0.69474659 -0.50858980
vn 0.50858980 0.69474659 -0.50858980
vn 0.68455032 0.25056281 -0.68455032
vn 0.68455032 0.25056281 -0.68455032
vn 0.68455032 0.25056281 -0.68455032
vn 0.68455032 0.25056281 -0.68455032
vn 0.70710678 0.00000000 -0.70710678
vn 0.70710678 0.00000000 -0.70710678
vn 0.70710678 0.00000000 -0.70710678
vn 0.70710678 0.00000000 -0.70710678
vn 0.25819889 -0.96361137 -0.06918418
vn 0.25819889 -0.96361137 -0.06918418
vn 0.25819889 -0.96361137 -0.06918418
vn 0.68455032 -0.25056281 -0.68455032
vn 0.68455032 -0.25056281 -0.68455032
vn 0.68455032 -0.25056281 -0.68455032
vn 0.68455032 -0.25056281 -0.68455032
vn 0.25881905 0.00000000 -0.96592583
vn 0.25881905 0.00000000 -0.96592583
vn 0.25881905 0.00000000 -0.96592583
vn 0.25881905 0.00000000 -0.96592583
s 1
usemtl Grass
f 1/1/1 2/2/2 3/3/3
f 1/1/1 3/3/3 4/4/4
s 2
f 5/5/5 1/6/6 4/7/7
f 5/5/5 4/7/7 6/8/8
s 3
f 6/9/9 7/10/10 5/11/11
s 4
f 1/12/12 5/13/13 9/15/15
f 5/13/13 8/14/14 9/15/15
s 5
f 9/16/16 8/17/17 11/19/19
f 8/17/17 10/18/18 11/19/19
s 6
f 12/20/20 9/21/21 13/23/23
f 9/21/21 11/22/22 13/23/23
s 7
f 14/24/24 12/25/25 15/27/27
f 12/25/25 13/26/26 15/27/27
s 8
f 16/28/28 14/29/29 15/30/30
f 16/28/28 15/30/30 17/31/31
s 9
f 18/32/32 16/33/33 17/34/34
f 18/32/32 17/34/34 19/35/35
s 10
f 20/36/36 18/37/37 19/38/38
f 20/36/36 19/38/38 21/39/39
s 11
f 20/44/44 21/43/43 24/42/42
f 24/42/42 23/41/41 22/40/40
f 22/40/40 20/44/44 24/42/42
s 12
f 25/45/45 22/46/46 26/48/48
f 22/46/46 23/47/47 26/48/48
s 13
f 27/49/49 25/50/50 28/52/52
f 25/50/50 26/51/51 28/52/52
s 14
f 29/53/53 27/54/54 30/56/56
f 27/54/54 28/55/55 30/56/56
s 15
f 22/57/57 25/58/58 18/59/59
f 22/57/57 18/59/59 20/60/60
s 16
f 25/61/61 27/62/62 16/63/63
f 25/61/61 16/63/63 18/64/64
s 17
f 27/65/65 29/66/66 14/67/67
f 27/65/65 14/67/67 16/68/68
s 18
f 29/69/69 2/70/70 14/72/72
f 2/70/70 12/71/71 14/72/72
s 19
f 10/73/73 8/74/74 31/75/75
s 20
f 2/76/76 1/77/77 12/79/79
f 1/77/77 9/78/78 12/79/79
s 21
f 2/80/80 29/81/81 3/83/83
f 29/81/81 30/82/82 3/83/83
o Rock
g Rock
v 0.50000000 1.50000000 0.50000000
v 0.50000000 1.80000000 0.50000000
v 0.06250000 1.83349365 0.25777223
v 0.06250000 1.50000000 0.25777223
v -0.25777223 1.83349365 -0.06250000
v -0.25777223 1.50000000 -0.06250000
v -0.50000000 1.80000000 -0.50000000
v -0.50000000 1.50000000 -0.50000000
v -0.16265237 0.79289322 -0.11741748
v -0.39016504 0.79289322 -0.50000000
v 0.06698730 0.50000000 -0.25000000
v -0.10000000 0.50000000 -0.50000000
v 0.11741748 0.79289322 0.16265237
v 0.25000000 0.50000000 -0.06698730
v 0.50000000 0.79289322 0.39016504
v 0.50000000 0.50000000 0.10000000
vt 0.00000000 0.00000000
vt 0.89956736 0.00000000
vt 1.00000000 1.00000000
vt 0.00000000 1.00000000
vt 0.00000000 0.00000000
vt 1.00000000 0.00000000
vt 1.00000000 1.00000000
vt 0.00000000 1.00000000
vt 0.00000000 0.00000000
vt 1.00000000 0.00000000
vt 0.89956736 1.00000000
vt 0.00000000 1.00000000
vt 0.00000000 1.00000000
vt 0.00000000 0.00000000
vt 1.00000000 0.00000000
vt 1.00000000 1.00000000
vt 0.00000000 1.00000000
vt 0.00000000 0.00000000
vt 1.00000000 0.00000000
vt 1.00000000 1.00000000
vt 0.00000000 1.00000000
vt 0.00000000 0.00000000
vt 1.00000000 0.00000000
vt 1.00000000 1.00000000
vt 1.00000000 0.00000000
vt 1.00000000 1.00000000
vt 0.00000000 1.00000000
vt 0.00000000 0.00000000
vt 0.00000000 1.00000000
vt 0.00000000 0.00000000
vt 1.00000000 0.00000000
vt 1.00000000 1.00000000
vt 1.00000000 0.00000000
vt 1.00000000 1.00000000
vt 0.00000000 1.00000000
vt 0.00000000 0.00000000
vn 0.48437752 0.00000000 -0.87485908
vn 0.48437752 0.00000000 -0.87485908
vn 0.48437752 0.00000000 -0.87485908
vn 0.48437752 0.00000000 -0.87485908
vn 0.70710678 0.00000000 -0.70710678
vn 0.70710678 0.00000000 -0.70710678
vn 0.70710678 0.00000000 -0.70710678
vn 0.70710678 0.00000000 -0.70710678
vn 0.87485908 -0.00000000 -0.48437752
vn 0.87485908 -0.00000000 -0.48437752
vn 0.87485908 -0.00000000 -0.48437752
vn 0.87485908 -0.00000000 -0.48437752
vn 0.86449553 0.15346533 -0.47863960
vn 0.84932189 0.15347700 -0.50507142
vn 0.85194606 0.13233285 -0.50663195
vn 0.86689142 0.13465432 -0.47996612
vn 0.63719752 0.67111423 -0.37892613
vn 0.61704739 0.67035788 -0.41215631
vn 0.64181551 0.63583727 -0.42870015
vn 0.65440636 0.64831084 -0.38915982
vn 0.53228878 0.65828361 -0.53228878
vn 0.53228878 0.65828361 -0.53228878
vn 0.53228878 0.65828361 -0.53228878
vn 0.53228878 0.65828361 -0.53228878
vn 0.41215631 0.67035788 -0.61704739
vn 0.37892613 0.67111423 -0.63719752
vn 0.38915982 0.64831084 -0.65440636
vn 0.42870015 0.63583727 -0.64181551
vn 0.69927977 0.14837657 -0.69927977
vn 0.69927977 0.14837657 -0.69927977
vn 0.69927977 0.14837657 -0.69927977
vn 0.69927977 0.14837657 -0.69927977
vn 0.50507142 0.15347700 -0.84932189
vn 0.47863960 0.15346533 -0.86449553
vn 0.47996612 0.13465432 -0.86689142
vn 0.50663195 0.13233285 -0.85194606
s 1
usemtl Rock
f 35/87/87 34/86/86 33/85/85
f 35/87/87 33/85/85 32/84/84
s 2
f 37/91/91 36/90/90 35/88/88
f 36/90/90 34/89/89 35/88/88
s 3
f 39/95/95 38/94/94 37/92/92
f 38/94/94 36/93/93 37/92/92
s 4
f 37/96/96 40/97/97 41/98/98
f 37/96/96 41/98/98 39/99/99
s 5
f 40/100/100 42/101/101 43/102/102
f 40/100/100 43/102/102 41/103/103
s 6
f 44/104/104 45/105/105 42/106/106
f 44/104/104 42/106/106 40/107/107
s 7
f 45/108/108 44/109/109 47/111/111
f 44/109/109 46/110/110 47/111/111
s 8
f 35/112/112 44/113/113 40/114/114
f 35/112/112 40/114/114 37/115/115
s 9
f 44/116/116 35/117/117 46/119/119
f 35/117/117 32/118/118 46/119/119
