mtllib Terrain_Cliff_1_Tall_Corner_Inner_2x2.mtl
o Grass
g Grass
v -0.01554446 1.05000000 -0.62500000
v -0.04455081 0.92500000 -0.60825318
v -0.22272258 0.92500000 -1.03839788
v -0.19037020 1.05000000 -1.04706667
v -0.28349365 0.92500000 -1.50000000
v -0.25000000 1.05000000 -1.50000000
v -0.19037020 1.25000000 -1.04706667
v -0.25000000 1.25000000 -1.50000000
v -0.22272258 1.37500000 -1.03839788
v -0.28349365 1.37500000 -1.50000000
v -0.31111092 1.46650635 -1.01471429
v -0.37500000 1.46650635 -1.50000000
v -0.43185165 1.50000000 -0.98236191
v -0.50000000 1.50000000 -1.50000000
v -0.23205081 1.50000000 -0.50000000
v 0.08578644 1.50000000 -0.08578644
v 0.50000000 1.50000000 0.23205081
v 0.98236191 1.50000000 0.43185165
v 1.50000000 1.50000000 0.50000000
v -0.50000000 1.50000000 0.50000000
v 1.01471429 1.46650635 0.31111092
v 1.50000000 1.46650635 0.37500000
v 1.03839788 1.37500000 0.22272258
v 1.50000000 1.37500000 0.28349365
v 1.04706667 1.25000000 0.19037020
v 1.50000000 1.25000000 0.25000000
v 1.04706667 1.05000000 0.19037020
v 1.50000000 1.05000000 0.25000000
v 1.03839788 0.92500000 0.22272258
v 1.50000000 0.92500000 0.28349365
v 1.50000000 0.83349365 0.37500000
v 1.42124412 0.83349365 0.36463159
v 1.03790692 0.92310309 0.22455485
v 0.63588880 0.83349365 0.15419627
v 0.56250000 0.83349365 0.12379763
v 0.60825318 0.92500000 0.04455081
v 0.55219322 0.82797026 0.14164950
v 0.49947961 0.83349365 0.07544039
v 0.23753823 0.92310309 -0.23753823
v 0.23887955 0.92500000 -0.23887955
v -0.07544039 0.83349365 -0.49947961
v -0.12379763 0.83349365 -0.56250000
v -0.14164950 0.82797026 -0.55219322
v -0.15419627 0.83349365 -0.63588880
v 0.62500000 1.05000000 0.01554446
v 0.26256313 1.05000000 -0.26256313
v 0.62500000 1.25000000 0.01554446
v 0.26256313 1.25000000 -0.26256313
v -0.01554446 1.25000000 -0.62500000
v 0.23887955 1.37500000 -0.23887955
v -0.04455081 1.37500000 -0.60825318
v 0.17417479 1.46650635 -0.17417479
v -0.12379763 1.46650635 -0.56250000
v 0.56250000 1.46650635 0.12379763
v 0.60825318 1.37500000 0.04455081
v 1.50000000 0.82797026 0.39561356
v -0.22455485 0.92310309 -1.03790692
v -0.36463159 0.83349365 -1.42124412
v -0.37500000 0.83349365 -1.50000000
v -0.39561356 0.82797026 -1.50000000
vt 0.00000000 1.00000000
vt 0.00000000 0.00000000
vt 1.00000000 0.00000000
vt 1.00000000 1.00000000
vt 0.00000000 1.00000000
vt 0.00000000 0.00000000
vt 1.00000000 0.00000000
vt 1.00000000 1.00000000
vt 0.00000000 1.00000000
vt 0.00000000 0.00000000
vt 1.00000000 0.00000000
vt 1.00000000 1.00000000
vt 0.00000000 1.00000000
vt 0.00000000 0.00000000
vt 1.00000000 0.00000000
vt 1.00000000 1.00000000
vt 0.00000000 1.00000000
vt 0.00000000 0.00000000
vt 1.00000000 0.00000000
vt 1.00000000 1.00000000
vt 0.00000000 1.00000000
vt 0.00000000 0.00000000
vt 1.00000000 0.00000000
vt 1.00000000 1.00000000
vt 0.25881905 0.96592583
vt 0.50000000 0.86602540
vt 0.70710678 0.70710678
vt 0.86602540 0.50000000
vt 0.96592583 0.25881905
vt 1.00000000 0.00000000
vt 1.00000000 1.00000000
vt 0.00000000 1.00000000
vt 1.00000000 0.00000000
vt 1.00000000 1.00000000
vt 0.00000000 1.00000000
vt 0.00000000 0.00000000
vt 1.00000000 0.00000000
vt 1.00000000 1.00000000
vt 0.00000000 1.00000000
vt 0.00000000 0.00000000
vt 1.00000000 0.00000000
vt 1.00000000 1.00000000
vt 0.00000000 1.00000000
vt 0.00000000 0.00000000
vt 1.00000000 0.00000000
vt 1.00000000 1.00000000
vt 0.00000000 1.00000000
vt 0.00000000 0.00000000
vt 1.00000000 0.00000000
vt 1.00000000 1.00000000
vt 0.00000000 1.00000000
vt 0.00000000 0.00000000
vt 0.00000000 0.00000000
vt 0.16228766 0.00000000
vt 1.00000000 0.97927024
vt 1.00000000 1.00000000
vt 0.00000000 1.00000000
vt 0.00000000 1.00000000
vt 0.00000000 0.97927024
vt 0.83771234 0.00000000
vt 1.00000000 0.00000000
vt 1.00000000 1.00000000
vt 1.00000000 1.00000000
vt 0.00000000 1.00000000
vt 1.00000000 0.00000000
vt 0.00000000 1.00000000
vt 0.00000000 0.00000000
vt 1.00000000 1.00000000
vt 0.00000000 0.00000000
vt 0.16228766 0.00000000
vt 1.00000000 0.97927024
vt 1.00000000 1.00000000
vt 0.00000000 1.00000000
vt 0.00000000 1.00000000
vt 0.00000000 0.97927024
vt 0.83771234 0.00000000
vt 1.00000000 0.00000000
vt 1.00000000 1.00000000
vt 1.00000000 1.00000000
vt 0.00000000 1.00000000
vt 1.00000000 0.00000000
vt 0.00000000 1.00000000
vt 0.00000000 0.00000000
vt 1.00000000 1.00000000
vt 0.00000000 1.00000000
vt 0.00000000 0.00000000
vt 1.00000000 0.00000000
vt 1.00000000 1.00000000
vt 0.00000000 1.00000000
vt 0.00000000 0.00000000
vt 1.00000000 0.00000000
vt 1.00000000 1.00000000
vt 0.00000000 1.00000000
vt 0.00000000 0.00000000
vt 1.00000000 0.00000000
vt 1.00000000 1.00000000
vt 0.00000000 1.00000000
vt 0.00000000 0.00000000
vt 1.00000000 0.00000000
vt 1.00000000 1.00000000
vt 0.00000000 1.00000000
vt 0.00000000 0.00000000
vt 1.00000000 0.00000000
vt 1.00000000 1.00000000
vt 0.00000000 1.00000000
vt 0.00000000 0.00000000
vt 1.00000000 0.00000000
vt 1.00000000 1.00000000
vt 0.00000000 1.00000000
vt 0.00000000 0.00000000
vt 1.00000000 0.00000000
vt 1.00000000 1.00000000
vt 0.00000000 1.00000000
vt 0.00000000 0.00000000
vt 1.00000000 1.00000000
vt 0.00000000 1.00000000
vt 0.00000000 0.00000000
vt 1.00000000 0.00000000
vt 1.00000000 1.00000000
vt 0.00000000 1.00000000
vt 0.00000000 0.00000000
vt 1.00000000 0.00000000
vt 1.00000000 1.00000000
vt 0.00000000 1.00000000
vt 0.00000000 0.00000000
vt 1.00000000 0.00000000
vt 1.00000000 1.00000000
vt 0.00000000 1.00000000
vt 0.00000000 0.00000000
vt 1.00000000 0.00000000
vt 1.00000000 1.00000000
vt 0.00000000 1.00000000
vt 0.00000000 0.00000000
vt 1.00000000 0.00000000
vt 1.00000000 1.00000000
vt 0.00000000 1.00000000
vt 0.00000000 0.00000000
vt 1.00000000 0.00000000
vt 1.00000000 1.00000000
vt 0.00000000 1.00000000
vt 0.00000000 0.00000000
vt 1.00000000 0.00000000
vt 1.00000000 1.00000000
vt 0.00000000 1.00000000
vt 0.00000000 0.00000000
vt 1.00000000 0.00000000
vt 1.00000000 1.00000000
vt 0.00000000 1.00000000
vt 0.00000000 0.00000000
vt 1.00000000 0.00000000
vt 1.00000000 1.00000000
vt 0.00000000 1.00000000
vt 0.00000000 0.00000000
vt 1.00000000 0.00000000
vt 1.00000000 1.00000000
vt 0.00000000 1.00000000
vt 0.00000000 0.97927024
vt 0.83771234 0.00000000
vt 1.00000000 0.00000000
vt 1.00000000 1.00000000
vt 1.00000000 1.00000000
vt 0.00000000 1.00000000
vt 1.00000000 0.00000000
vt 0.00000000 1.00000000
vt 0.00000000 0.00000000
vt 1.00000000 0.00000000
vt 1.00000000 1.00000000
vt 0.00000000 1.00000000
vt 0.00000000 0.00000000
vt 1.00000000 0.00000000
vt 1.00000000 1.00000000
vt 0.00000000 0.00000000
vt 0.16228766 0.00000000
vt 1.00000000 0.97927024
vt 1.00000000 1.00000000
vt 0.00000000 1.00000000
vn 0.89290877 -0.25675137 -0.36985492
vn 0.89290877 -0.25675137 -0.36985492
vn 0.89290877 -0.25675137 -0.36985492
vn 0.89290877 -0.25675137 -0.36985492
vn 0.95820914 -0.25675137 -0.12615063
vn 0.95820914 -0.25675137 -0.12615063
vn 0.95820914 -0.25675137 -0.12615063
vn 0.95820914 -0.25675137 -0.12615063
vn 0.99144486 0.00000000 -0.13052619
vn 0.99144486 0.00000000 -0.13052619
vn 0.99144486 0.00000000 -0.13052619
vn 0.99144486 0.00000000 -0.13052619
vn 0.95820914 0.25675137 -0.12615063
vn 0.95820914 0.25675137 -0.12615063
vn 0.95820914 0.25675137 -0.12615063
vn 0.95820914 0.25675137 -0.12615063
vn 0.70406259 0.70406259 -0.09269160
vn 0.70406259 0.70406259 -0.09269160
vn 0.70406259 0.70406259 -0.09269160
vn 0.70406259 0.70406259 -0.09269160
vn 0.25866892 0.96536557 -0.03405441
vn 0.25866892 0.96536557 -0.03405441
vn 0.25866892 0.96536557 -0.03405441
vn 0.25866892 0.96536557 -0.03405441
vn 0.00000000 1.00000000 0.00000000
vn 0.00000000 1.00000000 0.00000000
vn 0.00000000 1.00000000 0.00000000
vn 0.00000000 1.00000000 0.00000000
vn 0.00000000 1.00000000 0.00000000
vn 0.00000000 1.00000000 0.00000000
vn 0.00000000 1.00000000 0.00000000
vn 0.00000000 1.00000000 0.00000000
vn 0.03405441 0.96536557 -0.25866892
vn 0.03405441 0.96536557 -0.25866892
vn 0.03405441 0.96536557 -0.25866892
vn 0.03405441 0.96536557 -0.25866892
vn 0.09269160 0.70406259 -0.70406259
vn 0.09269160 0.70406259 -0.70406259
vn 0.09269160 0.70406259 -0.70406259
vn 0.09269160 0.70406259 -0.70406259
vn 0.12615063 0.25675137 -0.95820914
vn 0.12615063 0.25675137 -0.95820914
vn 0.12615063 0.25675137 -0.95820914
vn 0.12615063 0.25675137 -0.95820914
vn 0.13052619 0.00000000 -0.99144486
vn 0.13052619 0.00000000 -0.99144486
vn 0.13052619 0.00000000 -0.99144486
vn 0.13052619 0.00000000 -0.99144486
vn 0.12615063 -0.25675137 -0.95820914
vn 0.12615063 -0.25675137 -0.95820914
vn 0.12615063 -0.25675137 -0.95820914
vn 0.12615063 -0.25675137 -0.95820914
vn 0.09269160 -0.70406259 -0.70406259
vn 0.09269160 -0.70406259 -0.70406259
vn 0.09269160 -0.70406259 -0.70406259
vn 0.09269160 -0.70406259 -0.70406259
vn 0.09269160 -0.70406259 -0.70406259
vn 0.27175802 -0.70406259 -0.65608189
vn 0.27175802 -0.70406259 -0.65608189
vn 0.27175802 -0.70406259 -0.65608189
vn 0.27175802 -0.70406259 -0.65608189
vn 0.27175802 -0.70406259 -0.65608189
vn 0.09984248 -0.96536557 -0.24104107
vn 0.09984248 -0.96536557 -0.24104107
vn 0.09984248 -0.96536557 -0.24104107
vn 0.15882645 -0.96536557 -0.20698666
vn 0.15882645 -0.96536557 -0.20698666
vn 0.15882645 -0.96536557 -0.20698666
vn 0.43230458 -0.70406259 -0.56339029
vn 0.43230458 -0.70406259 -0.56339029
vn 0.43230458 -0.70406259 -0.56339029
vn 0.43230458 -0.70406259 -0.56339029
vn 0.43230458 -0.70406259 -0.56339029
vn 0.56339029 -0.70406259 -0.43230458
vn 0.56339029 -0.70406259 -0.43230458
vn 0.56339029 -0.70406259 -0.43230458
vn 0.56339029 -0.70406259 -0.43230458
vn 0.56339029 -0.70406259 -0.43230458
vn 0.20698666 -0.96536557 -0.15882645
vn 0.20698666 -0.96536557 -0.15882645
vn 0.20698666 -0.96536557 -0.15882645
vn 0.24104107 -0.96536557 -0.09984248
vn 0.24104107 -0.96536557 -0.09984248
vn 0.24104107 -0.96536557 -0.09984248
vn 0.58835422 -0.25675137 -0.76675814
vn 0.58835422 -0.25675137 -0.76675814
vn 0.58835422 -0.25675137 -0.76675814
vn 0.58835422 -0.25675137 -0.76675814
vn 0.60876143 0.00000000 -0.79335334
vn 0.60876143 0.00000000 -0.79335334
vn 0.60876143 0.00000000 -0.79335334
vn 0.60876143 0.00000000 -0.79335334
vn 0.79335334 0.00000000 -0.60876143
vn 0.79335334 0.00000000 -0.60876143
vn 0.79335334 0.00000000 -0.60876143
vn 0.79335334 0.00000000 -0.60876143
vn 0.76675814 0.25675137 -0.58835422
vn 0.76675814 0.25675137 -0.58835422
vn 0.76675814 0.25675137 -0.58835422
vn 0.76675814 0.25675137 -0.58835422
vn 0.56339029 0.70406259 -0.43230458
vn 0.56339029 0.70406259 -0.43230458
vn 0.56339029 0.70406259 -0.43230458
vn 0.56339029 0.70406259 -0.43230458
vn 0.43230458 0.70406259 -0.56339029
vn 0.43230458 0.70406259 -0.56339029
vn 0.43230458 0.70406259 -0.56339029
vn 0.43230458 0.70406259 -0.56339029
vn 0.58835422 0.25675137 -0.76675814
vn 0.58835422 0.25675137 -0.76675814
vn 0.58835422 0.25675137 -0.76675814
vn 0.58835422 0.25675137 -0.76675814
vn 0.03405441 -0.96536557 -0.25866892
vn 0.03405441 -0.96536557 -0.25866892
vn 0.03405441 -0.96536557 -0.25866892
vn 0.36985492 -0.25675137 -0.89290877
vn 0.36985492 -0.25675137 -0.89290877
vn 0.36985492 -0.25675137 -0.89290877
vn 0.36985492 -0.25675137 -0.89290877
vn 0.38268343 0.00000000 -0.92387953
vn 0.38268343 0.00000000 -0.92387953
vn 0.38268343 0.00000000 -0.92387953
vn 0.38268343 0.00000000 -0.92387953
vn 0.36985492 0.25675137 -0.89290877
vn 0.36985492 0.25675137 -0.89290877
vn 0.36985492 0.25675137 -0.89290877
vn 0.36985492 0.25675137 -0.89290877
vn 0.27175802 0.70406259 -0.65608189
vn 0.27175802 0.70406259 -0.65608189
vn 0.27175802 0.70406259 -0.65608189
vn 0.27175802 0.70406259 -0.65608189
vn 0.09984248 0.96536557 -0.24104107
vn 0.09984248 0.96536557 -0.24104107
vn 0.09984248 0.96536557 -0.24104107
vn 0.09984248 0.96536557 -0.24104107
vn 0.15882645 0.96536557 -0.20698666
vn 0.15882645 0.96536557 -0.20698666
vn 0.15882645 0.96536557 -0.20698666
vn 0.15882645 0.96536557 -0.20698666
vn 0.20698666 0.96536557 -0.15882645
vn 0.20698666 0.96536557 -0.15882645
vn 0.20698666 0.96536557 -0.15882645
vn 0.20698666 0.96536557 -0.15882645
vn 0.24104107 0.96536557 -0.09984248
vn 0.24104107 0.96536557 -0.09984248
vn 0.24104107 0.96536557 -0.09984248
vn 0.24104107 0.96536557 -0.09984248
vn 0.65608189 0.70406259 -0.27175802
vn 0.65608189 0.70406259 -0.27175802
vn 0.65608189 0.70406259 -0.27175802
vn 0.65608189 0.70406259 -0.27175802
vn 0.89290877 0.25675137 -0.36985492
vn 0.89290877 0.25675137 -0.36985492
vn 0.89290877 0.25675137 -0.36985492
vn 0.89290877 0.25675137 -0.36985492
vn 0.70406259 -0.70406259 -0.09269160
vn 0.70406259 -0.70406259 -0.09269160
vn 0.70406259 -0.70406259 -0.09269160
vn 0.70406259 -0.70406259 -0.09269160
vn 0.70406259 -0.70406259 -0.09269160
vn 0.25866892 -0.96536557 -0.03405441
vn 0.25866892 -0.96536557 -0.03405441
vn 0.25866892 -0.96536557 -0.03405441
vn 0.92387953 0.00000000 -0.38268343
vn 0.92387953 0.00000000 -0.38268343
vn 0.92387953 0.00000000 -0.38268343
vn 0.92387953 0.00000000 -0.38268343
vn 0.76675814 -0.25675137 -0.58835422
vn 0.76675814 -0.25675137 -0.58835422
vn 0.76675814 -0.25675137 -0.58835422
vn 0.76675814 -0.25675137 -0.58835422
vn 0.65608189 -0.70406259 -0.27175802
vn 0.65608189 -0.70406259 -0.27175802
vn 0.65608189 -0.70406259 -0.27175802
vn 0.65608189 -0.70406259 -0.27175802
vn 0.65608189 -0.70406259 -0.27175802
s 1
usemtl Grass
f 1/1/1 2/2/2 4/4/4
f 2/2/2 3/3/3 4/4/4
s 2
f 4/5/5 3/6/6 6/8/8
f 3/6/6 5/7/7 6/8/8
s 3
f 7/9/9 4/10/10 8/12/12
f 4/10/10 6/11/11 8/12/12
s 4
f 9/13/13 7/14/14 8/15/15
f 9/13/13 8/15/15 10/16/16
s 5
f 11/17/17 9/18/18 10/19/19
f 11/17/17 10/19/19 12/20/20
s 6
f 13/21/21 11/22/22 12/23/23
f 13/21/21 12/23/23 14/24/24
s 7
f 13/25/25 14/32/32 20/31/31
f 20/31/31 19/30/30 18/29/29
f 18/29/29 17/28/28 20/31/31
f 17/28/28 16/27/27 20/31/31
f 16/27/27 15/26/26 20/31/31
f 15/26/26 13/25/25 20/31/31
s 8
f 21/33/33 18/34/34 19/35/35
f 21/33/33 19/35/35 22/36/36
s 9
f 23/37/37 21/38/38 22/39/39
f 23/37/37 22/39/39 24/40/40
s 10
f 25/41/41 23/42/42 26/44/44
f 23/42/42 24/43/43 26/44/44
s 11
f 27/45/45 25/46/46 28/48/48
f 25/46/46 26/47/47 28/48/48
s 12
f 29/49/49 27/50/50 28/51/51
f 29/49/49 28/51/51 30/52/52
s 13
f 30/57/57 31/53/53 32/54/54
f 33/55/55 29/56/56 30/57/57
f 30/57/57 32/54/54 33/55/55
s 14
f 34/60/60 35/61/61 36/62/62
f 29/58/58 33/59/59 36/62/62
f 33/59/59 34/60/60 36/62/62
s 15
f 35/63/63 34/64/64 37/65/65
s 16
f 35/66/66 37/67/67 38/68/68
s 17
f 36/73/73 35/69/69 38/70/70
f 39/71/71 40/72/72 36/73/73
f 36/73/73 38/70/70 39/71/71
s 18
f 41/76/76 42/77/77 2/78/78
f 40/74/74 39/75/75 2/78/78
f 39/75/75 41/76/76 2/78/78
s 19
f 42/79/79 41/80/80 43/81/81
s 20
f 42/82/82 43/83/83 44/84/84
s 21
f 45/85/85 36/86/86 46/88/88
f 36/86/86 40/87/87 46/88/88
s 22
f 47/89/89 45/90/90 48/92/92
f 45/90/90 46/91/91 48/92/92
s 23
f 48/93/93 46/94/94 49/96/96
f 46/94/94 1/95/95 49/96/96
s 24
f 50/97/97 48/98/98 49/99/99
f 50/97/97 49/99/99 51/100/100
s 25
f 52/101/101 50/102/102 51/103/103
f 52/101/101 51/103/103 53/104/104
s 26
f 54/105/105 55/106/106 50/107/107
f 54/105/105 50/107/107 52/108/108
s 27
f 55/109/109 47/110/110 48/111/111
f 55/109/109 48/111/111 50/112/112
s 28
f 31/113/113 56/114/114 32/115/115
s 29
f 27/116/116 29/117/117 45/119/119
f 29/117/117 36/118/118 45/119/119
s 30
f 25/120/120 27/121/121 47/123/123
f 27/121/121 45/122/122 47/123/123
s 31
f 23/124/124 25/125/125 47/126/126
f 23/124/124 47/126/126 55/127/127
s 32
f 21/128/128 23/129/129 55/130/130
f 21/128/128 55/130/130 54/131/131
s 33
f 18/132/132 21/133/133 54/134/134
f 18/132/132 54/134/134 17/135/135
s 34
f 17/136/136 54/137/137 52/138/138
f 17/136/136 52/138/138 16/139/139
s 35
f 16/140/140 52/141/141 53/142/142
f 16/140/140 53/142/142 15/143/143
s 36
f 15/144/144 53/145/145 11/146/146
f 15/144/144 11/146/146 13/147/147
s 37
f 53/148/148 51/149/149 9/150/150
f 53/148/148 9/150/150 11/151/151
s 38
f 51/152/152 49/153/153 7/154/154
f 51/152/152 7/154/154 9/155/155
s 39
f 58/158/158 59/159/159 5/160/160
f 3/156/156 57/157/157 5/160/160
f 57/157/157 58/158/158 5/160/160
s 40
f 59/161/161 58/162/162 60/163/163
s 41
f 49/164/164 1/165/165 7/167/167
f 1/165/165 4/166/166 7/167/167
s 42
f 46/168/168 40/169/169 1/171/171
f 40/169/169 2/170/170 1/171/171
s 43
f 2/176/176 42/172/172 44/173/173
f 57/174/174 3/175/175 2/176/176
f 2/176/176 44/173/173 57/174/174
o Rock
g Rock
v 0.25183983 0.79289322 -0.25183983
v 0.43933983 0.50000000 -0.43933983
v 0.11435935 0.50000000 -0.70000000
v -0.13693094 0.79289322 -0.55491748
v 0.05111126 0.50000000 -1.11177143
v -0.20501850 0.79289322 -1.04314167
v -0.10000000 0.50000000 -1.50000000
v -0.39016504 0.79289322 -1.50000000
v -0.39561356 0.82797026 -1.50000000
v -0.36463159 0.83349365 -1.42124412
v -0.22455485 0.92310309 -1.03790692
v -0.15419627 0.83349365 -0.63588880
v -0.14164950 0.82797026 -0.55219322
v -0.07544039 0.83349365 -0.49947961
v 0.23753823 0.92310309 -0.23753823
v 0.49947961 0.83349365 0.07544039
v 0.55219322 0.82797026 0.14164950
v 0.55491748 0.79289322 0.13693094
v 0.63588880 0.83349365 0.15419627
v 1.03790692 0.92310309 0.22455485
v 1.04314167 0.79289322 0.20501850
v 1.42124412 0.83349365 0.36463159
v 1.50000000 0.82797026 0.39561356
v 1.50000000 0.79289322 0.39016504
v 1.11177143 0.50000000 -0.05111126
v 1.50000000 0.50000000 0.10000000
v 0.70000000 0.50000000 -0.11435935
vt 0.00000000 1.00000000
vt 0.00000000 0.00000000
vt 1.00000000 0.00000000
vt 1.00000000 1.00000000
vt 0.00000000 1.00000000
vt 0.00000000 0.00000000
vt 1.00000000 0.00000000
vt 1.00000000 1.00000000
vt 0.00000000 1.00000000
vt 0.00000000 0.00000000
vt 1.00000000 0.00000000
vt 1.00000000 1.00000000
vt 1.00000000 0.26938850
vt 0.82822791 0.31180761
vt 0.00000000 1.00000000
vt 0.00000000 0.00000000
vt 1.00000000 0.00000000
vt 1.00000000 0.00000000
vt 1.00000000 1.00000000
vt 0.17177209 0.31180761
vt 0.00000000 0.26938850
vt 0.00000000 0.00000000
vt 1.00000000 0.26938850
vt 0.82822791 0.31180761
vt 0.00000000 1.00000000
vt 0.00000000 0.00000000
vt 1.00000000 0.00000000
vt 1.00000000 1.00000000
vt 0.17177209 0.31180761
vt 0.00000000 0.26938850
vt 0.00000000 0.00000000
vt 1.00000000 0.00000000
vt 1.00000000 0.00000000
vt 1.00000000 0.26938850
vt 0.82822791 0.31180761
vt 0.00000000 1.00000000
vt 0.00000000 0.00000000
vt 1.00000000 1.00000000
vt 0.17177209 0.31180761
vt 0.00000000 0.26938850
vt 0.00000000 0.00000000
vt 1.00000000 0.00000000
vt 1.00000000 0.00000000
vt 1.00000000 1.00000000
vt 0.00000000 1.00000000
vt 0.00000000 0.00000000
vt 0.00000000 1.00000000
vt 0.00000000 0.00000000
vt 1.00000000 0.00000000
vt 1.00000000 1.00000000
vt 0.00000000 1.00000000
vt 0.00000000 0.00000000
vt 1.00000000 0.00000000
vt 1.00000000 1.00000000
vn 0.45734524 0.66833339 -0.58665646
vn 0.46508579 0.66893137 -0.57985000
vn 0.45972261 0.67833534 -0.57316340
vn 0.45288561 0.67631953 -0.58093590
vn 0.72954805 0.67631953 -0.10174249
vn 0.72623537 0.67833534 -0.11154976
vn 0.73470773 0.66893137 -0.11285111
vn 0.73673202 0.66833339 -0.10274436
vn 0.68940083 0.66833339 -0.27938678
vn 0.69270111 0.66893137 -0.26962194
vn 0.68471316 0.67833534 -0.26651276
vn 0.68267839 0.67631953 -0.27666244
vn 0.91759276 0.14252976 -0.37109135
vn 0.91740678 0.14422809 -0.37089494
vn 0.91694609 0.15240117 -0.36875975
vn 0.91596698 0.15235258 -0.37120504
vn 0.91732954 0.14248888 -0.37175724
vn 0.97885320 0.15235258 -0.13651049
vn 0.97847848 0.15240117 -0.13911774
vn 0.97994505 0.14422809 -0.13749895
vn 0.98020432 0.14252976 -0.13742185
vn 0.98030930 0.14248888 -0.13671356
vn 0.60911297 0.14252976 -0.78017092
vn 0.60905011 0.14422809 -0.77990783
vn 0.60971874 0.15240117 -0.77782835
vn 0.60764815 0.15235258 -0.77945649
vn 0.60855206 0.14248888 -0.78061598
vn 0.77782835 0.15240117 -0.60971874
vn 0.77990783 0.14422809 -0.60905011
vn 0.78017092 0.14252976 -0.60911297
vn 0.78061598 0.14248888 -0.60855206
vn 0.77945649 0.15235258 -0.60764815
vn 0.13671356 0.14248888 -0.98030930
vn 0.13742185 0.14252976 -0.98020432
vn 0.13749895 0.14422809 -0.97994505
vn 0.13911774 0.15240117 -0.97847848
vn 0.13651049 0.15235258 -0.97885320
vn 0.36875975 0.15240117 -0.91694609
vn 0.37089494 0.14422809 -0.91740678
vn 0.37109135 0.14252976 -0.91759276
vn 0.37175724 0.14248888 -0.91732954
vn 0.37120504 0.15235258 -0.91596698
vn 0.26962194 0.66893137 -0.69270111
vn 0.27938678 0.66833339 -0.68940083
vn 0.27666244 0.67631953 -0.68267839
vn 0.26651276 0.67833534 -0.68471316
vn 0.10274436 0.66833339 -0.73673202
vn 0.11285111 0.66893137 -0.73470773
vn 0.11154976 0.67833534 -0.72623537
vn 0.10174249 0.67631953 -0.72954805
vn 0.58093590 0.67631953 -0.45288561
vn 0.57316340 0.67833534 -0.45972261
vn 0.57985000 0.66893137 -0.46508579
vn 0.58665646 0.66833339 -0.45734524
s 1
usemtl Rock
f 61/177/177 62/178/178 63/179/179
f 61/177/177 63/179/179 64/180/180
s 2
f 64/181/181 63/182/182 66/184/184
f 63/182/182 65/183/183 66/184/184
s 3
f 66/185/185 65/186/186 67/187/187
f 66/185/185 67/187/187 68/188/188
s 4
f 68/193/193 69/189/189 70/190/190
f 70/190/190 71/191/191 66/192/192
f 70/190/190 66/192/192 68/193/193
s 5
f 72/196/196 73/197/197 64/198/198
f 66/194/194 72/196/196 64/198/198
f 66/194/194 71/195/195 72/196/196
s 6
f 64/203/203 73/199/199 74/200/200
f 74/200/200 75/201/201 61/202/202
f 74/200/200 61/202/202 64/203/203
s 7
f 76/205/205 77/206/206 78/207/207
f 76/205/205 78/207/207 61/208/208
f 61/208/208 75/204/204 76/205/205
s 8
f 78/209/209 77/210/210 79/211/211
f 79/211/211 80/212/212 81/213/213
f 78/209/209 79/211/211 81/213/213
s 9
f 82/215/215 83/216/216 84/217/217
f 82/215/215 84/217/217 81/218/218
f 81/218/218 80/214/214 82/215/215
s 10
f 85/219/219 81/220/220 86/222/222
f 81/220/220 84/221/221 86/222/222
s 11
f 81/223/223 85/224/224 87/225/225
f 81/223/223 87/225/225 78/226/226
s 12
f 78/227/227 87/228/228 61/230/230
f 87/228/228 62/229/229 61/230/230
