mtllib Terrain_Cliff_2_Tall_Corner_Inner_2x2.mtl
o Grass
g Grass
v 1.03839788 1.92500000 0.22272258
v 1.04706667 2.05000000 0.19037020
v 1.50000000 2.05000000 0.25000000
v 1.50000000 1.92500000 0.28349365
v 1.01471429 1.83349365 0.31111092
v 1.50000000 1.83349365 0.37500000
v 1.50000000 1.80000000 0.50000000
v 0.56250000 1.83349365 0.12379763
v 0.60825318 1.92500000 0.04455081
v 0.17417479 1.83349365 -0.17417479
v 0.23887955 1.92500000 -0.23887955
v -0.12379763 1.83349365 -0.56250000
v -0.04455081 1.92500000 -0.60825318
v -0.31111092 1.83349365 -1.01471429
v -0.22272258 1.92500000 -1.03839788
v -0.37500000 1.83349365 -1.50000000
v -0.28349365 1.92500000 -1.50000000
v -0.19037020 2.05000000 -1.04706667
v -0.25000000 2.05000000 -1.50000000
v -0.19037020 2.25000000 -1.04706667
v -0.25000000 2.25000000 -1.50000000
v -0.22272258 2.37500000 -1.03839788
v -0.28349365 2.37500000 -1.50000000
v -0.31111092 2.46650635 -1.01471429
v -0.37500000 2.46650635 -1.50000000
v -0.43185165 2.50000000 -0.98236191
v -0.50000000 2.50000000 -1.50000000
v -0.23205081 2.50000000 -0.50000000
v 0.08578644 2.50000000 -0.08578644
v 0.50000000 2.50000000 0.23205081
v 0.98236191 2.50000000 0.43185165
v 1.50000000 2.50000000 0.50000000
v -0.50000000 2.50000000 0.50000000
v 1.01471429 2.46650635 0.31111092
v 1.50000000 2.46650635 0.37500000
v 1.03839788 2.37500000 0.22272258
v 1.50000000 2.37500000 0.28349365
v 1.04706667 2.25000000 0.19037020
v 1.50000000 2.25000000 0.25000000
v 0.62500000 2.25000000 0.01554446
v 0.60825318 2.37500000 0.04455081
v 0.26256313 2.25000000 -0.26256313
v 0.23887955 2.37500000 -0.23887955
v -0.01554446 2.25000000 -0.62500000
v -0.04455081 2.37500000 -0.60825318
v 0.17417479 2.46650635 -0.17417479
v -0.12379763 2.46650635 -0.56250000
v 0.26256313 2.05000000 -0.26256313
v -0.01554446 2.05000000 -0.62500000
v 0.56250000 2.46650635 0.12379763
v 0.62500000 2.05000000 0.01554446
v -0.50000000 1.80000000 -1.50000000
v -0.23205081 1.80000000 -0.50000000
v 0.50000000 1.80000000 0.23205081
vt 1.00000000 0.00000000
vt 1.00000000 1.00000000
vt 0.00000000 1.00000000
vt 0.00000000 0.00000000
vt 1.00000000 0.00000000
vt 1.00000000 1.00000000
vt 0.00000000 1.00000000
vt 0.00000000 0.00000000
vt 0.00000000 1.00000000
vt 0.00000000 0.00000000
vt 1.00000000 1.00000000
vt 0.00000000 1.00000000
vt 0.00000000 0.00000000
vt 1.00000000 0.00000000
vt 1.00000000 1.00000000
vt 0.00000000 1.00000000
vt 0.00000000 0.00000000
vt 1.00000000 0.00000000
vt 1.00000000 1.00000000
vt 0.00000000 1.00000000
vt 0.00000000 0.00000000
vt 1.00000000 0.00000000
vt 1.00000000 1.00000000
vt 0.00000000 1.00000000
vt 0.00000000 0.00000000
vt 1.00000000 0.00000000
vt 1.00000000 1.00000000
vt 0.00000000 1.00000000
vt 0.00000000 0.00000000
vt 1.00000000 0.00000000
vt 1.00000000 1.00000000
vt 0.00000000 1.00000000
vt 0.00000000 0.00000000
vt 1.00000000 0.00000000
vt 1.00000000 1.00000000
vt 0.00000000 1.00000000
vt 0.00000000 0.00000000
vt 1.00000000 0.00000000
vt 1.00000000 1.00000000
vt 0.00000000 1.00000000
vt 0.00000000 0.00000000
vt 1.00000000 0.00000000
vt 1.00000000 1.00000000
vt 0.00000000 1.00000000
vt 0.00000000 0.00000000
vt 1.00000000 0.00000000
vt 1.00000000 1.00000000
vt 0.00000000 1.00000000
vt 0.00000000 0.00000000
vt 1.00000000 0.00000000
vt 1.00000000 1.00000000
vt 0.25881905 0.96592583
vt 0.50000000 0.86602540
vt 0.70710678 0.70710678
vt 0.86602540 0.50000000
vt 0.96592583 0.25881905
vt 1.00000000 0.00000000
vt 1.00000000 1.00000000
vt 0.00000000 1.00000000
vt 1.00000000 0.00000000
vt 1.00000000 1.00000000
vt 0.00000000 1.00000000
vt 0.00000000 0.00000000
vt 1.00000000 0.00000000
vt 1.00000000 1.00000000
vt 0.00000000 1.00000000
vt 0.00000000 0.00000000
vt 1.00000000 0.00000000
vt 1.00000000 1.00000000
vt 0.00000000 1.00000000
vt 0.00000000 0.00000000
vt 0.00000000 1.00000000
vt 0.00000000 0.00000000
vt 1.00000000 0.00000000
vt 1.00000000 1.00000000
vt 0.00000000 1.00000000
vt 0.00000000 0.00000000
vt 1.00000000 0.00000000
vt 1.00000000 1.00000000
vt 0.00000000 1.00000000
vt 0.00000000 0.00000000
vt 1.00000000 0.00000000
vt 1.00000000 1.00000000
vt 0.00000000 1.00000000
vt 0.00000000 0.00000000
vt 1.00000000 0.00000000
vt 1.00000000 1.00000000
vt 0.00000000 1.00000000
vt 0.00000000 0.00000000
vt 1.00000000 0.00000000
vt 1.00000000 1.00000000
vt 0.00000000 1.00000000
vt 0.00000000 0.00000000
vt 1.00000000 0.00000000
vt 1.00000000 1.00000000
vt 0.00000000 1.00000000
vt 0.00000000 0.00000000
vt 1.00000000 0.00000000
vt 1.00000000 1.00000000
vt 0.00000000 1.00000000
vt 0.00000000 0.00000000
vt 1.00000000 0.00000000
vt 1.00000000 1.00000000
vt 0.00000000 1.00000000
vt 0.00000000 0.00000000
vt 1.00000000 0.00000000
vt 1.00000000 1.00000000
vt 0.00000000 1.00000000
vt 0.00000000 0.00000000
vt 1.00000000 0.00000000
vt 1.00000000 1.00000000
vt 0.00000000 1.00000000
vt 0.00000000 0.00000000
vt 1.00000000 0.00000000
vt 1.00000000 1.00000000
vt 0.00000000 1.00000000
vt 0.00000000 0.00000000
vt 1.00000000 0.00000000
vt 1.00000000 1.00000000
vt 0.00000000 1.00000000
vt 0.00000000 0.00000000
vt 1.00000000 0.00000000
vt 1.00000000 1.00000000
vt 0.00000000 1.00000000
vt 0.00000000 0.00000000
vt 1.00000000 0.00000000
vt 1.00000000 1.00000000
vt 0.00000000 1.00000000
vt 0.00000000 0.00000000
vt 1.00000000 0.00000000
vt 1.00000000 1.00000000
vt 0.00000000 1.00000000
vt 0.00000000 0.00000000
vt 1.00000000 0.00000000
vt 1.00000000 1.00000000
vt 1.00000000 1.00000000
vt 0.00000000 1.00000000
vt 1.00000000 0.00000000
vt 0.00000000 1.00000000
vt 0.00000000 0.00000000
vt 1.00000000 0.00000000
vt 1.00000000 1.00000000
vt 0.00000000 1.00000000
vt 0.00000000 0.00000000
vt 1.00000000 1.00000000
vt 0.00000000 1.00000000
vt 0.00000000 0.00000000
vt 1.00000000 0.00000000
vt 1.00000000 1.00000000
vt 1.00000000 1.00000000
vt 0.00000000 1.00000000
vt 1.00000000 0.00000000
vt 0.00000000 1.00000000
vt 0.00000000 0.00000000
vt 1.00000000 0.00000000
vt 1.00000000 1.00000000
vt 0.00000000 1.00000000
vt 0.00000000 0.00000000
vt 1.00000000 1.00000000
vt 1.00000000 1.00000000
vt 0.00000000 1.00000000
vt 1.00000000 0.00000000
vt 0.00000000 1.00000000
vt 0.00000000 0.00000000
vt 1.00000000 0.00000000
vt 1.00000000 1.00000000
vt 1.00000000 0.00000000
vt 1.00000000 1.00000000
vt 0.00000000 1.00000000
vt 0.00000000 0.00000000
vn 0.12615063 -0.25675137 -0.95820914
vn 0.12615063 -0.25675137 -0.95820914
vn 0.12615063 -0.25675137 -0.95820914
vn 0.12615063 -0.25675137 -0.95820914
vn 0.09269160 -0.70406259 -0.70406259
vn 0.09269160 -0.70406259 -0.70406259
vn 0.09269160 -0.70406259 -0.70406259
vn 0.09269160 -0.70406259 -0.70406259
vn 0.03405441 -0.96536557 -0.25866892
vn 0.03405441 -0.96536557 -0.25866892
vn 0.03405441 -0.96536557 -0.25866892
vn 0.27175802 -0.70406259 -0.65608189
vn 0.27175802 -0.70406259 -0.65608189
vn 0.27175802 -0.70406259 -0.65608189
vn 0.27175802 -0.70406259 -0.65608189
vn 0.43230458 -0.70406259 -0.56339029
vn 0.43230458 -0.70406259 -0.56339029
vn 0.43230458 -0.70406259 -0.56339029
vn 0.43230458 -0.70406259 -0.56339029
vn 0.56339029 -0.70406259 -0.43230458
vn 0.56339029 -0.70406259 -0.43230458
vn 0.56339029 -0.70406259 -0.43230458
vn 0.56339029 -0.70406259 -0.43230458
vn 0.65608189 -0.70406259 -0.27175802
vn 0.65608189 -0.70406259 -0.27175802
vn 0.65608189 -0.70406259 -0.27175802
vn 0.65608189 -0.70406259 -0.27175802
vn 0.70406259 -0.70406259 -0.09269160
vn 0.70406259 -0.70406259 -0.09269160
vn 0.70406259 -0.70406259 -0.09269160
vn 0.70406259 -0.70406259 -0.09269160
vn 0.95820914 -0.25675137 -0.12615063
vn 0.95820914 -0.25675137 -0.12615063
vn 0.95820914 -0.25675137 -0.12615063
vn 0.95820914 -0.25675137 -0.12615063
vn 0.99144486 0.00000000 -0.13052619
vn 0.99144486 0.00000000 -0.13052619
vn 0.99144486 0.00000000 -0.13052619
vn 0.99144486 0.00000000 -0.13052619
vn 0.95820914 0.25675137 -0.12615063
vn 0.95820914 0.25675137 -0.12615063
vn 0.95820914 0.25675137 -0.12615063
vn 0.95820914 0.25675137 -0.12615063
vn 0.70406259 0.70406259 -0.09269160
vn 0.70406259 0.70406259 -0.09269160
vn 0.70406259 0.70406259 -0.09269160
vn 0.70406259 0.70406259 -0.09269160
vn 0.25866892 0.96536557 -0.03405441
vn 0.25866892 0.96536557 -0.03405441
vn 0.25866892 0.96536557 -0.03405441
vn 0.25866892 0.96536557 -0.03405441
vn 0.00000000 1.00000000 0.00000000
vn 0.00000000 1.00000000 0.00000000
vn 0.00000000 1.00000000 0.00000000
vn 0.00000000 1.00000000 0.00000000
vn 0.00000000 1.00000000 0.00000000
vn 0.00000000 1.00000000 0.00000000
vn 0.00000000 1.00000000 0.00000000
vn 0.00000000 1.00000000 0.00000000
vn 0.03405441 0.96536557 -0.25866892
vn 0.03405441 0.96536557 -0.25866892
vn 0.03405441 0.96536557 -0.25866892
vn 0.03405441 0.96536557 -0.25866892
vn 0.09269160 0.70406259 -0.70406259
vn 0.09269160 0.70406259 -0.70406259
vn 0.09269160 0.70406259 -0.70406259
vn 0.09269160 0.70406259 -0.70406259
vn 0.12615063 0.25675137 -0.95820914
vn 0.12615063 0.25675137 -0.95820914
vn 0.12615063 0.25675137 -0.95820914
vn 0.12615063 0.25675137 -0.95820914
vn 0.36985492 0.25675137 -0.89290877
vn 0.36985492 0.25675137 -0.89290877
vn 0.36985492 0.25675137 -0.89290877
vn 0.36985492 0.25675137 -0.89290877
vn 0.58835422 0.25675137 -0.76675814
vn 0.58835422 0.25675137 -0.76675814
vn 0.58835422 0.25675137 -0.76675814
vn 0.58835422 0.25675137 -0.76675814
vn 0.76675814 0.25675137 -0.58835422
vn 0.76675814 0.25675137 -0.58835422
vn 0.76675814 0.25675137 -0.58835422
vn 0.76675814 0.25675137 -0.58835422
vn 0.56339029 0.70406259 -0.43230458
vn 0.56339029 0.70406259 -0.43230458
vn 0.56339029 0.70406259 -0.43230458
vn 0.56339029 0.70406259 -0.43230458
vn 0.79335334 0.00000000 -0.60876143
vn 0.79335334 0.00000000 -0.60876143
vn 0.79335334 0.00000000 -0.60876143
vn 0.79335334 0.00000000 -0.60876143
vn 0.43230458 0.70406259 -0.56339029
vn 0.43230458 0.70406259 -0.56339029
vn 0.43230458 0.70406259 -0.56339029
vn 0.43230458 0.70406259 -0.56339029
vn 0.60876143 0.00000000 -0.79335334
vn 0.60876143 0.00000000 -0.79335334
vn 0.60876143 0.00000000 -0.79335334
vn 0.60876143 0.00000000 -0.79335334
vn 0.38268343 0.00000000 -0.92387953
vn 0.38268343 0.00000000 -0.92387953
vn 0.38268343 0.00000000 -0.92387953
vn 0.38268343 0.00000000 -0.92387953
vn 0.27175802 0.70406259 -0.65608189
vn 0.27175802 0.70406259 -0.65608189
vn 0.27175802 0.70406259 -0.65608189
vn 0.27175802 0.70406259 -0.65608189
vn 0.09984248 0.96536557 -0.24104107
vn 0.09984248 0.96536557 -0.24104107
vn 0.09984248 0.96536557 -0.24104107
vn 0.09984248 0.96536557 -0.24104107
vn 0.15882645 0.96536557 -0.20698666
vn 0.15882645 0.96536557 -0.20698666
vn 0.15882645 0.96536557 -0.20698666
vn 0.15882645 0.96536557 -0.20698666
vn 0.20698666 0.96536557 -0.15882645
vn 0.20698666 0.96536557 -0.15882645
vn 0.20698666 0.96536557 -0.15882645
vn 0.20698666 0.96536557 -0.15882645
vn 0.24104107 0.96536557 -0.09984248
vn 0.24104107 0.96536557 -0.09984248
vn 0.24104107 0.96536557 -0.09984248
vn 0.24104107 0.96536557 -0.09984248
vn 0.65608189 0.70406259 -0.27175802
vn 0.65608189 0.70406259 -0.27175802
vn 0.65608189 0.70406259 -0.27175802
vn 0.65608189 0.70406259 -0.27175802
vn 0.89290877 0.25675137 -0.36985492
vn 0.89290877 0.25675137 -0.36985492
vn 0.89290877 0.25675137 -0.36985492
vn 0.89290877 0.25675137 -0.36985492
vn 0.92387953 0.00000000 -0.38268343
vn 0.92387953 0.00000000 -0.38268343
vn 0.92387953 0.00000000 -0.38268343
vn 0.92387953 0.00000000 -0.38268343
vn 0.25866892 -0.96536557 -0.03405441
vn 0.25866892 -0.96536557 -0.03405441
vn 0.25866892 -0.96536557 -0.03405441
vn 0.89290877 -0.25675137 -0.36985492
vn 0.89290877 -0.25675137 -0.36985492
vn 0.89290877 -0.25675137 -0.36985492
vn 0.89290877 -0.25675137 -0.36985492
vn 0.24104107 -0.96536557 -0.09984248
vn 0.24104107 -0.96536557 -0.09984248
vn 0.24104107 -0.96536557 -0.09984248
vn 0.76675814 -0.25675137 -0.58835422
vn 0.76675814 -0.25675137 -0.58835422
vn 0.76675814 -0.25675137 -0.58835422
vn 0.76675814 -0.25675137 -0.58835422
vn 0.20698666 -0.96536557 -0.15882645
vn 0.20698666 -0.96536557 -0.15882645
vn 0.20698666 -0.96536557 -0.15882645
vn 0.58835422 -0.25675137 -0.76675814
vn 0.58835422 -0.25675137 -0.76675814
vn 0.58835422 -0.25675137 -0.76675814
vn 0.58835422 -0.25675137 -0.76675814
vn 0.15882645 -0.96536557 -0.20698666
vn 0.15882645 -0.96536557 -0.20698666
vn 0.15882645 -0.96536557 -0.20698666
vn 0.09984248 -0.96536557 -0.24104107
vn 0.09984248 -0.96536557 -0.24104107
vn 0.09984248 -0.96536557 -0.24104107
vn 0.36985492 -0.25675137 -0.89290877
vn 0.36985492 -0.25675137 -0.89290877
vn 0.36985492 -0.25675137 -0.89290877
vn 0.36985492 -0.25675137 -0.89290877
vn 0.13052619 0.00000000 -0.99144486
vn 0.13052619 0.00000000 -0.99144486
vn 0.13052619 0.00000000 -0.99144486
vn 0.13052619 0.00000000 -0.99144486
s 1
usemtl Grass
f 1/1/1 2/2/2 3/3/3
f 1/1/1 3/3/3 4/4/4
s 2
f 5/5/5 1/6/6 4/7/7
f 5/5/5 4/7/7 6/8/8
s 3
f 6/9/9 7/10/10 5/11/11
s 4
f 1/12/12 5/13/13 9/15/15
f 5/13/13 8/14/14 9/15/15
s 5
f 9/16/16 8/17/17 11/19/19
f 8/17/17 10/18/18 11/19/19
s 6
f 11/20/20 10/21/21 13/23/23
f 10/21/21 12/22/22 13/23/23
s 7
f 13/24/24 12/25/25 15/27/27
f 12/25/25 14/26/26 15/27/27
s 8
f 15/28/28 14/29/29 17/31/31
f 14/29/29 16/30/30 17/31/31
s 9
f 18/32/32 15/33/33 19/35/35
f 15/33/33 17/34/34 19/35/35
s 10
f 20/36/36 18/37/37 21/39/39
f 18/37/37 19/38/38 21/39/39
s 11
f 22/40/40 20/41/41 21/42/42
f 22/40/40 21/42/42 23/43/43
s 12
f 24/44/44 22/45/45 23/46/46
f 24/44/44 23/46/46 25/47/47
s 13
f 26/48/48 24/49/49 25/50/50
f 26/48/48 25/50/50 27/51/51
s 14
f 26/52/52 27/59/59 33/58/58
f 33/58/58 32/57/57 31/56/56
f 31/56/56 30/55/55 33/58/58
f 30/55/55 29/54/54 33/58/58
f 29/54/54 28/53/53 33/58/58
f 28/53/53 26/52/52 33/58/58
s 15
f 34/60/60 31/61/61 32/62/62
f 34/60/60 32/62/62 35/63/63
s 16
f 36/64/64 34/65/65 35/66/66
f 36/64/64 35/66/66 37/67/67
s 17
f 38/68/68 36/69/69 39/71/71
f 36/69/69 37/70/70 39/71/71
s 18
f 36/72/72 38/73/73 40/74/74
f 36/72/72 40/74/74 41/75/75
s 19
f 41/76/76 40/77/77 42/78/78
f 41/76/76 42/78/78 43/79/79
s 20
f 43/80/80 42/81/81 44/82/82
f 43/80/80 44/82/82 45/83/83
s 21
f 46/84/84 43/85/85 45/86/86
f 46/84/84 45/86/86 47/87/87
s 22
f 42/88/88 48/89/89 44/91/91
f 48/89/89 49/90/90 44/91/91
s 23
f 50/92/92 41/93/93 43/94/94
f 50/92/92 43/94/94 46/95/95
s 24
f 40/96/96 51/97/97 42/99/99
f 51/97/97 48/98/98 42/99/99
s 25
f 38/100/100 2/101/101 40/103/103
f 2/101/101 51/102/102 40/103/103
s 26
f 34/104/104 36/105/105 41/106/106
f 34/104/104 41/106/106 50/107/107
s 27
f 31/108/108 34/109/109 50/110/110
f 31/108/108 50/110/110 30/111/111
s 28
f 30/112/112 50/113/113 46/114/114
f 30/112/112 46/114/114 29/115/115
s 29
f 29/116/116 46/117/117 47/118/118
f 29/116/116 47/118/118 28/119/119
s 30
f 28/120/120 47/121/121 24/122/122
f 28/120/120 24/122/122 26/123/123
s 31
f 47/124/124 45/125/125 22/126/126
f 47/124/124 22/126/126 24/127/127
s 32
f 45/128/128 44/129/129 20/130/130
f 45/128/128 20/130/130 22/131/131
s 33
f 44/132/132 49/133/133 20/135/135
f 49/133/133 18/134/134 20/135/135
s 34
f 16/136/136 14/137/137 52/138/138
s 35
f 49/139/139 13/140/140 18/142/142
f 13/140/140 15/141/141 18/142/142
s 36
f 12/143/143 53/144/144 14/145/145
s 37
f 48/146/146 11/147/147 49/149/149
f 11/147/147 13/148/148 49/149/149
s 38
f 12/150/150 10/151/151 53/152/152
s 39
f 51/153/153 9/154/154 48/156/156
f 9/154/154 11/155/155 48/156/156
s 40
f 8/157/157 54/158/158 10/159/159
s 41
f 8/160/160 5/161/161 54/162/162
s 42
f 2/163/163 1/164/164 51/166/166
f 1/164/164 9/165/165 51/166/166
s 43
f 2/167/167 38/168/168 3/170/170
f 38/168/168 39/169/169 3/170/170
o Rock
g Rock
v 1.04314167 0.79289322 0.20501850
v 1.01471429 1.50000000 0.31111092
v 1.50000000 1.50000000 0.50000000
v 1.50000000 0.79289322 0.39016504
v 0.55491748 0.79289322 0.13693094
v 0.50000000 1.50000000 0.23205081
v 1.01471429 1.83349365 0.31111092
v 0.50000000 1.80000000 0.23205081
v 0.17417479 1.83349365 -0.17417479
v 0.17417479 1.50000000 -0.17417479
v -0.23205081 1.80000000 -0.50000000
v -0.23205081 1.50000000 -0.50000000
v -0.31111092 1.83349365 -1.01471429
v -0.31111092 1.50000000 -1.01471429
v -0.50000000 1.80000000 -1.50000000
v -0.50000000 1.50000000 -1.50000000
v -0.20501850 0.79289322 -1.04314167
v -0.39016504 0.79289322 -1.50000000
v 0.05111126 0.50000000 -1.11177143
v -0.10000000 0.50000000 -1.50000000
v -0.13693094 0.79289322 -0.55491748
v 0.11435935 0.50000000 -0.70000000
v 0.25183983 0.79289322 -0.25183983
v 0.43933983 0.50000000 -0.43933983
v 0.70000000 0.50000000 -0.11435935
v 1.11177143 0.50000000 -0.05111126
v 1.50000000 0.50000000 0.10000000
v 1.50000000 1.80000000 0.50000000
vt 1.00000000 0.00000000
vt 1.00000000 1.00000000
vt 0.00000000 1.00000000
vt 0.00000000 0.00000000
vt 0.00000000 1.00000000
vt 0.00000000 0.00000000
vt 1.00000000 0.00000000
vt 1.00000000 1.00000000
vt 0.00000000 0.00000000
vt 1.00000000 0.00000000
vt 0.89956736 1.00000000
vt 0.00000000 1.00000000
vt 0.00000000 0.00000000
vt 0.89956736 0.00000000
vt 1.00000000 1.00000000
vt 0.00000000 1.00000000
vt 0.00000000 0.00000000
vt 1.00000000 0.00000000
vt 0.89956736 1.00000000
vt 0.00000000 1.00000000
vt 0.00000000 0.00000000
vt 0.89956736 0.00000000
vt 1.00000000 1.00000000
vt 0.00000000 1.00000000
vt 0.00000000 0.00000000
vt 1.00000000 0.00000000
vt 0.89956736 1.00000000
vt 0.00000000 1.00000000
vt 0.00000000 1.00000000
vt 0.00000000 0.00000000
vt 1.00000000 0.00000000
vt 1.00000000 1.00000000
vt 0.00000000 1.00000000
vt 0.00000000 0.00000000
vt 1.00000000 0.00000000
vt 1.00000000 1.00000000
vt 0.00000000 1.00000000
vt 0.00000000 0.00000000
vt 1.00000000 0.00000000
vt 1.00000000 1.00000000
vt 0.00000000 1.00000000
vt 0.00000000 0.00000000
vt 1.00000000 0.00000000
vt 1.00000000 1.00000000
vt 0.00000000 1.00000000
vt 0.00000000 0.00000000
vt 1.00000000 0.00000000
vt 1.00000000 1.00000000
vt 0.00000000 1.00000000
vt 0.00000000 0.00000000
vt 1.00000000 0.00000000
vt 1.00000000 1.00000000
vt 0.00000000 1.00000000
vt 0.00000000 0.00000000
vt 1.00000000 0.00000000
vt 1.00000000 1.00000000
vt 0.00000000 1.00000000
vt 0.00000000 0.00000000
vt 1.00000000 0.00000000
vt 1.00000000 1.00000000
vt 0.00000000 1.00000000
vt 0.00000000 0.00000000
vt 1.00000000 0.00000000
vt 1.00000000 1.00000000
vt 1.00000000 0.00000000
vt 1.00000000 1.00000000
vt 0.00000000 1.00000000
vt 0.00000000 0.00000000
vt 0.00000000 0.00000000
vt 0.89956736 0.00000000
vt 1.00000000 1.00000000
vt 0.00000000 1.00000000
vn 0.37120504 0.15235258 -0.91596698
vn 0.35847672 0.15259346 -0.92098300
vn 0.35898317 0.14325848 -0.92228417
vn 0.37175724 0.14248888 -0.91732954
vn 0.15004156 0.15259346 -0.97683303
vn 0.13651049 0.15235258 -0.97885320
vn 0.13671356 0.14248888 -0.98030930
vn 0.15025354 0.14325848 -0.97821311
vn 0.15181951 0.00000000 -0.98840823
vn 0.15181951 0.00000000 -0.98840823
vn 0.15181951 0.00000000 -0.98840823
vn 0.15181951 0.00000000 -0.98840823
vn 0.78007689 0.00000000 -0.62568367
vn 0.78007689 0.00000000 -0.62568367
vn 0.78007689 0.00000000 -0.62568367
vn 0.78007689 0.00000000 -0.62568367
vn 0.62568367 0.00000000 -0.78007689
vn 0.62568367 0.00000000 -0.78007689
vn 0.62568367 0.00000000 -0.78007689
vn 0.62568367 0.00000000 -0.78007689
vn 0.98840823 0.00000000 -0.15181951
vn 0.98840823 0.00000000 -0.15181951
vn 0.98840823 0.00000000 -0.15181951
vn 0.98840823 0.00000000 -0.15181951
vn 0.93189639 0.00000000 -0.36272457
vn 0.93189639 0.00000000 -0.36272457
vn 0.93189639 0.00000000 -0.36272457
vn 0.93189639 0.00000000 -0.36272457
vn 0.92098300 0.15259346 -0.35847672
vn 0.91596698 0.15235258 -0.37120504
vn 0.91732954 0.14248888 -0.37175724
vn 0.92228417 0.14325848 -0.35898317
vn 0.68940083 0.66833339 -0.27938678
vn 0.69270111 0.66893137 -0.26962194
vn 0.68471316 0.67833534 -0.26651276
vn 0.68267839 0.67631953 -0.27666244
vn 0.72954805 0.67631953 -0.10174249
vn 0.72623537 0.67833534 -0.11154976
vn 0.73470773 0.66893137 -0.11285111
vn 0.73673202 0.66833339 -0.10274436
vn 0.45734524 0.66833339 -0.58665646
vn 0.46508579 0.66893137 -0.57985000
vn 0.45972261 0.67833534 -0.57316340
vn 0.45288561 0.67631953 -0.58093590
vn 0.58093590 0.67631953 -0.45288561
vn 0.57316340 0.67833534 -0.45972261
vn 0.57985000 0.66893137 -0.46508579
vn 0.58665646 0.66833339 -0.45734524
vn 0.97821311 0.14325848 -0.15025354
vn 0.98030930 0.14248888 -0.13671356
vn 0.97885320 0.15235258 -0.13651049
vn 0.97683303 0.15259346 -0.15004156
vn 0.61835631 0.15259346 -0.77094144
vn 0.60764815 0.15235258 -0.77945649
vn 0.60855206 0.14248888 -0.78061598
vn 0.61922993 0.14325848 -0.77203063
vn 0.77203063 0.14325848 -0.61922993
vn 0.78061598 0.14248888 -0.60855206
vn 0.77945649 0.15235258 -0.60764815
vn 0.77094144 0.15259346 -0.61835631
vn 0.10274436 0.66833339 -0.73673202
vn 0.11285111 0.66893137 -0.73470773
vn 0.11154976 0.67833534 -0.72623537
vn 0.10174249 0.67631953 -0.72954805
vn 0.26962194 0.66893137 -0.69270111
vn 0.27938678 0.66833339 -0.68940083
vn 0.27666244 0.67631953 -0.68267839
vn 0.26651276 0.67833534 -0.68471316
vn 0.36272457 0.00000000 -0.93189639
vn 0.36272457 0.00000000 -0.93189639
vn 0.36272457 0.00000000 -0.93189639
vn 0.36272457 0.00000000 -0.93189639
s 1
usemtl Rock
f 55/171/171 56/172/172 58/174/174
f 56/172/172 57/173/173 58/174/174
s 2
f 56/175/175 55/176/176 59/177/177
f 56/175/175 59/177/177 60/178/178
s 3
f 60/182/182 62/181/181 56/179/179
f 62/181/181 61/180/180 56/179/179
s 4
f 64/186/186 63/185/185 62/184/184
f 64/186/186 62/184/184 60/183/183
s 5
f 66/190/190 65/189/189 64/187/187
f 65/189/189 63/188/188 64/187/187
s 6
f 68/194/194 67/193/193 65/192/192
f 68/194/194 65/192/192 66/191/191
s 7
f 70/198/198 69/197/197 68/195/195
f 69/197/197 67/196/196 68/195/195
s 8
f 68/199/199 71/200/200 72/201/201
f 68/199/199 72/201/201 70/202/202
s 9
f 71/203/203 73/204/204 74/205/205
f 71/203/203 74/205/205 72/206/206
s 10
f 75/207/207 76/208/208 71/210/210
f 76/208/208 73/209/209 71/210/210
s 11
f 77/211/211 78/212/212 76/213/213
f 77/211/211 76/213/213 75/214/214
s 12
f 59/215/215 79/216/216 77/218/218
f 79/216/216 78/217/217 77/218/218
s 13
f 66/219/219 75/220/220 68/222/222
f 75/220/220 71/221/221 68/222/222
s 14
f 64/223/223 77/224/224 75/225/225
f 64/223/223 75/225/225 66/226/226
s 15
f 60/227/227 59/228/228 64/230/230
f 59/228/228 77/229/229 64/230/230
s 16
f 55/231/231 80/232/232 79/233/233
f 55/231/231 79/233/233 59/234/234
s 17
f 80/235/235 55/236/236 81/238/238
f 55/236/236 58/237/237 81/238/238
s 18
f 56/242/242 61/241/241 82/240/240
f 56/242/242 82/240/240 57/239/239
