mtllib Terrain_Hill_Corner_Outer_5x5.mtl
o Grass
g Grass
v -0.59009135 1.30082665 2.98690459
v -1.03134613 1.43991191 3.06470972
v -0.99326316 1.43991191 3.50000000
v -0.54520132 1.30082665 3.50000000
v -0.19589978 1.12792935 2.91739798
v -0.14492871 1.12792935 3.50000000
v 0.50954219 0.77657377 2.79300953
v 0.57139584 0.77657377 3.50000000
v 0.83633496 0.63288402 2.73538715
v 0.90322991 0.63288402 3.50000000
v 1.14462506 0.53490365 2.68102729
v 1.21627589 0.53490365 3.50000000
v 1.42403877 0.50000000 2.63175911
v 1.50000000 0.50000000 3.50000000
v 0.50000000 0.50000000 -0.50000000
v 0.50000000 0.50000000 0.50000000
v 1.50000000 0.50000000 0.50000000
v 1.19846310 0.50000000 1.78989928
v 0.83012702 0.50000000 1.00000000
v 0.33022222 0.50000000 0.28606195
v -0.28606195 0.50000000 -0.33022222
v -1.00000000 0.50000000 -0.83012702
v -1.78989928 0.50000000 -1.19846310
v -2.63175911 0.50000000 -1.42403877
v -3.50000000 0.50000000 -1.50000000
v -0.50000000 0.50000000 -1.50000000
v -0.50000000 0.50000000 -0.50000000
v -2.68102729 0.53490365 -1.14462506
v -3.50000000 0.53490365 -1.21627589
v -2.73538715 0.63288402 -0.83633496
v -3.50000000 0.63288402 -0.90322991
v -2.79300953 0.77657377 -0.50954219
v -3.50000000 0.77657377 -0.57139584
v -2.91739798 1.12792935 0.19589978
v -3.50000000 1.12792935 0.14492871
v -2.98690459 1.30082665 0.59009135
v -3.50000000 1.30082665 0.54520132
v -3.06470972 1.43991191 1.03134613
v -3.50000000 1.43991191 0.99326316
v -3.15270364 1.50000000 1.53038449
v -3.50000000 1.50000000 1.50000000
v -2.50000000 1.50000000 2.50000000
v -3.50000000 1.50000000 2.50000000
v -2.81595971 1.50000000 1.62061476
v -2.50000000 1.50000000 1.76794919
v -2.21442478 1.50000000 1.96791111
v -1.96791111 1.50000000 2.21442478
v -1.76794919 1.50000000 2.50000000
v -1.62061476 1.50000000 2.81595971
v -1.53038449 1.50000000 3.15270364
v -1.50000000 1.50000000 3.50000000
v -2.50000000 1.50000000 3.50000000
v -1.14443789 1.43991191 2.64264551
v -1.32910222 1.43991191 2.24663158
v -0.72339748 1.30082665 2.48939933
v -0.94106928 1.30082665 2.02260066
v -1.23649289 1.30082665 1.60069202
v -1.57972817 1.43991191 1.88870062
v -1.60069202 1.30082665 1.23649289
v -1.88870062 1.43991191 1.57972817
v -2.02260066 1.30082665 0.94106928
v -2.24663158 1.43991191 1.32910222
v -2.48939933 1.30082665 0.72339748
v -2.64264551 1.43991191 1.14443789
v -1.82246435 1.12792935 0.59442303
v -2.35249804 1.12792935 0.34726426
v -1.46430208 0.77657377 -0.02593223
v -2.10750061 0.77657377 -0.32586063
v -1.29838504 0.63288402 -0.31330896
v -1.99400667 0.63288402 -0.63768266
v -1.14186205 0.53490365 -0.58441473
v -1.88693864 0.53490365 -0.93184965
v -0.66965837 0.63288402 0.12693019
v -0.46843629 0.53490365 -0.11287694
v -0.12693019 0.63288402 0.66965837
v 0.11287694 0.53490365 0.46843629
v -0.38112984 0.77657377 0.88295720
v -0.88295720 0.77657377 0.38112984
v -0.92986628 1.12792935 1.34340174
v -1.34340174 1.12792935 0.92986628
v -0.59442303 1.12792935 1.82246435
v 0.02593223 0.77657377 1.46430208
v -0.34726426 1.12792935 2.35249804
v 0.32586063 0.77657377 2.10750061
v 0.63768266 0.63288402 1.99400667
v 0.31330896 0.63288402 1.29838504
v 0.93184965 0.53490365 1.88693864
v 0.58441473 0.53490365 1.14186205
vt 1.00000000 0.00000000
vt 1.00000000 1.00000000
vt 0.00000000 1.00000000
vt 0.00000000 0.00000000
vt 1.00000000 0.00000000
vt 1.00000000 1.00000000
vt 0.00000000 1.00000000
vt 0.00000000 0.00000000
vt 1.00000000 0.00000000
vt 1.00000000 1.00000000
vt 0.00000000 1.00000000
vt 0.00000000 0.00000000
vt 1.00000000 0.00000000
vt 1.00000000 1.00000000
vt 0.00000000 1.00000000
vt 0.00000000 0.00000000
vt 1.00000000 0.00000000
vt 1.00000000 1.00000000
vt 0.00000000 1.00000000
vt 0.00000000 0.00000000
vt 1.00000000 0.00000000
vt 1.00000000 1.00000000
vt 0.00000000 1.00000000
vt 0.00000000 0.00000000
vt 0.80000000 0.80000000
vt 0.60000000 0.80000000
vt 0.60000000 1.00000000
vt 0.00000000 1.00000000
vt 0.17364818 0.98480775
vt 0.34202014 0.93969262
vt 0.50000000 0.86602540
vt 0.64278761 0.76604444
vt 0.76604444 0.64278761
vt 0.86602540 0.50000000
vt 0.93969262 0.34202014
vt 0.98480775 0.17364818
vt 1.00000000 0.00000000
vt 1.00000000 0.60000000
vt 0.80000000 0.60000000
vt 0.00000000 1.00000000
vt 0.00000000 0.00000000
vt 1.00000000 0.00000000
vt 1.00000000 1.00000000
vt 0.00000000 1.00000000
vt 0.00000000 0.00000000
vt 1.00000000 0.00000000
vt 1.00000000 1.00000000
vt 0.00000000 1.00000000
vt 0.00000000 0.00000000
vt 1.00000000 0.00000000
vt 1.00000000 1.00000000
vt 0.00000000 1.00000000
vt 0.00000000 0.00000000
vt 1.00000000 0.00000000
vt 1.00000000 1.00000000
vt 0.00000000 1.00000000
vt 0.00000000 0.00000000
vt 1.00000000 0.00000000
vt 1.00000000 1.00000000
vt 0.00000000 1.00000000
vt 0.00000000 0.00000000
vt 1.00000000 0.00000000
vt 1.00000000 1.00000000
vt 0.00000000 1.00000000
vt 0.00000000 0.00000000
vt 1.00000000 0.00000000
vt 1.00000000 1.00000000
vt 0.50000000 0.50000000
vt 0.50000000 0.00000000
vt 1.00000000 0.00000000
vt 0.98480775 0.17364818
vt 0.93969262 0.34202014
vt 0.86602540 0.50000000
vt 0.76604444 0.64278761
vt 0.64278761 0.76604444
vt 0.50000000 0.86602540
vt 0.34202014 0.93969262
vt 0.17364818 0.98480775
vt 0.00000000 1.00000000
vt 0.00000000 0.50000000
vt 0.00000000 1.00000000
vt 0.00000000 0.00000000
vt 1.00000000 0.00000000
vt 1.00000000 1.00000000
vt 0.00000000 1.00000000
vt 0.00000000 0.00000000
vt 1.00000000 0.00000000
vt 1.00000000 1.00000000
vt 0.00000000 1.00000000
vt 0.00000000 0.00000000
vt 1.00000000 0.00000000
vt 1.00000000 1.00000000
vt 0.00000000 1.00000000
vt 0.00000000 0.00000000
vt 1.00000000 0.00000000
vt 1.00000000 1.00000000
vt 0.00000000 1.00000000
vt 0.00000000 0.00000000
vt 1.00000000 0.00000000
vt 1.00000000 1.00000000
vt 0.00000000 1.00000000
vt 0.00000000 0.00000000
vt 1.00000000 0.00000000
vt 1.00000000 1.00000000
vt 0.00000000 1.00000000
vt 0.00000000 0.00000000
vt 1.00000000 0.00000000
vt 1.00000000 1.00000000
vt 0.00000000 1.00000000
vt 0.00000000 0.00000000
vt 1.00000000 0.00000000
vt 1.00000000 1.00000000
vt 0.00000000 1.00000000
vt 0.00000000 0.00000000
vt 1.00000000 0.00000000
vt 1.00000000 1.00000000
vt 0.00000000 1.00000000
vt 0.00000000 0.00000000
vt 1.00000000 0.00000000
vt 1.00000000 1.00000000
vt 0.00000000 1.00000000
vt 0.00000000 0.00000000
vt 1.00000000 0.00000000
vt 1.00000000 1.00000000
vt 0.00000000 1.00000000
vt 0.00000000 0.00000000
vt 1.00000000 0.00000000
vt 1.00000000 1.00000000
vt 0.00000000 1.00000000
vt 0.00000000 0.00000000
vt 1.00000000 0.00000000
vt 1.00000000 1.00000000
vt 0.00000000 1.00000000
vt 0.00000000 0.00000000
vt 1.00000000 0.00000000
vt 1.00000000 1.00000000
vt 0.00000000 1.00000000
vt 0.00000000 0.00000000
vt 1.00000000 0.00000000
vt 1.00000000 1.00000000
vt 0.00000000 1.00000000
vt 0.00000000 0.00000000
vt 1.00000000 0.00000000
vt 1.00000000 1.00000000
vt 0.00000000 1.00000000
vt 0.00000000 0.00000000
vt 1.00000000 0.00000000
vt 1.00000000 1.00000000
vt 0.00000000 1.00000000
vt 0.00000000 0.00000000
vt 1.00000000 0.00000000
vt 1.00000000 1.00000000
vt 0.00000000 1.00000000
vt 0.00000000 0.00000000
vt 1.00000000 0.00000000
vt 1.00000000 1.00000000
vt 0.00000000 1.00000000
vt 0.00000000 0.00000000
vt 1.00000000 0.00000000
vt 1.00000000 1.00000000
vt 0.00000000 1.00000000
vt 0.00000000 0.00000000
vt 1.00000000 0.00000000
vt 1.00000000 1.00000000
vt 0.00000000 1.00000000
vt 0.00000000 0.00000000
vt 1.00000000 0.00000000
vt 1.00000000 1.00000000
vt 0.00000000 1.00000000
vt 0.00000000 0.00000000
vt 1.00000000 0.00000000
vt 1.00000000 1.00000000
vt 0.00000000 1.00000000
vt 0.00000000 0.00000000
vt 1.00000000 0.00000000
vt 1.00000000 1.00000000
vt 0.00000000 1.00000000
vt 0.00000000 0.00000000
vt 1.00000000 0.00000000
vt 1.00000000 1.00000000
vt 0.00000000 1.00000000
vt 0.00000000 0.00000000
vt 1.00000000 0.00000000
vt 1.00000000 1.00000000
vt 0.00000000 1.00000000
vt 0.00000000 0.00000000
vt 1.00000000 0.00000000
vt 1.00000000 1.00000000
vt 0.00000000 1.00000000
vt 0.00000000 0.00000000
vt 1.00000000 0.00000000
vt 1.00000000 1.00000000
vt 0.00000000 1.00000000
vt 0.00000000 0.00000000
vt 1.00000000 0.00000000
vt 1.00000000 1.00000000
vt 0.00000000 1.00000000
vt 0.00000000 0.00000000
vt 1.00000000 0.00000000
vt 1.00000000 1.00000000
vt 0.00000000 1.00000000
vt 0.00000000 0.00000000
vt 1.00000000 0.00000000
vt 1.00000000 1.00000000
vt 0.00000000 1.00000000
vt 0.00000000 0.00000000
vt 1.00000000 0.00000000
vt 1.00000000 1.00000000
vt 0.00000000 1.00000000
vt 0.00000000 0.00000000
vt 1.00000000 0.00000000
vt 1.00000000 1.00000000
vt 0.00000000 1.00000000
vt 0.00000000 0.00000000
vt 1.00000000 0.00000000
vt 1.00000000 1.00000000
vt 0.00000000 1.00000000
vt 0.00000000 0.00000000
vt 1.00000000 0.00000000
vt 1.00000000 1.00000000
vt 0.00000000 1.00000000
vt 0.00000000 0.00000000
vt 1.00000000 0.00000000
vt 1.00000000 1.00000000
vt 0.00000000 1.00000000
vt 0.00000000 0.00000000
vt 1.00000000 0.00000000
vt 1.00000000 1.00000000
vt 0.00000000 1.00000000
vt 0.00000000 0.00000000
vt 1.00000000 0.00000000
vt 1.00000000 1.00000000
vt 0.00000000 1.00000000
vt 0.00000000 0.00000000
vt 1.00000000 0.00000000
vt 1.00000000 1.00000000
vt 0.00000000 1.00000000
vt 0.00000000 0.00000000
vt 1.00000000 0.00000000
vt 1.00000000 1.00000000
vt 0.00000000 1.00000000
vt 0.00000000 0.00000000
vt 1.00000000 0.00000000
vt 1.00000000 1.00000000
vt 0.00000000 1.00000000
vt 0.00000000 0.00000000
vt 1.00000000 0.00000000
vt 1.00000000 1.00000000
vt 0.00000000 1.00000000
vt 0.00000000 0.00000000
vt 1.00000000 0.00000000
vt 1.00000000 1.00000000
vt 0.00000000 1.00000000
vt 0.00000000 0.00000000
vt 1.00000000 0.00000000
vt 1.00000000 1.00000000
vt 0.00000000 1.00000000
vt 0.00000000 0.00000000
vt 1.00000000 0.00000000
vt 1.00000000 1.00000000
vt 0.00000000 1.00000000
vt 0.00000000 0.00000000
vt 1.00000000 0.00000000
vt 1.00000000 1.00000000
vt 0.00000000 1.00000000
vt 0.00000000 0.00000000
vt 1.00000000 0.00000000
vt 1.00000000 1.00000000
vt 0.00000000 1.00000000
vt 0.00000000 0.00000000
vt 1.00000000 0.00000000
vt 1.00000000 1.00000000
vt 1.00000000 0.00000000
vt 1.00000000 1.00000000
vt 0.00000000 1.00000000
vt 0.00000000 0.00000000
vt 0.00000000 1.00000000
vt 0.00000000 0.00000000
vt 1.00000000 0.00000000
vt 1.00000000 1.00000000
vn 0.29636094 0.95472400 -0.02592822
vn 0.29636094 0.95472400 -0.02592822
vn 0.29636094 0.95472400 -0.02592822
vn 0.29636094 0.95472400 -0.02592822
vn 0.39629872 0.91746673 -0.03467165
vn 0.39629872 0.91746673 -0.03467165
vn 0.39629872 0.91746673 -0.03467165
vn 0.39629872 0.91746673 -0.03467165
vn 0.44004910 0.89714803 -0.03849931
vn 0.44004910 0.89714803 -0.03849931
vn 0.39712302 0.91710751 -0.03474376
vn 0.39712302 0.91710751 -0.03474376
vn 0.29859933 0.95402095 -0.02612406
vn 0.29859933 0.95402095 -0.02612406
vn 0.29859933 0.95402095 -0.02612406
vn 0.29859933 0.95402095 -0.02612406
vn 0.12209228 0.99246127 -0.01068169
vn 0.12209228 0.99246127 -0.01068169
vn 0.12209228 0.99246127 -0.01068169
vn 0.12209228 0.99246127 -0.01068169
vn 0.00000000 1.00000000 0.00000000
vn 0.00000000 1.00000000 0.00000000
vn 0.00000000 1.00000000 0.00000000
vn 0.00000000 1.00000000 0.00000000
vn 0.00000000 1.00000000 0.00000000
vn 0.00000000 1.00000000 0.00000000
vn 0.00000000 1.00000000 0.00000000
vn 0.00000000 1.00000000 0.00000000
vn 0.00000000 1.00000000 0.00000000
vn 0.00000000 1.00000000 0.00000000
vn 0.00000000 1.00000000 0.00000000
vn 0.00000000 1.00000000 0.00000000
vn 0.00000000 1.00000000 0.00000000
vn 0.00000000 1.00000000 0.00000000
vn 0.00000000 1.00000000 0.00000000
vn 0.01068169 0.99246127 -0.12209228
vn 0.01068169 0.99246127 -0.12209228
vn 0.01068169 0.99246127 -0.12209228
vn 0.01068169 0.99246127 -0.12209228
vn 0.02612406 0.95402095 -0.29859933
vn 0.02612406 0.95402095 -0.29859933
vn 0.02612406 0.95402095 -0.29859933
vn 0.02612406 0.95402095 -0.29859933
vn 0.03474376 0.91710751 -0.39712302
vn 0.03474376 0.91710751 -0.39712302
vn 0.03474376 0.91710751 -0.39712302
vn 0.03474376 0.91710751 -0.39712302
vn 0.03849931 0.89714803 -0.44004910
vn 0.03849931 0.89714803 -0.44004910
vn 0.03467165 0.91746673 -0.39629872
vn 0.03467165 0.91746673 -0.39629872
vn 0.02592822 0.95472400 -0.29636094
vn 0.02592822 0.95472400 -0.29636094
vn 0.02592822 0.95472400 -0.29636094
vn 0.02592822 0.95472400 -0.29636094
vn 0.01030155 0.99299016 -0.11774728
vn 0.01030155 0.99299016 -0.11774728
vn 0.01030155 0.99299016 -0.11774728
vn 0.01030155 0.99299016 -0.11774728
vn 0.00000000 1.00000000 0.00000000
vn 0.00000000 1.00000000 0.00000000
vn 0.00000000 1.00000000 0.00000000
vn 0.00000000 1.00000000 0.00000000
vn 0.00000000 1.00000000 0.00000000
vn 0.00000000 1.00000000 0.00000000
vn 0.00000000 1.00000000 0.00000000
vn 0.00000000 1.00000000 0.00000000
vn 0.00000000 1.00000000 0.00000000
vn 0.00000000 1.00000000 0.00000000
vn 0.00000000 1.00000000 0.00000000
vn 0.00000000 1.00000000 0.00000000
vn 0.00000000 1.00000000 0.00000000
vn 0.11416958 0.99299016 -0.03059165
vn 0.11416958 0.99299016 -0.03059165
vn 0.11416958 0.99299016 -0.03059165
vn 0.11416958 0.99299016 -0.03059165
vn 0.10712291 0.99299016 -0.04995223
vn 0.10712291 0.99299016 -0.04995223
vn 0.26962022 0.95472400 -0.12572597
vn 0.26962022 0.95472400 -0.12572597
vn 0.26962022 0.95472400 -0.12572597
vn 0.26962022 0.95472400 -0.12572597
vn 0.24369200 0.95472400 -0.17063497
vn 0.24369200 0.95472400 -0.17063497
vn 0.21035931 0.95472400 -0.21035931
vn 0.21035931 0.95472400 -0.21035931
vn 0.17063497 0.95472400 -0.24369200
vn 0.17063497 0.95472400 -0.24369200
vn 0.12572597 0.95472400 -0.26962022
vn 0.12572597 0.95472400 -0.26962022
vn 0.16812283 0.91746673 -0.36054058
vn 0.16812283 0.91746673 -0.36054058
vn 0.16812283 0.91746673 -0.36054058
vn 0.16812283 0.91746673 -0.36054058
vn 0.18668317 0.89714803 -0.40034335
vn 0.18668317 0.89714803 -0.40034335
vn 0.16847253 0.91710751 -0.36129050
vn 0.16847253 0.91710751 -0.36129050
vn 0.12667557 0.95402095 -0.27165663
vn 0.12667557 0.95402095 -0.27165663
vn 0.12667557 0.95402095 -0.27165663
vn 0.12667557 0.95402095 -0.27165663
vn 0.17192376 0.95402095 -0.24553258
vn 0.17192376 0.95402095 -0.24553258
vn 0.21194814 0.95402095 -0.21194814
vn 0.21194814 0.95402095 -0.21194814
vn 0.28188102 0.91710751 -0.28188102
vn 0.28188102 0.91710751 -0.28188102
vn 0.28188102 0.91710751 -0.28188102
vn 0.28188102 0.91710751 -0.28188102
vn 0.31235029 0.89714803 -0.31235029
vn 0.31235029 0.89714803 -0.31235029
vn 0.36184405 0.89714803 -0.25336593
vn 0.36184405 0.89714803 -0.25336593
vn 0.36184405 0.89714803 -0.25336593
vn 0.36184405 0.89714803 -0.25336593
vn 0.40034335 0.89714803 -0.18668317
vn 0.40034335 0.89714803 -0.18668317
vn 0.40034335 0.89714803 -0.18668317
vn 0.40034335 0.89714803 -0.18668317
vn 0.36129050 0.91710751 -0.16847253
vn 0.36129050 0.91710751 -0.16847253
vn 0.27165663 0.95402095 -0.12667557
vn 0.27165663 0.95402095 -0.12667557
vn 0.27165663 0.95402095 -0.12667557
vn 0.27165663 0.95402095 -0.12667557
vn 0.32654674 0.91710751 -0.22865049
vn 0.32654674 0.91710751 -0.22865049
vn 0.22865049 0.91710751 -0.32654674
vn 0.22865049 0.91710751 -0.32654674
vn 0.22865049 0.91710751 -0.32654674
vn 0.22865049 0.91710751 -0.32654674
vn 0.25336593 0.89714803 -0.36184405
vn 0.25336593 0.89714803 -0.36184405
vn 0.22817588 0.91746673 -0.32586893
vn 0.22817588 0.91746673 -0.32586893
vn 0.28129593 0.91746673 -0.28129593
vn 0.28129593 0.91746673 -0.28129593
vn 0.32586893 0.91746673 -0.22817588
vn 0.32586893 0.91746673 -0.22817588
vn 0.36054058 0.91746673 -0.16812283
vn 0.36054058 0.91746673 -0.16812283
vn 0.09682136 0.99299016 -0.06779504
vn 0.09682136 0.99299016 -0.06779504
vn 0.08357794 0.99299016 -0.08357794
vn 0.08357794 0.99299016 -0.08357794
vn 0.06779504 0.99299016 -0.09682136
vn 0.06779504 0.99299016 -0.09682136
vn 0.04995223 0.99299016 -0.10712291
vn 0.04995223 0.99299016 -0.10712291
vn 0.10296146 0.91746673 -0.38425738
vn 0.10296146 0.91746673 -0.38425738
vn 0.10296146 0.91746673 -0.38425738
vn 0.10296146 0.91746673 -0.38425738
vn 0.11432814 0.89714803 -0.42667843
vn 0.11432814 0.89714803 -0.42667843
vn 0.10317561 0.91710751 -0.38505664
vn 0.10317561 0.91710751 -0.38505664
vn 0.03172051 0.99246127 -0.11838256
vn 0.03172051 0.99246127 -0.11838256
vn 0.05179552 0.99246127 -0.11107586
vn 0.05179552 0.99246127 -0.11107586
vn 0.07029675 0.99246127 -0.10039417
vn 0.07029675 0.99246127 -0.10039417
vn 0.08666205 0.99246127 -0.08666205
vn 0.08666205 0.99246127 -0.08666205
vn 0.10039417 0.99246127 -0.07029675
vn 0.10039417 0.99246127 -0.07029675
vn 0.11107586 0.99246127 -0.05179552
vn 0.11107586 0.99246127 -0.05179552
vn 0.38505664 0.91710751 -0.10317561
vn 0.38505664 0.91710751 -0.10317561
vn 0.38505664 0.91710751 -0.10317561
vn 0.38505664 0.91710751 -0.10317561
vn 0.42667843 0.89714803 -0.11432814
vn 0.42667843 0.89714803 -0.11432814
vn 0.38425738 0.91746673 -0.10296146
vn 0.38425738 0.91746673 -0.10296146
vn 0.11774728 0.99299016 -0.01030155
vn 0.11774728 0.99299016 -0.01030155
s 1
usemtl Grass
f 1/1/1 2/2/2 4/4/4
f 2/277/2 55/279/80 53/280/79
f 53/89/79 56/91/81 54/92/82
f 54/93/82 57/95/83 58/96/84
f 58/97/84 59/99/85 60/100/86
f 59/102/85 61/103/87 62/104/88
f 61/106/87 63/107/89 64/108/90
f 63/210/89 36/211/53 38/212/52
f 36/61/53 37/62/54 39/63/55
f 38/60/52 36/61/53 39/63/55
f 64/209/90 63/210/89 38/212/52
f 62/105/88 61/106/87 64/108/90
f 60/101/86 59/102/85 62/104/88
f 58/97/84 57/98/83 59/99/85
f 54/93/82 56/94/81 57/95/83
f 53/89/79 55/90/80 56/91/81
f 2/2/2 3/3/3 4/4/4
f 2/277/2 1/278/1 55/279/80
s 2
f 5/5/5 1/6/6 6/8/8
f 1/6/6 4/7/7 6/8/8
f 5/10/5 6/11/8 8/12/10
f 7/14/9 8/15/10 10/16/12
f 9/13/11 7/14/9 10/16/12
f 7/9/9 5/10/5 8/12/10
s 3
f 11/17/13 9/18/14 12/20/16
f 9/257/14 87/259/124 85/260/123
f 85/153/123 88/155/125 86/156/126
f 86/161/126 76/163/106 75/164/105
f 75/129/105 74/131/104 73/132/103
f 73/125/103 71/127/100 69/128/99
f 69/121/99 72/123/101 70/124/102
f 72/226/101 28/227/41 30/228/40
f 28/45/41 29/46/42 31/47/43
f 30/44/40 28/45/41 31/47/43
f 70/225/102 72/226/101 30/228/40
f 69/121/99 71/122/100 72/123/101
f 73/125/103 74/126/104 71/127/100
f 75/129/105 76/130/106 74/131/104
f 86/161/126 88/162/125 76/163/106
f 85/153/123 87/154/124 88/155/125
f 9/18/14 10/19/15 12/20/16
f 9/257/14 11/258/13 87/259/124
s 4
f 13/21/17 11/22/18 14/24/20
f 11/253/18 18/255/170 87/256/169
f 87/249/169 19/251/168 88/252/167
f 88/245/167 20/247/166 76/248/165
f 76/241/165 21/243/164 74/244/163
f 74/237/163 22/239/162 71/240/161
f 71/233/161 23/235/160 72/236/159
f 23/230/160 24/231/37 28/232/36
f 24/41/37 25/42/38 29/43/39
f 28/40/36 24/41/37 29/43/39
f 72/229/159 23/230/160 28/232/36
f 71/233/161 22/234/162 23/235/160
f 74/237/163 21/238/164 22/239/162
f 76/241/165 20/242/166 21/243/164
f 88/245/167 19/246/168 20/247/166
f 87/249/169 18/250/170 19/251/168
f 11/22/18 12/23/19 14/24/20
f 11/253/18 13/254/17 18/255/170
s 5
f 13/29/25 14/28/24 17/27/23
f 19/31/27 17/27/23 16/26/22
f 20/32/28 16/26/22 15/25/21
f 21/33/29 15/25/21 27/39/35
f 22/34/30 27/39/35 26/38/34
f 26/38/34 25/37/33 24/36/32
f 24/36/32 23/35/31 26/38/34
f 23/35/31 22/34/30 26/38/34
f 22/34/30 21/33/29 27/39/35
f 21/33/29 20/32/28 15/25/21
f 20/32/28 19/31/27 16/26/22
f 19/31/27 18/30/26 17/27/23
f 18/30/26 13/29/25 17/27/23
s 6
f 32/48/44 30/49/45 33/51/47
f 30/49/45 31/50/46 33/51/47
f 32/53/44 33/54/47 35/55/49
f 34/57/48 35/58/49 37/59/51
f 36/56/50 34/57/48 37/59/51
f 34/52/48 32/53/44 35/55/49
s 7
f 40/64/56 38/65/57 41/67/59
f 38/65/57 39/66/58 41/67/59
f 64/206/149 38/207/57 40/208/56
f 62/202/147 64/203/149 44/204/150
f 45/201/148 62/202/147 44/204/150
f 46/197/146 60/198/145 45/200/148
f 58/194/143 60/195/145 46/196/146
f 48/189/78 58/191/143 47/192/144
f 49/85/76 54/87/77 48/88/78
f 49/85/76 53/86/75 54/87/77
f 50/81/73 2/82/74 53/83/75
f 50/274/73 51/275/179 3/276/180
f 2/273/74 50/274/73 3/276/180
f 50/81/73 53/83/75 49/84/76
f 48/189/78 54/190/77 58/191/143
f 47/193/144 58/194/143 46/196/146
f 60/198/145 62/199/147 45/200/148
f 44/205/150 64/206/149 40/208/56
s 8
f 40/71/63 41/70/62 43/69/61
f 45/73/65 43/69/61 42/68/60
f 52/80/72 48/76/68 42/68/60
f 52/80/72 49/77/69 48/76/68
f 52/80/72 50/78/70 49/77/69
f 52/80/72 51/79/71 50/78/70
f 48/76/68 47/75/67 42/68/60
f 47/75/67 46/74/66 42/68/60
f 46/74/66 45/73/65 42/68/60
f 45/73/65 44/72/64 43/69/61
f 44/72/64 40/71/63 43/69/61
s 9
f 61/109/91 65/110/92 63/112/94
f 65/113/92 67/114/95 66/116/93
f 67/117/95 70/119/98 68/120/96
f 67/117/95 69/118/97 70/119/98
f 67/114/95 68/115/96 66/116/93
f 65/110/92 66/111/93 63/112/94
s 10
f 77/133/107 75/134/108 73/135/109
f 77/138/107 78/139/110 80/140/112
f 57/177/137 80/179/112 59/180/138
f 57/177/137 79/178/111 80/179/112
f 79/137/111 77/138/107 80/140/112
f 77/133/107 73/135/109 78/136/110
s 11
f 81/141/113 82/142/114 77/143/115
f 82/157/114 75/159/128 77/160/115
f 82/157/114 86/158/127 75/159/128
f 56/181/139 81/182/113 79/183/116
f 56/181/139 79/183/116 57/184/140
f 81/141/113 77/143/115 79/144/116
s 12
f 83/145/117 84/146/118 82/147/119
f 84/149/118 86/151/122 82/152/119
f 84/149/118 85/150/121 86/151/122
f 55/185/141 83/186/117 81/187/120
f 55/185/141 81/187/120 56/188/142
f 83/145/117 82/147/119 81/148/120
s 13
f 78/165/129 73/166/130 69/167/131
f 78/170/129 67/171/132 65/172/134
f 80/174/133 65/175/134 61/176/136
f 59/173/135 80/174/133 61/176/136
f 80/169/133 78/170/129 65/172/134
f 78/165/129 69/167/131 67/168/132
s 14
f 63/213/151 66/214/152 36/216/154
f 66/217/152 68/218/155 34/220/153
f 68/221/155 70/222/157 32/224/156
f 70/222/157 30/223/158 32/224/156
f 68/218/155 32/219/156 34/220/153
f 66/214/152 34/215/153 36/216/154
s 15
f 7/261/171 9/262/172 85/263/173
f 5/265/175 7/266/171 84/267/174
f 1/269/177 5/270/175 83/271/176
f 1/269/177 83/271/176 55/272/178
f 5/265/175 84/267/174 83/268/176
f 7/261/171 85/263/173 84/264/174
