mtllib Terrain_Cliff_Middle_Corner_Inner_1x1.mtl
o Rock
g Rock
v -0.50000000 0.50000000 -0.50000000
v -0.25777223 0.50000000 -0.06250000
v -0.25777223 1.50000000 -0.06250000
v -0.50000000 1.50000000 -0.50000000
v 0.06250000 0.50000000 0.25777223
v 0.06250000 1.50000000 0.25777223
v 0.50000000 0.50000000 0.50000000
v 0.50000000 1.50000000 0.50000000
vt 0.00000000 1.00000000
vt 0.00000000 0.00000000
vt 1.00000000 0.00000000
vt 1.00000000 1.00000000
vt 0.00000000 1.00000000
vt 0.00000000 0.00000000
vt 1.00000000 0.00000000
vt 1.00000000 1.00000000
vt 0.00000000 1.00000000
vt 0.00000000 0.00000000
vt 1.00000000 0.00000000
vt 1.00000000 1.00000000
vn 0.87485908 0.00000000 -0.48437752
vn 0.87485908 0.00000000 -0.48437752
vn 0.87485908 0.00000000 -0.48437752
vn 0.87485908 0.00000000 -0.48437752
vn 0.70710678 0.00000000 -0.70710678
vn 0.70710678 0.00000000 -0.70710678
vn 0.70710678 0.00000000 -0.70710678
vn 0.70710678 0.00000000 -0.70710678
vn 0.48437752 0.00000000 -0.87485908
vn 0.48437752 0.00000000 -0.87485908
vn 0.48437752 0.00000000 -0.87485908
vn 0.48437752 0.00000000 -0.87485908
s 1
usemtl Rock
f 4/4/4 3/3/3 1/1/1
f 3/3/3 2/2/2 1/1/1
s 2
f 3/8/8 6/7/7 2/5/5
f 6/7/7 5/6/6 2/5/5
s 3
f 6/12/12 8/11/11 5/9/9
f 8/11/11 7/10/10 5/9/9
