mtllib Track_Striped_End_Straight_Double.mtl
o Dirt
g Dirt
v -0.50000000 0.05000000 -0.65000000
v -0.50000000 0.15000000 -0.75000000
v 0.50000000 0.15000000 -0.75000000
v 0.50000000 0.05000000 -0.65000000
v -0.50000000 0.00000000 -0.50000000
v 0.50000000 0.00000000 -0.50000000
v 0.50000000 0.00000000 1.50000000
v -0.50000000 0.00000000 1.50000000
v -0.50000000 0.05000000 1.65000000
v 0.50000000 0.05000000 1.65000000
v -0.50000000 0.15000000 1.75000000
v 0.50000000 0.15000000 1.75000000
vt 1.00000000 0.00000000
vt 1.00000000 1.00000000
vt 0.00000000 1.00000000
vt 0.00000000 0.00000000
vt 1.00000000 0.00000000
vt 1.00000000 1.00000000
vt 0.00000000 1.00000000
vt 0.00000000 0.00000000
vt 0.00000000 0.00000000
vt 1.00000000 0.00000000
vt 1.00000000 1.00000000
vt 0.00000000 1.00000000
vt 1.00000000 0.00000000
vt 1.00000000 1.00000000
vt 0.00000000 1.00000000
vt 0.00000000 0.00000000
vt 1.00000000 0.00000000
vt 1.00000000 1.00000000
vt 0.00000000 1.00000000
vt 0.00000000 0.00000000
vn -0.00000000 0.70710678 0.70710678
vn -0.00000000 0.70710678 0.70710678
vn -0.00000000 0.70710678 0.70710678
vn -0.00000000 0.70710678 0.70710678
vn -0.00000000 0.94868330 0.31622777
vn -0.00000000 0.94868330 0.31622777
vn -0.00000000 0.94868330 0.31622777
vn -0.00000000 0.94868330 0.31622777
vn 0.00000000 1.00000000 0.00000000
vn 0.00000000 1.00000000 0.00000000
vn 0.00000000 1.00000000 0.00000000
vn 0.00000000 1.00000000 0.00000000
vn -0.00000000 0.94868330 -0.31622777
vn -0.00000000 0.94868330 -0.31622777
vn -0.00000000 0.94868330 -0.31622777
vn -0.00000000 0.94868330 -0.31622777
vn -0.00000000 0.70710678 -0.70710678
vn -0.00000000 0.70710678 -0.70710678
vn -0.00000000 0.70710678 -0.70710678
vn -0.00000000 0.70710678 -0.70710678
s 1
usemtl Dirt
f 4/4/4 3/3/3 1/1/1
f 3/3/3 2/2/2 1/1/1
s 2
f 6/8/8 4/7/7 5/5/5
f 4/7/7 1/6/6 5/5/5
s 3
f 6/12/12 5/11/11 7/9/9
f 5/11/11 8/10/10 7/9/9
s 4
f 8/13/13 9/14/14 10/15/15
f 8/13/13 10/15/15 7/16/16
s 5
f 9/17/17 11/18/18 12/19/19
f 9/17/17 12/19/19 10/20/20
o Grass
g Grass
v -0.50000000 0.15000000 -0.75000000
v -0.50000000 0.25000000 -0.75000000
v 0.50000000 0.25000000 -0.75000000
v 0.50000000 0.15000000 -0.75000000
v -0.50000000 0.37500000 -0.78349365
v 0.50000000 0.37500000 -0.78349365
v -0.50000000 0.46650635 -0.87500000
v 0.50000000 0.46650635 -0.87500000
v -0.50000000 0.50000000 -1.00000000
v 0.50000000 0.50000000 -1.00000000
v -0.50000000 0.50000000 -1.50000000
v 0.50000000 0.50000000 -1.50000000
vt 1.00000000 0.00000000
vt 1.00000000 1.00000000
vt 0.00000000 1.00000000
vt 0.00000000 0.00000000
vt 1.00000000 0.00000000
vt 1.00000000 1.00000000
vt 0.00000000 1.00000000
vt 0.00000000 0.00000000
vt 1.00000000 0.00000000
vt 1.00000000 1.00000000
vt 0.00000000 1.00000000
vt 0.00000000 0.00000000
vt 1.00000000 0.00000000
vt 1.00000000 1.00000000
vt 0.00000000 1.00000000
vt 0.00000000 0.00000000
vt 1.00000000 0.00000000
vt 1.00000000 1.00000000
vt 0.00000000 1.00000000
vt 0.00000000 0.00000000
vn -0.00000000 0.00000000 1.00000000
vn -0.00000000 0.00000000 1.00000000
vn -0.00000000 0.00000000 1.00000000
vn -0.00000000 0.00000000 1.00000000
vn -0.00000000 0.25881905 0.96592583
vn -0.00000000 0.25881905 0.96592583
vn -0.00000000 0.25881905 0.96592583
vn -0.00000000 0.25881905 0.96592583
vn -0.00000000 0.70710678 0.70710678
vn -0.00000000 0.70710678 0.70710678
vn -0.00000000 0.70710678 0.70710678
vn -0.00000000 0.70710678 0.70710678
vn -0.00000000 0.96592583 0.25881905
vn -0.00000000 0.96592583 0.25881905
vn -0.00000000 0.96592583 0.25881905
vn -0.00000000 0.96592583 0.25881905
vn 0.00000000 1.00000000 -0.00000000
vn 0.00000000 1.00000000 -0.00000000
vn 0.00000000 1.00000000 -0.00000000
vn 0.00000000 1.00000000 -0.00000000
s 1
usemtl Grass
f 16/24/24 15/23/23 13/21/21
f 15/23/23 14/22/22 13/21/21
s 2
f 15/28/28 18/27/27 14/25/25
f 18/27/27 17/26/26 14/25/25
s 3
f 18/32/32 20/31/31 17/29/29
f 20/31/31 19/30/30 17/29/29
s 4
f 20/36/36 22/35/35 19/33/33
f 22/35/35 21/34/34 19/33/33
s 5
f 22/40/40 24/39/39 21/37/37
f 24/39/39 23/38/38 21/37/37
v -0.50000000 0.37500000 1.78349365
v -0.50000000 0.46650635 1.87500000
v 0.50000000 0.46650635 1.87500000
v 0.50000000 0.37500000 1.78349365
v -0.50000000 0.25000000 1.75000000
v 0.50000000 0.25000000 1.75000000
v -0.50000000 0.15000000 1.75000000
v 0.50000000 0.15000000 1.75000000
v -0.50000000 0.50000000 2.00000000
v 0.50000000 0.50000000 2.00000000
v -0.50000000 0.50000000 2.50000000
v 0.50000000 0.50000000 2.50000000
vt 1.00000000 0.00000000
vt 1.00000000 1.00000000
vt 0.00000000 1.00000000
vt 0.00000000 0.00000000
vt 1.00000000 0.00000000
vt 1.00000000 1.00000000
vt 0.00000000 1.00000000
vt 0.00000000 0.00000000
vt 1.00000000 0.00000000
vt 1.00000000 1.00000000
vt 0.00000000 1.00000000
vt 0.00000000 0.00000000
vt 1.00000000 0.00000000
vt 1.00000000 1.00000000
vt 0.00000000 1.00000000
vt 0.00000000 0.00000000
vt 1.00000000 0.00000000
vt 1.00000000 1.00000000
vt 0.00000000 1.00000000
vt 0.00000000 0.00000000
vn -0.00000000 0.70710678 -0.70710678
vn -0.00000000 0.70710678 -0.70710678
vn -0.00000000 0.70710678 -0.70710678
vn -0.00000000 0.70710678 -0.70710678
vn -0.00000000 0.25881905 -0.96592583
vn -0.00000000 0.25881905 -0.96592583
vn -0.00000000 0.25881905 -0.96592583
vn -0.00000000 0.25881905 -0.96592583
vn -0.00000000 0.00000000 -1.00000000
vn -0.00000000 0.00000000 -1.00000000
vn -0.00000000 0.00000000 -1.00000000
vn -0.00000000 0.00000000 -1.00000000
vn -0.00000000 0.96592583 -0.25881905
vn -0.00000000 0.96592583 -0.25881905
vn -0.00000000 0.96592583 -0.25881905
vn -0.00000000 0.96592583 -0.25881905
vn 0.00000000 1.00000000 0.00000000
vn 0.00000000 1.00000000 0.00000000
vn 0.00000000 1.00000000 0.00000000
vn 0.00000000 1.00000000 0.00000000
s 1
usemtl Grass
f 25/41/41 26/42/42 27/43/43
f 25/41/41 27/43/43 28/44/44
s 2
f 29/45/45 25/46/46 28/47/47
f 29/45/45 28/47/47 30/48/48
s 3
f 31/49/49 29/50/50 32/52/52
f 29/50/50 30/51/51 32/52/52
s 4
f 26/53/53 33/54/54 34/55/55
f 26/53/53 34/55/55 27/56/56
s 5
f 33/57/57 35/58/58 36/59/59
f 33/57/57 36/59/59 34/60/60
o object1
g object1
v -0.25000000 0.10000000 1.65000000
v -0.25000000 0.00000000 1.60000000
v 0.00000000 0.15000000 1.75000000
v -0.50000000 0.15000000 1.75000000
v -0.50000000 0.10000000 1.65000000
v -0.50000000 0.00000000 1.60000000
vt 0.00000000 1.00000000
vt 0.00000000 0.00000000
vt 1.00000000 1.00000000
vt 1.00000000 0.00000000
vt 1.00000000 1.00000000
vt 0.00000000 1.00000000
vt 0.00000000 0.50000000
vt 1.00000000 1.00000000
vt 0.00000000 1.00000000
vt 0.00000000 0.00000000
vt 1.00000000 0.00000000
vn 0.25916053 0.43193421 -0.86386843
vn 0.25916053 0.43193421 -0.86386843
vn 0.25916053 0.43193421 -0.86386843
vn -0.00000000 0.89442719 -0.44721360
vn -0.00000000 0.89442719 -0.44721360
vn -0.00000000 0.89442719 -0.44721360
vn -0.00000000 0.89442719 -0.44721360
vn -0.00000000 0.44721360 -0.89442719
vn -0.00000000 0.44721360 -0.89442719
vn -0.00000000 0.44721360 -0.89442719
vn -0.00000000 0.44721360 -0.89442719
s 1
usemtl Red
f 39/63/63 38/62/62 37/61/61
s 2
f 37/67/67 41/66/66 40/65/65
f 37/67/67 40/65/65 39/64/64
s 3
f 38/71/71 42/70/70 37/68/68
f 42/70/70 41/69/69 37/68/68
o object2
g object2
v 0.00000000 0.15000000 -0.75000000
v -0.50000000 0.15000000 -0.75000000
v -0.50000000 0.10000000 -0.65000000
v -0.25000000 0.10000000 -0.65000000
v -0.50000000 0.00000000 -0.60000000
v -0.25000000 0.00000000 -0.60000000
vt 1.00000000 0.00000000
vt 1.00000000 1.00000000
vt 0.00000000 1.00000000
vt 0.00000000 0.50000000
vt 1.00000000 1.00000000
vt 0.00000000 1.00000000
vt 0.00000000 0.00000000
vt 1.00000000 0.00000000
vt 0.00000000 1.00000000
vt 0.00000000 0.00000000
vt 1.00000000 1.00000000
vn -0.00000000 0.89442719 0.44721360
vn -0.00000000 0.89442719 0.44721360
vn -0.00000000 0.89442719 0.44721360
vn -0.00000000 0.89442719 0.44721360
vn -0.00000000 0.44721360 0.89442719
vn -0.00000000 0.44721360 0.89442719
vn -0.00000000 0.44721360 0.89442719
vn -0.00000000 0.44721360 0.89442719
vn 0.25916053 0.43193421 0.86386843
vn 0.25916053 0.43193421 0.86386843
vn 0.25916053 0.43193421 0.86386843
s 1
usemtl Red
f 43/72/72 44/73/73 46/75/75
f 44/73/73 45/74/74 46/75/75
s 2
f 46/76/76 45/77/77 47/78/78
f 46/76/76 47/78/78 48/79/79
s 3
f 46/80/80 48/81/81 43/82/82
