mtllib Track_Standard_Finish_Line_Double_Blank.mtl
o Dirt
g Dirt
v -0.21900000 0.00000000 -0.50000000
v -0.21900000 0.05000000 -0.65000000
v -0.50000000 0.05000000 -0.65000000
v -0.50000000 0.00000000 -0.50000000
v -0.50000000 0.00000000 1.50000000
v -0.21900000 -0.00000000 1.50000000
v -0.21900000 0.05000000 1.65000000
v -0.50000000 0.05000000 1.65000000
v -0.21900000 0.09305298 1.69305298
v 0.21900000 0.09305298 1.69305298
v 0.21900000 0.05000000 1.65000000
v 0.50000000 0.05000000 1.65000000
v 0.50000000 0.15000000 1.75000000
v -0.50000000 0.15000000 1.75000000
v 0.21900000 -0.00000000 1.50000000
v 0.50000000 0.00000000 1.50000000
v 0.21900000 0.00000000 -0.50000000
v 0.50000000 0.00000000 -0.50000000
v 0.21900000 0.05000000 -0.65000000
v 0.50000000 0.05000000 -0.65000000
v -0.21900000 0.09305298 -0.69305298
v 0.21900000 0.09305298 -0.69305298
v 0.50000000 0.15000000 -0.75000000
v -0.50000000 0.15000000 -0.75000000
vt 1.00000000 0.00000000
vt 1.00000000 1.00000000
vt 0.00000000 1.00000000
vt 0.00000000 0.00000000
vt 1.00000000 1.00000000
vt 0.00000000 1.00000000
vt 0.00000000 0.00000000
vt 1.00000000 0.00000000
vt 1.00000000 0.00000000
vt 1.00000000 1.00000000
vt 0.00000000 1.00000000
vt 0.00000000 0.00000000
vt 0.28100000 0.43052980
vt 0.71900000 0.43052980
vt 0.71900000 0.00000000
vt 1.00000000 0.00000000
vt 1.00000000 1.00000000
vt 0.00000000 1.00000000
vt 0.00000000 0.00000000
vt 0.28100000 0.00000000
vt 0.00000000 1.00000000
vt 0.00000000 0.00000000
vt 1.00000000 0.00000000
vt 1.00000000 1.00000000
vt 0.00000000 1.00000000
vt 0.00000000 0.00000000
vt 1.00000000 0.00000000
vt 1.00000000 1.00000000
vt 0.00000000 1.00000000
vt 0.00000000 0.00000000
vt 1.00000000 0.00000000
vt 1.00000000 1.00000000
vt 0.28100000 0.43052980
vt 0.71900000 0.43052980
vt 0.71900000 0.00000000
vt 1.00000000 0.00000000
vt 1.00000000 1.00000000
vt 0.00000000 1.00000000
vt 0.00000000 0.00000000
vt 0.28100000 0.00000000
vn 0.00000000 0.94868330 0.31622777
vn 0.00000000 0.94868330 0.31622777
vn 0.00000000 0.94868330 0.31622777
vn 0.00000000 0.94868330 0.31622777
vn 0.00000000 1.00000000 0.00000000
vn 0.00000000 1.00000000 0.00000000
vn 0.00000000 1.00000000 0.00000000
vn 0.00000000 1.00000000 0.00000000
vn 0.00000000 0.94868330 -0.31622777
vn 0.00000000 0.94868330 -0.31622777
vn 0.00000000 0.94868330 -0.31622777
vn 0.00000000 0.94868330 -0.31622777
vn 0.00000000 0.70710678 -0.70710678
vn 0.00000000 0.70710678 -0.70710678
vn 0.00000000 0.70710678 -0.70710678
vn 0.00000000 0.70710678 -0.70710678
vn 0.00000000 0.70710678 -0.70710678
vn 0.00000000 0.70710678 -0.70710678
vn 0.00000000 0.70710678 -0.70710678
vn 0.00000000 0.70710678 -0.70710678
vn 0.00000000 0.94868330 -0.31622777
vn 0.00000000 0.94868330 -0.31622777
vn 0.00000000 0.94868330 -0.31622777
vn 0.00000000 0.94868330 -0.31622777
vn -0.00000000 1.00000000 0.00000000
vn -0.00000000 1.00000000 0.00000000
vn -0.00000000 1.00000000 0.00000000
vn -0.00000000 1.00000000 0.00000000
vn 0.00000000 0.94868330 0.31622777
vn 0.00000000 0.94868330 0.31622777
vn 0.00000000 0.94868330 0.31622777
vn 0.00000000 0.94868330 0.31622777
vn 0.00000000 0.70710678 0.70710678
vn 0.00000000 0.70710678 0.70710678
vn 0.00000000 0.70710678 0.70710678
vn 0.00000000 0.70710678 0.70710678
vn 0.00000000 0.70710678 0.70710678
vn 0.00000000 0.70710678 0.70710678
vn 0.00000000 0.70710678 0.70710678
vn 0.00000000 0.70710678 0.70710678
s 1
usemtl Dirt
f 1/1/1 2/2/2 4/4/4
f 2/2/2 3/3/3 4/4/4
s 2
f 6/8/8 1/7/7 4/6/6
f 6/8/8 4/6/6 5/5/5
s 3
f 5/12/12 8/11/11 7/10/10
f 5/12/12 7/10/10 6/9/9
s 4
f 9/13/13 7/20/20 8/19/19
f 10/14/14 9/13/13 14/18/18
f 14/18/18 13/17/17 10/14/14
f 13/17/17 12/16/16 10/14/14
f 12/16/16 11/15/15 10/14/14
f 9/13/13 8/19/19 14/18/18
s 5
f 12/24/24 16/23/23 11/21/21
f 16/23/23 15/22/22 11/21/21
s 6
f 15/28/28 16/27/27 18/26/26
f 15/28/28 18/26/26 17/25/25
s 7
f 19/29/29 17/30/30 20/32/32
f 17/30/30 18/31/31 20/32/32
s 8
f 3/39/39 2/40/40 21/33/33
f 24/38/38 21/33/33 22/34/34
f 22/34/34 20/36/36 23/37/37
f 22/34/34 19/35/35 20/36/36
f 22/34/34 23/37/37 24/38/38
f 24/38/38 3/39/39 21/33/33
o Grass
g Grass
v -0.50000000 0.46650635 1.87500000
v -0.50000000 0.37500000 1.78349365
v 0.50000000 0.37500000 1.78349365
v 0.50000000 0.46650635 1.87500000
v -0.50000000 0.50000000 2.00000000
v 0.50000000 0.50000000 2.00000000
v -0.50000000 0.50000000 2.50000000
v 0.50000000 0.50000000 2.50000000
v -0.50000000 0.25000000 1.75000000
v 0.50000000 0.25000000 1.75000000
v -0.50000000 0.15000000 1.75000000
v 0.50000000 0.15000000 1.75000000
vt 0.00000000 1.00000000
vt 0.00000000 0.00000000
vt 1.00000000 0.00000000
vt 1.00000000 1.00000000
vt 0.00000000 1.00000000
vt 0.00000000 0.00000000
vt 1.00000000 0.00000000
vt 1.00000000 1.00000000
vt 0.00000000 1.00000000
vt 0.00000000 0.00000000
vt 1.00000000 0.00000000
vt 1.00000000 1.00000000
vt 0.00000000 1.00000000
vt 0.00000000 0.00000000
vt 1.00000000 0.00000000
vt 1.00000000 1.00000000
vt 0.00000000 1.00000000
vt 0.00000000 0.00000000
vt 1.00000000 0.00000000
vt 1.00000000 1.00000000
vn 0.00000000 0.70710678 -0.70710678
vn 0.00000000 0.70710678 -0.70710678
vn 0.00000000 0.70710678 -0.70710678
vn 0.00000000 0.70710678 -0.70710678
vn 0.00000000 0.96592583 -0.25881905
vn 0.00000000 0.96592583 -0.25881905
vn 0.00000000 0.96592583 -0.25881905
vn 0.00000000 0.96592583 -0.25881905
vn 0.00000000 1.00000000 0.00000000
vn 0.00000000 1.00000000 0.00000000
vn 0.00000000 1.00000000 0.00000000
vn 0.00000000 1.00000000 0.00000000
vn 0.00000000 0.25881905 -0.96592583
vn 0.00000000 0.25881905 -0.96592583
vn 0.00000000 0.25881905 -0.96592583
vn 0.00000000 0.25881905 -0.96592583
vn 0.00000000 0.00000000 -1.00000000
vn 0.00000000 0.00000000 -1.00000000
vn 0.00000000 0.00000000 -1.00000000
vn 0.00000000 0.00000000 -1.00000000
s 1
usemtl Grass
f 28/44/44 27/43/43 25/41/41
f 27/43/43 26/42/42 25/41/41
s 2
f 30/48/48 28/47/47 29/45/45
f 28/47/47 25/46/46 29/45/45
s 3
f 32/52/52 30/51/51 29/50/50
f 32/52/52 29/50/50 31/49/49
s 4
f 27/56/56 34/55/55 26/53/53
f 34/55/55 33/54/54 26/53/53
s 5
f 34/60/60 36/59/59 35/58/58
f 34/60/60 35/58/58 33/57/57
v -0.50000000 0.25000000 -0.75000000
v -0.50000000 0.15000000 -0.75000000
v 0.50000000 0.15000000 -0.75000000
v 0.50000000 0.25000000 -0.75000000
v -0.50000000 0.37500000 -0.78349365
v 0.50000000 0.37500000 -0.78349365
v -0.50000000 0.46650635 -0.87500000
v 0.50000000 0.46650635 -0.87500000
v -0.50000000 0.50000000 -1.00000000
v 0.50000000 0.50000000 -1.00000000
v -0.50000000 0.50000000 -1.50000000
v 0.50000000 0.50000000 -1.50000000
vt 0.00000000 1.00000000
vt 0.00000000 0.00000000
vt 1.00000000 0.00000000
vt 1.00000000 1.00000000
vt 0.00000000 1.00000000
vt 0.00000000 0.00000000
vt 1.00000000 0.00000000
vt 1.00000000 1.00000000
vt 0.00000000 1.00000000
vt 0.00000000 0.00000000
vt 1.00000000 0.00000000
vt 1.00000000 1.00000000
vt 0.00000000 1.00000000
vt 0.00000000 0.00000000
vt 1.00000000 0.00000000
vt 1.00000000 1.00000000
vt 0.00000000 1.00000000
vt 0.00000000 0.00000000
vt 1.00000000 0.00000000
vt 1.00000000 1.00000000
vn 0.00000000 0.00000000 1.00000000
vn 0.00000000 0.00000000 1.00000000
vn 0.00000000 0.00000000 1.00000000
vn 0.00000000 0.00000000 1.00000000
vn 0.00000000 0.25881905 0.96592583
vn 0.00000000 0.25881905 0.96592583
vn 0.00000000 0.25881905 0.96592583
vn 0.00000000 0.25881905 0.96592583
vn 0.00000000 0.70710678 0.70710678
vn 0.00000000 0.70710678 0.70710678
vn 0.00000000 0.70710678 0.70710678
vn 0.00000000 0.70710678 0.70710678
vn 0.00000000 0.96592583 0.25881905
vn 0.00000000 0.96592583 0.25881905
vn 0.00000000 0.96592583 0.25881905
vn 0.00000000 0.96592583 0.25881905
vn 0.00000000 1.00000000 -0.00000000
vn 0.00000000 1.00000000 -0.00000000
vn 0.00000000 1.00000000 -0.00000000
vn 0.00000000 1.00000000 -0.00000000
s 1
usemtl Grass
f 37/61/61 38/62/62 40/64/64
f 38/62/62 39/63/63 40/64/64
s 2
f 41/65/65 37/66/66 40/67/67
f 41/65/65 40/67/67 42/68/68
s 3
f 43/69/69 41/70/70 42/71/71
f 43/69/69 42/71/71 44/72/72
s 4
f 45/73/73 43/74/74 44/75/75
f 45/73/73 44/75/75 46/76/76
s 5
f 47/77/77 45/78/78 46/79/79
f 47/77/77 46/79/79 48/80/80
o Ground_Finish_Line
g Ground_Finish_Line
v 0.21900000 0.09305298 1.69305298
v 0.21900000 0.05000000 1.65000000
v -0.21900000 0.05000000 1.65000000
v -0.21900000 0.09305298 1.69305298
v 0.21900000 -0.00000000 1.50000000
v -0.21900000 -0.00000000 1.50000000
v 0.21900000 0.00000000 -0.50000000
v -0.21900000 0.00000000 -0.50000000
v -0.21900000 0.05000000 -0.65000000
v 0.21900000 0.05000000 -0.65000000
v 0.21900000 0.09305298 -0.69305298
v -0.21900000 0.09305298 -0.69305298
vt 1.00000000 1.00000000
vt 0.00000000 1.00000000
vt 0.00000000 0.00000000
vt 1.00000000 0.00000000
vt 1.00000000 0.00000000
vt 1.00000000 1.00000000
vt 0.00000000 1.00000000
vt 0.00000000 0.00000000
vt 0.00000000 0.00000000
vt 1.00000000 0.00000000
vt 1.00000000 1.00000000
vt 0.00000000 1.00000000
vt 0.00000000 1.00000000
vt 0.00000000 0.00000000
vt 1.00000000 0.00000000
vt 1.00000000 1.00000000
vt 0.00000000 0.00000000
vt 1.00000000 0.00000000
vt 1.00000000 1.00000000
vt 0.00000000 1.00000000
vn -0.00000000 0.70692255 -0.70729097
vn -0.00000000 0.70692255 -0.70729097
vn -0.00000000 0.70692255 -0.70729097
vn -0.00000000 0.70692255 -0.70729097
vn -0.00000000 0.94868330 -0.31622777
vn -0.00000000 0.94868330 -0.31622777
vn -0.00000000 0.94868330 -0.31622777
vn -0.00000000 0.94868330 -0.31622777
vn 0.00000000 1.00000000 0.00000000
vn 0.00000000 1.00000000 0.00000000
vn 0.00000000 1.00000000 0.00000000
vn 0.00000000 1.00000000 0.00000000
vn -0.00000000 0.94868330 0.31622777
vn -0.00000000 0.94868330 0.31622777
vn -0.00000000 0.94868330 0.31622777
vn -0.00000000 0.94868330 0.31622777
vn -0.00000000 0.70692255 0.70729097
vn -0.00000000 0.70692255 0.70729097
vn -0.00000000 0.70692255 0.70729097
vn -0.00000000 0.70692255 0.70729097
s 1
usemtl Off_White
f 49/81/81 50/82/82 51/83/83
f 49/81/81 51/83/83 52/84/84
s 2
f 51/85/85 50/86/86 53/87/87
f 51/85/85 53/87/87 54/88/88
s 3
f 56/92/92 54/91/91 53/90/90
f 56/92/92 53/90/90 55/89/89
s 4
f 56/96/96 55/95/95 57/93/93
f 55/95/95 58/94/94 57/93/93
s 5
f 60/100/100 57/99/99 59/97/97
f 57/99/99 58/98/98 59/97/97
