mtllib Track_Striped_Straight_Double.mtl
o Dirt
g Dirt
v -0.50000000 0.00000000 -0.50000000
v -0.50000000 0.05000000 -0.65000000
v 0.50000000 0.05000000 -0.65000000
v 0.50000000 0.00000000 -0.50000000
v 0.50000000 0.00000000 1.50000000
v -0.50000000 0.00000000 1.50000000
v -0.50000000 0.05000000 1.65000000
v 0.50000000 0.05000000 1.65000000
v -0.50000000 0.15000000 1.75000000
v 0.50000000 0.15000000 1.75000000
v -0.50000000 0.15000000 -0.75000000
v 0.50000000 0.15000000 -0.75000000
vt 1.00000000 0.00000000
vt 1.00000000 1.00000000
vt 0.00000000 1.00000000
vt 0.00000000 0.00000000
vt 0.00000000 0.00000000
vt 1.00000000 0.00000000
vt 1.00000000 1.00000000
vt 0.00000000 1.00000000
vt 1.00000000 0.00000000
vt 1.00000000 1.00000000
vt 0.00000000 1.00000000
vt 0.00000000 0.00000000
vt 1.00000000 0.00000000
vt 1.00000000 1.00000000
vt 0.00000000 1.00000000
vt 0.00000000 0.00000000
vt 1.00000000 0.00000000
vt 1.00000000 1.00000000
vt 0.00000000 1.00000000
vt 0.00000000 0.00000000
vn -0.00000000 0.94868330 0.31622777
vn -0.00000000 0.94868330 0.31622777
vn -0.00000000 0.94868330 0.31622777
vn -0.00000000 0.94868330 0.31622777
vn 0.00000000 1.00000000 0.00000000
vn 0.00000000 1.00000000 0.00000000
vn 0.00000000 1.00000000 0.00000000
vn 0.00000000 1.00000000 0.00000000
vn -0.00000000 0.94868330 -0.31622777
vn -0.00000000 0.94868330 -0.31622777
vn -0.00000000 0.94868330 -0.31622777
vn -0.00000000 0.94868330 -0.31622777
vn -0.00000000 0.70710678 -0.70710678
vn -0.00000000 0.70710678 -0.70710678
vn -0.00000000 0.70710678 -0.70710678
vn -0.00000000 0.70710678 -0.70710678
vn -0.00000000 0.70710678 0.70710678
vn -0.00000000 0.70710678 0.70710678
vn -0.00000000 0.70710678 0.70710678
vn -0.00000000 0.70710678 0.70710678
s 1
usemtl Dirt
f 4/4/4 3/3/3 1/1/1
f 3/3/3 2/2/2 1/1/1
s 2
f 4/8/8 1/7/7 5/5/5
f 1/7/7 6/6/6 5/5/5
s 3
f 6/9/9 7/10/10 8/11/11
f 6/9/9 8/11/11 5/12/12
s 4
f 7/13/13 9/14/14 10/15/15
f 7/13/13 10/15/15 8/16/16
s 5
f 3/20/20 12/19/19 2/17/17
f 12/19/19 11/18/18 2/17/17
o Grass
g Grass
v -0.50000000 0.46650635 -0.87500000
v -0.50000000 0.50000000 -1.00000000
v 0.50000000 0.50000000 -1.00000000
v 0.50000000 0.46650635 -0.87500000
v -0.50000000 0.37500000 -0.78349365
v 0.50000000 0.37500000 -0.78349365
v -0.50000000 0.25000000 -0.75000000
v 0.50000000 0.25000000 -0.75000000
v -0.50000000 0.15000000 -0.75000000
v 0.50000000 0.15000000 -0.75000000
v -0.50000000 0.50000000 -1.50000000
v 0.50000000 0.50000000 -1.50000000
vt 1.00000000 0.00000000
vt 1.00000000 1.00000000
vt 0.00000000 1.00000000
vt 0.00000000 0.00000000
vt 1.00000000 0.00000000
vt 1.00000000 1.00000000
vt 0.00000000 1.00000000
vt 0.00000000 0.00000000
vt 1.00000000 0.00000000
vt 1.00000000 1.00000000
vt 0.00000000 1.00000000
vt 0.00000000 0.00000000
vt 1.00000000 0.00000000
vt 1.00000000 1.00000000
vt 0.00000000 1.00000000
vt 0.00000000 0.00000000
vt 1.00000000 0.00000000
vt 1.00000000 1.00000000
vt 0.00000000 1.00000000
vt 0.00000000 0.00000000
vn -0.00000000 0.96592583 0.25881905
vn -0.00000000 0.96592583 0.25881905
vn -0.00000000 0.96592583 0.25881905
vn -0.00000000 0.96592583 0.25881905
vn -0.00000000 0.70710678 0.70710678
vn -0.00000000 0.70710678 0.70710678
vn -0.00000000 0.70710678 0.70710678
vn -0.00000000 0.70710678 0.70710678
vn -0.00000000 0.25881905 0.96592583
vn -0.00000000 0.25881905 0.96592583
vn -0.00000000 0.25881905 0.96592583
vn -0.00000000 0.25881905 0.96592583
vn -0.00000000 0.00000000 1.00000000
vn -0.00000000 0.00000000 1.00000000
vn -0.00000000 0.00000000 1.00000000
vn -0.00000000 0.00000000 1.00000000
vn 0.00000000 1.00000000 -0.00000000
vn 0.00000000 1.00000000 -0.00000000
vn 0.00000000 1.00000000 -0.00000000
vn 0.00000000 1.00000000 -0.00000000
s 1
usemtl Grass
f 16/24/24 15/23/23 13/21/21
f 15/23/23 14/22/22 13/21/21
s 2
f 18/28/28 16/27/27 17/25/25
f 16/27/27 13/26/26 17/25/25
s 3
f 20/32/32 18/31/31 19/29/29
f 18/31/31 17/30/30 19/29/29
s 4
f 22/36/36 20/35/35 21/33/33
f 20/35/35 19/34/34 21/33/33
s 5
f 15/40/40 24/39/39 14/37/37
f 24/39/39 23/38/38 14/37/37
v -0.50000000 0.46650635 1.87500000
v -0.50000000 0.50000000 2.00000000
v 0.50000000 0.50000000 2.00000000
v 0.50000000 0.46650635 1.87500000
v -0.50000000 0.37500000 1.78349365
v 0.50000000 0.37500000 1.78349365
v -0.50000000 0.25000000 1.75000000
v 0.50000000 0.25000000 1.75000000
v -0.50000000 0.15000000 1.75000000
v 0.50000000 0.15000000 1.75000000
v -0.50000000 0.50000000 2.50000000
v 0.50000000 0.50000000 2.50000000
vt 1.00000000 0.00000000
vt 1.00000000 1.00000000
vt 0.00000000 1.00000000
vt 0.00000000 0.00000000
vt 1.00000000 0.00000000
vt 1.00000000 1.00000000
vt 0.00000000 1.00000000
vt 0.00000000 0.00000000
vt 1.00000000 0.00000000
vt 1.00000000 1.00000000
vt 0.00000000 1.00000000
vt 0.00000000 0.00000000
vt 1.00000000 0.00000000
vt 1.00000000 1.00000000
vt 0.00000000 1.00000000
vt 0.00000000 0.00000000
vt 1.00000000 0.00000000
vt 1.00000000 1.00000000
vt 0.00000000 1.00000000
vt 0.00000000 0.00000000
vn -0.00000000 0.96592583 -0.25881905
vn -0.00000000 0.96592583 -0.25881905
vn -0.00000000 0.96592583 -0.25881905
vn -0.00000000 0.96592583 -0.25881905
vn -0.00000000 0.70710678 -0.70710678
vn -0.00000000 0.70710678 -0.70710678
vn -0.00000000 0.70710678 -0.70710678
vn -0.00000000 0.70710678 -0.70710678
vn -0.00000000 0.25881905 -0.96592583
vn -0.00000000 0.25881905 -0.96592583
vn -0.00000000 0.25881905 -0.96592583
vn -0.00000000 0.25881905 -0.96592583
vn -0.00000000 0.00000000 -1.00000000
vn -0.00000000 0.00000000 -1.00000000
vn -0.00000000 0.00000000 -1.00000000
vn -0.00000000 0.00000000 -1.00000000
vn 0.00000000 1.00000000 0.00000000
vn 0.00000000 1.00000000 0.00000000
vn 0.00000000 1.00000000 0.00000000
vn 0.00000000 1.00000000 0.00000000
s 1
usemtl Grass
f 25/41/41 26/42/42 27/43/43
f 25/41/41 27/43/43 28/44/44
s 2
f 29/45/45 25/46/46 28/47/47
f 29/45/45 28/47/47 30/48/48
s 3
f 31/49/49 29/50/50 30/51/51
f 31/49/49 30/51/51 32/52/52
s 4
f 33/53/53 31/54/54 34/56/56
f 31/54/54 32/55/55 34/56/56
s 5
f 26/57/57 35/58/58 36/59/59
f 26/57/57 36/59/59 27/60/60
o Raceline_Color_1
g Raceline_Color_1
v 0.50000000 0.00000000 1.60000000
v 0.50000000 0.10000000 1.65000000
v 0.00000000 0.10000000 1.65000000
v 0.00000000 0.00000000 1.60000000
v 0.50000000 0.15000000 1.75000000
v 0.00000000 0.15000000 1.75000000
vt 1.00000000 0.00000000
vt 1.00000000 1.00000000
vt 0.00000000 1.00000000
vt 0.00000000 0.00000000
vt 1.00000000 0.00000000
vt 1.00000000 1.00000000
vt 0.00000000 1.00000000
vt 0.00000000 0.00000000
vn -0.00000000 0.44721360 -0.89442719
vn -0.00000000 0.44721360 -0.89442719
vn -0.00000000 0.44721360 -0.89442719
vn -0.00000000 0.44721360 -0.89442719
vn -0.00000000 0.89442719 -0.44721360
vn -0.00000000 0.89442719 -0.44721360
vn -0.00000000 0.89442719 -0.44721360
vn -0.00000000 0.89442719 -0.44721360
s 1
usemtl Off_White
f 40/64/64 39/63/63 38/62/62
f 40/64/64 38/62/62 37/61/61
s 2
f 39/68/68 42/67/67 38/65/65
f 42/67/67 41/66/66 38/65/65
v 0.50000000 0.10000000 -0.65000000
v 0.50000000 0.15000000 -0.75000000
v 0.00000000 0.15000000 -0.75000000
v 0.00000000 0.10000000 -0.65000000
v 0.50000000 0.00000000 -0.60000000
v 0.00000000 0.00000000 -0.60000000
vt 1.00000000 0.00000000
vt 1.00000000 1.00000000
vt 0.00000000 1.00000000
vt 0.00000000 0.00000000
vt 1.00000000 0.00000000
vt 1.00000000 1.00000000
vt 0.00000000 1.00000000
vt 0.00000000 0.00000000
vn -0.00000000 0.89442719 0.44721360
vn -0.00000000 0.89442719 0.44721360
vn -0.00000000 0.89442719 0.44721360
vn -0.00000000 0.89442719 0.44721360
vn -0.00000000 0.44721360 0.89442719
vn -0.00000000 0.44721360 0.89442719
vn -0.00000000 0.44721360 0.89442719
vn -0.00000000 0.44721360 0.89442719
s 1
usemtl Off_White
f 43/69/69 44/70/70 45/71/71
f 43/69/69 45/71/71 46/72/72
s 2
f 47/73/73 43/74/74 48/76/76
f 43/74/74 46/75/75 48/76/76
o Raceline_Color_2
g Raceline_Color_2
v 0.00000000 0.10000000 1.65000000
v 0.00000000 0.15000000 1.75000000
v -0.50000000 0.15000000 1.75000000
v -0.50000000 0.10000000 1.65000000
v 0.00000000 0.00000000 1.60000000
v -0.50000000 0.00000000 1.60000000
vt 1.00000000 0.00000000
vt 1.00000000 1.00000000
vt 0.00000000 1.00000000
vt 0.00000000 0.00000000
vt 1.00000000 0.00000000
vt 1.00000000 1.00000000
vt 0.00000000 1.00000000
vt 0.00000000 0.00000000
vn -0.00000000 0.89442719 -0.44721360
vn -0.00000000 0.89442719 -0.44721360
vn -0.00000000 0.89442719 -0.44721360
vn -0.00000000 0.89442719 -0.44721360
vn -0.00000000 0.44721360 -0.89442719
vn -0.00000000 0.44721360 -0.89442719
vn -0.00000000 0.44721360 -0.89442719
vn -0.00000000 0.44721360 -0.89442719
s 1
usemtl Red
f 52/80/80 51/79/79 49/77/77
f 51/79/79 50/78/78 49/77/77
s 2
f 54/84/84 52/83/83 49/82/82
f 54/84/84 49/82/82 53/81/81
v 0.00000000 0.10000000 -0.65000000
v 0.00000000 0.15000000 -0.75000000
v -0.50000000 0.15000000 -0.75000000
v -0.50000000 0.10000000 -0.65000000
v 0.00000000 0.00000000 -0.60000000
v -0.50000000 0.00000000 -0.60000000
vt 1.00000000 0.00000000
vt 1.00000000 1.00000000
vt 0.00000000 1.00000000
vt 0.00000000 0.00000000
vt 1.00000000 0.00000000
vt 1.00000000 1.00000000
vt 0.00000000 1.00000000
vt 0.00000000 0.00000000
vn -0.00000000 0.89442719 0.44721360
vn -0.00000000 0.89442719 0.44721360
vn -0.00000000 0.89442719 0.44721360
vn -0.00000000 0.89442719 0.44721360
vn -0.00000000 0.44721360 0.89442719
vn -0.00000000 0.44721360 0.89442719
vn -0.00000000 0.44721360 0.89442719
vn -0.00000000 0.44721360 0.89442719
s 1
usemtl Red
f 55/85/85 56/86/86 57/87/87
f 55/85/85 57/87/87 58/88/88
s 2
f 59/89/89 55/90/90 60/92/92
f 55/90/90 58/91/91 60/92/92
