mtllib Track_Bridge_Start_Collider.mtl
o Collider_Bridge_Floor
g Collider_Bridge_Floor
v 0.10000000 -0.00000000 -0.50000000
v -0.50000000 -0.00000000 -0.50000000
v -0.50000000 -0.00000000 0.50000000
v 0.10000000 -0.00000000 0.50000000
vt 0.00000000 0.00000000
vt 1.00000000 0.00000000
vt 1.00000000 1.00000000
vt 0.00000000 1.00000000
vn 0.00000000 1.00000000 0.00000000
vn 0.00000000 1.00000000 0.00000000
vn 0.00000000 1.00000000 0.00000000
vn 0.00000000 1.00000000 0.00000000
s 1
usemtl Rigidbody
f 1/1/1 2/2/2 3/3/3
f 1/1/1 3/3/3 4/4/4
o Collider_Bridge_Wall
g Collider_Bridge_Wall
v 0.10000000 -0.00000000 0.50000000
v 0.01961524 0.30000000 0.50000000
v -0.20000000 0.51961524 0.50000000
v -0.50000000 0.60000000 0.50000000
v -0.50000000 -0.00000000 0.50000000
vt 0.00000000 0.00000000
vt 0.50000000 0.13397460
vt 0.86602540 0.50000000
vt 1.00000000 1.00000000
vt 0.00000000 1.00000000
vn 0.00000000 0.00000000 -1.00000000
vn 0.00000000 0.00000000 -1.00000000
vn 0.00000000 0.00000000 -1.00000000
vn 0.00000000 0.00000000 -1.00000000
vn 0.00000000 0.00000000 -1.00000000
s 1
usemtl Rigidbody
f 8/8/8 7/7/7 6/6/6
f 6/6/6 5/5/5 9/9/9
f 9/9/9 8/8/8 6/6/6
v 0.10000000 -0.00000000 -0.50000000
v 0.01961524 0.30000000 -0.50000000
v -0.20000000 0.51961524 -0.50000000
v -0.50000000 0.60000000 -0.50000000
v -0.50000000 -0.00000000 -0.50000000
vt 0.00000000 0.00000000
vt 0.50000000 0.13397460
vt 0.86602540 0.50000000
vt 1.00000000 1.00000000
vt 0.00000000 1.00000000
vn 0.00000000 0.00000000 1.00000000
vn 0.00000000 0.00000000 1.00000000
vn 0.00000000 0.00000000 1.00000000
vn 0.00000000 0.00000000 1.00000000
vn 0.00000000 0.00000000 1.00000000
s 1
usemtl Rigidbody
f 11/11/11 12/12/12 13/13/13
f 11/11/11 13/13/13 14/14/14
f 14/14/14 10/10/10 11/11/11
