mtllib Track_Bridge_Incline_Gentle_Sharp_Collider.mtl
o Collider_Bridge_Floor
g Collider_Bridge_Floor
v 0.24619777 0.12155919 0.50000000
v 0.24619777 0.12155919 -0.50000000
v -0.01139972 0.23441123 -0.50000000
v -0.01139972 0.23441123 0.50000000
v -0.27257725 0.33969315 -0.50000000
v -0.27257725 0.33969315 0.50000000
v -0.53556808 0.44068700 -0.50000000
v -0.53556808 0.44068700 0.50000000
v -0.79622849 0.54471499 -0.50000000
v -0.79622849 0.54471499 0.50000000
v -1.05023208 0.66536690 -0.50000000
v -1.05023208 0.66536690 0.50000000
v -1.28760864 0.81589753 -0.50000000
v -1.28760864 0.81589753 0.50000000
v -1.50000000 1.00000000 -0.50000000
v -1.50000000 1.00000000 0.50000000
v 0.50000000 -0.00000000 0.50000000
v 0.50000000 -0.00000000 -0.50000000
vt 0.00000000 0.00000000
vt 1.00000000 0.00000000
vt 1.00000000 1.00000000
vt 0.00000000 1.00000000
vt 0.00000000 0.00000000
vt 1.00000000 0.00000000
vt 1.00000000 1.00000000
vt 0.00000000 1.00000000
vt 0.00000000 0.00000000
vt 1.00000000 0.00000000
vt 1.00000000 1.00000000
vt 0.00000000 1.00000000
vt 0.00000000 0.00000000
vt 1.00000000 0.00000000
vt 1.00000000 1.00000000
vt 0.00000000 1.00000000
vt 0.00000000 0.00000000
vt 1.00000000 0.00000000
vt 1.00000000 1.00000000
vt 0.00000000 1.00000000
vt 0.00000000 0.00000000
vt 1.00000000 0.00000000
vt 1.00000000 1.00000000
vt 0.00000000 1.00000000
vt 0.00000000 0.00000000
vt 1.00000000 0.00000000
vt 1.00000000 1.00000000
vt 0.00000000 1.00000000
vt 0.00000000 0.00000000
vt 1.00000000 0.00000000
vt 1.00000000 1.00000000
vt 0.00000000 1.00000000
vn 0.40127581 0.91595727 -0.00000000
vn 0.40127581 0.91595727 -0.00000000
vn 0.40127581 0.91595727 -0.00000000
vn 0.40127581 0.91595727 -0.00000000
vn 0.37387180 0.92748039 -0.00000000
vn 0.37387180 0.92748039 -0.00000000
vn 0.35849519 0.93353157 -0.00000000
vn 0.35849519 0.93353157 -0.00000000
vn 0.37066512 0.92876658 -0.00000000
vn 0.37066512 0.92876658 -0.00000000
vn 0.42905743 0.90327721 -0.00000000
vn 0.42905743 0.90327721 -0.00000000
vn 0.42905743 0.90327721 -0.00000000
vn 0.42905743 0.90327721 -0.00000000
vn 0.53553986 0.84450995 -0.00000000
vn 0.53553986 0.84450995 -0.00000000
vn 0.53553986 0.84450995 -0.00000000
vn 0.53553986 0.84450995 -0.00000000
vn 0.65499141 0.75563632 -0.00000000
vn 0.65499141 0.75563632 -0.00000000
vn 0.65499141 0.75563632 -0.00000000
vn 0.65499141 0.75563632 -0.00000000
vn 0.43196303 0.90189131 -0.00000000
vn 0.43196303 0.90189131 -0.00000000
s 1
usemtl Rigidbody
f 1/1/1 2/2/2 4/4/4
f 4/5/4 3/6/3 6/8/6
f 6/9/6 5/10/5 8/12/8
f 8/13/8 7/14/7 10/16/10
f 7/14/7 9/15/9 10/16/10
f 5/10/5 7/11/7 8/12/8
f 3/6/3 5/7/5 6/8/6
f 17/29/23 18/30/24 2/31/2
f 2/2/2 3/3/3 4/4/4
f 17/29/23 2/31/2 1/32/1
s 2
f 10/17/11 9/18/12 12/20/14
f 9/18/12 11/19/13 12/20/14
s 3
f 12/21/15 11/22/16 14/24/18
f 11/22/16 13/23/17 14/24/18
s 4
f 14/25/19 13/26/20 15/27/21
f 14/25/19 15/27/21 16/28/22
o Collider_Bridge_Wall
g Collider_Bridge_Wall
v 0.24619777 0.12155919 -0.50000000
v 0.49609714 0.66704091 -0.50000000
v 0.22049405 0.78778748 -0.50000000
v -0.01139972 0.23441123 -0.50000000
v -0.05470538 0.89873863 -0.50000000
v -0.27257725 0.33969315 -0.50000000
v -0.32054607 1.00083477 -0.50000000
v -0.53556808 0.44068700 -0.50000000
v -0.56173361 1.09699404 -0.50000000
v -0.79622849 0.54471499 -0.50000000
v -0.76477922 1.19311369 -0.50000000
v -1.05023208 0.66536690 -0.50000000
v -0.92960583 1.29738895 -0.50000000
v -1.28760864 0.81589753 -0.50000000
v -1.07573593 1.42426407 -0.50000000
v -1.50000000 1.00000000 -0.50000000
v 0.50000000 -0.00000000 -0.50000000
v 0.76832816 0.53665631 -0.50000000
vt 0.00000000 0.00000000
vt 1.00000000 0.00000000
vt 1.00000000 1.00000000
vt 0.00000000 1.00000000
vt 0.00000000 0.00000000
vt 1.00000000 0.00000000
vt 1.00000000 1.00000000
vt 0.00000000 1.00000000
vt 0.00000000 0.00000000
vt 1.00000000 0.00000000
vt 1.00000000 1.00000000
vt 0.00000000 1.00000000
vt 0.00000000 0.00000000
vt 1.00000000 0.00000000
vt 1.00000000 1.00000000
vt 0.00000000 1.00000000
vt 0.00000000 0.00000000
vt 1.00000000 0.00000000
vt 1.00000000 1.00000000
vt 0.00000000 1.00000000
vt 0.00000000 0.00000000
vt 1.00000000 0.00000000
vt 1.00000000 1.00000000
vt 0.00000000 1.00000000
vt 0.00000000 0.00000000
vt 1.00000000 0.00000000
vt 1.00000000 1.00000000
vt 0.00000000 1.00000000
vt 0.00000000 0.00000000
vt 1.00000000 0.00000000
vt 1.00000000 1.00000000
vt 0.00000000 1.00000000
vn -0.00000000 0.00000000 1.00000000
vn -0.00000000 0.00000000 1.00000000
vn -0.00000000 0.00000000 1.00000000
vn -0.00000000 0.00000000 1.00000000
vn -0.00000000 0.00000000 1.00000000
vn -0.00000000 0.00000000 1.00000000
vn -0.00000000 0.00000000 1.00000000
vn -0.00000000 0.00000000 1.00000000
vn -0.00000000 0.00000000 1.00000000
vn -0.00000000 0.00000000 1.00000000
vn -0.00000000 0.00000000 1.00000000
vn -0.00000000 0.00000000 1.00000000
vn -0.00000000 0.00000000 1.00000000
vn -0.00000000 0.00000000 1.00000000
vn -0.00000000 0.00000000 1.00000000
vn -0.00000000 0.00000000 1.00000000
vn -0.00000000 0.00000000 1.00000000
vn 0.00000000 0.00000000 1.00000000
s 1
usemtl Rigidbody
f 19/33/25 20/34/26 21/35/27
f 22/37/28 21/38/27 23/39/29
f 24/41/30 23/42/29 25/43/31
f 26/45/32 25/46/31 27/47/33
f 28/49/34 27/50/33 29/51/35
f 30/53/36 29/54/35 31/55/37
f 31/58/37 33/59/39 34/60/40
f 32/57/38 31/58/37 34/60/40
f 30/53/36 31/55/37 32/56/38
f 28/49/34 29/51/35 30/52/36
f 26/45/32 27/47/33 28/48/34
f 24/41/30 25/43/31 26/44/32
f 22/37/28 23/39/29 24/40/30
f 36/62/42 20/63/26 19/64/25
f 35/61/41 36/62/42 19/64/25
f 19/33/25 21/35/27 22/36/28
v -1.28760864 0.81589753 0.50000000
v -0.92960583 1.29738895 0.50000000
v -1.07573593 1.42426407 0.50000000
v -1.50000000 1.00000000 0.50000000
v -1.05023208 0.66536690 0.50000000
v -0.76477922 1.19311369 0.50000000
v -0.79622849 0.54471499 0.50000000
v -0.56173361 1.09699404 0.50000000
v -0.53556808 0.44068700 0.50000000
v -0.32054607 1.00083477 0.50000000
v -0.27257725 0.33969315 0.50000000
v -0.05470538 0.89873863 0.50000000
v -0.01139972 0.23441123 0.50000000
v 0.22049405 0.78778748 0.50000000
v 0.24619777 0.12155919 0.50000000
v 0.49609714 0.66704091 0.50000000
v 0.50000000 -0.00000000 0.50000000
v 0.76832816 0.53665631 0.50000000
vt 0.00000000 0.00000000
vt 1.00000000 0.00000000
vt 1.00000000 1.00000000
vt 0.00000000 1.00000000
vt 0.00000000 0.00000000
vt 1.00000000 0.00000000
vt 1.00000000 1.00000000
vt 0.00000000 1.00000000
vt 0.00000000 0.00000000
vt 1.00000000 0.00000000
vt 1.00000000 1.00000000
vt 0.00000000 1.00000000
vt 0.00000000 0.00000000
vt 1.00000000 0.00000000
vt 1.00000000 1.00000000
vt 0.00000000 1.00000000
vt 0.00000000 0.00000000
vt 1.00000000 0.00000000
vt 1.00000000 1.00000000
vt 0.00000000 1.00000000
vt 0.00000000 0.00000000
vt 1.00000000 0.00000000
vt 1.00000000 1.00000000
vt 0.00000000 1.00000000
vt 0.00000000 0.00000000
vt 1.00000000 0.00000000
vt 1.00000000 1.00000000
vt 0.00000000 1.00000000
vt 0.00000000 0.00000000
vt 1.00000000 0.00000000
vt 1.00000000 1.00000000
vt 0.00000000 1.00000000
vn 0.00000000 0.00000000 -1.00000000
vn 0.00000000 0.00000000 -1.00000000
vn 0.00000000 0.00000000 -1.00000000
vn 0.00000000 0.00000000 -1.00000000
vn 0.00000000 0.00000000 -1.00000000
vn 0.00000000 0.00000000 -1.00000000
vn 0.00000000 0.00000000 -1.00000000
vn 0.00000000 0.00000000 -1.00000000
vn 0.00000000 0.00000000 -1.00000000
vn 0.00000000 0.00000000 -1.00000000
vn 0.00000000 0.00000000 -1.00000000
vn 0.00000000 0.00000000 -1.00000000
vn 0.00000000 0.00000000 -1.00000000
vn 0.00000000 0.00000000 -1.00000000
vn 0.00000000 0.00000000 -1.00000000
vn 0.00000000 0.00000000 -1.00000000
vn -0.00000000 0.00000000 -1.00000000
vn 0.00000000 0.00000000 -1.00000000
s 1
usemtl Rigidbody
f 40/68/46 39/67/45 38/66/44
f 38/71/44 42/70/48 41/69/47
f 42/75/48 44/74/50 43/73/49
f 44/79/50 46/78/52 45/77/51
f 46/83/52 48/82/54 47/81/53
f 48/87/54 50/86/56 49/85/55
f 50/91/56 52/90/58 51/89/57
f 51/96/57 54/94/60 53/93/59
f 51/96/57 52/95/58 54/94/60
f 49/92/55 50/91/56 51/89/57
f 47/88/53 48/87/54 49/85/55
f 45/84/51 46/83/52 47/81/53
f 43/80/49 44/79/50 45/77/51
f 41/76/47 42/75/48 43/73/49
f 37/72/43 38/71/44 41/69/47
f 40/68/46 38/66/44 37/65/43
