mtllib Track_Bridge_Incline_Sharp_Flat_Collider.mtl
o Collider_Bridge_Floor
g Collider_Bridge_Floor
v 0.50000000 -0.00000000 0.50000000
v 0.50000000 0.00000000 -0.50000000
v 0.29174766 0.19741008 -0.50000000
v 0.29174766 0.19741008 0.50000000
v 0.07219561 0.38205024 -0.50000000
v 0.07219561 0.38205024 0.50000000
v -0.15971834 0.55091126 -0.50000000
v -0.15971834 0.55091126 0.50000000
v -0.40472368 0.70009244 -0.50000000
v -0.40472368 0.70009244 0.50000000
v -0.66298868 0.82485301 -0.50000000
v -0.66298868 0.82485301 0.50000000
v -0.93358897 0.91979464 -0.50000000
v -0.93358897 0.91979464 0.50000000
v -1.21402477 0.97955454 -0.50000000
v -1.21402477 0.97955454 0.50000000
v -1.50000000 1.00000000 -0.50000000
v -1.50000000 1.00000000 0.50000000
vt 0.00000000 0.00000000
vt 1.00000000 0.00000000
vt 1.00000000 1.00000000
vt 0.00000000 1.00000000
vt 0.00000000 0.00000000
vt 1.00000000 0.00000000
vt 1.00000000 1.00000000
vt 0.00000000 1.00000000
vt 0.00000000 0.00000000
vt 1.00000000 0.00000000
vt 1.00000000 1.00000000
vt 0.00000000 1.00000000
vt 0.00000000 0.00000000
vt 1.00000000 0.00000000
vt 1.00000000 1.00000000
vt 0.00000000 1.00000000
vt 0.00000000 0.00000000
vt 1.00000000 0.00000000
vt 1.00000000 1.00000000
vt 0.00000000 1.00000000
vt 0.00000000 0.00000000
vt 1.00000000 0.00000000
vt 1.00000000 1.00000000
vt 0.00000000 1.00000000
vt 0.00000000 0.00000000
vt 1.00000000 0.00000000
vt 1.00000000 1.00000000
vt 0.00000000 1.00000000
vt 0.00000000 0.00000000
vt 1.00000000 0.00000000
vt 1.00000000 1.00000000
vt 0.00000000 1.00000000
vn 0.68796205 0.72574666 0.00000000
vn 0.68796205 0.72574666 0.00000000
vn 0.68796205 0.72574666 0.00000000
vn 0.68796205 0.72574666 0.00000000
vn 0.64363433 0.76533316 0.00000000
vn 0.64363433 0.76533316 0.00000000
vn 0.64363433 0.76533316 0.00000000
vn 0.64363433 0.76533316 0.00000000
vn 0.58861924 0.80841041 0.00000000
vn 0.58861924 0.80841041 0.00000000
vn 0.58861924 0.80841041 0.00000000
vn 0.58861924 0.80841041 0.00000000
vn 0.52006775 0.85412501 0.00000000
vn 0.52006775 0.85412501 0.00000000
vn 0.52006775 0.85412501 0.00000000
vn 0.52006775 0.85412501 0.00000000
vn 0.43497783 0.90044116 0.00000000
vn 0.43497783 0.90044116 0.00000000
vn 0.43497783 0.90044116 0.00000000
vn 0.43497783 0.90044116 0.00000000
vn 0.33106956 0.94360635 0.00000000
vn 0.33106956 0.94360635 0.00000000
vn 0.33106956 0.94360635 0.00000000
vn 0.33106956 0.94360635 0.00000000
vn 0.20841698 0.97804006 0.00000000
vn 0.20841698 0.97804006 0.00000000
vn 0.20841698 0.97804006 0.00000000
vn 0.20841698 0.97804006 0.00000000
vn 0.07131179 0.99745407 0.00000000
vn 0.07131179 0.99745407 0.00000000
vn 0.07131179 0.99745407 0.00000000
vn 0.07131179 0.99745407 0.00000000
s 1
usemtl Rigidbody
f 1/1/1 2/2/2 3/3/3
f 1/1/1 3/3/3 4/4/4
s 2
f 4/5/5 3/6/6 6/8/8
f 3/6/6 5/7/7 6/8/8
s 3
f 6/9/9 5/10/10 8/12/12
f 5/10/10 7/11/11 8/12/12
s 4
f 8/13/13 7/14/14 10/16/16
f 7/14/14 9/15/15 10/16/16
s 5
f 10/17/17 9/18/18 12/20/20
f 9/18/18 11/19/19 12/20/20
s 6
f 12/21/21 11/22/22 14/24/24
f 11/22/22 13/23/23 14/24/24
s 7
f 14/25/25 13/26/26 16/28/28
f 13/26/26 15/27/27 16/28/28
s 8
f 16/29/29 15/30/30 17/31/31
f 16/29/29 17/31/31 18/32/32
o Collider_Bridge_Wall
g Collider_Bridge_Wall
v 0.07219561 0.38205024 -0.50000000
v 0.44300039 0.85375334 -0.50000000
v 0.17429964 1.04934079 -0.50000000
v -0.15971834 0.55091126 -0.50000000
v -0.11652717 1.22634597 -0.50000000
v -0.40472368 0.70009244 -0.50000000
v -0.43135245 1.37833712 -0.50000000
v -0.66298868 0.82485301 -0.50000000
v -0.77009574 1.49709002 -0.50000000
v -0.93358897 0.91979464 -0.50000000
v -1.12909601 1.57351338 -0.50000000
v -1.21402477 0.97955454 -0.50000000
v -1.50000000 1.60000000 -0.50000000
v -1.50000000 1.00000000 -0.50000000
v 0.29174766 0.19741008 -0.50000000
v 0.69210670 0.64430228 -0.50000000
v 0.50000000 0.00000000 -0.50000000
v 0.92426407 0.42426407 -0.50000000
vt 0.00000000 0.00000000
vt 1.00000000 0.00000000
vt 1.00000000 1.00000000
vt 0.00000000 1.00000000
vt 0.00000000 0.00000000
vt 1.00000000 0.00000000
vt 1.00000000 1.00000000
vt 0.00000000 1.00000000
vt 0.00000000 0.00000000
vt 1.00000000 0.00000000
vt 1.00000000 1.00000000
vt 0.00000000 1.00000000
vt 0.00000000 0.00000000
vt 1.00000000 0.00000000
vt 1.00000000 1.00000000
vt 0.00000000 1.00000000
vt 0.00000000 0.00000000
vt 1.00000000 0.00000000
vt 1.00000000 1.00000000
vt 0.00000000 1.00000000
vt 0.00000000 0.00000000
vt 1.00000000 0.00000000
vt 1.00000000 1.00000000
vt 0.00000000 1.00000000
vt 0.00000000 0.00000000
vt 1.00000000 0.00000000
vt 1.00000000 1.00000000
vt 0.00000000 1.00000000
vt 0.00000000 0.00000000
vt 1.00000000 0.00000000
vt 1.00000000 1.00000000
vt 0.00000000 1.00000000
vn -0.00000000 -0.00000000 1.00000000
vn -0.00000000 -0.00000000 1.00000000
vn -0.00000000 -0.00000000 1.00000000
vn -0.00000000 -0.00000000 1.00000000
vn -0.00000000 -0.00000000 1.00000000
vn -0.00000000 -0.00000000 1.00000000
vn -0.00000000 -0.00000000 1.00000000
vn -0.00000000 -0.00000000 1.00000000
vn -0.00000000 -0.00000000 1.00000000
vn -0.00000000 -0.00000000 1.00000000
vn -0.00000000 -0.00000000 1.00000000
vn -0.00000000 -0.00000000 1.00000000
vn -0.00000000 -0.00000000 1.00000000
vn -0.00000000 -0.00000000 1.00000000
vn -0.00000000 -0.00000000 1.00000000
vn -0.00000000 -0.00000000 1.00000000
vn -0.00000000 0.00000000 1.00000000
vn 0.00000000 0.00000000 1.00000000
s 1
usemtl Rigidbody
f 19/33/33 20/34/34 22/36/36
f 22/37/36 21/38/35 24/40/38
f 24/41/38 23/42/37 26/44/40
f 26/45/40 25/46/39 28/48/42
f 28/49/42 27/50/41 30/52/44
f 30/53/44 29/54/43 32/56/46
f 29/54/43 31/55/45 32/56/46
f 27/50/41 29/51/43 30/52/44
f 25/46/39 27/47/41 28/48/42
f 23/42/37 25/43/39 26/44/40
f 21/38/35 23/39/37 24/40/38
f 20/34/34 21/35/35 22/36/36
f 34/58/48 20/59/34 19/60/33
f 36/62/50 34/63/48 33/64/47
f 35/61/49 36/62/50 33/64/47
f 33/57/47 34/58/48 19/60/33
v -0.93358897 0.91979464 0.50000000
v -0.77009574 1.49709002 0.50000000
v -1.12909601 1.57351338 0.50000000
v -1.21402477 0.97955454 0.50000000
v -1.50000000 1.60000000 0.50000000
v -1.50000000 1.00000000 0.50000000
v -0.66298868 0.82485301 0.50000000
v -0.43135245 1.37833712 0.50000000
v -0.40472368 0.70009244 0.50000000
v -0.11652717 1.22634597 0.50000000
v -0.15971834 0.55091126 0.50000000
v 0.17429964 1.04934079 0.50000000
v 0.07219561 0.38205024 0.50000000
v 0.44300039 0.85375334 0.50000000
v 0.29174766 0.19741008 0.50000000
v 0.69210670 0.64430228 0.50000000
v 0.50000000 -0.00000000 0.50000000
v 0.92426407 0.42426407 0.50000000
vt 0.00000000 0.00000000
vt 1.00000000 0.00000000
vt 1.00000000 1.00000000
vt 0.00000000 1.00000000
vt 0.00000000 0.00000000
vt 1.00000000 0.00000000
vt 1.00000000 1.00000000
vt 0.00000000 1.00000000
vt 0.00000000 0.00000000
vt 1.00000000 0.00000000
vt 1.00000000 1.00000000
vt 0.00000000 1.00000000
vt 0.00000000 0.00000000
vt 1.00000000 0.00000000
vt 1.00000000 1.00000000
vt 0.00000000 1.00000000
vt 0.00000000 0.00000000
vt 1.00000000 0.00000000
vt 1.00000000 1.00000000
vt 0.00000000 1.00000000
vt 0.00000000 0.00000000
vt 1.00000000 0.00000000
vt 1.00000000 1.00000000
vt 0.00000000 1.00000000
vt 0.00000000 0.00000000
vt 1.00000000 0.00000000
vt 1.00000000 1.00000000
vt 0.00000000 1.00000000
vt 0.00000000 0.00000000
vt 1.00000000 0.00000000
vt 1.00000000 1.00000000
vt 0.00000000 1.00000000
vn -0.00000000 -0.00000000 -1.00000000
vn -0.00000000 -0.00000000 -1.00000000
vn -0.00000000 -0.00000000 -1.00000000
vn -0.00000000 -0.00000000 -1.00000000
vn -0.00000000 -0.00000000 -1.00000000
vn -0.00000000 -0.00000000 -1.00000000
vn -0.00000000 -0.00000000 -1.00000000
vn -0.00000000 -0.00000000 -1.00000000
vn -0.00000000 -0.00000000 -1.00000000
vn 0.00000000 -0.00000000 -1.00000000
vn -0.00000000 -0.00000000 -1.00000000
vn -0.00000000 -0.00000000 -1.00000000
vn -0.00000000 -0.00000000 -1.00000000
vn -0.00000000 -0.00000000 -1.00000000
vn -0.00000000 -0.00000000 -1.00000000
vn -0.00000000 -0.00000000 -1.00000000
vn -0.00000000 0.00000000 -1.00000000
vn 0.00000000 0.00000000 -1.00000000
s 1
usemtl Rigidbody
f 40/68/54 39/67/53 38/66/52
f 37/76/51 38/75/52 44/74/58
f 43/80/57 44/79/58 46/78/60
f 45/84/59 46/83/60 48/82/62
f 47/88/61 48/87/62 50/86/64
f 49/92/63 50/91/64 52/90/66
f 51/96/65 52/95/66 54/94/68
f 51/96/65 54/94/68 53/93/67
f 49/92/63 52/90/66 51/89/65
f 47/88/61 50/86/64 49/85/63
f 45/84/59 48/82/62 47/81/61
f 43/80/57 46/78/60 45/77/59
f 37/76/51 44/74/58 43/73/57
f 42/72/56 41/71/55 39/70/53
f 42/72/56 39/70/53 40/69/54
f 40/68/54 38/66/52 37/65/51
