mtllib Track_Standard_Straight_Single.mtl
o Dirt
g Dirt
v -0.50000000 0.00000000 -0.50000000
v -0.50000000 0.05000000 -0.65000000
v 0.50000000 0.05000000 -0.65000000
v 0.50000000 0.00000000 -0.50000000
v 0.50000000 0.00000000 0.50000000
v -0.50000000 0.00000000 0.50000000
v -0.50000000 0.05000000 0.65000000
v 0.50000000 0.05000000 0.65000000
v -0.50000000 0.15000000 0.75000000
v 0.50000000 0.15000000 0.75000000
v -0.50000000 0.15000000 -0.75000000
v 0.50000000 0.15000000 -0.75000000
vt 1.00000000 0.00000000
vt 1.00000000 1.00000000
vt 0.00000000 1.00000000
vt 0.00000000 0.00000000
vt 0.00000000 0.00000000
vt 1.00000000 0.00000000
vt 1.00000000 1.00000000
vt 0.00000000 1.00000000
vt 1.00000000 0.00000000
vt 1.00000000 1.00000000
vt 0.00000000 1.00000000
vt 0.00000000 0.00000000
vt 1.00000000 0.00000000
vt 1.00000000 1.00000000
vt 0.00000000 1.00000000
vt 0.00000000 0.00000000
vt 1.00000000 0.00000000
vt 1.00000000 1.00000000
vt 0.00000000 1.00000000
vt 0.00000000 0.00000000
vn -0.00000000 0.94868330 0.31622777
vn -0.00000000 0.94868330 0.31622777
vn -0.00000000 0.94868330 0.31622777
vn -0.00000000 0.94868330 0.31622777
vn 0.00000000 1.00000000 0.00000000
vn 0.00000000 1.00000000 0.00000000
vn 0.00000000 1.00000000 0.00000000
vn 0.00000000 1.00000000 0.00000000
vn -0.00000000 0.94868330 -0.31622777
vn -0.00000000 0.94868330 -0.31622777
vn -0.00000000 0.94868330 -0.31622777
vn -0.00000000 0.94868330 -0.31622777
vn -0.00000000 0.70710678 -0.70710678
vn -0.00000000 0.70710678 -0.70710678
vn -0.00000000 0.70710678 -0.70710678
vn -0.00000000 0.70710678 -0.70710678
vn -0.00000000 0.70710678 0.70710678
vn -0.00000000 0.70710678 0.70710678
vn -0.00000000 0.70710678 0.70710678
vn -0.00000000 0.70710678 0.70710678
s 1
usemtl Dirt
f 4/4/4 3/3/3 1/1/1
f 3/3/3 2/2/2 1/1/1
s 2
f 4/8/8 1/7/7 5/5/5
f 1/7/7 6/6/6 5/5/5
s 3
f 6/9/9 7/10/10 8/11/11
f 6/9/9 8/11/11 5/12/12
s 4
f 7/13/13 9/14/14 10/15/15
f 7/13/13 10/15/15 8/16/16
s 5
f 3/20/20 12/19/19 2/17/17
f 12/19/19 11/18/18 2/17/17
o Grass
g Grass
v -0.50000000 0.50000000 1.00000000
v -0.50000000 0.50000000 1.50000000
v 0.50000000 0.50000000 1.50000000
v 0.50000000 0.50000000 1.00000000
v -0.50000000 0.46650635 0.87500000
v 0.50000000 0.46650635 0.87500000
v -0.50000000 0.37500000 0.78349365
v 0.50000000 0.37500000 0.78349365
v -0.50000000 0.25000000 0.75000000
v 0.50000000 0.25000000 0.75000000
v -0.50000000 0.15000000 0.75000000
v 0.50000000 0.15000000 0.75000000
vt 1.00000000 0.00000000
vt 1.00000000 1.00000000
vt 0.00000000 1.00000000
vt 0.00000000 0.00000000
vt 1.00000000 0.00000000
vt 1.00000000 1.00000000
vt 0.00000000 1.00000000
vt 0.00000000 0.00000000
vt 1.00000000 0.00000000
vt 1.00000000 1.00000000
vt 0.00000000 1.00000000
vt 0.00000000 0.00000000
vt 1.00000000 0.00000000
vt 1.00000000 1.00000000
vt 0.00000000 1.00000000
vt 0.00000000 0.00000000
vt 1.00000000 0.00000000
vt 1.00000000 1.00000000
vt 0.00000000 1.00000000
vt 0.00000000 0.00000000
vn 0.00000000 1.00000000 0.00000000
vn 0.00000000 1.00000000 0.00000000
vn 0.00000000 1.00000000 0.00000000
vn 0.00000000 1.00000000 0.00000000
vn -0.00000000 0.96592583 -0.25881905
vn -0.00000000 0.96592583 -0.25881905
vn -0.00000000 0.96592583 -0.25881905
vn -0.00000000 0.96592583 -0.25881905
vn -0.00000000 0.70710678 -0.70710678
vn -0.00000000 0.70710678 -0.70710678
vn -0.00000000 0.70710678 -0.70710678
vn -0.00000000 0.70710678 -0.70710678
vn -0.00000000 0.25881905 -0.96592583
vn -0.00000000 0.25881905 -0.96592583
vn -0.00000000 0.25881905 -0.96592583
vn -0.00000000 0.25881905 -0.96592583
vn -0.00000000 0.00000000 -1.00000000
vn -0.00000000 0.00000000 -1.00000000
vn -0.00000000 0.00000000 -1.00000000
vn -0.00000000 0.00000000 -1.00000000
s 1
usemtl Grass
f 13/21/21 14/22/22 15/23/23
f 13/21/21 15/23/23 16/24/24
s 2
f 17/25/25 13/26/26 16/27/27
f 17/25/25 16/27/27 18/28/28
s 3
f 19/29/29 17/30/30 18/31/31
f 19/29/29 18/31/31 20/32/32
s 4
f 21/33/33 19/34/34 20/35/35
f 21/33/33 20/35/35 22/36/36
s 5
f 23/37/37 21/38/38 24/40/40
f 21/38/38 22/39/39 24/40/40
v -0.50000000 0.46650635 -0.87500000
v -0.50000000 0.50000000 -1.00000000
v 0.50000000 0.50000000 -1.00000000
v 0.50000000 0.46650635 -0.87500000
v -0.50000000 0.37500000 -0.78349365
v 0.50000000 0.37500000 -0.78349365
v -0.50000000 0.25000000 -0.75000000
v 0.50000000 0.25000000 -0.75000000
v -0.50000000 0.15000000 -0.75000000
v 0.50000000 0.15000000 -0.75000000
v -0.50000000 0.50000000 -1.50000000
v 0.50000000 0.50000000 -1.50000000
vt 1.00000000 0.00000000
vt 1.00000000 1.00000000
vt 0.00000000 1.00000000
vt 0.00000000 0.00000000
vt 1.00000000 0.00000000
vt 1.00000000 1.00000000
vt 0.00000000 1.00000000
vt 0.00000000 0.00000000
vt 1.00000000 0.00000000
vt 1.00000000 1.00000000
vt 0.00000000 1.00000000
vt 0.00000000 0.00000000
vt 1.00000000 0.00000000
vt 1.00000000 1.00000000
vt 0.00000000 1.00000000
vt 0.00000000 0.00000000
vt 1.00000000 0.00000000
vt 1.00000000 1.00000000
vt 0.00000000 1.00000000
vt 0.00000000 0.00000000
vn -0.00000000 0.96592583 0.25881905
vn -0.00000000 0.96592583 0.25881905
vn -0.00000000 0.96592583 0.25881905
vn -0.00000000 0.96592583 0.25881905
vn -0.00000000 0.70710678 0.70710678
vn -0.00000000 0.70710678 0.70710678
vn -0.00000000 0.70710678 0.70710678
vn -0.00000000 0.70710678 0.70710678
vn -0.00000000 0.25881905 0.96592583
vn -0.00000000 0.25881905 0.96592583
vn -0.00000000 0.25881905 0.96592583
vn -0.00000000 0.25881905 0.96592583
vn -0.00000000 0.00000000 1.00000000
vn -0.00000000 0.00000000 1.00000000
vn -0.00000000 0.00000000 1.00000000
vn -0.00000000 0.00000000 1.00000000
vn 0.00000000 1.00000000 -0.00000000
vn 0.00000000 1.00000000 -0.00000000
vn 0.00000000 1.00000000 -0.00000000
vn 0.00000000 1.00000000 -0.00000000
s 1
usemtl Grass
f 28/44/44 27/43/43 25/41/41
f 27/43/43 26/42/42 25/41/41
s 2
f 30/48/48 28/47/47 29/45/45
f 28/47/47 25/46/46 29/45/45
s 3
f 32/52/52 30/51/51 31/49/49
f 30/51/51 29/50/50 31/49/49
s 4
f 34/56/56 32/55/55 33/53/53
f 32/55/55 31/54/54 33/53/53
s 5
f 27/60/60 36/59/59 26/57/57
f 36/59/59 35/58/58 26/57/57
